<?xml version="1.0" encoding="utf-8"?>
<!-- Generator: Adobe Illustrator 22.0.1, SVG Export Plug-In . SVG Version: 6.00 Build 0)  -->
<svg version="1.1" id="Layer_1" xmlns="http://www.w3.org/2000/svg" xmlns:xlink="http://www.w3.org/1999/xlink" x="0px" y="0px"
	 viewBox="0 0 299.7 350" enable-background="new 0 0 299.7 350" xml:space="preserve">
<path fill="#BD00E7" d="M153.6,80l-11.2-6.7c0.5-1.3,1-2.7,1.5-4.1l-26.5-15.9L97.7,86.4c-7.9,2.1-17.3,4.9-26.7,8.2
	c-16.1,5.5-26.8,18.2-26.8,30.3c3.7-9,12.8-17.3,25-21.5c5.4-1.9,10.3-3.6,14.7-5.2c-3.4,2.1-6.8,4.4-10.3,6.7
	c-7.4,5-12.9,11.5-16,18.2c-0.2,0.4-0.4,0.8-0.7,1.2c-9.9,6.9-21.1,9.6-30.2,7.8c5.2,3.4,12,4.6,19.2,3.5
	c-6.6,2.4-13.3,3.1-19.1,1.9c4.2,2.8,9.5,4,15.2,3.9c-0.7,0.7-1.4,1.3-2.1,2c-1.2-0.1-2.4-0.2-3.5-0.5c0.8,0.5,1.7,1,2.6,1.4
	c-6.7,7.3-10.1,16-9,23.8c1.6-6.2,5.4-12.4,11.2-17.6c1.9,0.7,3.9,1.2,6.1,1.4c-7.5,9.9-10.1,21.6-6.6,30.4c0-3.6,0.8-7.3,2.2-11
	c3.3-5.8,8.5-11.3,15.3-15.5c-0.5,2.3-1,4.7-1.5,7.3c-5.5,7.4-8.2,15.7-7.8,23.1c-3.2,5-7.1,8.9-11.5,11.4c4.4-0.6,8.7-2.7,12.5-5.9
	c0.1,0.5,0.3,0.9,0.5,1.4c0-0.6,0-1.2,0.1-1.8c1.1-1,2.2-2,3.2-3.2c-0.8,3.8-1.6,8-2.5,12.5c-0.4,2.2-1,4.3-1.7,6.4
	c-0.7,0.5-1.5,1-2.3,1.5c0.6-0.1,1.2-0.2,1.9-0.4c-3.3,9.1-9.1,16.3-15.8,20.2c6.1-0.9,11.9-4.4,16.6-9.9c-0.6,3-1.2,6.1-1.9,9.5
	c-0.7,3.6-1.8,7-3.2,10.2c-0.6,0.4-1.2,0.8-1.8,1.1c0.5-0.1,0.9-0.1,1.4-0.2c-3.4,7.4-8.5,13.3-14.3,16.6c5.7-0.8,11.2-4,15.8-9
	c1.4,1.2,2.7,2.5,3.9,3.9c-0.9,4.2-2.4,8.1-4.2,11.6c-1.8,1.7-3.7,3.2-5.7,4.4c1.2-0.2,2.5-0.5,3.7-0.9c-3.1,4.9-7.1,8.8-11.4,11.3
	c8.6-1.2,16.7-7.9,21.8-17.8c0.3-0.3,0.7-0.7,1-1c0.9,1.7,1.7,3.4,2.4,5.3c-1.8,3.3-4.1,6.5-6.8,9.5c-8.7,9.5-19.9,14.6-29.7,14.4
	c7,3,15.9,2.2,24.4-1.9c-1.1,0.9-2.2,1.6-3.4,2.3c3.3-0.5,6.5-1.7,9.5-3.7c-0.7,0.9-1.4,1.7-2.2,2.6c-4.7,5.2-10.2,9-15.8,11.5
	c-0.9,0.1-1.9,0.1-2.8,0.1c0.4,0.2,0.9,0.4,1.3,0.5c-4.2,1.6-8.4,2.4-12.4,2.3c6.5,2.8,14.7,2.3,22.6-1.1c4.8-0.4,9.8-2,14.7-4.6
	c-1.7,3.6-4,7-7.1,10c-6.7,4.4-13.9,6.7-20.5,6.5c2.6,1.1,5.4,1.7,8.3,1.8c-6.2,2.9-13.8,4.9-23,5.7c26.9,4.1,42.4-3.3,51.1-11.6
	c-6.1,11.3-19.1,20.4-41.4,22.4c47.8,7.3,59.6-21.9,61.6-27.4c11-33.9-19.3-92.5-8.3-126.4C100.1,111.5,140.9,119,153.6,80L153.6,80
	z M62.3,137.9c-1.1,0.6-2.2,1.2-3.3,1.7C60.1,139,61.2,138.4,62.3,137.9L62.3,137.9L62.3,137.9L62.3,137.9z M46.5,146.5
	c1.8,0.2,3.6,0.3,5.5,0.3c-0.4,0.4-0.7,0.7-1.1,1.1c-2.6,0.6-5.1,0.9-7.6,1C44.4,148,45.4,147.2,46.5,146.5L46.5,146.5z M68.8,163.1
	c-1,4.6-2,9.7-3.2,15.4c0.3-4.6,1-9,2.3-13C68.2,164.7,68.5,163.9,68.8,163.1z"/>
<path fill="#E93F4B" d="M154,76L141.9,71c0.3-1.4,0.6-2.8,0.9-4.3l-28.6-11.6L99.9,90.9c-7.5,3.3-16.3,7.5-25.1,12.2
	c-15,7.9-23.7,22.1-21.9,34c2.3-9.5,10-19.1,21.4-25.1c5-2.7,9.6-5.1,13.8-7.4c-3,2.6-6.1,5.4-9.1,8.2c-6.6,6.1-11,13.3-13,20.5
	c-0.2,0.4-0.3,0.8-0.5,1.2c-8.7,8.4-19.4,12.7-28.6,12.3c5.6,2.6,12.6,2.7,19.6,0.5c-6.2,3.4-12.7,5.1-18.6,4.8
	c4.6,2.1,10,2.5,15.6,1.5c-0.6,0.8-1.2,1.5-1.8,2.3c-1.2,0.1-2.4,0.1-3.5,0.1c0.9,0.4,1.8,0.7,2.8,1c-5.5,8.2-7.5,17.4-5.2,24.9
	c0.6-6.4,3.5-13.1,8.3-19.1c2,0.4,4.1,0.6,6.2,0.5c-5.9,11-6.7,22.9-1.9,31.1c-0.5-3.5-0.3-7.3,0.5-11.2c2.3-6.3,6.7-12.5,12.8-17.6
	c-0.1,2.4-0.2,4.8-0.4,7.4c-4.3,8.2-5.7,16.8-4.1,24c-2.4,5.4-5.7,9.9-9.6,13.1c4.3-1.3,8.2-4,11.4-7.7c0.2,0.4,0.4,0.9,0.7,1.3
	c-0.1-0.6-0.1-1.2-0.2-1.8c0.9-1.1,1.8-2.3,2.6-3.6c-0.2,3.9-0.4,8.1-0.6,12.7c-0.1,2.3-0.3,4.5-0.7,6.6c-0.6,0.6-1.3,1.2-2,1.8
	c0.6-0.2,1.2-0.4,1.8-0.6C68.6,228.2,64,236.2,58,241c5.9-1.8,11.1-6.2,14.9-12.4c-0.1,3-0.3,6.2-0.4,9.6c-0.2,3.7-0.7,7.2-1.6,10.5
	c-0.5,0.5-1.1,1-1.6,1.4c0.5-0.1,0.9-0.3,1.3-0.5c-2.3,7.9-6.4,14.4-11.6,18.6c5.5-1.7,10.5-5.7,14.2-11.3c1.5,0.9,3,2,4.5,3.2
	c-0.3,4.3-1.1,8.4-2.4,12.1c-1.5,2-3.2,3.7-5,5.2c1.2-0.4,2.4-0.8,3.5-1.4c-2.4,5.3-5.6,9.7-9.5,12.9c8.3-2.5,15.3-10.4,18.9-20.9
	c0.3-0.4,0.6-0.7,0.8-1.1c1.2,1.5,2.2,3.1,3.2,4.8c-1.3,3.5-3,7.1-5.3,10.5c-7.1,10.7-17.4,17.5-27.1,18.8c7.4,1.9,16-0.3,23.8-5.7
	c-0.9,1-1.9,1.9-3,2.8c3.2-1,6.2-2.7,8.8-5.1c-0.6,1-1.2,1.9-1.8,2.9c-3.9,5.8-8.7,10.5-13.9,13.7c-0.9,0.2-1.8,0.4-2.7,0.5
	c0.5,0.1,0.9,0.2,1.4,0.3c-3.9,2.2-7.9,3.7-11.9,4.2c6.9,1.8,14.9,0,22.2-4.6c4.7-1.1,9.4-3.4,13.8-6.8c-1.1,3.8-2.9,7.5-5.5,11
	c-5.9,5.4-12.7,8.7-19.2,9.6c2.7,0.7,5.6,0.8,8.5,0.5c-5.7,3.8-12.9,7-21.9,9.2c27.2,0,41.3-9.8,48.7-19.3
	c-4.3,12.1-15.7,23.1-37.5,28.5c48.3-0.1,55.5-30.7,56.6-36.5c5.7-35.2-33.2-88.4-27.5-123.7C106,115.3,147.5,116.5,154,76L154,76z
	 M72.7,147.2c-1,0.8-2,1.5-3,2.2C70.7,148.6,71.7,147.9,72.7,147.2L72.7,147.2L72.7,147.2L72.7,147.2z M58.4,158
	c1.8,0,3.6-0.2,5.5-0.6c-0.3,0.4-0.6,0.9-0.9,1.3c-2.4,1-4.9,1.7-7.3,2.1C56.5,159.9,57.5,159,58.4,158L58.4,158z M83,171.1
	c-0.3,4.7-0.5,9.9-0.8,15.7c-0.4-4.6-0.4-9,0.3-13.2C82.7,172.7,82.8,171.9,83,171.1z"/>
<path fill="#30B2E6" d="M158.6,73.9L147,67.7c0.5-1.3,0.9-2.7,1.3-4.2l-27.2-14.6l-18,34c-7.8,2.5-17,5.7-26.3,9.4
	c-15.8,6.3-25.9,19.4-25.4,31.5c3.3-9.2,12-17.9,24-22.6c5.3-2.1,10.1-4.1,14.5-5.8c-3.3,2.3-6.6,4.7-10,7.2
	c-7.2,5.3-12.3,12.1-15.1,19c-0.2,0.4-0.4,0.8-0.6,1.2c-9.5,7.4-20.6,10.5-29.8,9.1c5.3,3.2,12.2,4,19.4,2.6
	c-6.5,2.7-13.1,3.7-19,2.8c4.3,2.6,9.6,3.6,15.3,3.2c-0.7,0.7-1.4,1.4-2,2.1c-1.2,0-2.4-0.1-3.5-0.3c0.8,0.5,1.7,0.9,2.6,1.3
	c-6.4,7.6-9.4,16.5-7.9,24.2c1.3-6.3,4.9-12.6,10.3-18.1c1.9,0.6,4,1,6.1,1.1c-7.1,10.3-9.1,22-5.2,30.7c-0.1-3.6,0.5-7.3,1.7-11.1
	c3-6,8-11.7,14.6-16.2c-0.4,2.3-0.8,4.8-1.2,7.3c-5.1,7.6-7.5,16.1-6.7,23.4c-2.9,5.1-6.7,9.2-10.9,12c4.4-0.8,8.5-3.1,12.2-6.4
	c0.2,0.4,0.3,0.9,0.5,1.3c0-0.6,0-1.2,0-1.8c1.1-1,2.1-2.1,3-3.3c-0.6,3.9-1.3,8.1-1.9,12.6c-0.3,2.2-0.8,4.4-1.4,6.5
	c-0.7,0.6-1.4,1.1-2.2,1.6c0.6-0.1,1.2-0.3,1.8-0.4c-2.9,9.3-8.3,16.7-14.8,20.9c6-1.1,11.7-5,16.1-10.7c-0.5,3-1,6.2-1.5,9.5
	c-0.5,3.6-1.5,7.1-2.7,10.3c-0.6,0.4-1.2,0.8-1.7,1.2c0.5-0.1,0.9-0.2,1.4-0.3c-3.1,7.6-7.9,13.7-13.5,17.3c5.7-1.1,11-4.6,15.3-9.7
	c1.4,1.1,2.8,2.3,4.1,3.7c-0.8,4.2-2,8.2-3.7,11.8c-1.7,1.8-3.6,3.4-5.5,4.6c1.2-0.2,2.5-0.6,3.7-1c-2.9,5-6.7,9.1-10.8,11.8
	c8.5-1.6,16.3-8.7,21-18.7c0.3-0.3,0.6-0.7,0.9-1c1,1.6,1.9,3.4,2.6,5.1c-1.6,3.4-3.8,6.7-6.4,9.8c-8.2,9.9-19.2,15.5-29,15.8
	c7.1,2.7,16,1.5,24.3-3.1c-1,0.9-2.1,1.7-3.3,2.4c3.3-0.6,6.4-2,9.3-4.1c-0.7,0.9-1.4,1.8-2.1,2.7c-4.5,5.4-9.8,9.5-15.3,12.2
	c-0.9,0.1-1.9,0.2-2.8,0.2c0.4,0.2,0.9,0.3,1.3,0.5c-4.1,1.8-8.3,2.8-12.3,2.9c6.6,2.5,14.8,1.6,22.6-2.2c4.8-0.6,9.7-2.4,14.5-5.3
	c-1.5,3.7-3.7,7.2-6.6,10.4c-6.5,4.7-13.6,7.3-20.2,7.5c2.6,1,5.5,1.4,8.4,1.4c-6.1,3.2-13.6,5.6-22.7,6.8
	c27,2.9,42.2-5.3,50.5-13.9c-5.6,11.6-18.1,21.3-40.3,24.3c48.1,5.1,58.5-24.6,60.2-30.2c9.5-34.4-23.6-91.5-14.1-125.9
	C106.6,107.9,147.7,113.4,158.6,73.9L158.6,73.9z M70,136c-1.1,0.7-2.1,1.3-3.2,1.8C67.9,137.2,69,136.5,70,136L70,136L70,136
	L70,136z M54.7,145.2c1.8,0.2,3.6,0.2,5.5,0c-0.4,0.4-0.7,0.8-1.1,1.2c-2.5,0.7-5.1,1.2-7.5,1.3C52.6,146.9,53.7,146,54.7,145.2
	L54.7,145.2z M77.7,160.8c-0.8,4.6-1.6,9.8-2.5,15.5c0.1-4.6,0.6-9,1.7-13.1C77.2,162.4,77.5,161.6,77.7,160.8z"/>
<path fill="#FFCA61" d="M158.2,75l-11.8-5.7c0.4-1.4,0.8-2.8,1.1-4.2l-27.8-13.4l-16.5,34.7c-7.7,2.8-16.8,6.5-25.8,10.6
	c-15.5,7-25,20.5-24,32.6c2.9-9.3,11.2-18.4,22.9-23.7c5.2-2.3,9.9-4.5,14.2-6.5c-3.2,2.4-6.4,5-9.6,7.6
	c-6.9,5.6-11.8,12.6-14.2,19.6c-0.2,0.4-0.4,0.8-0.5,1.2c-9.2,7.8-20.1,11.4-29.3,10.5c5.5,2.9,12.4,3.5,19.5,1.7
	c-6.4,3-13,4.3-18.8,3.6c4.4,2.4,9.8,3.2,15.4,2.5c-0.7,0.7-1.3,1.4-1.9,2.2c-1.2,0-2.4,0-3.5-0.2c0.9,0.5,1.8,0.9,2.7,1.2
	c-6,7.9-8.6,16.9-6.8,24.6c1-6.3,4.3-12.8,9.5-18.5c2,0.5,4,0.8,6.2,0.9c-6.6,10.6-8.1,22.4-3.8,30.9c-0.3-3.5,0.1-7.3,1.2-11.1
	c2.7-6.1,7.5-12,13.9-16.8c-0.3,2.3-0.5,4.8-0.8,7.4c-4.8,7.9-6.8,16.4-5.6,23.7c-2.7,5.2-6.3,9.5-10.4,12.4c4.3-1,8.4-3.5,11.9-7
	c0.2,0.4,0.4,0.9,0.6,1.3c0-0.6-0.1-1.2-0.1-1.8c1-1.1,2-2.2,2.9-3.4c-0.4,3.9-0.9,8.1-1.4,12.6c-0.2,2.2-0.6,4.4-1.1,6.5
	c-0.7,0.6-1.4,1.1-2.1,1.7c0.6-0.1,1.2-0.3,1.8-0.5c-2.5,9.4-7.6,17.1-13.9,21.5c6-1.4,11.4-5.5,15.6-11.4c-0.3,3-0.7,6.2-1,9.6
	c-0.4,3.7-1.1,7.1-2.2,10.4c-0.6,0.5-1.1,0.9-1.7,1.3c0.5-0.1,0.9-0.2,1.4-0.4c-2.7,7.7-7.3,14-12.8,17.9c5.6-1.3,10.8-5,14.9-10.4
	c1.5,1,2.9,2.2,4.2,3.5c-0.6,4.3-1.6,8.3-3.1,11.9c-1.6,1.9-3.4,3.5-5.3,4.9c1.2-0.3,2.4-0.7,3.6-1.2c-2.7,5.1-6.2,9.4-10.3,12.2
	c8.5-2,15.9-9.4,20.1-19.7c0.3-0.4,0.6-0.7,0.9-1.1c1.1,1.6,2,3.3,2.9,5c-1.5,3.5-3.5,6.9-5.9,10.1c-7.8,10.3-18.5,16.3-28.2,17
	c7.2,2.4,16,0.8,24.1-4.1c-1,1-2.1,1.8-3.1,2.6c3.2-0.8,6.3-2.3,9.1-4.5c-0.6,0.9-1.3,1.9-2,2.8c-4.2,5.6-9.4,9.9-14.7,12.8
	c-0.9,0.2-1.8,0.3-2.8,0.3c0.4,0.1,0.9,0.3,1.4,0.4c-4,2-8.2,3.2-12.1,3.5c6.8,2.2,14.8,1,22.4-3.2c4.7-0.8,9.6-2.8,14.2-5.9
	c-1.4,3.7-3.4,7.3-6.2,10.7c-6.2,5-13.2,7.9-19.8,8.4c2.7,0.9,5.5,1.2,8.5,1c-5.9,3.4-13.3,6.2-22.4,7.8
	c27.1,1.7,41.9-7.1,49.9-16.2c-5.1,11.8-17.1,22-39.2,26.1c48.3,3,57.4-27.2,58.8-32.9c7.9-34.8-27.6-90.4-19.7-125.2
	C107.8,111.3,149.1,115,158.2,75L158.2,75z M72.5,141c-1,0.7-2.1,1.4-3.2,2C70.4,142.3,71.5,141.6,72.5,141L72.5,141L72.5,141
	L72.5,141z M57.6,150.9c1.8,0.1,3.6,0,5.5-0.2c-0.3,0.4-0.7,0.8-1,1.2c-2.5,0.8-5,1.4-7.4,1.7C55.6,152.6,56.5,151.7,57.6,150.9
	L57.6,150.9z M81.3,165.4c-0.6,4.7-1.1,9.9-1.8,15.6c-0.1-4.6,0.2-9.1,1.1-13.2C80.8,167.1,81,166.2,81.3,165.4z"/>
<path fill="#BD0063" d="M158.6,64l-11.8-5.7c0.4-1.4,0.8-2.7,1.1-4.2l-27.8-13.4l-16.5,34.7c-7.7,2.8-16.8,6.5-25.8,10.6
	c-15.5,7-25,20.5-24,32.6c2.9-9.3,11.2-18.4,22.9-23.7c5.2-2.3,9.9-4.5,14.2-6.5c-3.2,2.4-6.4,5-9.6,7.6
	c-6.9,5.6-11.8,12.6-14.3,19.6c-0.2,0.4-0.4,0.8-0.5,1.2c-9.2,7.8-20.1,11.4-29.3,10.5c5.5,2.9,12.4,3.5,19.5,1.7
	c-6.4,3-13,4.3-18.8,3.6c4.4,2.4,9.8,3.2,15.4,2.5c-0.7,0.7-1.3,1.4-1.9,2.2c-1.2,0-2.4,0-3.5-0.2c0.9,0.5,1.8,0.9,2.7,1.2
	c-6,7.9-8.6,16.9-6.8,24.6c1-6.3,4.3-12.8,9.5-18.5c2,0.5,4,0.8,6.2,0.9c-6.6,10.6-8.1,22.4-3.8,30.9c-0.3-3.5,0.1-7.3,1.2-11.1
	c2.7-6.1,7.5-12,13.9-16.8c-0.3,2.3-0.5,4.8-0.8,7.4c-4.8,7.9-6.8,16.4-5.6,23.7c-2.7,5.2-6.3,9.5-10.4,12.4c4.3-1,8.4-3.5,11.9-7
	c0.2,0.4,0.4,0.9,0.6,1.3c0-0.6-0.1-1.2-0.1-1.8c1-1.1,2-2.2,2.9-3.4c-0.4,3.9-0.9,8.1-1.4,12.6c-0.2,2.2-0.6,4.4-1.1,6.5
	c-0.7,0.6-1.4,1.1-2.1,1.7c0.6-0.1,1.2-0.3,1.8-0.5c-2.5,9.4-7.6,17.1-13.9,21.5c6-1.4,11.4-5.5,15.6-11.4c-0.3,3-0.7,6.2-1,9.6
	c-0.4,3.7-1.1,7.1-2.2,10.4c-0.6,0.5-1.1,0.9-1.7,1.3c0.5-0.1,0.9-0.2,1.4-0.4c-2.7,7.7-7.3,14-12.8,17.9c5.6-1.3,10.8-5,14.9-10.4
	c1.5,1,2.9,2.2,4.2,3.5c-0.6,4.3-1.6,8.3-3.1,11.9c-1.6,1.9-3.4,3.5-5.3,4.9c1.2-0.3,2.4-0.7,3.6-1.2c-2.7,5.1-6.2,9.4-10.3,12.2
	c8.4-2,15.9-9.4,20.1-19.7c0.3-0.4,0.6-0.7,0.9-1.1c1.1,1.6,2,3.3,2.9,5c-1.5,3.5-3.5,6.9-5.9,10.1c-7.8,10.3-18.5,16.3-28.2,17
	c7.2,2.4,16,0.8,24.1-4.1c-1,1-2.1,1.8-3.1,2.6c3.2-0.8,6.3-2.3,9.1-4.5c-0.6,0.9-1.3,1.9-2,2.8c-4.2,5.6-9.4,9.9-14.7,12.8
	c-0.9,0.2-1.8,0.3-2.8,0.3c0.4,0.1,0.9,0.3,1.4,0.4c-4,2-8.2,3.2-12.1,3.5c6.8,2.2,14.8,1,22.4-3.2c4.7-0.8,9.6-2.8,14.2-5.9
	c-1.4,3.7-3.4,7.3-6.2,10.7c-6.3,5-13.2,7.9-19.8,8.4c2.7,0.9,5.5,1.2,8.5,1c-5.9,3.4-13.3,6.2-22.4,7.8
	c27.1,1.7,41.9-7.1,49.9-16.2c-5.1,11.8-17.1,22-39.2,26.1c48.3,3,57.4-27.2,58.8-32.9c7.9-34.8-27.6-90.4-19.7-125.2
	C108.2,100.3,149.5,104,158.6,64L158.6,64z M72.9,130c-1,0.7-2.1,1.4-3.2,2C70.8,131.3,71.9,130.6,72.9,130L72.9,130L72.9,130
	L72.9,130z M58,139.9c1.8,0.1,3.6,0,5.5-0.2c-0.3,0.4-0.7,0.8-1,1.2c-2.5,0.8-5,1.4-7.4,1.7C56,141.7,57,140.8,58,139.9L58,139.9z
	 M81.7,154.5c-0.6,4.7-1.1,9.9-1.8,15.6c-0.1-4.6,0.2-9.1,1.1-13.2C81.3,156.1,81.5,155.3,81.7,154.5z"/>
<path fill="#A600FF" d="M160.3,80c12.7,39,53.5,31.5,75.9,96.3c11,33.9-19.3,92.5-8.3,126.4c2,5.5,13.8,34.7,61.6,27.4
	c-22.3-2-35.3-11.1-41.4-22.4c8.8,8.3,24.3,15.7,51.1,11.6c-9.2-0.8-16.8-2.9-23-5.7c3-0.1,5.8-0.7,8.3-1.8
	c-6.6,0.1-13.8-2.1-20.5-6.5c-3.1-3.1-5.4-6.5-7.1-10c4.8,2.7,9.9,4.2,14.7,4.6c7.9,3.4,16.1,3.9,22.6,1.1c-4,0.1-8.2-0.7-12.4-2.3
	c0.4-0.2,0.9-0.3,1.3-0.5c-0.9,0-1.8,0-2.8-0.1c-5.6-2.4-11.1-6.3-15.8-11.5c-0.8-0.8-1.5-1.7-2.2-2.6c3,1.9,6.2,3.2,9.5,3.7
	c-1.2-0.7-2.3-1.4-3.4-2.3c8.5,4.1,17.4,4.9,24.4,1.9c-9.8,0.2-21-4.9-29.7-14.4c-2.8-3-5-6.2-6.8-9.5c0.7-1.8,1.5-3.6,2.4-5.3
	c0.3,0.3,0.7,0.7,1,1c5.1,9.8,13.2,16.5,21.8,17.8c-4.3-2.5-8.2-6.4-11.4-11.3c1.2,0.4,2.5,0.7,3.7,0.9c-2-1.2-3.9-2.6-5.7-4.4
	c-1.8-3.5-3.3-7.4-4.2-11.6c1.2-1.4,2.5-2.7,3.9-3.9c4.6,5,10.1,8.2,15.8,9c-5.8-3.4-10.9-9.2-14.3-16.6c0.5,0.1,0.9,0.2,1.4,0.2
	c-0.6-0.4-1.2-0.7-1.8-1.1c-1.4-3.1-2.4-6.5-3.2-10.2c-0.7-3.3-1.3-6.5-1.9-9.5c4.7,5.5,10.5,9.1,16.6,9.9
	c-6.7-3.9-12.5-11.1-15.8-20.2c0.6,0.1,1.2,0.3,1.9,0.4c-0.8-0.4-1.5-0.9-2.3-1.5c-0.7-2-1.3-4.2-1.7-6.4c-0.9-4.5-1.7-8.6-2.5-12.5
	c1,1.1,2.1,2.2,3.2,3.2c0,0.6,0.1,1.2,0.1,1.8c0.2-0.4,0.3-0.9,0.5-1.4c3.8,3.2,8.1,5.2,12.5,5.9c-4.4-2.5-8.3-6.5-11.5-11.4
	c0.4-7.4-2.3-15.7-7.8-23.1c-0.5-2.5-1-5-1.5-7.3c6.8,4.2,12,9.6,15.3,15.5c1.4,3.7,2.2,7.4,2.2,11c3.5-8.9,0.9-20.5-6.6-30.4
	c2.1-0.2,4.2-0.7,6.1-1.4c5.7,5.2,9.6,11.4,11.2,17.6c1.1-7.8-2.3-16.6-9-23.8c0.9-0.4,1.7-0.9,2.6-1.4c-1.1,0.2-2.3,0.4-3.5,0.5
	c-0.7-0.7-1.4-1.3-2.1-2c5.7,0.2,11-1.1,15.2-3.9c-5.8,1.2-12.5,0.5-19.1-1.9c7.2,1.1,14.1-0.1,19.2-3.5c-9.1,1.8-20.3-0.8-30.2-7.8
	c-0.2-0.4-0.4-0.8-0.7-1.2c-3.1-6.7-8.6-13.2-16-18.2c-3.5-2.3-6.9-4.6-10.3-6.7c4.4,1.6,9.3,3.3,14.7,5.2
	c12.2,4.2,21.3,12.5,25,21.5c0-12.1-10.8-24.7-26.8-30.3c-9.4-3.2-18.7-6.1-26.7-8.2l-19.6-33.1L170,69.2c0.5,1.4,1,2.8,1.5,4.1
	L160.3,80L160.3,80z M251.6,137.9L251.6,137.9L251.6,137.9c1.1,0.5,2.2,1.1,3.3,1.7C253.8,139.1,252.7,138.5,251.6,137.9
	L251.6,137.9z M267.3,146.5c1.1,0.8,2.2,1.5,3.2,2.4c-2.5-0.1-5-0.4-7.6-1c-0.4-0.4-0.7-0.8-1.1-1.1
	C263.7,146.8,265.6,146.7,267.3,146.5L267.3,146.5z M245.9,165.5c1.3,4,2,8.4,2.3,13c-1.1-5.7-2.2-10.8-3.2-15.4
	C245.3,163.9,245.6,164.7,245.9,165.5z"/>
<path fill="#E93F4B" d="M159.8,76c6.6,40.5,48,39.4,60.2,106.8c5.7,35.2-33.2,88.4-27.5,123.7c1.1,5.8,8.3,36.4,56.6,36.5
	c-21.8-5.4-33.2-16.3-37.5-28.5c7.4,9.5,21.6,19.2,48.7,19.3c-9-2.2-16.2-5.4-21.9-9.2c2.9,0.4,5.8,0.2,8.5-0.5
	c-6.5-0.9-13.3-4.2-19.2-9.6c-2.6-3.5-4.4-7.2-5.5-11c4.4,3.4,9.1,5.7,13.8,6.8c7.3,4.6,15.3,6.4,22.2,4.6c-3.9-0.5-8-2-11.9-4.2
	c0.5-0.1,0.9-0.2,1.4-0.3c-0.9-0.1-1.8-0.3-2.7-0.5c-5.2-3.2-10-7.9-13.9-13.7c-0.6-1-1.2-1.9-1.8-2.9c2.7,2.4,5.7,4.1,8.8,5.1
	c-1-0.8-2-1.8-3-2.8c7.8,5.4,16.4,7.6,23.8,5.7c-9.7-1.3-20-8.1-27.1-18.8c-2.3-3.4-4-6.9-5.3-10.5c1-1.7,2-3.3,3.2-4.8
	c0.3,0.4,0.5,0.8,0.8,1.1c3.5,10.5,10.5,18.4,18.9,20.9c-3.9-3.1-7.2-7.6-9.5-12.9c1.1,0.6,2.3,1.1,3.5,1.4c-1.8-1.5-3.5-3.2-5-5.2
	c-1.3-3.7-2.1-7.8-2.4-12.1c1.4-1.2,2.9-2.3,4.5-3.2c3.7,5.6,8.7,9.6,14.2,11.3c-5.2-4.2-9.4-10.8-11.6-18.6
	c0.4,0.2,0.9,0.3,1.3,0.5c-0.5-0.4-1.1-0.9-1.6-1.4c-0.9-3.3-1.4-6.8-1.6-10.5c-0.1-3.4-0.3-6.6-0.4-9.6c3.8,6.2,9,10.6,14.9,12.4
	c-6-4.9-10.6-12.9-12.5-22.4c0.6,0.2,1.2,0.4,1.8,0.6c-0.7-0.6-1.4-1.2-2-1.8c-0.4-2.1-0.6-4.3-0.7-6.6c-0.2-4.6-0.4-8.8-0.6-12.7
	c0.8,1.3,1.7,2.5,2.6,3.6c0,0.6-0.1,1.2-0.2,1.8c0.2-0.4,0.5-0.8,0.7-1.3c3.3,3.7,7.2,6.4,11.4,7.7c-3.9-3.2-7.2-7.7-9.6-13.1
	c1.6-7.2,0.1-15.8-4.1-24c-0.1-2.6-0.2-5.1-0.4-7.4c6.1,5.2,10.4,11.4,12.8,17.6c0.8,3.9,1,7.7,0.5,11.2c4.8-8.2,4-20.1-1.9-31.1
	c2.1,0.1,4.2-0.1,6.2-0.5c4.8,6,7.7,12.7,8.3,19.1c2.3-7.6,0.3-16.7-5.3-24.9c0.9-0.3,1.9-0.6,2.8-1c-1.2,0-2.3,0-3.5-0.1
	c-0.6-0.8-1.1-1.5-1.8-2.3c5.6,1,11,0.6,15.6-1.5c-5.9,0.3-12.4-1.4-18.6-4.8c7,2.2,13.9,2.1,19.6-0.5c-9.3,0.4-19.9-3.9-28.6-12.3
	c-0.1-0.4-0.3-0.8-0.5-1.2c-2-7.1-6.4-14.4-13-20.5c-3.1-2.8-6.1-5.6-9.1-8.2c4.1,2.2,8.7,4.7,13.8,7.4c11.4,6,19.1,15.6,21.4,25.1
	c1.8-12-6.8-26.1-21.9-34c-8.8-4.6-17.6-8.9-25.1-12.2l-14.3-35.7l-28.6,11.6c0.2,1.5,0.5,2.9,0.9,4.3L159.8,76L159.8,76z
	 M241.2,147.2L241.2,147.2L241.2,147.2c1,0.7,2,1.4,3,2.2C243.2,148.7,242.2,148,241.2,147.2L241.2,147.2z M255.4,158
	c1,0.9,1.9,1.9,2.8,2.8c-2.4-0.4-4.9-1.1-7.3-2.1c-0.3-0.4-0.6-0.9-0.9-1.3C251.8,157.8,253.6,158,255.4,158L255.4,158z
	 M231.3,173.6c0.7,4.2,0.7,8.6,0.3,13.2c-0.2-5.8-0.5-11-0.8-15.7C231,171.9,231.2,172.7,231.3,173.6z"/>
<path fill="#30B2E6" d="M155.3,73.9c10.9,39.6,51.9,34,71.4,99.7c9.5,34.4-23.6,91.5-14.1,125.9c1.7,5.6,12.2,35.3,60.2,30.2
	c-22.2-3-34.7-12.7-40.3-24.3c8.4,8.7,23.5,16.8,50.5,13.9c-9.2-1.2-16.7-3.6-22.7-6.8c3,0,5.8-0.4,8.4-1.4
	c-6.6-0.2-13.7-2.8-20.2-7.5c-2.9-3.2-5.1-6.7-6.6-10.4c4.7,2.9,9.7,4.7,14.5,5.3c7.8,3.8,15.9,4.7,22.6,2.2
	c-4-0.1-8.2-1.1-12.3-2.9c0.5-0.1,0.9-0.3,1.3-0.5c-0.9,0-1.8-0.1-2.8-0.2c-5.5-2.7-10.8-6.8-15.3-12.2c-0.7-0.9-1.4-1.8-2.1-2.7
	c2.9,2.1,6.1,3.5,9.3,4.1c-1.1-0.7-2.2-1.5-3.3-2.4c8.3,4.5,17.1,5.7,24.3,3.1c-9.8-0.3-20.7-5.9-29-15.8c-2.6-3.1-4.7-6.5-6.4-9.8
	c0.8-1.8,1.7-3.5,2.6-5.1c0.3,0.4,0.6,0.7,0.9,1c4.7,10.1,12.5,17.1,21,18.7c-4.2-2.7-7.9-6.8-10.8-11.8c1.2,0.5,2.4,0.8,3.7,1
	c-2-1.3-3.8-2.8-5.5-4.6c-1.7-3.6-2.9-7.5-3.7-11.8c1.3-1.3,2.6-2.6,4.1-3.7c4.3,5.2,9.7,8.7,15.3,9.7c-5.6-3.6-10.5-9.7-13.5-17.3
	c0.5,0.1,0.9,0.2,1.4,0.3c-0.6-0.4-1.2-0.8-1.7-1.2c-1.2-3.2-2.1-6.6-2.7-10.3c-0.5-3.4-1-6.5-1.5-9.5c4.4,5.7,10.1,9.6,16.1,10.7
	c-6.5-4.2-11.9-11.6-14.8-20.9c0.6,0.2,1.2,0.3,1.8,0.4c-0.7-0.5-1.5-1-2.2-1.6c-0.6-2.1-1.1-4.2-1.4-6.5c-0.7-4.5-1.3-8.7-1.9-12.6
	c1,1.2,2,2.3,3,3.3c0,0.6,0,1.2,0,1.8c0.2-0.4,0.4-0.9,0.5-1.3c3.7,3.4,7.8,5.6,12.2,6.4c-4.2-2.7-8-6.9-10.9-12
	c0.8-7.3-1.6-15.8-6.7-23.4c-0.4-2.6-0.8-5-1.2-7.3c6.6,4.5,11.6,10.2,14.6,16.2c1.2,3.8,1.8,7.5,1.7,11.1
	c3.9-8.7,1.9-20.4-5.2-30.7c2.1-0.1,4.2-0.5,6.1-1.1c5.5,5.5,9.1,11.8,10.3,18.1c1.5-7.8-1.5-16.7-7.9-24.2c0.9-0.4,1.8-0.8,2.6-1.3
	c-1.1,0.2-2.3,0.3-3.5,0.3c-0.6-0.7-1.3-1.4-2-2.1c5.7,0.4,11-0.6,15.3-3.2c-5.8,0.9-12.5-0.1-19-2.8c7.2,1.4,14.1,0.6,19.4-2.6
	c-9.2,1.4-20.2-1.7-29.8-9.1c-0.2-0.4-0.4-0.8-0.6-1.2c-2.8-6.9-7.9-13.6-15.1-19c-3.3-2.5-6.7-4.9-10-7.2c4.3,1.8,9.2,3.7,14.5,5.8
	c12,4.8,20.7,13.4,24,22.6c0.5-12.1-9.6-25.2-25.4-31.5c-9.2-3.7-18.4-6.9-26.3-9.4l-18-34l-27.2,14.6c0.4,1.4,0.8,2.8,1.3,4.2
	L155.3,73.9L155.3,73.9z M243.8,136L243.8,136L243.8,136c1,0.5,2.1,1.2,3.2,1.8C245.9,137.3,244.9,136.7,243.8,136L243.8,136z
	 M259.1,145.2c1.1,0.8,2.1,1.6,3.1,2.5c-2.5-0.2-5-0.6-7.5-1.3c-0.3-0.4-0.7-0.8-1.1-1.2C255.5,145.4,257.3,145.4,259.1,145.2
	L259.1,145.2z M236.8,163.2c1.1,4.1,1.6,8.5,1.7,13.1c-0.9-5.7-1.7-10.9-2.5-15.5C236.4,161.6,236.6,162.4,236.8,163.2z"/>
<path fill="#FFB961" d="M155.7,75c9.1,40,50.4,36.3,66.8,102.8c7.9,34.8-27.6,90.4-19.7,125.2c1.5,5.7,10.6,35.8,58.8,32.9
	c-22.1-4-34.1-14.2-39.2-26.1c8,9,22.7,17.8,49.9,16.2c-9.1-1.7-16.5-4.4-22.4-7.8c3,0.2,5.8-0.2,8.5-1c-6.6-0.5-13.6-3.4-19.8-8.4
	c-2.8-3.3-4.8-6.9-6.2-10.7c4.6,3.1,9.5,5.1,14.2,5.9c7.6,4.1,15.7,5.4,22.4,3.2c-4-0.3-8.1-1.5-12.1-3.5c0.5-0.1,0.9-0.2,1.4-0.4
	c-0.9-0.1-1.8-0.2-2.8-0.3c-5.3-2.9-10.5-7.3-14.7-12.8c-0.7-0.9-1.3-1.8-2-2.8c2.8,2.2,5.9,3.8,9.1,4.5c-1.1-0.8-2.1-1.6-3.1-2.6
	c8.1,4.9,16.9,6.5,24.1,4.1c-9.7-0.7-20.5-6.8-28.2-17c-2.5-3.2-4.4-6.7-5.9-10.1c0.9-1.7,1.8-3.4,2.9-5c0.3,0.4,0.6,0.7,0.9,1.1
	c4.2,10.3,11.7,17.7,20.1,19.7c-4.1-2.9-7.6-7.1-10.3-12.2c1.2,0.5,2.4,0.9,3.6,1.2c-1.9-1.3-3.7-3-5.3-4.9
	c-1.5-3.7-2.6-7.7-3.1-11.9c1.3-1.3,2.8-2.5,4.2-3.5c4.1,5.4,9.3,9.1,14.9,10.4c-5.5-3.9-10-10.2-12.8-17.9c0.5,0.1,0.9,0.3,1.4,0.4
	c-0.6-0.4-1.1-0.8-1.7-1.3c-1.1-3.2-1.8-6.7-2.2-10.4c-0.4-3.4-0.7-6.6-1-9.6c4.2,5.9,9.7,10,15.6,11.4
	c-6.3-4.5-11.4-12.2-13.9-21.5c0.6,0.2,1.2,0.4,1.8,0.5c-0.7-0.5-1.4-1.1-2.1-1.7c-0.5-2.1-0.9-4.3-1.1-6.5
	c-0.5-4.5-0.9-8.7-1.4-12.6c0.9,1.2,1.9,2.4,2.9,3.4c0,0.6,0,1.2-0.1,1.8c0.2-0.4,0.4-0.9,0.6-1.3c3.5,3.5,7.6,6,11.9,7
	c-4.1-2.9-7.7-7.2-10.4-12.4c1.1-7.3-0.9-15.8-5.6-23.7c-0.3-2.6-0.6-5-0.8-7.4c6.4,4.8,11.1,10.7,13.9,16.8
	c1.1,3.8,1.5,7.6,1.2,11.1c4.3-8.5,2.8-20.3-3.8-30.9c2.1,0,4.2-0.3,6.2-0.9c5.2,5.7,8.5,12.2,9.5,18.5c1.8-7.7-0.8-16.7-6.8-24.6
	c0.9-0.3,1.8-0.7,2.7-1.2c-1.1,0.1-2.3,0.2-3.5,0.2c-0.6-0.7-1.2-1.5-1.9-2.2c5.7,0.7,11-0.1,15.4-2.5c-5.9,0.6-12.5-0.6-18.8-3.6
	c7.1,1.7,14,1.2,19.5-1.7c-9.2,1-20.1-2.6-29.3-10.5c-0.2-0.4-0.4-0.8-0.5-1.2c-2.5-7-7.3-14-14.3-19.6c-3.2-2.6-6.5-5.2-9.6-7.6
	c4.3,2,9,4.1,14.2,6.5c11.7,5.3,20.1,14.4,22.9,23.7c1.1-12.1-8.5-25.6-24-32.6c-9.1-4.1-18.1-7.7-25.8-10.6l-16.5-34.7l-27.8,13.4
	c0.3,1.5,0.7,2.9,1.1,4.2L155.7,75L155.7,75z M241.4,141L241.4,141L241.4,141c1,0.6,2.1,1.3,3.1,2
	C243.5,142.3,242.4,141.7,241.4,141L241.4,141z M256.3,150.9c1,0.9,2,1.7,3,2.6c-2.4-0.3-4.9-0.8-7.4-1.7c-0.3-0.4-0.7-0.8-1-1.2
	C252.6,150.9,254.5,151,256.3,150.9L256.3,150.9z M233.2,167.9c0.9,4.1,1.3,8.5,1.1,13.2c-0.6-5.8-1.2-11-1.8-15.6
	C232.8,166.2,233,167.1,233.2,167.9z"/>
<path fill="#6500E7" d="M155.3,64c9.1,40,50.4,36.3,66.8,102.8c7.9,34.8-27.6,90.4-19.7,125.2c1.5,5.7,10.6,35.8,58.8,32.9
	c-22.1-4-34.1-14.2-39.2-26.1c8,9,22.7,17.8,49.9,16.2c-9.1-1.7-16.5-4.4-22.4-7.8c3,0.2,5.8-0.2,8.5-1c-6.6-0.5-13.6-3.4-19.8-8.4
	c-2.8-3.3-4.8-6.9-6.2-10.7c4.6,3.1,9.5,5.1,14.2,5.9c7.6,4.1,15.7,5.4,22.4,3.2c-4-0.3-8.1-1.5-12.1-3.5c0.5-0.1,0.9-0.2,1.4-0.4
	c-0.9-0.1-1.8-0.2-2.8-0.3c-5.3-2.9-10.5-7.3-14.7-12.8c-0.7-0.9-1.3-1.8-2-2.8c2.8,2.2,5.9,3.8,9.1,4.5c-1.1-0.8-2.1-1.6-3.1-2.6
	c8.1,4.9,16.9,6.5,24.1,4.1c-9.7-0.7-20.5-6.8-28.2-17c-2.5-3.2-4.4-6.7-5.9-10.1c0.9-1.7,1.8-3.4,2.9-5c0.3,0.4,0.6,0.7,0.9,1.1
	c4.2,10.3,11.7,17.7,20.1,19.7c-4.1-2.9-7.6-7.1-10.3-12.2c1.2,0.5,2.4,0.9,3.6,1.2c-1.9-1.3-3.7-3-5.3-4.9
	c-1.5-3.7-2.6-7.7-3.1-11.9c1.3-1.3,2.8-2.5,4.2-3.5c4.1,5.4,9.3,9.1,14.9,10.4c-5.5-3.9-10-10.2-12.8-17.9c0.5,0.1,0.9,0.3,1.4,0.4
	c-0.6-0.4-1.1-0.8-1.7-1.3c-1.1-3.3-1.8-6.7-2.2-10.4c-0.4-3.4-0.7-6.6-1-9.6c4.2,5.9,9.7,10,15.6,11.4
	c-6.3-4.5-11.4-12.2-13.9-21.5c0.6,0.2,1.2,0.4,1.8,0.5c-0.7-0.5-1.4-1.1-2.1-1.7c-0.5-2.1-0.9-4.3-1.1-6.5
	c-0.5-4.5-0.9-8.7-1.4-12.6c0.9,1.2,1.9,2.4,2.9,3.4c0,0.6,0,1.2-0.1,1.8c0.2-0.4,0.4-0.9,0.6-1.3c3.5,3.5,7.6,6,11.9,7
	c-4.1-2.9-7.7-7.2-10.4-12.4c1.1-7.3-0.9-15.8-5.6-23.7c-0.3-2.6-0.6-5-0.8-7.4c6.4,4.8,11.1,10.7,13.9,16.8
	c1.1,3.8,1.5,7.6,1.2,11.1c4.3-8.5,2.8-20.3-3.8-30.9c2.1,0,4.2-0.3,6.2-0.9c5.2,5.7,8.5,12.2,9.5,18.5c1.8-7.7-0.8-16.7-6.8-24.6
	c0.9-0.3,1.8-0.7,2.7-1.2c-1.1,0.1-2.3,0.2-3.5,0.2c-0.6-0.7-1.2-1.5-1.9-2.2c5.7,0.7,11-0.1,15.4-2.5c-5.9,0.6-12.5-0.6-18.8-3.6
	c7.1,1.7,14,1.2,19.5-1.7c-9.2,1-20.1-2.6-29.3-10.5c-0.2-0.4-0.4-0.8-0.5-1.2c-2.5-7-7.3-14-14.2-19.6c-3.2-2.6-6.5-5.2-9.6-7.6
	c4.3,2,9,4.1,14.2,6.5c11.7,5.3,20.1,14.4,22.9,23.7c1.1-12-8.5-25.6-24-32.6C227,82,218,78.3,210.3,75.5l-16.5-34.7L166,54.2
	c0.3,1.5,0.7,2.9,1.1,4.2L155.3,64L155.3,64z M241,130L241,130L241,130c1,0.6,2.1,1.3,3.1,2C243.1,131.4,242,130.7,241,130L241,130z
	 M255.9,139.9c1,0.9,2,1.7,3,2.6c-2.4-0.3-4.9-0.8-7.4-1.7c-0.3-0.4-0.7-0.8-1-1.2C252.2,139.9,254.1,140,255.9,139.9L255.9,139.9z
	 M232.8,156.9c0.9,4.1,1.3,8.5,1.1,13.2c-0.6-5.8-1.2-11-1.8-15.6C232.4,155.3,232.6,156.1,232.8,156.9z"/>
<path fill="#74B900" d="M230.7,79.1c18.1,8.6,31.9,23.8,37.9,42.2c-12.8-21.5-37.3-36-65.5-36c-0.5,0-0.9,0-1.4,0
	c-10,27.9-28.5,46.5-43.5,57.1c6.7-7.6,10.9-17,13.7-28.3c-8.8,12-18.8,20.9-27.6,27.2c5.7-6.5,9.7-14.4,12.4-23.6
	c-10.2,17.9-23.6,30.6-35.1,38.8c14.3-16.3,17.7-41.4,18.1-74.1c-4.5,40.3-14.7,70.9-33.1,83.9c6.3-7.1,11-16.3,14.4-27.1
	c-5.4,13.8-12.4,24.3-21.3,30.6c9.4-10.7,15.2-25.9,18.7-44.5c-5.7,22.1-14.3,38.7-26.6,47.5c6.2-7.1,10.9-16.2,14.3-26.8
	c-5.4,13.8-12.4,24.4-21.3,30.8c9.7-11.1,15.6-26.9,19-46.2c-5.7,25.3-14.7,44.2-28.2,53.8c8.1-9.2,13.5-21.8,17.1-37
	c-12.1,37.8-43.5,66.4-75.3,78.9c18.5-11.6,35.3-28.5,46.4-49.2c-9.1,12.1-19.5,21.4-30.1,27.2c18.8-16.6,35.2-44,40.6-77.7
	c-8.3,38.8-31,68.2-54,80.9c11.5-10.1,22-24.2,29.7-41.4c-10.8,20-25.4,35-40.2,43.2c10.1-8.9,19.5-21,26.9-35.5
	c-3.8,3-7.7,5.7-11.5,7.8c5.7-5,11.2-11.1,16.2-17.9c2.1-5,3.9-10.3,5.5-15.8c-5.6,5.4-11.6,9.7-17.5,13c7.2-6.3,14-14.3,20-23.5
	c0.4-2,0.8-4,1.1-6c-7.7,8.8-16.1,15.7-24.5,20.4c12.2-10.7,27.8-35,33.6-50.7c-24.8,19-40.5,43.6-46.9,66.1
	c1.2-20.9,12-46.2,32.2-67.8c-8.9,6.8-16.3,14.4-22.1,22.2c5.4-12.1,15-24.5,28.2-35.3c-14.9,6.6-27.5,15.4-37,25
	c8.4-13.4,22.8-26.4,41.5-36c-10,3.7-19,8.4-26.6,13.7c6.7-7.3,15.6-14.1,26.4-19.6c-11.9,3.8-22.6,9.2-31.3,15.4
	c9-9.9,22.2-18.8,38.3-25c-9.4,1.9-18,4.7-25.7,8.3c15.7-12.1,40-20.2,67.6-20.1c9.7-15.2,24.3-30.3,41.4-39.4
	c-7.7,7-14.8,15.6-20.9,24.7c12-11,27.3-20.8,43.5-25.7c-6.2,3.7-12.4,8.3-18.2,13.4c15.7-9.1,36-15.9,55.5-16
	c-17,4.4-35.1,13.9-48.7,24.4c19.7-9.6,46.4-16.5,64.2-3.4c-14.4-6.2-31.6-0.7-46.5,7.1c21.9-5.9,52.5-8.3,68.2,9.6
	c-11.9-8.7-28.7-7.8-44.1-4c22.8,2.6,54.6,12.4,62.3,36.2c-9-15.1-29.7-20.5-48-22.3c21.3,4.9,46,16.5,52.6,37.1
	c-7.3-12.3-22.3-18.1-37.5-20.9c16.7,5.4,32.4,15.1,37.5,30.9C258.5,87.9,244.9,82,230.7,79.1z"/>
<path fill="#B62EFF" d="M210.2,63.6c15.2,5.6,27.5,16.8,33.6,31.2c-11.9-16.4-32.7-26.2-55.4-24.1c-0.4,0-0.7,0.1-1.1,0.1
	c-6,23.2-19.5,39.5-30.8,49.3c4.8-6.6,7.6-14.5,8.9-23.8c-6.2,10.3-13.6,18.2-20.2,23.9c4.1-5.7,6.7-12.3,8.3-20
	c-6.9,15.2-16.8,26.4-25.4,33.9c10.3-14.2,11.2-34.7,9.1-61.1c-0.7,32.8-6.6,58.2-20.4,70.1c4.5-6.2,7.6-13.9,9.6-22.9
	c-3.3,11.5-8.1,20.5-14.9,26.3c6.8-9.3,10.3-22,11.7-37.2c-3,18.2-8.7,32.3-17.9,40.2c4.5-6.2,7.6-13.8,9.5-22.7
	c-3.3,11.5-8.2,20.6-14.9,26.4c7-9.6,10.5-22.8,11.9-38.7c-2.7,20.8-8.6,36.7-18.7,45.4c5.9-8,9.3-18.6,11-31.1
	C97,160.2,73.9,185.6,49.2,198c14-10.7,26.3-25.6,33.7-43.1c-6.4,10.4-14.1,18.7-22.2,24.2c13.9-14.8,25.1-38,26.9-65.6
	c-3.8,31.9-19.9,57.3-37.5,69.2c8.5-9,15.9-21.2,20.9-35.5c-7.2,16.9-17.9,30.1-29.2,37.8c7.5-7.9,14.2-18.4,19-30.6
	c-2.8,2.7-5.7,5.1-8.7,7.1c4.2-4.5,8.2-9.7,11.7-15.7c1.3-4.2,2.4-8.6,3.2-13.2c-4.2,4.7-8.6,8.7-13.1,11.8
	c5.3-5.6,10.2-12.5,14.4-20.4c0.2-1.6,0.3-3.3,0.4-4.9c-5.5,7.7-11.8,13.8-18.2,18.2c9-9.6,19.8-30.2,23.3-43.3
	c-18.6,17.2-29.4,38.2-32.8,56.7c-0.6-16.9,6.2-38.1,20.9-57c-6.6,6.2-12.1,12.8-16.1,19.6c3.4-10.2,10.3-20.9,20.1-30.6
	c-11.5,6.4-21,14.4-28,22.9c5.8-11.4,16.4-23,30.8-32.1c-7.8,3.7-14.7,8.1-20.4,13C53,80.1,59.7,74,67.9,68.8
	c-9.3,4-17.5,9.1-24.1,14.7c6.5-8.7,16.5-16.8,29-22.9c-7.4,2.2-14.2,5.1-20.1,8.6c11.7-10.9,30.7-19.3,53-21.3
	c6.7-12.9,17.3-26.3,30.4-34.9c-5.6,6.2-10.8,13.7-15,21.5c8.8-9.8,20.4-18.8,33.1-23.9c-4.7,3.5-9.4,7.6-13.7,12.1
	c12-8.5,27.8-15.5,43.5-17C170.8,10.6,157,19.5,146.8,29c15.2-9.2,36.1-16.7,51.5-7.5c-12-3.9-25.5,1.8-36.9,9.2
	c17.2-6.4,41.7-10.6,55.7,2.7c-10.3-6.1-23.7-4.1-35.8,0c18.6,0.4,44.9,5.9,52.9,24.5c-8.4-11.5-25.5-14.3-40.3-14.4
	c17.5,2.4,38.3,9.9,45.1,25.9c-6.8-9.3-19.3-12.9-31.8-14c13.8,3.1,27.2,9.7,32.5,22.1C233.2,68.7,221.8,65,210.2,63.6z"/>
<path fill="#E50808" d="M215.9,73.1c13.8,8.4,23.7,21.9,26.9,37.2c-8.5-18.4-27-32.2-49.6-34.5c-0.4,0-0.7-0.1-1.1-0.1
	c-10.4,21.6-26.9,35-39.9,42.3c6-5.5,10.3-12.8,13.4-21.6c-8.1,8.9-16.9,15.2-24.5,19.5c5.2-4.7,9-10.8,12-18
	c-9.7,13.6-21.6,22.6-31.5,28.2c12.9-11.9,17.8-31.8,20.9-58.1c-7.1,32-17.9,55.8-33.7,64.7c5.7-5.2,10.2-12.2,13.9-20.6
	c-5.5,10.6-12,18.5-19.7,22.8c8.5-7.8,14.4-19.6,18.8-34.2c-6.5,17.3-14.8,30-25.5,35.9c5.6-5.2,10.1-12.1,13.8-20.4
	c-5.5,10.7-12,18.6-19.8,22.9c8.8-8.1,14.8-20.3,19.2-35.6c-6.7,19.8-15.6,34.3-27.2,40.9c7.3-6.7,12.8-16.4,16.9-28.3
	c-13,29.4-40.6,49.8-67.3,57.1c15.9-7.8,30.8-20,41.5-35.7c-8.3,9-17.5,15.6-26.5,19.3c16.5-11.7,32-32.4,39.3-59
	c-10,30.5-30.8,52.3-50.4,60.5c10.1-7.2,19.8-17.6,27.4-30.7c-10.4,15.1-23.4,26-36,31.3c8.9-6.3,17.5-15.2,24.7-26.2
	c-3.3,2.1-6.6,3.9-9.9,5.3c5-3.6,9.9-7.9,14.6-13.1c2.1-3.9,4-8,5.7-12.3c-5,3.8-10.1,6.9-15.2,9c6.3-4.5,12.5-10.3,18.1-17.2
	c0.5-1.6,1-3.1,1.4-4.7c-6.9,6.4-14.3,11.3-21.5,14.3c10.7-7.6,25.3-25.8,31.3-37.9c-21.6,13.2-36.3,31.7-43.3,49.2
	c2.7-16.7,13.6-36.1,31.6-51.8c-7.7,4.8-14.3,10.2-19.7,16c5.4-9.3,14.2-18.5,25.7-26c-12.6,4-23.5,10-31.9,17
	C46.5,70.3,59.2,61.1,75,55c-8.4,2.1-16,5.1-22.5,8.8c6-5.3,13.8-10,22.9-13.6c-9.9,2.1-18.9,5.5-26.5,9.7
	c8.1-7.2,19.5-13.2,32.9-16.8c-7.7,0.7-14.9,2.2-21.4,4.5c13.6-8.4,33.9-12.9,56.1-10.5c9.1-11.4,22.2-22.3,36.7-28.2
	c-6.7,5-13.2,11.3-18.9,18.1c10.6-7.9,23.7-14.4,37.2-16.9c-5.3,2.5-10.7,5.6-15.8,9.2c13.4-6,30.3-9.7,46-8.2
	c-14.1,2.1-29.4,8.2-41.2,15.5c16.7-6,38.7-9.3,52,2.7c-11-6.2-25.4-3.2-38,1.8c18.1-2.9,43-2.2,54.1,13.5c-8.9-8-22.4-8.7-35.1-7
	c18.1,4.1,42.9,14.6,47,34.4c-6-12.9-22.2-19-36.7-22c16.7,5.8,35.6,17.2,39.2,34.3c-4.8-10.5-16.4-16.5-28.4-20
	c12.9,5.8,24.8,14.9,27.5,28C237.5,82.5,227,76.7,215.9,73.1z"/>
</svg>
