<?xml version="1.0" encoding="utf-8"?>
<!-- Generator: Adobe Illustrator 22.0.1, SVG Export Plug-In . SVG Version: 6.00 Build 0)  -->
<svg version="1.1" id="레이어_1" xmlns="http://www.w3.org/2000/svg" xmlns:xlink="http://www.w3.org/1999/xlink" x="0px"
	 y="0px" viewBox="0 0 318 350" enable-background="new 0 0 318 350" xml:space="preserve">
<g>
	<path fill="#1F3312" d="M260.3,171.4c-2.7-6.7-7.6-11-15-11.2c-0.3,0-0.6,0-0.9,0c-0.2-1.6-0.5-3.3-0.9-4.9
		c-2.7-9.9-10.8-17.1-19.8-21.1c-1-2.8-2.2-5.5-3.6-8.1c-4.9-9.4-12.7-15.6-22.4-19.3c-6.7-2.5-15,1.8-18.3,7.7
		c-0.1,0.1-0.1,0.2-0.2,0.4c-7.9-2.4-18.3-1.9-25.9,2.4c-5.5-2.4-11.5-3.5-17.3-3.2c-10.8,0.6-20.3,5.1-26.9,13.5
		c-2.8-1.4-5.9-2.5-9.1-3.1c-23.9-5-48,13.5-53.8,41.3c-5.8,27.8,9,54.3,32.9,59.3c23.9,5,48-13.5,53.8-41.3
		c0.1-0.6,0.2-1.2,0.3-1.8c8.4,1.3,17.2,0.4,24.5-2.8c7.8,6.2,17.3,9.8,27.1,10.2c2.9,4.5,7.5,8.1,11.9,10.9
		c10.8,7,24.4,7.2,36.5,4.3C247,201.4,267,188.3,260.3,171.4z"/>
	<path fill="#513D15" d="M228.5,186c-0.1,0-0.2,0-0.3,0c-9.4,0.1-18.1,2.6-26.4,6.4c1.4-4.4,3.7-8.4,6.2-12.1
		c2.6-3.8,5.8-7.1,8.8-10.5c0.8-0.9,1.5-1.7,2.2-2.6c0.4-0.4,0.7-0.9,1.1-1.3c0.2-0.2,0.3-0.5,0.4-0.8c0-0.3,0-0.6-0.1-0.9
		c-0.2-0.6-0.6-1.1-1.2-1.2c-0.6-0.1-1.1,0.3-1.5,0.7c-0.9,0.7-1.8,1.4-2.7,2.1c-3.4,2.9-6.5,6.2-9.2,9.7c0.3-4,0.9-8,1.2-12.1
		c0.2-2.1,0.4-4.1,0.4-6.2c0-1,0-2.1,0-3.1c0-0.1,0-0.2,0-0.4c0-0.2-0.1-0.3-0.2-0.4c-0.2-0.2-0.6-0.2-0.8,0
		c-0.1,0.1-0.2,0.3-0.2,0.4l-0.1,0.4l-0.2,0.7c-1,4-2.2,7.9-3,12c-0.4,2-0.6,4.1-0.7,6.2l0,1.6l0.1,1.6l0.2,1.6
		c0.1,0.5,0.3,1,0.7,1.3c-0.6-0.5-8.7,16.9-9.2,18.5c-7.6,4.5-14.9,9.6-21.7,15.4c-0.9-10.8,5.5-22.8,9.9-32.1
		c5.8-12.1,13.5-23.8,24.8-30.5l0.3-0.2l0.1-0.1c0.1,0,0.1-0.1,0.2-0.1c0.5-0.5,0.6-1.3,0.3-1.9c-0.1-0.3-0.4-0.6-0.8-0.7
		c-0.2,0-0.4,0-0.5,0l-0.3,0.1c-0.9,0.1-1.8,0.3-2.6,0.6c-1.7,0.5-3.4,1.2-5,2c-2.9,1.5-5.7,3.4-8.2,5.6c-0.3-1.6-0.5-3.2-0.6-4.8
		c-0.2-1.9-0.1-3.8,0.1-5.7c0.2-1.9,0.4-3.9,0.3-5.9c0-1-0.2-2-0.4-3l0-0.2l0-0.1c0,0,0-0.1-0.1-0.2c-0.1-0.3-0.5-0.5-0.8-0.5
		c-0.1,0-0.3,0-0.4,0.1c-0.1,0-0.1,0.1-0.2,0.1l-0.1,0.1l-0.3,0.3c-0.2,0.2-0.3,0.4-0.5,0.6c-0.2,0.2-0.3,0.4-0.4,0.6
		c-2.2,7.2,0.3,12.7-0.7,19.6c-1,6.6-8.2,13.2-11.9,18.3c-1.9-3.9-7.2-32.5-9.9-32.9c-3.7-0.6-7.5,2.7-7.8,6.7c-0.1,2,0.5,4,1.2,5.9
		c2.8,8,5.8,15.8,9.1,23.6c0.7,1.6,1.4,3.3,1.7,5c0.8,4.3-5.2,23.6-9.7,23.9c-5.7,0.5-13.3-26-13.7-31.5
		c-1.3-17.2-0.4-35.1,0.6-52.3c-2.2,0-4.4-0.1-6.6-0.1c-1.5,12.5-0.2,29.8-4.6,41.4c-1.8-0.6-2.9-2.3-4.7-3.4
		c-6.4-4.1-12.8-8.1-19.3-12.2c-2.7-1.7-5.5-3.5-8.6-3.9c-1.4,1.4-1.2,3.9-0.1,5.5c1.1,1.7,2.8,2.7,4.5,3.6
		c5.8,3.2,13.1,6.8,17.9,11.4c9.5,9.2,14.3,23.3,18.9,35.8c0.2,0.5,0.3,1,0.1,1.4c-3.7,7.4-35.2-34-38.1-37.9
		c-0.9-1.3-1.9-2.6-3.3-3.3c-2.5-1.2-5.3,0.1-7.7,1.5c3.6,6.5,8,12.3,12,18.4c2.1,3.2,4.4,10.9,8.5,11.4
		c-11.8-1.6-24.6-1.4-36.3,1.3c-0.6,0.1-1.2,0.3-1.6,0.7c-0.5,0.5-0.6,1.2-0.7,1.8c-0.3,1.8-0.2,3.6,0,5.4c0.1,0.5,0.2,1.1,0.6,1.4
		c0.4,0.4,1.1,0.3,1.6,0.2c14.3-1.9,37.1-7.1,48.2,6.1c2.5,3,5.1,6,7.8,8.8c2.8,4.6,4.5,10,6.1,15.4c1.7,5.4,2.8,10.9,3.5,16.5
		c0.7,5.6,1.1,11.3,1.2,17c0.1,2.8,0,5.7,0,8.5c0,2.9,0,5.7-0.2,8.5c-0.3,5.6-1.1,11.3-2.6,16.7c-1.5,5.4-3.6,10.7-6.5,15.4
		c-2.9,4.7-6.6,8.9-10.7,12.3c-2.1,1.7-4.5,2.8-6.9,4c-2.4,1.2-4.9,2.5-7,4.4l-0.5,0.4l0.5,0.4c1.7,1.3,3.7,2.1,5.7,2.3
		c2,0.3,4,0.1,6-0.2c3.9-0.5,7.8-1.4,11.7-0.8c3.9,0.4,7.6,1.8,11.3,3.2c3.7,1.4,7.4,2.9,11.3,3.8c3.9,0.8,8,1,11.8-0.3
		c0.5-0.2,0.9-0.4,1.4-0.6c0.4-0.2,0.9-0.5,1.3-0.7c0.9-0.5,1.7-1.1,2.5-1.7c1.6-1.2,3.4-2,5.3-2.5c1.9-0.5,3.8-0.6,5.8-0.6
		c2,0,3.9,0.2,5.9,0.3c3.9,0.2,8,0.4,11.8-1.1l0.3-0.1l-0.2-0.3c-1-1.8-2.7-3-4.4-3.9c-1.7-0.9-3.3-1.9-4.6-3.4
		c-1.3-1.5-2.2-3.2-3.4-4.8c-0.6-0.8-1.3-1.5-2-2.2c-0.7-0.7-1.4-1.4-2-2.1c-1.3-1.5-2.5-3-3.6-4.6c-1.1-1.6-2.2-3.2-3.3-4.9
		c-2-3.4-3.4-7.2-4.4-11c-1-3.9-1.6-7.9-1.9-11.9c-0.3-4-0.5-8-0.6-12.1c-0.4-25.8,0-51.4,20.9-68.2c10.8-8.6,23.9-13.4,37.1-16.3
		c2.2-0.5,5-1.8,4.6-4.1c-0.1-1-0.8-1.7-1.6-2.3C232.8,186.2,230.6,186,228.5,186z M144.2,138L144.2,138
		C144.3,137.9,144.3,138,144.2,138z"/>
	<path fill="#274417" d="M314.1,145.3c-1.9-10.1-6.3-19.6-13.9-27.3c1.7-4.2,2.6-8.7,2.5-13.4C302.5,86.1,288,71,269.4,68.9
		c-1.5-27.7-26.2-53.5-61.1-61.1C175,0.5,142.7,11.9,127.7,34c-9-6-20-9.5-31.8-9.4C65.7,25,41.4,48.8,41.7,77.9
		c0.1,5.2,0.9,10.3,2.4,15.1c-0.1,0.2-0.2,0.3-0.3,0.5c-0.7,0-1.3-0.1-2-0.1c-13.9,0.1-25,11.1-24.9,24.4c0.1,5.9,2.3,11.3,6.1,15.5
		c-7.7,2.7-14.5,8-18.2,15.2c-4.1,7.9-4.2,18-0.6,26c4.7,10.4,13.3,14.9,23.1,19.9c-5.1,3.9-7.3,10.7-6.5,16.9
		c3.2,23.5,31.7,36.5,53.4,25.7c5.4-2.7,10.2-6.9,12.6-12.3c3.9-8.4,7.9-18.3,1.8-26.8c3.8-1.5,6-5.5,6.3-9.4
		c0.3-3.9-0.9-7.8-2.3-11.5c3,2.1,7.2,2,10.4,0.4c8.1-4.1,13-12.9,9.5-21.4c4.5,0.8,8-1.8,10.7-4.4c0.9-1.7,1.8-3.5,2.6-5.2
		c3.7,11.2,11.8,22.4,24.3,22.3c2.4,0.1,4.8,0,7.1-0.4c2.3-0.4,4.6-1,6.8-1.9c7.5-4,16.3-8.4,18-17.1c3.6,3.4,9.9,4.2,14.3,2.5
		c-0.8,4.3,1.9,8.7,5.5,11.2c2.2,1.3,4.5,1.5,6.7,1.4c2.2-0.6,4-0.6,6.7-0.6c-0.6,4.1-0.4,8.4,0.5,12.5c0.5,2.1,1.1,4,2,5.9
		c1.1,2.9,2.8,5.4,4.9,7.5c3.5,0.9,3.6,5.2,8,4.3c-4.4,8.7,0.2,19.1,8.3,24.2c23.9,13,52.4,3.9,65-18.9
		C313,183.1,317.5,163.2,314.1,145.3z"/>
	<path fill="#3E6823" d="M258.1,77.3c2.6,3.4,4.2,7.6,4.5,12.1c0.4,4.4-0.4,9.1-2.4,13.3c-2,4.2-5.1,7.8-9,10.5
		c-3.8,2.7-8.3,4.4-12.9,4.9l2-5c1.8,2.4,2.9,5.2,3.3,8.1c0.4,2.9,0.1,5.8-0.9,8.5c-1,2.7-2.7,5-4.7,6.8c-2,1.8-4.5,3-7,3.4
		c2.1-1.4,3.8-3.1,5.1-5.1c1.3-1.9,2.1-4.1,2.5-6.2c0.3-2.1,0.2-4.3-0.4-6.3c-0.6-2-1.5-3.9-2.8-5.4l-3.4-4.1l5.5-0.9
		c3.6-0.6,7-2,10.1-4.1c3-2.1,5.7-4.7,7.6-7.8c1.9-3.1,3.2-6.8,3.7-10.6C259.4,85.5,259.1,81.5,258.1,77.3z"/>
	<path fill="none" stroke="#3E6823" stroke-width="8" stroke-miterlimit="10" d="M123.3,151.6"/>
	<path fill="#3E6823" d="M208.3,7.8c-7.4-1.2-14.9-1.6-22.2-1.2c-7.4,0.4-14.7,1.8-21.6,4.1c-7,2.2-13.6,5.5-19.5,9.6
		c-5.9,4.1-11.1,9.3-15,15.2l-1.4,2.2l-2.3-1.4c-4.5-2.8-9.3-5.1-14.4-6.5c-5.1-1.4-10.3-2.1-15.6-2c-2.6,0.1-5.3,0.3-7.9,0.7
		c-2.6,0.4-5.2,1-7.7,1.8c-2.5,0.8-4.9,1.8-7.3,2.9c-2.4,1.1-4.6,2.5-6.8,4c-8.6,6-15.5,14.4-19,24.3c-0.9,2.4-1.6,5-2,7.5
		c-0.3,1.3-0.4,2.6-0.6,3.9c-0.1,1.3-0.2,2.6-0.2,3.9c-0.2,5.2,0.6,10.5,2.1,15.5l0.4,1.3l-0.8,1.2l-0.3,0.4l-0.9,1.4l-1.7-0.1
		L42,96.3c-0.5,0-1.1,0-1.6,0.1l-0.8,0l-0.8,0.1c-0.5,0.1-1.1,0.1-1.6,0.2c-2.1,0.4-4.1,1.2-6,2.1c-1.9,1-3.7,2.2-5.2,3.7
		c-1.5,1.5-2.9,3.2-4,5.1c-1.1,1.9-1.8,3.9-2.3,6l-0.3,1.6c-0.1,0.5-0.1,1.1-0.1,1.6c-0.1,1.1,0,2.2,0,3.3c0.4,4.3,2.2,8.5,5.1,11.9
		l1.8,2.2l-2.6,0.8c-3.9,1.2-7.5,3.2-10.7,5.7c-3.2,2.5-5.9,5.7-7.7,9.4c-1.8,3.7-2.8,7.8-3,12c-0.2,4.2,0.5,8.4,2,12.4
		c-1.9-3.8-3-8.1-3.2-12.4c-0.2-4.3,0.5-8.8,2.2-12.9c1.7-4.1,4.4-7.8,7.7-10.8c3.3-3,7.2-5.3,11.4-6.9l-0.8,3
		c-3.5-3.8-6-8.7-6.7-13.9c-0.2-1.3-0.3-2.6-0.2-3.9c0-0.7,0-1.3,0.1-2l0.3-2c0.5-2.6,1.3-5.1,2.5-7.5c1.3-2.3,2.8-4.5,4.7-6.4
		c1.9-1.9,4-3.5,6.3-4.8c2.4-1.2,4.9-2.2,7.5-2.8c0.7-0.1,1.3-0.2,2-0.3l1-0.2l1-0.1c0.7,0,1.3-0.1,2-0.1l2,0l-2.6,1.3l0.3-0.5
		l-0.4,2.5c-1.8-5.6-2.8-11.5-2.7-17.4c0-2.9,0.3-5.9,0.8-8.8c0.5-2.9,1.2-5.8,2.3-8.6C45.6,48,53.2,38.3,63,31.7
		c9.7-6.6,21.5-10.2,33.2-10.1c11.7,0,23.4,3.6,33,10.2l-3.7,0.7c4.6-6.4,10.4-11.8,16.9-16c6.5-4.2,13.7-7.2,21-9.1
		c7.4-1.9,15-2.8,22.5-2.8c1.9,0.1,3.8,0,5.7,0.3l2.8,0.3l1.4,0.1l1.4,0.2L200,6c0.9,0.2,1.9,0.3,2.8,0.5L208.3,7.8z"/>
</g>
</svg>
