<?xml version="1.0" encoding="utf-8"?>
<!-- Generator: Adobe Illustrator 22.0.1, SVG Export Plug-In . SVG Version: 6.00 Build 0)  -->
<svg version="1.1" id="레이어_1" xmlns="http://www.w3.org/2000/svg" xmlns:xlink="http://www.w3.org/1999/xlink" x="0px"
	 y="0px" viewBox="0 0 158.9 350" enable-background="new 0 0 158.9 350" xml:space="preserve">
<g>
	<g>
		<path fill="#75462C" d="M82.5,339.3h-7.6c-2,0-3.6-1.6-3.6-3.6v-210c0-2,1.6-3.6,3.6-3.6h7.6c2,0,3.6,1.6,3.6,3.6v210
			C86.1,337.7,84.5,339.3,82.5,339.3z"/>
		<g>
			<circle fill="#FC5988" cx="78.8" cy="85.2" r="72.2"/>
			<path fill="#EC416B" d="M6.8,84.6c2.9-1.8,8.1,0.7,11.4,1.2c10.5,1.8,21.2,2.6,31.8,3.5c16.1,1.3,32.4,1.5,48.4-0.3
				c14.6-1.7,32.1-3.4,44.8-11.1c14.7-8.9,8.2,21.2,6.8,26.8c-0.5,2-1.1,4-2.3,5.7c-2.1,3-5.7,4.5-9.1,5.7
				c-17.9,5.9-34.4,11-53.7,11.5c-21.3,0.6-42.5-2.2-63.4-6.1C8.5,119.1,6.1,107.8,5.1,96.2c-0.3-2.9-1.2-8.6,1-11
				C6.3,85,6.5,84.8,6.8,84.6z"/>
			<path fill="#F783A0" d="M89,33.8c-0.6,1.2-0.4,2.6,0,3.9c2.1,6.4,8,10.7,12.1,16.1c2.5,3.2,4.3,6.8,7.1,9.7
				c2.8,2.9,6.9,5,10.8,4.1c0.6-0.1,1.2-0.4,1.6-0.8c0.4-0.4,0.5-1.1,0.6-1.6c0.5-3.8-0.4-7.8-2-11.3c-2.6-6-7.4-12.2-12.2-16.6
				C103.8,34.2,92.1,28.3,89,33.8z"/>
		</g>
	</g>
</g>
</svg>
