<?xml version="1.0" encoding="utf-8"?>
<!-- Generator: Adobe Illustrator 22.0.1, SVG Export Plug-In . SVG Version: 6.00 Build 0)  -->
<svg version="1.1" id="레이어_1" xmlns="http://www.w3.org/2000/svg" xmlns:xlink="http://www.w3.org/1999/xlink" x="0px"
	 y="0px" viewBox="0 0 210.4 350" enable-background="new 0 0 210.4 350" xml:space="preserve">
<g>
	<path id="XMLID_8_" fill="#EDBA54" d="M62.9,17.8c2.1-4.3,41.7,23.9,45,26.2c15.5,10.9,29.7,23.5,43.8,36.1
		c8.4,7.5,18.1,14.3,24.4,23.9c7.9,12.1,4.5,16.6-2.8,27.1c-4.7,6.8-7.3,14.4-12.8,20.7c-13.7,15.7-34,25.7-54.7,27
		c-17.2,1.1-34.9-3.9-49.3-13.7C46,158,33.9,150.1,29,137.8c-5.1-12.9-0.9-24.2,2.7-36.8C39.6,72.4,50.1,44.5,62.9,17.8z"/>
	<path id="XMLID_16_" fill="#EDBA54" d="M134.7,283.3c-21.2-10-36.3-22.8-46.8-37.1c-4.6-28.8,1.5-67.1,45-103.4
		c12.4-10.4,27.9-20.6,47-30.3c0,0,37.6,99.2-17.4,152.2c0,0,0,0,0,0C155,271.9,145.8,278.2,134.7,283.3z"/>
	<g>
		<path id="XMLID_38_" fill="#3E4C12" d="M36.6,36.2c0.5-0.6,1.1-1.1,1.7-1.7c0.7,7,4.8,13.2,9.1,18.7c10,12.5,22,23.3,31.8,35.9
			c9.7,12.5,13.2,24.7,17.2,39.6c6.3,23.6,15.7,46.2,21.8,69.7c2,7.9-3.7,16.2-11.2,6.6c-11.6-14.9-22.6-30.3-32.5-46.4
			c-4.9-7.9-9.6-16-14.1-24.2c-4.3-8-9.4-14.5-13.9-22.2C39.1,100,32.4,85.9,31,71.4C30,60.8,28.9,45,36.6,36.2z"/>
		<path id="XMLID_39_" fill="#3E4C12" d="M124.6,187.6c-1.1,1.7-2.4,3.3-3.7,4.9c-11.1,13.2-16.1,2-16.3-10.9
			c-0.5-33.1,3.1-66.2,10.6-98.5c5.9-25.3,14.7-57.3,39.4-70.3c2,6.7,4,13.5,6,20.2c3.6,11.9,7.2,24.3,5.5,36.7
			c-1.4,10.2-6.3,19.5-10.9,28.7c-10.5,21.3-19.6,40.8-21.8,64.4C132.6,171.7,129.5,180.2,124.6,187.6z"/>
		<path id="XMLID_40_" fill="#3E4C12" d="M89.3,12.8c2-2,4.2-4,6.5-5.8c-3.3,2.6,8.8,34.5,10.1,38.7c4.3,13.4,8.8,26.8,11.4,40.7
			c4.7,25.4,3.2,54.3,13.8,78.3c2.9,6.7,5.1,12.1,4.8,19.7c-0.5,11.8-9,12.7-16.3,4.5c-10.3-11.4-16.4-26.2-23.2-40
			c-7.4-15.1-14.3-30.5-19.3-46.5C67.8,72.2,65.6,37.3,89.3,12.8z"/>
		<path id="XMLID_6_" fill="#3E4C12" d="M202.3,48.3c0.8-0.6,1.7-1.1,2.5-1.7c-5.3,21.6-3.2,44.2-6.2,66.2
			c-2.5,17.8-8.5,35.3-18.9,50c-4.6,6.5-46.9,72-46.8,72.1c-7.4-6.5-6.3-18.1-4.5-27.7c6.4-35.6,8.9-75.5,27.9-107.1
			C168.3,80.3,183,61.4,202.3,48.3z"/>
		<path id="XMLID_18_" fill="#3E4C12" d="M5,68.3c0.5-6.7,2-13.2,6-16.7c1.4,0.9,1.9,2.1,2.2,3.8c2.2,14.4,15.6,20,25.1,29.1
			c15.6,15,22.4,33.4,35.6,49.8c9.7,12.1,19.2,24.4,27.7,37.4c7.5,11.5,11,23.5,17.6,35.3c0.3,0.6,0.6,1.1,0.7,1.8
			c0.1,1.4-1.4,2.6-2.8,2.7c-1.4,0.1-2.8-0.5-4.1-1.1c-10.3-5-19.5-12.1-28.6-19.2c-24.5-19.1-54.5-37.3-68.2-66.4
			c-5.9-12.6-9.1-26.3-10.6-40.1C5.1,80.5,4.6,74.4,5,68.3z"/>
		<g>
			<path fill="#576619" d="M145.2,40.6c-5.1,24.4-13.3,48-19.7,72c-6,22.4-11.4,46-9,69.4c0.1,1.2,2.1,1.1,2.2-0.1
				c1.1-24.5,5-48.2,11.1-71.9c6-23,12.7-45.8,16.8-69.3C146.7,39.8,145.3,39.8,145.2,40.6L145.2,40.6z"/>
		</g>
		<g>
			<path fill="#576619" d="M187.3,75.2c-6.4,10.1-11.2,21.4-15.7,32.5c-4.7,11.8-8.8,23.9-11.8,36.3c-6.2,25.4-5.5,51.7-11.4,77
				c-0.4,1.5,1.8,2.4,2.3,0.9c4.1-12,5.2-24.6,6.2-37.2c1.1-13.1,2.6-26,5.5-38.8c2.8-12.2,6.5-24.1,10.9-35.8
				c4.4-11.7,9.8-23,14.2-34.7C187.5,75.2,187.3,75.1,187.3,75.2L187.3,75.2z"/>
		</g>
		<g>
			<path fill="#576619" d="M86.9,38.1c2.2,26.3,3.3,52.6,8.7,78.5c4.8,22.8,11.9,46.2,24.6,65.9c0.7,1,2.3-0.1,1.8-1.2
				c-10.8-21.6-18.8-43.8-23.8-67.5C93.1,88.9,89.7,63.3,87.5,38C87.5,37.6,86.8,37.7,86.9,38.1L86.9,38.1z"/>
		</g>
		<g>
			<path fill="#576619" d="M39.2,60.2c9.7,18.6,19.4,37.1,30.2,55.1c10.4,17.4,21,35.7,34.1,51.3c0.6,0.7,1.8-0.1,1.3-0.9
				c-5-8.8-10.8-17.1-16.3-25.6c-5.7-8.9-11.4-17.8-16.9-26.8C60.8,95.7,50,78,40.3,59.7C39.9,59,38.8,59.5,39.2,60.2L39.2,60.2z"/>
		</g>
		<g>
			<path fill="#576619" d="M15.8,77.5c3.5,9.1,9.6,17.6,15.1,25.6c5.7,8.3,11.9,16.2,18.6,23.8c13.2,15.1,28.1,28.6,44.7,39.9
				c1.1,0.8,2.3-0.9,1.2-1.7c-15.7-12.4-30.5-25.9-43.8-40.8c-6.4-7.2-12.4-14.6-18.1-22.4c-5.9-8.1-10.7-17.1-16.8-24.9
				C16.3,76.4,15.6,76.9,15.8,77.5L15.8,77.5z"/>
		</g>
	</g>
	<g>
		<g>
			<g>
				<path fill-rule="evenodd" clip-rule="evenodd" fill="#B1B875" d="M124.2,172.1c0.3,1.5,5-1.3,10.5-6c5.5-4.8-7.9-30.5-7.1-27.1
					c0,0,0,0,0.5,3.2c0.7,4.8,0.3,9.9-1.6,14.5c-2.1,4.8-3,8.8-2.3,14.2C124.2,172.1,124.2,172.1,124.2,172.1z"/>
			</g>
			<g>
				<path fill-rule="evenodd" clip-rule="evenodd" fill="#B1B875" d="M139,154.9c0.6,1.4,4.6-2.3,9-8.1c4.4-5.8-14.1-28.2-12.6-25
					c0,0,0,0,1.1,3c1.7,4.5,2.3,9.6,1.4,14.5c-1,5.2-1.1,9.3,0.6,14.3C139,154.9,139,154.9,139,154.9z"/>
			</g>
			<g>
				<path fill-rule="evenodd" clip-rule="evenodd" fill="#B1B875" d="M154.2,133.5c0.9,1.2,3.8-3.4,6.5-10.2
					c2.6-6.8-21.2-23.4-18.9-20.7c0,0,0,0,1.9,2.6c2.8,3.9,4.9,8.6,5.3,13.6c0.4,5.2,1.4,9.2,4.5,13.6
					C154.2,133.5,154.2,133.5,154.2,133.5z"/>
			</g>
			<g>
				<path fill-rule="evenodd" clip-rule="evenodd" fill="#B1B875" d="M165.1,110.5c0.9,1.2,3.8-3.5,6.4-10.3
					c2.6-6.8-21.4-23.2-19.1-20.5c0,0,0,0,1.9,2.6c2.9,3.9,4.9,8.6,5.4,13.6c0.5,5.2,1.5,9.2,4.6,13.6
					C165.1,110.5,165.1,110.5,165.1,110.5z"/>
			</g>
			<g>
				<path fill-rule="evenodd" clip-rule="evenodd" fill="#B1B875" d="M171.9,76.3c1.3,0.8,2.5-4.5,2.7-11.8
					c0.2-7.3-27.8-14.8-24.8-13.1c0,0,0,0,2.6,1.8c4,2.7,7.5,6.5,9.6,11c2.2,4.8,4.5,8.2,8.8,11.3C171.9,76.3,171.9,76.3,171.9,76.3
					z"/>
			</g>
			<g>
				<path fill-rule="evenodd" clip-rule="evenodd" fill="#B1B875" d="M173.4,42.7c0.7,1.3,4.4-2.7,8.2-9c3.8-6.2-16.8-26.7-15-23.6
					c0,0,0,0,1.4,2.9c2.1,4.3,3.3,9.3,2.8,14.3c-0.5,5.2-0.2,9.3,2.1,14.2C173.4,42.7,173.4,42.7,173.4,42.7z"/>
			</g>
			<g>
				<path fill-rule="evenodd" clip-rule="evenodd" fill="#B1B875" d="M180.5,58.8c-1.3,0.8-2.5-4.5-2.7-11.8
					c-0.2-7.3,27.8-14.9,24.8-13.1c0,0,0,0-2.6,1.8c-4,2.7-7.5,6.5-9.5,11c-2.2,4.8-4.5,8.2-8.8,11.3
					C180.5,58.8,180.5,58.8,180.5,58.8z"/>
			</g>
			<g>
				<path fill-rule="evenodd" clip-rule="evenodd" fill="#B1B875" d="M178.1,85.9c-1.5,0.2-0.5-5.1,2.2-11.9
					c2.7-6.8,31.4-2.7,27.9-2.3c0,0,0,0-3.1,0.6c-4.7,0.9-9.4,3-13.1,6.4c-3.9,3.5-7.3,5.8-12.6,6.9
					C178.1,85.9,178.1,85.9,178.1,85.9z"/>
			</g>
			<g>
				<path fill-rule="evenodd" clip-rule="evenodd" fill="#B1B875" d="M172.2,115.2c-1.5,0.2-0.4-5.1,2.4-11.9
					c2.8-6.7,31.5-2.3,28-1.9c0,0,0,0-3.1,0.6c-4.7,0.9-9.5,2.9-13.2,6.2c-3.9,3.5-7.4,5.7-12.7,6.7
					C172.2,115.2,172.2,115.2,172.2,115.2z"/>
			</g>
			<g>
				<path fill-rule="evenodd" clip-rule="evenodd" fill="#B1B875" d="M159.7,141.8c-1.5,0,0.4-5.2,4.1-11.4
					c3.7-6.3,31.5,2.4,27.9,2.2c0,0,0,0-3.2,0.1c-4.8,0.2-9.8,1.5-14,4.2c-4.4,2.9-8.2,4.5-13.5,4.8
					C159.7,141.8,159.7,141.8,159.7,141.8z"/>
			</g>
			<g>
				<path fill-rule="evenodd" clip-rule="evenodd" fill="#B1B875" d="M141.6,167.5c-1.5-0.2,1.1-5.1,5.6-10.7
					c4.6-5.7,30.8,6.7,27.4,6.1c0,0,0,0-3.2-0.3c-4.8-0.5-9.9,0.1-14.4,2.2c-4.8,2.2-8.7,3.3-14.1,2.9
					C141.6,167.5,141.6,167.5,141.6,167.5z"/>
			</g>
		</g>
		<g>
			<path fill="#89975F" d="M123,182.5c4-4.3,7.7-9.1,11.3-13.8c8.5-11.2,16.2-23.1,22.7-35.6c8-15.4,14.3-31.8,17.2-49
				c2.3-14,2.1-28.5-1.5-42.2c-0.3-1.3,1.6-1.9,2-0.7c4.7,17.5,3.8,36-0.5,53.5c-4.1,16.6-11.1,32.4-19.6,47.2
				c-6.5,11.4-13.9,22.2-22,32.4c-2.6,3.3-5.2,6.5-8.1,9.5C123.6,184.8,122.1,183.5,123,182.5L123,182.5z"/>
			<g>
				<path fill-rule="evenodd" clip-rule="evenodd" fill="#89975F" d="M130.1,174.5c0,0,3.1-15.8-1.2-26.2"/>
			</g>
			<g>
				<path fill-rule="evenodd" clip-rule="evenodd" fill="#89975F" d="M142.9,157.6c0,0,2.3-15.9-2.6-26.1"/>
			</g>
			<g>
				<path fill-rule="evenodd" clip-rule="evenodd" fill="#89975F" d="M155.4,136.3c0,0,1.8-16-3.4-26"/>
			</g>
			<g>
				<path fill-rule="evenodd" clip-rule="evenodd" fill="#89975F" d="M166.8,112.6c0,0-0.2-16.1-6.6-25.4"/>
			</g>
			<g>
				<path fill-rule="evenodd" clip-rule="evenodd" fill="#89975F" d="M175.7,78c0,0-4.3-15.5-12.9-22.8"/>
			</g>
			<g>
				<path fill-rule="evenodd" clip-rule="evenodd" fill="#89975F" d="M173.8,45.6c0,0,5.1-15.2,2.1-26.1"/>
			</g>
			<g>
				<path fill-rule="evenodd" clip-rule="evenodd" fill="#89975F" d="M177.6,60.4c0,0,5.4-15.1,14.5-21.8"/>
			</g>
			<g>
				<path fill-rule="evenodd" clip-rule="evenodd" fill="#89975F" d="M175.1,86c0,0,11-11.7,22-14.3"/>
			</g>
			<g>
				<path fill-rule="evenodd" clip-rule="evenodd" fill="#89975F" d="M167,116.1c0,0,11-11.7,22-14.3"/>
			</g>
			<g>
				<path fill-rule="evenodd" clip-rule="evenodd" fill="#89975F" d="M153.7,142c0,0,12.7-9.8,24-10.6"/>
			</g>
			<g>
				<path fill-rule="evenodd" clip-rule="evenodd" fill="#89975F" d="M138.2,166.1c0,0,13.9-8,25.2-7.1"/>
			</g>
		</g>
	</g>
	<g>
		<path fill="#B1B875" d="M53.4,57.3c-2.3,92,65.7,107.8,65.7,107.8C127.6,85.9,53.4,57.3,53.4,57.3z"/>
		<path fill="#B1B875" d="M110.3,133.3c1.1,6.2,2,12.4,2.5,18.6c0.2,0.4,0.2,0.8,0.1,1.2c0,0.1,0,0.3,0,0.4c-0.1,0-0.1,0-0.2,0
			c-0.4,0.9-1.4,1.5-2.4,0.7c-6-4.8-12.7-8.7-18.7-13.4c-5-3.9-10.1-7.9-14.6-12.4c-6-6-11.2-12.6-15.9-19.5
			c17.4,46.8,58,56.3,58,56.3c4.3-40.2-12.7-67.3-30.4-84.3C99.4,96.6,106.9,114.6,110.3,133.3z"/>
		<path fill="#E1CD7A" d="M56.6,62.7c33.1,41.7,59.4,95.9,59.4,95.9C92.7,100.3,56.6,62.7,56.6,62.7z"/>
	</g>
	<g>
		<path id="XMLID_21_" fill="#EDBA54" d="M118.6,282.7c-0.7,18.2,0.8,38.1-3,55.9c5.2,2.1,10.7-2.6,16.2-3.3
			c8.8-1.2,16.7,6.7,25.4,1.8c3.7-2.1,6-6.1,9.6-8.5c7.9-5.3,19.5-1.4,27.3-6.8c0.7-0.5,1.4-1.1,1.6-1.9c0.2-0.9-0.2-1.8-0.6-2.6
			c-3.2-6.6-7.9-11.2-12.2-17.1c-7.6-10.5-15.1-21.1-22.7-31.6c0,0,0-0.1-0.1-0.1C160.3,268.6,118.6,282.7,118.6,282.7z"/>
		<path id="XMLID_7_" fill="#EDBA54" d="M123.2,285.6c0,0-54.8-29-102.5-152.5c0,0,159.2-12.1,160.6,81.4
			C182.7,308.1,123.2,285.6,123.2,285.6z"/>
		<g id="XMLID_56_" opacity="0.55">
			<path fill="#DBA442" d="M157.3,249c-1,1.8-2,3.5-3,5.4c-0.6-8.6-1.5-17.5-0.8-26.1c0.5-6.1-2.7-16.2,0.4-21.7
				c-10.5,19.2-2.8,44-11.1,64.3c-3.5-2.8-3.7-9.4-5.3-13.4c-2.3-5.6-4.3-11.4-6.5-17c-3.2-8.1-8.2-17.2-9.8-25.8
				c3.5,18.9,12.3,36.7,13.5,55.9c-5.9-5.5-9.1-15.3-13.1-22.3c-7.9-13.8-16.6-29.3-27.9-40.6c3.9,3.9,6.3,12.9,8.5,17.9
				c5.2,11.9,9.8,23.3,17.1,34c5.4,7.8,11.5,15.5,17.1,23.2c-0.4,0.2-0.8,0.5-1,1c-2.5,5.9-1.2,12.6-1.9,18.9
				c-0.9,7.6-2.6,15.1-3.5,22.7c0.7,0.2,1.3-0.7,1.5-1.5c2.1-6.9,3.7-14.2,6.4-20.9c0.7-1.7,5-16.3,2-16.3c0.2,0,0.5-0.1,0.7-0.2
				c0.1-0.1,0.2-0.2,0.4-0.3c0,0,0,0.1,0,0.1c4.2,11.2,9.5,21.7,14.4,32.7c0.3,0.7,0.7,1.5,1.5,1.6c-2.9-11.6-5-23.1-11.1-33.5
				c0.7,0,1.4-0.3,1.8-1.2c0.8-1.6,1.6-3.3,2.3-4.9c3.8,12.5,12.3,22.9,22.7,30.6c-3.4-5.6-6.9-11.3-10.3-16.9
				c-2.3-3.8-5.2-7.5-7.1-11.5c-2.4-5-0.7-7.5,1.5-12.6c4.6-11,7.1-22.6,9.5-34.2C162.9,240.1,160,244.4,157.3,249z"/>
			<path fill="#DBA442" d="M157.3,249l-3,5.4l0,0c-0.6-8-1.3-16-0.9-24c0-1,0.2-2,0.2-3c0-1,0-2-0.1-3c-0.2-2-0.4-4-0.6-6
				c-0.2-2-0.4-4-0.3-6c0.1-2,0.4-4,1.3-5.8l0,0c-2.6,4.8-4.2,10.2-5,15.6c-0.9,5.4-1.1,10.9-1.3,16.4c-0.2,5.5-0.3,11-0.9,16.4
				c-0.6,5.4-1.7,10.9-3.7,16l0,0l0,0c-1-0.8-1.7-1.9-2.2-3c-0.5-1.1-0.9-2.4-1.2-3.6c-0.7-2.4-1.1-4.9-2.1-7.3
				c-1.9-4.7-3.6-9.4-5.4-14.1c-1.7-4.7-3.9-9.3-5.9-13.9c-2-4.6-3.9-9.4-4.8-14.3l0.1,0c1.7,9.4,4.8,18.6,7.6,27.7
				c2.8,9.2,5.3,18.5,5.9,28.1l0,0.2l-0.1-0.1c-1.1-1.1-2.2-2.3-3.1-3.6c-0.9-1.3-1.8-2.6-2.5-4c-1.6-2.7-2.9-5.6-4.2-8.4
				c-1.3-2.8-2.8-5.6-4.4-8.3c-1.6-2.7-3.1-5.5-4.7-8.2c-3.2-5.4-6.5-10.8-10.1-15.9c-1.8-2.6-3.7-5.1-5.7-7.5c-2-2.4-4.1-4.8-6.3-7
				l0.1-0.1c1.3,1.3,2.2,2.9,3.1,4.5c0.8,1.6,1.5,3.3,2.2,5c1.3,3.4,2.4,6.8,4,10.1c2.9,6.6,5.7,13.3,9,19.7
				c1.6,3.2,3.4,6.4,5.3,9.4c1.9,3.1,4,6,6.2,8.9c4.3,5.8,8.7,11.6,12.9,17.4l0.1,0.1l-0.1,0c-0.4,0.2-0.7,0.5-0.9,0.9
				c-0.2,0.4-0.3,0.8-0.5,1.3c-0.3,0.9-0.5,1.7-0.7,2.6c-0.3,1.8-0.5,3.6-0.5,5.4c-0.1,3.6,0.1,7.2-0.5,10.8
				c-0.9,7.2-2.5,14.3-3.4,21.4L130,325c0.4,0.1,0.8-0.2,1-0.5c0.2-0.3,0.4-0.7,0.5-1.2l0.7-2.5l1.4-5c0.9-3.3,1.9-6.6,3-9.9
				c0.3-0.8,0.6-1.6,0.9-2.4c0.3-0.8,0.6-1.6,0.9-2.4c0.5-1.6,0.9-3.3,1.3-5c0.4-1.7,0.7-3.4,1-5.1c0.1-0.9,0.2-1.7,0.2-2.6
				c0-0.4-0.1-0.9-0.2-1.3c-0.1-0.4-0.4-0.8-0.8-0.8l0-0.1c0.2,0,0.4-0.1,0.6-0.2c0.2-0.1,0.3-0.3,0.5-0.4l0.1-0.1l0,0.1
				c1.1,3,2.3,5.9,3.6,8.8c1.3,2.9,2.6,5.8,3.9,8.7l4,8.7l2,4.3l1,2.2c0.2,0.4,0.3,0.7,0.6,1c0.2,0.3,0.5,0.6,0.9,0.6l-0.1,0.1
				c-1.4-5.7-2.7-11.5-4.3-17.2c-1.7-5.7-3.8-11.2-6.8-16.3l0-0.1l0.1,0c0.6,0,1.3-0.3,1.6-0.9c0.3-0.5,0.6-1.2,0.9-1.7l1.7-3.5
				l0-0.1l0,0.1c1.9,6.2,5,12,8.9,17.1c3.9,5.1,8.6,9.7,13.8,13.5l0,0l-10.7-17.5c-1.8-2.9-3.8-5.7-5.5-8.7c-0.8-1.5-1.6-3-2.1-4.7
				c-0.4-1.7-0.3-3.4,0.2-5.1c0.5-1.6,1.3-3.2,2-4.8c0.7-1.6,1.3-3.2,1.9-4.8c1.2-3.2,2.2-6.5,3.1-9.8c1.8-6.6,3.2-13.3,4.6-20l0,0
				C162.9,240.1,160,244.4,157.3,249z M157.3,249c2.7-4.5,5.6-8.9,8.7-13l0,0l0,0c-1.4,6.7-2.8,13.4-4.6,20
				c-0.9,3.3-1.9,6.6-3.1,9.8c-0.6,1.6-1.2,3.2-1.9,4.8c-0.7,1.6-1.4,3.1-1.9,4.8c-0.6,1.6-0.7,3.4-0.2,5c0.4,1.7,1.2,3.2,2.1,4.7
				c1.7,3,3.7,5.8,5.5,8.7l10.7,17.5l0.1,0.1l-0.1-0.1c-5.2-3.8-9.9-8.3-13.8-13.5c-3.9-5.1-7-10.9-8.9-17.1l0.1,0l-1.7,3.5
				c-0.3,0.6-0.5,1.2-0.9,1.8c-0.4,0.6-1,0.9-1.7,0.9l0-0.1c3,5.1,5.1,10.7,6.8,16.3c1.7,5.7,2.9,11.4,4.4,17.2l0,0.1l-0.1,0
				c-0.4-0.1-0.8-0.3-1-0.7c-0.2-0.3-0.4-0.7-0.6-1.1l-1-2.2l-2-4.3l-4-8.7c-1.3-2.9-2.6-5.8-3.9-8.7c-1.2-2.9-2.5-5.8-3.6-8.8
				l0.1,0c-0.2,0.1-0.3,0.3-0.5,0.4c-0.2,0.1-0.4,0.2-0.6,0.2l0-0.1c0.5,0,0.8,0.5,0.9,0.9c0.1,0.4,0.2,0.9,0.2,1.3
				c0,0.9-0.1,1.7-0.2,2.6c-0.2,1.7-0.6,3.4-1,5.1c-0.4,1.7-0.8,3.3-1.3,5c-0.2,0.8-0.5,1.6-0.9,2.4c-0.3,0.8-0.6,1.6-0.9,2.4
				c-1.1,3.2-2.1,6.6-3,9.9l-1.4,5l-0.7,2.5c-0.1,0.4-0.3,0.8-0.5,1.2c-0.2,0.4-0.7,0.7-1.2,0.6l-0.1,0l0-0.1
				c0.9-7.2,2.4-14.3,3.3-21.4c0.5-3.6,0.4-7.2,0.5-10.8c0.1-1.8,0.2-3.6,0.5-5.4c0.2-0.9,0.4-1.8,0.7-2.6c0.1-0.4,0.3-0.9,0.5-1.3
				c0.2-0.4,0.6-0.8,1-1l0,0.1c-4.2-5.9-8.7-11.6-13-17.4c-2.1-2.9-4.2-5.9-6.2-8.9c-1.9-3.1-3.7-6.2-5.4-9.5
				c-3.3-6.5-6.1-13.1-9-19.8c-1.5-3.3-2.6-6.7-4-10.1c-0.7-1.7-1.4-3.4-2.2-5c-0.8-1.6-1.8-3.2-3-4.5l0.1-0.1
				c2.2,2.2,4.3,4.6,6.3,7c2,2.4,3.9,5,5.7,7.5c3.6,5.2,6.9,10.5,10.1,15.9c1.6,2.7,3.2,5.4,4.7,8.2c1.6,2.7,3,5.5,4.4,8.4
				c1.4,2.8,2.7,5.7,4.2,8.4c0.8,1.4,1.6,2.7,2.5,4c0.9,1.3,2,2.5,3.1,3.5l-0.1,0.1c-0.6-9.6-3.1-18.9-5.9-28.1
				c-2.8-9.2-5.8-18.3-7.6-27.8l0.1,0c0.9,5,2.8,9.7,4.8,14.3c2,4.6,4.1,9.2,5.9,13.9c1.8,4.7,3.5,9.5,5.4,14.1
				c1,2.3,1.4,4.8,2.1,7.3c0.3,1.2,0.7,2.4,1.2,3.6c0.5,1.1,1.2,2.2,2.2,3l-0.1,0c2.1-5.1,3.2-10.5,3.7-15.9
				c0.6-5.4,0.7-10.9,0.9-16.4c0.2-5.5,0.5-11,1.3-16.4c0.9-5.4,2.4-10.8,5-15.6l0,0c-0.9,1.8-1.2,3.8-1.3,5.8c-0.1,2,0.1,4,0.3,6
				c0.2,2,0.5,4,0.6,6c0.1,1,0.1,2,0.1,3c0,1-0.1,2-0.2,3c-0.4,8,0.3,16,0.9,24l0,0L157.3,249z"/>
		</g>
		<path id="XMLID_51_" fill="#DBA442" d="M135.8,280.2c0,0-53.3-28.2-100.6-147.6c-9,0.1-14.5,0.5-14.5,0.5
			c47.7,123.5,102.5,152.5,102.5,152.5s19.5,7.4,35.9-3.9C146.8,284.3,135.8,280.2,135.8,280.2z"/>
		<path fill="#7F531F" d="M167.7,289.6c-4.4-2.3-8.8-3.7-13.8-3.7c-0.9,0-1.7,0-2.5,0.1c0.4-0.2,0.8-0.5,1.2-0.7
			c4.3-1.4,8.4-3.5,11.7-6.5c0.9-0.7,1.7-1.5,2.3-2.4c0.2-0.2,0.4-0.5,0.6-0.7c0.2-0.3,0.2-0.6,0.1-0.8c0.1-0.2,0.1-0.5,0.2-0.7
			c0.7-4.4-4.1-5.4-7.4-4.3c-5.3,1.7-10.4,5-14.7,8.4c-1.7,1.4-3.2,2.9-4.6,4.5c-2.8,0.1-5.7,0-8.5-0.3c-4-0.4-8.1-1.8-12.1-1.9
			c-2.1-0.1-3.2,3.3-1.1,4.2c2.2,1,4.7,1.7,7.3,2.2c-3.3,0.7-6.7,2.2-7.3,5.6c-0.9,5,4.9,6.1,8.5,5.7c1.5-0.2,2.9-0.6,4.2-1.1
			c-3.3,3.6-6.7,7.2-9.9,10.9c-2.2,2.5,1.3,5.5,3.4,3.4c0,0,0,0,0,0c5-5.3,9.8-10.8,14.7-16.1c1.9-2,3.7-3.8,5.7-5.3
			c6.9-0.5,13.5-0.7,19.9,3.2C167.9,294.3,170,290.7,167.7,289.6z M127,293.6c-2.1,0.2-4-0.2-1.5-1.9c1.3-0.9,3.6-1,5.1-1.3
			c1.2-0.2,2.4-0.3,3.6-0.4C132.3,292,129.9,293.3,127,293.6z M148.1,281.7c1.6-1.4,3.3-2.7,5.2-3.9c0.8-0.5,8.2-5.1,9-4.3
			c1.3,1.2-7.5,5.4-8.5,5.9c-1.2,0.6-2.3,1.1-3.4,1.7C149.7,281.3,148.9,281.5,148.1,281.7z"/>
	</g>
	<g>
		<g>
			<path fill="#4B5B09" d="M146.7,97.6c1.5,3.6,11.6,1.9,14.6,2.2c11.4-0.6,26.6-4.6,32.3-14.5c-6.2-1.8-12.6-6.1-19.7-5.4
				c-6.5,1.3-13.2,6.9-18.8,11.2c-2.8,2.2-6.2,5-9,7.1"/>
			<path fill="#4B5B09" d="M116.7,61.1c3.6-1.2,3-11.7,3.6-14.8c0.6-11.7-1.8-27.8-10.8-34.6c-2.4,6.2-7.2,12.3-7.2,19.7
				c0.6,6.8,5.4,14.2,9,20.4c1.8,3.1,4.2,6.8,6,9.9"/>
			<path fill="#4B5B09" d="M142.3,95.8c23.8,5.9,54.9,8.5,59.7,40.2c-13.8-3.3-27.2-4.8-39.2-14.4c-7.1-5.4-11.1-22.1-16.6-25.1"/>
		</g>
		<g>
			<path fill="#FF7900" d="M116,85c-0.4,6.9,4.3,12.8,10.4,13.1c2.4,0.1,5.7-1.5,8.8-3.6c0.6-0.4,1.2-0.8,1.8-1.2
				c-0.5,0.5-1,1.1-1.5,1.6c-2.3,2.6-4.1,5.3-4.2,7.5c-0.3,6.1,4.8,11.3,11.5,11.7c6.7,0.4,12.4-4.2,12.7-10.3c0.1-2-1-4.7-2.6-7.3
				c2.3,2,4.7,3.4,6.7,3.5c6.1,0.4,11.4-4.9,11.8-11.8s-4.3-12.8-10.4-13.1c-1.9-0.1-4.2,0.9-6.6,2.2c-0.2,0.1-0.5,0.3-0.7,0.4
				c0.2-0.2,0.3-0.4,0.5-0.6c1.8-2.2,3.1-4.5,3.2-6.3c0.3-6.1-4.8-11.3-11.5-11.7c-6.7-0.4-12.4,4.2-12.7,10.3
				c-0.1,2.1,1.1,4.9,2.8,7.7c0.6,1,1.2,1.9,1.9,2.8c-0.8-0.8-1.6-1.5-2.4-2.3c-2.7-2.4-5.5-4.4-7.7-4.5
				C121.6,72.8,116.4,78.1,116,85z"/>
			<path fill="#FFEDCF" d="M134.4,123.2c1.9,1.8,5.6,2.8,9.5,3.3c1.4,0.2,2.8,0.3,4.1,0.4c-1.3,0.1-2.7,0.3-4,0.5
				c-4.4,0.7-8.5,2-10.4,4.1c-5.2,5.8-4.5,15.3,1.7,21.2c6.2,5.9,15.4,5.9,20.7,0.1c2.1-2.3,3.1-6.9,3.7-11.7
				c0.1-0.9,0.2-1.8,0.3-2.7c0.1,0.9,0.2,1.8,0.3,2.7c0.6,4.3,1.7,8.3,3.7,10.2c5.4,5.2,14.5,4.3,20.2-2.1
				c5.7-6.4,5.9-15.7,0.5-20.9c-1.8-1.7-5.2-2.7-8.9-3.2c3.7-0.8,7-2,8.7-3.8c5.2-5.8,4.5-15.3-1.7-21.2c-6.2-5.9-15.4-5.9-20.7-0.1
				c-1.6,1.8-2.6,4.9-3.2,8.4c-0.1,0.3-0.1,0.7-0.2,1c-0.1-0.3-0.1-0.7-0.2-1c-0.7-3.6-1.7-6.7-3.4-8.3c-5.4-5.2-14.5-4.3-20.2,2.1
				C129.2,108.7,129,118,134.4,123.2z"/>
			<path fill="#FFD95F" d="M93.7,135.2c-0.3,4.9,3,9.1,7.4,9.3c1.7,0.1,4.1-1.1,6.3-2.6c0.4-0.3,0.8-0.6,1.2-0.9
				c-0.4,0.4-0.7,0.8-1,1.1c-1.6,1.8-2.9,3.8-3,5.3c-0.2,4.3,3.4,8.1,8.2,8.3c4.8,0.3,8.8-3,9-7.3c0.1-1.4-0.7-3.3-1.8-5.2
				c1.7,1.4,3.4,2.4,4.7,2.5c4.4,0.3,8.1-3.5,8.4-8.4c0.3-4.9-3-9.1-7.4-9.3c-1.3-0.1-3,0.6-4.7,1.6c-0.2,0.1-0.3,0.2-0.5,0.3
				c0.1-0.1,0.2-0.3,0.4-0.4c1.3-1.6,2.2-3.2,2.3-4.5c0.2-4.3-3.4-8.1-8.2-8.3c-4.8-0.3-8.8,3-9,7.3c-0.1,1.5,0.8,3.5,2,5.5
				c0.4,0.7,0.9,1.4,1.3,2c-0.5-0.6-1.1-1.1-1.7-1.6c-1.9-1.7-3.9-3.1-5.5-3.2C97.7,126.5,94,130.3,93.7,135.2z"/>
			<path fill="#FFEDCF" d="M101.9,58.3c1.6,1,4.4,1.2,7.3,1c1-0.1,2-0.2,3-0.3c-0.9,0.3-1.9,0.6-2.8,1c-3.1,1.2-5.9,2.7-7,4.5
				c-3,5-1.2,11.7,4.1,15.1c5.2,3.4,11.9,2.1,14.9-2.9c1.2-2,1.3-5.5,1.1-9c0-0.7-0.1-1.3-0.2-2c0.2,0.6,0.4,1.3,0.6,1.9
				c1,3,2.4,5.7,4,6.8c4.6,3,11,1,14.3-4.4c3.3-5.4,2.2-12.2-2.5-15.2c-1.5-1-4.1-1.2-6.9-1.1c2.6-1.1,4.8-2.4,5.7-4
				c3-5,1.2-11.7-4.1-15.1c-5.2-3.4-11.9-2.1-14.9,2.9c-0.9,1.5-1.2,3.9-1.2,6.5c0,0.3,0,0.5,0,0.8c-0.1-0.2-0.2-0.5-0.3-0.7
				c-1-2.5-2.1-4.6-3.6-5.5c-4.6-3-11-1-14.3,4.4C96.2,48.5,97.3,55.3,101.9,58.3z"/>
			<ellipse fill="#FFEDCF" cx="113.5" cy="136.2" rx="5.1" ry="5.2"/>
			<ellipse fill="#FFC82E" cx="143.6" cy="86.1" rx="7.6" ry="7.9"/>
			<ellipse fill="#FFC82E" cx="121.5" cy="55.3" rx="5.9" ry="6"/>
			<ellipse fill="#FFC82E" cx="160.1" cy="127.1" rx="9.3" ry="9.6"/>
			<g>
				<path fill="#FFC82E" d="M174,144.5c-3.3-6-8.4-11.2-13.6-15.5c-0.4-0.4-1,0.4-0.6,0.8c4.5,5,8.9,10.3,13.8,15
					C173.8,145,174.2,144.8,174,144.5L174,144.5z"/>
			</g>
			<g>
				<path fill="#FFC82E" d="M178.4,133.3c-4.8-2.1-9.5-4.4-14.2-6.7c-0.6-0.3-1.2,0.6-0.6,1c4.7,2.5,9.6,4.7,14.5,6.8
					C178.7,134.5,179,133.5,178.4,133.3L178.4,133.3z"/>
			</g>
			<g>
				<path fill="#FFC82E" d="M156.8,132.3c-2.9,2.7-5.4,5.4-7.3,8.9c-0.4,0.8,0.6,1.4,1.1,0.7c2.2-3,4.4-6.1,6.8-8.9
					C157.8,132.6,157.3,131.9,156.8,132.3L156.8,132.3z"/>
			</g>
			<g>
				<path fill="#FFC82E" d="M140.7,141.4c6.3-3.7,11.8-8.6,16.6-14.2c0.6-0.7-0.3-1.8-1-1.1c-5,5.3-10.4,10.1-16.2,14.5
					C139.8,140.9,140.3,141.7,140.7,141.4L140.7,141.4z"/>
			</g>
			<g>
				<path fill="#FFC82E" d="M155.7,122.5c-6.5-3.2-12.5-7.2-18.2-11.7c-0.5-0.4-1.1,0.4-0.7,0.8c5.5,4.9,11.7,8.7,18.2,11.9
					C155.7,123.9,156.4,122.9,155.7,122.5L155.7,122.5z"/>
			</g>
			<g>
				<path fill="#FFC82E" d="M156.5,118.3c-2.9-3.6-5.8-7.1-9.1-10.4c-0.8-0.9-2,0.3-1.3,1.3c2.7,3.7,5.7,7.2,8.8,10.7
					C155.8,120.9,157.4,119.4,156.5,118.3L156.5,118.3z"/>
			</g>
			<g>
				<path fill="#FFC82E" d="M164.3,122.8c6.1-2.2,11.9-5.1,17.1-9c0.4-0.3-0.1-1.1-0.5-0.8c-5.3,3.6-10.9,6.7-16.8,9.1
					C163.7,122.2,163.9,122.9,164.3,122.8L164.3,122.8z"/>
			</g>
			<g>
				<path fill="#FFC82E" d="M164,120.2c4.6-3,8.6-6.7,11.8-11.2c0.3-0.4-0.3-0.9-0.6-0.5c-3.4,4.2-7.2,8-11.5,11.3
					C163.4,119.9,163.8,120.4,164,120.2L164,120.2z"/>
			</g>
			<g>
				<path fill="#FFC82E" d="M161.2,118.8c2.2-3.4,3.9-6.9,5.2-10.7c0.3-0.9-1-1.3-1.4-0.4c-1.4,3.6-2.9,7.2-4.5,10.7
					C160.3,118.8,160.9,119.3,161.2,118.8L161.2,118.8z"/>
			</g>
			<g>
				<path fill="#FFEDCF" d="M115.4,152.5c1.2,0.8,2.7-0.5,3.2-1.6c0.8-1.7,0.3-3.6-0.5-5.1c-0.5-0.9-1.8-0.2-1.4,0.8
					c0.4,1.1,0.9,2.4,0.6,3.5c-0.3,1-1.1,1.4-1.8,2C115.3,152.2,115.3,152.4,115.4,152.5L115.4,152.5z"/>
			</g>
			<g>
				<path fill="#FFEDCF" d="M98,140.9c0.6,0.7,2,0.4,2.7,0.2c1.1-0.3,1.9-0.8,2.7-1.5c0.7-0.7-0.3-1.8-1-1.2c-0.6,0.5-1.4,1-2.2,1.3
					c-0.7,0.2-1.6,0.1-2.2,0.6C97.9,140.4,97.9,140.7,98,140.9L98,140.9z"/>
			</g>
			<g>
				<path fill="#FFC82E" d="M115.1,69.7c3.2-4.2,6.2-8,7.8-13.2c0.2-0.6-0.6-0.9-0.9-0.4c-2.9,4.2-4.9,8.9-7.9,12.9
					C113.6,69.7,114.6,70.3,115.1,69.7L115.1,69.7z"/>
			</g>
			<g>
				<path fill="#FFC82E" d="M113.4,62.2c2.7-1.1,5.3-2.3,7.2-4.7c0.4-0.5-0.3-1.3-0.9-1c-2.4,1.4-4.4,3.4-6.8,4.7
					C112.3,61.6,112.7,62.4,113.4,62.2L113.4,62.2z"/>
			</g>
			<g>
				<path fill="#FFC82E" d="M115.6,54.2c-1.6-0.8-3.3-1.1-4.9-1.7c-2-0.7-4-1.7-5.9-2.8c-0.9-0.5-1.7,0.8-0.9,1.4
					c3.2,2.3,7.5,4.7,11.5,4.2C115.9,55.2,116.1,54.4,115.6,54.2L115.6,54.2z"/>
			</g>
			<g>
				<path fill="#FFC82E" d="M117.6,51.7c-2.1-2.1-4.6-4.1-7.3-5.5c-0.6-0.3-1.4,0.4-0.9,1.1c2,2.3,4.4,4.2,7,5.8
					C117.3,53.5,118.4,52.4,117.6,51.7L117.6,51.7z"/>
			</g>
			<g>
				<path fill="#FFC82E" d="M124.7,59.8c1.8,2.3,3.8,4.9,6.7,5.4c0.5,0.1,1.1-0.5,0.6-1c-2-2-4.7-3.1-6.6-5.1
					C125,58.7,124.3,59.3,124.7,59.8L124.7,59.8z"/>
			</g>
			<g>
				<path fill="#FFC82E" d="M126.8,58.8c2.3,0.7,4.5,1.3,6.9,1.2c0.9,0,1.1-1.2,0.2-1.5c-2.1-0.8-4.4-1.1-6.6-1.7
					C126.1,56.5,125.5,58.5,126.8,58.8L126.8,58.8z"/>
			</g>
			<g>
				<path fill="#FFC82E" d="M123.9,53.2c2.9-2.5,5.9-5,9-7.2c0.7-0.5-0.1-1.5-0.8-1.2c-3.6,1.7-6.7,3.9-9.6,6.7
					C121.4,52.6,122.9,54.2,123.9,53.2L123.9,53.2z"/>
			</g>
			<g>
				<path fill="#FFC82E" d="M123.5,43.5c0.4-4.2,4.2-4.2,7.3-4.9c0.8-0.2,0.9-1.6,0.1-1.8c-4-1-10.3,1.7-9.2,6.9
					C122,44.7,123.4,44.5,123.5,43.5L123.5,43.5z"/>
			</g>
			<g>
				<path fill="#FFC82E" d="M154.6,93.5c4.4,2.8,10,0.5,11-4.9c0.2-1.1-1.3-1.3-1.4-0.2c-0.7,4.4-5.4,6.8-9.2,4.5
					C154.6,92.7,154.2,93.3,154.6,93.5L154.6,93.5z"/>
			</g>
			<g>
				<path fill="#FFC82E" d="M148.2,73.9c3.9-1.5,3.2-7.7-0.3-9.3c-0.7-0.3-1.4,0.8-0.8,1.3c2,2,2.3,5.2,0.9,7.6
					C147.8,73.8,148,73.9,148.2,73.9L148.2,73.9z"/>
			</g>
		</g>
	</g>
	<g>
		<g>
			<path fill="#4B5B09" d="M87.1,132.3c-3.1-2.2-10.8,4.8-13.5,6.2c-9.3,6.7-20.1,18.6-19.8,30c6.2-1.8,13.8-1.7,19.5-6.3
				c4.8-4.7,7.6-13.1,10.1-19.8c1.3-3.4,2.6-7.6,3.9-11"/>
			<path fill="#4B5B09" d="M131.5,146.6c-2.4,3,3.5,11.5,4.6,14.5c5.6,10.2,15.9,22.5,27,23.3c-1.2-6.5-0.3-14.4-4.2-20.6
				c-4-5.4-11.9-9-18.2-12.3c-3.1-1.6-7.1-3.4-10.2-5.1"/>
			<path fill="#4B5B09" d="M91.8,131.4c-23.2,8.1-50.9,23-71.3-1.1c13.4-4.8,25.5-10.9,40.6-9.4c8.8,0.6,20.9,12.6,27.1,12.1"/>
		</g>
		<g>
			<path fill="#FF7900" d="M119.2,131.4c-3.2-6-10.2-8.4-15.6-5.4c-2.1,1.2-4,4.4-5.6,7.9c-0.3,0.7-0.6,1.3-0.9,2
				c0.2-0.7,0.3-1.4,0.4-2.1c0.6-3.4,0.7-6.7-0.3-8.6c-2.9-5.3-9.9-6.9-15.8-3.6c-5.9,3.3-8.3,10.4-5.4,15.7c1,1.8,3.3,3.4,5.9,4.7
				c-3-0.4-5.8-0.3-7.5,0.7c-5.4,3.1-7.1,10.4-3.8,16.5c3.2,6,10.2,8.4,15.6,5.4c1.6-0.9,3.1-3.1,4.5-5.5c0.1-0.2,0.3-0.5,0.4-0.7
				c0,0.3-0.1,0.5-0.1,0.8c-0.4,2.9-0.3,5.5,0.6,7.1c2.9,5.3,9.9,6.9,15.8,3.6c5.9-3.3,8.3-10.4,5.4-15.7c-1-1.9-3.5-3.6-6.4-5
				c-1-0.5-2-0.9-3-1.3c1,0.2,2.1,0.5,3.2,0.6c3.5,0.6,6.9,0.7,8.9-0.5C120.7,144.8,122.4,137.4,119.2,131.4z"/>
			<path fill="#FF7900" d="M84.3,103.8c-2.6-0.5-6.2,0.7-9.8,2.4c-1.2,0.6-2.5,1.3-3.7,2c1.1-0.9,2.1-1.7,3.1-2.7
				c3.3-3,6.1-6.4,6.7-9.2c1.4-7.8-4.2-15.4-12.4-17c-8.3-1.6-16.1,3.5-17.5,11.3c-0.6,3.1,0.9,7.6,3,11.9c0.4,0.8,0.8,1.6,1.2,2.5
				c-0.6-0.7-1.1-1.4-1.7-2.1c-2.8-3.3-5.8-6.1-8.4-6.6c-7.3-1.4-14.5,4.4-16,12.9c-1.5,8.5,3.1,16.6,10.4,18
				c2.4,0.5,5.8-0.6,9.2-2.2c-2.7,2.7-4.9,5.5-5.3,8c-1.4,7.8,4.2,15.4,12.4,17c8.3,1.6,16.1-3.5,17.5-11.3c0.4-2.4-0.4-5.6-1.7-8.9
				c-0.1-0.3-0.3-0.6-0.4-1c0.2,0.3,0.4,0.5,0.7,0.7c2.4,2.6,4.9,4.7,7.1,5.1c7.3,1.4,14.5-4.4,16-12.9
				C96.3,113.3,91.6,105.2,84.3,103.8z"/>
			<path fill="#FFEDCF" d="M124.7,110.8c-1.6-1.1-4.4-1.4-7.3-1.3c-1,0-2,0.1-3,0.2c1-0.3,1.9-0.6,2.9-0.9c3.1-1.1,5.9-2.5,7.1-4.3
				c3.1-4.9,1.5-11.7-3.6-15.2c-5.1-3.5-11.9-2.5-15,2.4c-1.2,1.9-1.5,5.4-1.3,8.9c0,0.7,0.1,1.3,0.1,2c-0.2-0.7-0.4-1.3-0.6-1.9
				c-0.9-3.1-2.2-5.8-3.8-6.9c-4.5-3.1-11-1.3-14.4,4c-3.4,5.3-2.5,12.1,2,15.2c1.5,1,4.1,1.3,6.8,1.3c-2.6,1-4.9,2.3-5.9,3.8
				c-3.1,4.9-1.5,11.7,3.6,15.2c5.1,3.5,11.9,2.5,15-2.4c1-1.5,1.3-3.9,1.4-6.5c0-0.3,0-0.5,0-0.8c0.1,0.2,0.2,0.5,0.2,0.7
				c0.9,2.5,2,4.6,3.4,5.6c4.5,3.1,11,1.3,14.4-4C130.2,120.7,129.3,113.9,124.7,110.8z"/>
			<path fill="#FFC82E" d="M112.2,72.1c-2.3-4.3-7.3-6-11.1-3.8c-1.5,0.9-2.9,3.2-4,5.6c-0.2,0.5-0.4,0.9-0.6,1.4
				c0.1-0.5,0.2-1,0.3-1.5c0.4-2.4,0.5-4.8-0.2-6.1c-2-3.8-7.1-4.9-11.2-2.6c-4.2,2.4-5.9,7.4-3.9,11.2c0.7,1.3,2.3,2.4,4.2,3.4
				c-2.1-0.3-4.1-0.2-5.3,0.5c-3.8,2.2-5,7.4-2.7,11.7c2.3,4.3,7.3,6,11.1,3.8c1.2-0.7,2.2-2.2,3.2-3.9c0.1-0.2,0.2-0.3,0.3-0.5
				c0,0.2-0.1,0.4-0.1,0.6c-0.3,2-0.2,3.9,0.4,5.1c2,3.8,7.1,4.9,11.2,2.6c4.2-2.4,5.9-7.4,3.9-11.2c-0.7-1.3-2.5-2.5-4.5-3.5
				c-0.7-0.3-1.4-0.7-2.2-1c0.7,0.2,1.5,0.3,2.3,0.4c2.5,0.4,4.9,0.5,6.3-0.3C113.3,81.7,114.5,76.4,112.2,72.1z"/>
			<path fill="#FFC82E" d="M145.4,140.8c-1.9,0-4.4,1.4-6.7,3.1c-0.8,0.6-1.6,1.3-2.4,1.9c0.6-0.8,1.3-1.6,1.9-2.4
				c2-2.7,3.6-5.5,3.6-7.6c0-5.8-5.1-10.5-11.3-10.5c-6.2,0-11.2,4.8-11.1,10.7c0,2.3,1.7,5.4,3.7,8.2c0.4,0.5,0.8,1.1,1.2,1.6
				c-0.5-0.4-1-0.9-1.5-1.3c-2.4-2-5-3.5-6.9-3.5c-5.5,0-9.8,5.2-9.8,11.6c0,6.4,4.5,11.5,9.9,11.5c1.8,0,4.1-1.2,6.4-2.9
				c-1.6,2.3-2.8,4.7-2.8,6.5c0,5.8,5.1,10.5,11.3,10.5c6.2,0,11.2-4.8,11.1-10.7c0-1.8-1-4-2.4-6.2c-0.1-0.2-0.3-0.4-0.4-0.6
				c0.2,0.2,0.4,0.3,0.6,0.4c2.1,1.6,4.2,2.7,5.8,2.7c5.5,0,9.8-5.2,9.8-11.6C155.3,145.9,150.9,140.8,145.4,140.8z"/>
			<ellipse fill="#FFEDCF" cx="94.9" cy="82.1" rx="5.1" ry="5.2"/>
			<ellipse fill="#FFEDCF" cx="95.2" cy="145.6" rx="7.6" ry="7.9"/>
			<ellipse fill="#FF7900" cx="106.1" cy="111.7" rx="6.6" ry="6.8"/>
			<ellipse fill="#FFEDCF" cx="130.5" cy="154.2" rx="5.9" ry="6"/>
			<ellipse fill="#FFC82E" cx="60.6" cy="114.6" rx="9.3" ry="9.6"/>
			<g>
				<path fill="#FFC82E" d="M39.8,107.6c5.9,3.2,12.9,4.8,19.5,5.6c0.6,0.1,0.7-0.9,0.1-1c-6.4-1.8-12.9-3.8-19.4-5
					C39.7,107.1,39.5,107.5,39.8,107.6L39.8,107.6z"/>
			</g>
			<g>
				<path fill="#FFC82E" d="M41.9,119.5c5.1-0.9,10.3-1.5,15.5-2.1c0.7-0.1,0.7-1.2,0-1.2c-5.3,0.5-10.5,1.3-15.8,2.3
					C41,118.6,41.3,119.6,41.9,119.5L41.9,119.5z"/>
			</g>
			<g>
				<path fill="#FFC82E" d="M60.6,108.5c1.1-3.9,1.8-7.5,1.6-11.6c0-0.9-1.2-0.9-1.3,0c-0.3,3.8-0.5,7.6-1.1,11.3
					C59.7,108.8,60.5,109,60.6,108.5L60.6,108.5z"/>
			</g>
			<g>
				<path fill="#FFC82E" d="M69.5,92c-3.4,6.6-5.5,13.8-6.7,21.2c-0.2,0.9,1.2,1.3,1.4,0.4c1.4-7.2,3.6-14.3,6.1-21.2
					C70.6,91.8,69.8,91.5,69.5,92L69.5,92z"/>
			</g>
			<g>
				<path fill="#FFC82E" d="M66.7,116.1c7.1-0.8,14.3-0.7,21.4-0.1c0.6,0.1,0.7-1,0.1-1.1c-7.2-1.1-14.4-1-21.6,0
					C65.9,115,65.9,116.2,66.7,116.1L66.7,116.1z"/>
			</g>
			<g>
				<path fill="#FFC82E" d="M68.2,120.2c4.3,1.4,8.6,2.8,13.1,3.8c1.2,0.3,1.6-1.4,0.5-1.8c-4.2-1.7-8.6-2.9-13-4.2
					C67.4,117.6,66.9,119.8,68.2,120.2L68.2,120.2z"/>
			</g>
			<g>
				<path fill="#FFC82E" d="M59.3,120.7c-4,5.2-7.4,10.8-9.8,17c-0.2,0.5,0.6,0.9,0.9,0.4c2.6-6,5.7-11.7,9.5-16.9
					C60.1,120.8,59.5,120.3,59.3,120.7L59.3,120.7z"/>
			</g>
			<g>
				<path fill="#FFC82E" d="M60.8,122.7c-2.3,5.1-3.8,10.4-4.2,16c0,0.5,0.7,0.6,0.8,0.1c0.7-5.4,2-10.7,3.9-15.9
					C61.5,122.6,61,122.4,60.8,122.7L60.8,122.7z"/>
			</g>
			<g>
				<path fill="#FFC82E" d="M64,122.3c-0.1,4,0.3,8,1.1,12c0.2,1,1.6,0.5,1.4-0.4c-0.6-3.8-1.3-7.7-1.8-11.6
					C64.7,121.8,64,121.8,64,122.3L64,122.3z"/>
			</g>
			<g>
				<path fill="#FFEDCF" d="M84.9,69.5c-1.4,0-2,1.9-1.9,3.1c0.2,1.9,1.6,3.2,3.1,4.1c0.9,0.5,1.7-0.8,0.8-1.4
					c-0.9-0.7-2-1.5-2.3-2.7c-0.3-1,0.2-1.7,0.5-2.7C85.1,69.6,85,69.5,84.9,69.5L84.9,69.5z"/>
			</g>
			<g>
				<path fill="#FFEDCF" d="M105.9,68.9c-0.9-0.2-1.9,0.7-2.5,1.3c-0.8,0.8-1.2,1.7-1.5,2.8c-0.3,1,1.2,1.4,1.5,0.4
					c0.3-0.8,0.7-1.6,1.2-2.3c0.5-0.6,1.3-1,1.5-1.7C106.3,69.2,106.1,68.9,105.9,68.9L105.9,68.9z"/>
			</g>
			<g>
				<path fill="#FF7900" d="M118.1,94.3c2.1,4.2-2.3,6.3-4.6,8.9c-0.5,0.5,0,1.3,0.7,1.2c2.6-0.6,5-2.4,6.1-5c0.8-2,0.8-4.6-0.8-6.2
					C118.7,92.6,117.7,93.4,118.1,94.3L118.1,94.3z"/>
			</g>
			<g>
				<path fill="#FF7900" d="M93.6,105c2,3.7,7.4,5.1,11.1,3.7c0.8-0.3,0.7-1.4-0.2-1.5c-1.8,0-3.6-0.1-5.3-0.7
					c-1.8-0.5-3.2-1.6-4.8-2.4C93.9,103.9,93.3,104.4,93.6,105L93.6,105z"/>
			</g>
			<g>
				<path fill="#FF7900" d="M93.4,111c2.1,1.5,5.9,0.9,8.2,0.6c1-0.1,1.1-1.6,0-1.6c-1.4-0.1-2.9-0.2-4.3-0.2
					c-1.3-0.1-2.6-0.3-3.8,0.2C93.1,110.2,93,110.7,93.4,111L93.4,111z"/>
			</g>
			<g>
				<path fill="#FF7900" d="M102.2,113.9c-2.3-0.1-3.9,1.7-5.4,3.2c-1.8,1.8-3.6,3.8-4.5,6.1c-0.2,0.6,0.6,1.3,1.1,0.9
					c1.6-1.2,2.8-2.9,4.1-4.4c1.3-1.5,2.9-4,4.8-4.6C103,115,102.9,114,102.2,113.9L102.2,113.9z"/>
			</g>
			<g>
				<path fill="#FF7900" d="M102.4,116.9c-1.4,3-3,5.9-4.1,9.1c-0.2,0.5,0.6,0.8,0.8,0.3c1.6-2.9,2.6-6,3.9-9
					C103.2,116.9,102.6,116.5,102.4,116.9L102.4,116.9z"/>
			</g>
			<g>
				<path fill="#FF7900" d="M109.8,116.9c2.3,2.7,5.2,5.3,8.8,5.4c0.6,0,0.7-0.8,0.3-1.1c-2.7-1.9-5.7-3-8.1-5.4
					C110.1,115.1,109.1,116.2,109.8,116.9L109.8,116.9z"/>
			</g>
			<g>
				<path fill="#FF7900" d="M112.8,114.3c4.4,0.8,8.7,2.2,13.2,2.1c0.7,0,0.8-1,0.2-1.2c-4.2-1.5-8.6-1.6-12.9-2.3
					C112.3,112.8,111.9,114.1,112.8,114.3L112.8,114.3z"/>
			</g>
			<g>
				<path fill="#FF7900" d="M109.7,99.4c-1.5,2.9-2.9,6-3.3,9.3c-0.1,0.6,0.9,0.7,1,0.1c1-3,1.8-6,3.1-8.9
					C110.8,99.3,110,98.8,109.7,99.4L109.7,99.4z"/>
			</g>
			<g>
				<path fill="#FFEDCF" d="M128.4,138.4c-0.5,5.3-1.1,10.2,0.2,15.4c0.1,0.6,1,0.4,1-0.1c0.3-5.1-0.4-10.2,0-15.3
					C129.6,137.6,128.5,137.6,128.4,138.4L128.4,138.4z"/>
			</g>
			<g>
				<path fill="#FFEDCF" d="M133.7,143.9c-1.7,2.4-3.3,4.9-3.7,7.9c-0.1,0.7,0.9,0.9,1.2,0.3c1.3-2.5,2-5.3,3.3-7.7
					C135,143.8,134.1,143.3,133.7,143.9L133.7,143.9z"/>
			</g>
			<g>
				<path fill="#FFEDCF" d="M135.9,151.9c1.7-0.2,3.4-0.9,5.1-1.3c2.1-0.5,4.3-0.8,6.4-0.9c1-0.1,1-1.6,0-1.7
					c-3.9-0.2-8.8,0.2-11.9,2.8C135.1,151.2,135.4,151.9,135.9,151.9L135.9,151.9z"/>
			</g>
			<g>
				<path fill="#FFEDCF" d="M135.5,155.1c2.9,0.6,6,0.9,9,0.6c0.7-0.1,1-1.1,0.2-1.4c-2.9-0.8-5.9-1.1-8.9-1
					C134.8,153.4,134.6,154.9,135.5,155.1L135.5,155.1z"/>
			</g>
			<g>
				<path fill="#FFEDCF" d="M125.3,152.1c-2.7-0.9-5.7-2.1-8.5-0.9c-0.5,0.2-0.6,1,0,1.2c2.7,0.6,5.5,0,8.2,0.6
					C125.7,153.2,125.9,152.3,125.3,152.1L125.3,152.1z"/>
			</g>
			<g>
				<path fill="#FFEDCF" d="M124.1,154.1c-2.3,0.7-4.5,1.4-6.5,2.8c-0.7,0.5-0.3,1.6,0.6,1.4c2.2-0.5,4.3-1.5,6.4-2.2
					C125.9,155.7,125.4,153.7,124.1,154.1L124.1,154.1z"/>
			</g>
			<g>
				<path fill="#FFEDCF" d="M129.4,157.2c-1.1,3.7-2.4,7.4-3.8,11c-0.3,0.8,0.9,1.2,1.3,0.6c2.2-3.5,3.7-7,4.7-11
					C131.9,156.4,129.8,155.9,129.4,157.2L129.4,157.2z"/>
			</g>
			<g>
				<path fill="#FFEDCF" d="M82.1,145.4c-5.2,0.1-8.7,5.1-6.8,10.2c0.4,1,1.8,0.4,1.3-0.6c-1.7-4.1,1.1-8.7,5.4-8.9
					C82.6,146.1,82.6,145.4,82.1,145.4L82.1,145.4z"/>
			</g>
			<g>
				<path fill="#FFEDCF" d="M97.7,158.5c-2.6,3.5,1.3,8.3,5.1,7.6c0.8-0.1,0.7-1.4,0-1.6c-2.8-0.6-4.6-3.1-4.7-6
					C98.1,158.4,97.8,158.3,97.7,158.5L97.7,158.5z"/>
			</g>
		</g>
	</g>
</g>
</svg>
