<?xml version="1.0" encoding="utf-8"?>
<!-- Generator: Adobe Illustrator 22.0.1, SVG Export Plug-In . SVG Version: 6.00 Build 0)  -->
<svg version="1.1" id="레이어_1" xmlns="http://www.w3.org/2000/svg" xmlns:xlink="http://www.w3.org/1999/xlink" x="0px"
	 y="0px" viewBox="0 0 350 230.4" enable-background="new 0 0 350 230.4" xml:space="preserve">
<g>
	<g>
		<path fill="#D30D1C" d="M152.6,79.1c-0.3-1.3-1.2-3-2.6-4.2c-0.4-0.3-0.7-0.6-1.1-0.7c-0.4-0.2-0.7-0.3-1.1-0.5
			c-0.4-0.2-0.7-0.2-1-0.3c-0.3-0.1-0.7-0.2-1-0.2c-1.2-0.1-2.2,0-3,0.1l-1.3,0.2l-1.1,0.3c-0.4,0.1-0.7,0.2-1,0.3l-0.9,0.3
			l-1.8,0.6c-2.4,0.8-4.8,1.6-7.2,2.4c-4.7,1.7-9.3,3.5-13.9,5.3c-4.6,1.8-9.1,3.6-13.7,5.3c-4.6,1.6-9.2,3.2-13.8,4.7
			c-9.3,3-18.8,5.7-28.2,9c-9.4,3.3-18.7,7-27.3,12c18.8-6.2,38.1-9.1,57.5-13.7c4.8-1.2,9.7-2.4,14.5-3.9c4.8-1.5,9.5-3.1,14.2-4.8
			c4.7-1.6,9.3-3.4,13.9-4.9c2.3-0.8,4.6-1.6,6.9-2.3l1.7-0.5l0.9-0.3c0.3-0.1,0.6-0.2,0.8-0.2c0,0,0.1,0,0.1,0
			c-0.4,1.7-1.2,3.8-2.1,5.8c-0.9,2.1-2,4.3-3.1,6.6l-0.4,0.9l-0.2,0.5l-0.2,0.4l-0.7,1.7l-1.3,3.5c-3.6,9.2-7.1,18.5-10.5,27.8
			c-1.7,4.6-3.4,9.3-5,13.9c-0.7,2.1-1.7,4.4-2.7,6.7c-0.9,2.3-1.9,4.6-2.8,6.9c-1.7,4.7-3.5,9.4-4.7,14.3c-0.6,2.4-1.1,5-1.2,7.5
			c0,1.3,0,2.6,0.2,3.8c0.3,1.2,0.8,2.5,1.7,3.3c-0.7-1-0.9-2.2-1-3.4c0-1.2,0.2-2.4,0.5-3.6c0.5-2.3,1.3-4.6,2.3-6.9
			c1.9-4.5,4.1-8.8,6.4-13.1l3.5-6.5c1.2-2.2,2.4-4.3,3.5-6.7c2.1-4.5,4.1-9,6.2-13.5c4.1-9,8-18,11.9-27l1.5-3.4l0.7-1.7l0.2-0.4
			l0.2-0.3l0.4-0.7c1-2.1,2.2-4.3,3.3-6.7c1.1-2.4,2.1-4.8,2.9-7.8c0.2-0.8,0.3-1.6,0.4-2.5C152.9,81.5,152.9,80.4,152.6,79.1z
			 M144.7,82.9C144.7,82.9,144.7,82.9,144.7,82.9C144.7,82.9,144.8,82.9,144.7,82.9C144.8,82.9,144.7,82.9,144.7,82.9z"/>
		<path fill="#ED1C24" d="M299.1,86.5C281.8,47.9,254,2.6,205.7,6.2C157.8,9.8,114.1,35.6,78.7,68c-16.1,14.7-32,29.9-46,46.6
			c22.8-10.2,46.8-13.7,70.3-21.5c12.9-4.3,25.5-9.8,38.5-13.6c13.9-4.1,2.5,14.5,0.1,20.1c-6.6,15.4-12.9,30.9-19,46.5
			c-3.1,7.9-18.4,35-12.4,41.6c3.7,4,18.4,4.6,23.6,5.5c8.2,1.3,16.4,2.2,24.7,2.8c16.6,1.1,33.3,1,49.9,0.8
			c36.4-0.4,73-0.8,108.5-8.4c8.5-1.8,11.5-1.9,10.5-10.3c-0.6-5.2-2.8-10.6-4-15.7c-2.1-8.5-3.8-17.1-6.2-25.4
			C312.1,119.8,306.4,102.8,299.1,86.5z"/>
		<path fill="#FFFFFF" d="M67.2,105.7c0-5-3.3-9.2-7.8-10.7c0.1-0.6,0.2-1.3,0.2-2c0-6.7-5.4-12.1-12.1-12.1c-2,0-3.8,0.5-5.5,1.3
			c-1.8-3.3-5.3-5.6-9.4-5.6c-4.8,0-8.8,3.1-10.2,7.4c-0.2,0-0.3,0-0.5,0c-7.4,0-13.4,6-13.4,13.4c0,1.2,0.2,2.4,0.5,3.5
			c-3.1,0.9-5.4,3.7-5.4,7.1c0,3.6,2.5,6.5,5.9,7.2c-1,1.9-1.5,4-1.5,6.2c0,7.4,6,13.3,13.3,13.3c2,0,3.9-0.5,5.6-1.2
			c3,3.3,7.3,5.3,12,5.3c6.5,0,12-3.8,14.7-9.2c0.3,0,0.7,0.1,1.1,0.1c5,0,9-4,9-9c0-2.1-0.7-4-1.9-5.5
			C65,113.4,67.2,109.8,67.2,105.7z"/>
		<path fill="none" d="M22,84.1"/>
		<path fill="#F2F2F2" d="M3.7,108.1c0.2,1.7,0.9,3.2,2,4.3c1.1,1.1,2.5,1.8,4,2l1.1,0.1l-0.5,1.2c-1,2.4-1.3,5-0.7,7.4
			c0.5,2.4,1.7,4.6,3.5,6.2c0.9,0.8,1.8,1.5,2.9,2c1.1,0.5,2.2,0.8,3.3,1c2.3,0.3,4.6-0.1,6.6-1.1l1.6-0.8l1.5,1.4
			c1.6,1.6,3.5,2.8,5.6,3.5c2.1,0.7,4.3,0.8,6.4,0.5c2.1-0.4,4.1-1.2,5.9-2.5c1.7-1.3,3.1-3,4-4.9l1-2l2.2,0.3
			c2.3,0.3,4.6-0.9,5.7-2.9c0.6-1,0.8-2.1,0.8-3.3c-0.1-1.1-0.5-2.2-1.2-3.2l-2.1-2.8l3-1.7c1.3-0.8,2.5-1.9,3.2-3.3
			c0.7-1.4,1.1-3,1-4.6c-0.2-3.2-2.4-6.2-5.6-7.4l-1.9-0.7l0.3-2l0.2-1.3c0.1-0.4,0-0.9,0-1.3c-0.1-0.9-0.2-1.8-0.5-2.6
			c-0.6-1.7-1.7-3.3-3.1-4.5c-0.7-0.6-1.5-1.1-2.4-1.5c-0.9-0.4-1.8-0.7-2.8-0.8c-1.9-0.3-4-0.1-5.9,0.7l-1,0.4l-0.4-0.8
			c-0.7-1.6-1.8-3-3.3-4.1c-1.5-1.1-3.3-1.8-5.2-2c1.9-0.2,3.9,0.1,5.7,1c1.8,0.9,3.4,2.3,4.5,4.1l-1.3-0.4c2.1-1.2,4.5-1.9,7-1.8
			c2.5,0,5,0.8,7.1,2.3c2.1,1.4,3.9,3.5,5,5.8c0.5,1.2,0.9,2.5,1.1,3.8c0.1,0.7,0.2,1.3,0.1,2l-0.1,2l-1.7-2.7
			c2.5,0.7,4.8,2.2,6.5,4.2c1.7,2,2.9,4.6,3.2,7.2c0.4,2.7-0.1,5.5-1.3,7.9c-1.2,2.4-3.1,4.5-5.4,6l0.9-4.6c1.5,1.8,2.4,4.1,2.6,6.5
			c0.2,2.4-0.3,4.8-1.5,6.9c-1.2,2.1-2.9,3.8-5.1,4.9c-2.1,1.1-4.6,1.5-6.9,1.2l3.2-1.8c-1.4,2.8-3.5,5.3-6,7.2
			c-2.6,1.9-5.6,3.1-8.7,3.5c-3.1,0.4-6.3,0.1-9.2-1.1c-2.9-1.1-5.5-3-7.5-5.3l3,0.6c-1.5,0.6-3.1,1.1-4.8,1.2
			c-0.8,0.1-1.6,0.1-2.5,0c-0.4,0-0.8-0.1-1.2-0.1l-1.2-0.2c-1.6-0.4-3.1-1-4.5-1.8c-1.4-0.8-2.6-1.9-3.6-3.1
			c-1.1-1.2-1.9-2.6-2.5-4c-0.6-1.4-1-3-1.1-4.5c-0.3-3.1,0.5-6.1,2.1-8.6l0.6,1.3c-1.8-0.5-3.4-1.7-4.4-3.1
			C3.9,111.6,3.5,109.8,3.7,108.1z"/>
		<g opacity="0.63">
			<path fill="#F4455A" d="M271.7,136.3c1.1,12.5,0.9,25.5-3.9,37c0.5-1.2,25.9-0.3,28.7,0.2c6.7,1.3,12.2,4.7,19.3,3.3
				c2-16.6-4.2-35-8.5-50.9c-4.3-15.8-10.7-29.7-17.8-44.4c-7.2-14.9-16.9-29.6-27-42.7c-8.7-11.3-15.8-19-30.4-20.6
				c0.6,0.1,7.2,9.2,8.3,10.6c3.1,4,5.2,7.8,7.2,12.6c6.2,14.7,9.7,30,14.3,45.2C266.8,102.8,270.3,119.4,271.7,136.3z"/>
		</g>
		<path fill="#FFFFFF" d="M115.4,158.8c2.4-0.1,4.8,0.3,6.9,1.2c2.2-7.1,8.7-12.4,16.5-12.7c6.6-0.2,12.6,3.3,15.8,8.6
			c2.4-1.4,5.2-2.2,8.2-2.3c6.6-0.2,12.6,3.3,15.8,8.6c2.4-1.4,5.2-2.2,8.2-2.3c2.4-0.1,4.8,0.3,6.9,1.2c2.2-7.1,8.7-12.4,16.5-12.7
			c5.3-0.2,10.1,2,13.5,5.6c1.1-0.3,2.3-0.4,3.6-0.5c5.6-0.2,10.6,2.2,14,6.1c3.1-3.6,7.7-5.9,12.9-6.1c6.8-0.2,12.9,3.5,16,9
			c2.6-1.7,5.7-2.7,9-2.8c0.9,0,1.8,0,2.7,0.1c2.8-5.7,8.6-9.6,15.4-9.8c4.9-0.1,9.4,1.7,12.7,4.8c1.5-0.4,3-0.7,4.6-0.7
			c7-0.2,13.1,3.6,16.2,9.3c5.9,2.8,10.1,8.7,10.3,15.6c0.2,5.2-2,10-5.4,13.4c0,0.2,0,0.4,0,0.5c0.3,9.8-7.4,18.1-17.3,18.3
			c-2.4,0.1-4.8-0.3-6.9-1.2c-2.2,7.1-8.7,12.4-16.5,12.7c-6.6,0.2-12.6-3.3-15.8-8.6c-2.4,1.4-5.2,2.2-8.2,2.3
			c-6.6,0.2-12.6-3.3-15.8-8.6c-2.4,1.4-5.2,2.2-8.2,2.3c-2.4,0.1-4.8-0.3-6.9-1.2c-2.2,7.1-8.7,12.4-16.5,12.7
			c-5.3,0.2-10.1-2-13.5-5.6c-1.1,0.3-2.3,0.4-3.6,0.5c-5.6,0.2-10.6-2.2-14-6.1c-3.1,3.6-7.7,5.9-12.9,6.1c-6.8,0.2-12.9-3.5-16-9
			c-2.6,1.7-5.7,2.7-9,2.8c-0.9,0-1.8,0-2.7-0.1c-2.8,5.7-8.6,9.6-15.4,9.8c-4.9,0.1-9.4-1.7-12.7-4.8c-1.5,0.4-3,0.7-4.6,0.7
			c-7,0.2-13.1-3.6-16.2-9.3c-5.9-2.8-10.1-8.7-10.3-15.6c-0.2-5.2,2-10,5.4-13.4c0-0.2,0-0.4,0-0.5
			C97.9,167.3,105.6,159.1,115.4,158.8z"/>
		<path fill="none" d="M102.6,176.4"/>
		<path fill="#F2F2F2" d="M162.8,153.6c3.1-0.2,6.3,0.5,9.2,1.9c2.8,1.4,5.3,3.7,7.1,6.4l-0.7-0.2c4.6-2.8,10.5-3.4,15.7-1.5
			l-1.2,0.6c0.9-3.1,2.6-6.1,5-8.4c2.4-2.3,5.3-4,8.6-4.8c3.2-0.8,6.7-0.8,9.9,0.1c3.2,0.9,6.3,2.7,8.6,5.1l-1.6-0.5
			c3.4-0.9,7.1-0.8,10.5,0.3c3.4,1,6.5,3,8.9,5.7l-3,0c2-2.4,4.7-4.3,7.6-5.5c2.9-1.2,6.2-1.7,9.3-1.4c3.2,0.3,6.3,1.3,9,3.1
			c2.7,1.7,5,4.1,6.6,6.9l-3.4-0.8c1.9-1.3,4.1-2.2,6.4-2.7c1.1-0.3,2.3-0.4,3.4-0.5c1.2,0,2.3,0,3.5,0.1l-2.6,1.4
			c1.4-2.8,3.5-5.3,6-7.3c2.5-1.9,5.5-3.3,8.7-3.8c3.1-0.6,6.4-0.4,9.5,0.5c3.1,0.9,5.9,2.5,8.3,4.7l-2.8-0.6
			c4.5-1.4,9.5-1.2,13.9,0.6c2.2,0.9,4.2,2.2,6,3.7c1.8,1.6,3.3,3.5,4.4,5.5l-1.4-1.3c3.1,1.4,5.8,3.6,7.8,6.2
			c2.1,2.7,3.4,5.9,4,9.2c0.6,3.3,0.3,6.8-0.7,10c-1,3.2-2.9,6.2-5.3,8.5l0.9-2.4c0.2,3.5-0.5,7-1.9,10.2c-1.4,3.2-3.8,5.9-6.6,8
			c-2.8,2.1-6.2,3.4-9.6,3.9c-3.5,0.5-7,0.1-10.3-1.2l4.2-2.1c-1.2,3.9-3.5,7.4-6.6,10c-3.1,2.6-6.9,4.3-10.9,4.8
			c-4,0.5-8.1-0.2-11.7-1.9c-3.6-1.8-6.7-4.6-8.8-8l4.2,1.1c-2.3,1.3-4.9,2.2-7.6,2.5c-2.7,0.3-5.4,0.1-8-0.5
			c-2.6-0.7-5-1.9-7.2-3.5c-2.1-1.6-3.9-3.6-5.3-5.9l4.1,1.1c-2.7,1.5-5.7,2.4-8.7,2.6c-3,0.2-6.1-0.3-8.9-1.4l3.8-1.9
			c-1.1,3.5-3,6.6-5.7,9.1c-2.6,2.4-5.9,4.2-9.4,5c-3.5,0.8-7.2,0.7-10.6-0.4c-3.4-1.1-6.5-3-9-5.7l2.5,0.8
			c-3.6,0.8-7.4,0.6-10.9-0.5c-3.5-1.2-6.6-3.3-9-6.1l3.6,0c-2.1,2.4-4.8,4.3-7.8,5.4c-3,1.2-6.2,1.5-9.4,1.2
			c-3.2-0.4-6.2-1.5-8.8-3.3c-2.6-1.8-4.8-4.2-6.3-6.9l2.7,0.7c-1.9,1.2-4,2-6.2,2.5c-1.1,0.2-2.2,0.4-3.3,0.4
			c-1.1,0-2.2-0.1-3.3-0.2l1.8-1c-1.4,2.7-3.4,5-5.9,6.8c-2.4,1.8-5.3,2.9-8.3,3.4c-3,0.4-6,0.3-8.8-0.7c-2.8-0.9-5.4-2.5-7.5-4.5
			l1.1,0.3c-4.2,1.2-8.7,0.8-12.6-0.9c-1.9-0.9-3.7-2.1-5.3-3.5c-1.5-1.5-2.8-3.2-3.8-5l0.3,0.2c-3-1.5-5.6-3.9-7.4-6.7
			c-1.8-2.8-2.7-6.1-2.7-9.4c0.2,3.3,1.3,6.5,3.2,9.1c1.9,2.7,4.5,4.7,7.4,6l0.2,0.1l0.1,0.2c1,1.7,2.3,3.2,3.7,4.5
			c1.5,1.3,3.2,2.3,5,3c3.6,1.4,7.7,1.5,11.3,0.3l0.6-0.2l0.5,0.5c1.9,1.7,4.2,3,6.7,3.7c2.5,0.7,5.1,0.7,7.6,0.3
			c2.5-0.5,4.8-1.6,6.8-3.1c2-1.6,3.6-3.5,4.7-5.8l0.5-1l1.3,0c0.9,0,1.8,0.1,2.7,0c0.9-0.1,1.8-0.2,2.7-0.4c1.8-0.4,3.5-1.2,5-2.2
			l1.7-1.1l1.1,1.8c1.3,2.2,3.1,4,5.2,5.4c2.1,1.3,4.5,2.1,7,2.4c2.5,0.2,5-0.1,7.3-1.1c2.3-0.9,4.3-2.4,5.9-4.3l1.8-2.1l1.8,2.1
			c1.9,2.1,4.3,3.6,6.9,4.5c2.6,0.8,5.5,0.9,8.2,0.2l1.4-0.4l1.1,1.1c1.8,1.9,4.2,3.3,6.7,4c2.5,0.7,5.3,0.8,7.8,0.2
			c2.6-0.6,4.9-1.9,6.8-3.7c1.9-1.8,3.3-4.1,4-6.6l0.9-3l2.9,1.1c4.1,1.5,8.8,1.1,12.6-1l2.5-1.4l1.6,2.5c1,1.6,2.3,3,3.8,4.2
			c1.5,1.1,3.3,2,5.1,2.4c1.8,0.5,3.7,0.6,5.6,0.4c1.9-0.2,3.7-0.8,5.3-1.8l2.6-1.5l1.6,2.6c1.5,2.4,3.7,4.4,6.2,5.6
			c2.5,1.2,5.4,1.7,8.2,1.3c2.8-0.3,5.5-1.5,7.6-3.4c2.1-1.8,3.7-4.3,4.6-6.9l1-3.3l3.2,1.2c2.3,0.9,4.7,1.2,7.2,0.8
			c2.4-0.3,4.7-1.3,6.7-2.7c1.9-1.5,3.6-3.4,4.6-5.6c1-2.2,1.5-4.7,1.4-7.1l-0.1-1.4l1-1c1.7-1.7,3-3.7,3.8-6
			c0.8-2.2,0.9-4.7,0.6-7.1c-0.4-2.3-1.3-4.6-2.8-6.5c-1.4-1.9-3.3-3.5-5.5-4.5l-0.9-0.4l-0.5-0.9c-0.8-1.5-1.9-2.8-3.1-4
			c-1.3-1.1-2.7-2.1-4.3-2.7c-3.1-1.3-6.7-1.5-10-0.6l-1.6,0.5l-1.2-1.1c-1.7-1.6-3.7-2.8-6-3.5c-2.2-0.7-4.6-0.8-6.9-0.4
			c-2.3,0.4-4.5,1.3-6.4,2.7c-1.9,1.4-3.5,3.2-4.6,5.3l-0.8,1.4l-1.8-0.1c-0.9,0-1.7-0.1-2.6-0.1c-0.9,0-1.7,0.1-2.6,0.3
			c-1.7,0.4-3.4,1-4.9,1.9l-2.2,1.3l-1.2-2.2c-1.2-2.1-2.9-4-4.9-5.4c-2-1.4-4.4-2.2-6.9-2.5c-2.5-0.3-5,0-7.3,0.9
			c-2.3,0.9-4.5,2.3-6.2,4.2l-1.5,1.7l-1.4-1.7c-1.9-2.2-4.3-3.9-7.1-4.8c-2.7-0.9-5.8-1.1-8.6-0.5l-1,0.2l-0.6-0.7
			c-1.9-2.1-4.4-3.7-7.1-4.6c-2.7-0.9-5.7-1-8.5-0.4c-2.8,0.6-5.5,2-7.7,3.9c-2.2,1.9-3.8,4.5-4.8,7.3l-0.3,1l-0.9-0.4
			c-4.6-1.9-10-1.7-14.5,0.7l-0.5,0.3l-0.3-0.4c-1.5-2.6-3.7-4.9-6.4-6.5C169.1,154.5,166,153.6,162.8,153.6z"/>
		<polygon fill="#FFFFFF" points="85.8,118.3 85.8,118.3 85.8,118.3 85.8,118.3 		"/>
		<polygon fill="#FFFFFF" points="83.3,121.5 83.3,121.5 83.3,121.5 83.3,121.5 		"/>
	</g>
</g>
</svg>
