<?xml version="1.0" encoding="utf-8"?>
<!-- Generator: Adobe Illustrator 22.0.1, SVG Export Plug-In . SVG Version: 6.00 Build 0)  -->
<svg version="1.1" id="레이어_1" xmlns="http://www.w3.org/2000/svg" xmlns:xlink="http://www.w3.org/1999/xlink" x="0px"
	 y="0px" viewBox="0 0 350 350" enable-background="new 0 0 350 350" xml:space="preserve">
<g>
	<g>
		<circle fill="#FFBC1E" cx="173.6" cy="170.1" r="167.3"/>
		<path fill="#FFAB00" d="M173.6,2.8c21.9,0,43.8,4.2,64.1,12.5c20.3,8.2,39.2,20.4,55,35.8c15.8,15.4,28.8,33.8,37.7,54.1
			c9,20.3,14,42.5,14.5,65c0.5,22.4-3.3,45.1-11.5,66.2c-8.3,21.1-20.7,40.6-36.6,57c-15.9,16.3-35.1,29.6-56.2,38.6
			c-10.6,4.5-21.6,7.9-32.8,10.2c-11.3,2.3-22.7,3.4-34.2,3.4c-22.9,0-45.9-4.6-67-13.6c-21.1-8.9-40.3-22.2-56.2-38.6
			c-15.9-16.3-28.3-35.9-36.6-57c-8.2-21.1-12.1-43.8-11.5-66.2c0.5-22.4,5.5-44.6,14.5-65C25.7,84.8,38.7,66.4,54.5,51
			c15.8-15.4,34.6-27.5,55-35.8C129.8,7.1,151.7,2.8,173.6,2.8z M173.6,2.8c-11,0-21.9,1.1-32.6,3.3c-10.7,2.2-21.2,5.5-31.3,9.7
			c-20.1,8.5-38.4,21.2-53.6,36.8C41,68.3,29.1,87,21.3,107c-7.8,20.1-11.4,41.7-10.9,63.1c0.5,21.4,5.3,42.5,13.9,61.9
			c8.5,19.4,20.9,36.9,36,51.5c15.1,14.7,33,26.2,52.3,34c19.4,7.8,40.2,11.9,61.1,11.9c20.9,0,41.7-4,61.1-11.8
			c19.4-7.8,37.3-19.3,52.4-34c15.1-14.6,27.5-32.1,36-51.5c8.6-19.4,13.4-40.5,13.9-61.9c0.5-21.4-3.1-43-10.9-63.1
			c-7.9-20.1-19.7-38.8-34.9-54.4c-15.2-15.6-33.4-28.3-53.6-36.8c-10.1-4.2-20.6-7.5-31.3-9.7C195.5,4,184.6,2.9,173.6,2.8z"/>
	</g>
	<g>
		<g>
			<circle fill="#233840" cx="119.8" cy="142.1" r="24.1"/>
			<circle fill="#233840" cx="227.4" cy="142.1" r="24.1"/>
		</g>
		<g>
			<path fill="#233840" d="M219.2,184h-23.7v11.8c0,2.2-1.8,3.9-3.9,3.9h-14.1c-2.2,0-3.9-1.8-3.9-3.9c0,2.2-1.8,3.9-3.9,3.9h-14.1
				c-2.2,0-3.9-1.8-3.9-3.9V184H128c-14.4,0-26.1,11.8-26.1,26.1v1.4c0,14.4,11.8,26.1,26.1,26.1h2.6c8.3-15.3,24.5-25.6,43-25.6
				c18.6,0,34.7,10.4,43,25.6h2.6c14.4,0,26.1-11.8,26.1-26.1v-1.4C245.4,195.8,233.6,184,219.2,184z"/>
			<path fill="#F92B42" d="M173.6,212c-18.6,0-34.7,10.4-43,25.6h86.1C208.4,222.4,192.2,212,173.6,212z"/>
			<path fill="#FFFFFF" d="M155.7,199.8h14.1c2.2,0,3.9-1.8,3.9-3.9c0,2.2,1.8,3.9,3.9,3.9h14.1c2.2,0,3.9-1.8,3.9-3.9V184h-43.8
				v11.8C151.8,198,153.5,199.8,155.7,199.8z"/>
		</g>
	</g>
</g>
</svg>
