<?xml version="1.0" encoding="utf-8"?>
<!-- Generator: Adobe Illustrator 22.0.1, SVG Export Plug-In . SVG Version: 6.00 Build 0)  -->
<svg version="1.1" id="레이어_1" xmlns="http://www.w3.org/2000/svg" xmlns:xlink="http://www.w3.org/1999/xlink" x="0px"
	 y="0px" viewBox="0 0 238.7 350" enable-background="new 0 0 238.7 350" xml:space="preserve">
<g>
	<g>
		<path fill="#F4F4F4" d="M221.5,42.3V24.5H15.1v17.8c0,53.6,32.2,113.4,76.1,131.7c-43.8,18.3-76.1,78.1-76.1,131.7v17.8h206.4
			v-17.8c0-53.6-32.2-113.4-76.1-131.7C189.2,155.7,221.5,95.9,221.5,42.3z"/>
		<path fill="#D3AC6C" d="M31.4,88.6C47,133.5,80,171,118.3,171c38.2,0,71.3-37.6,86.9-82.5c0,0-40-7.7-108.3-16.3
			C48.1,66.2,31.4,88.6,31.4,88.6z"/>
		<path fill="#D3AC6C" d="M137.9,175.2c-15.8,39.4-12.3,89.1-16.6,89.1c-4.4,0-7.9-37.9-7.9-84.6c0-46.7,3.5-84.6,7.9-84.6
			C125.6,95,159.7,120.5,137.9,175.2z"/>
		<path fill="#D3AC6C" d="M214.9,323.5c0,0-40.4-27-63-39.2c-9.4-5.7-28.2-3.6-33.3-1.9c-11,3.6-9.5,10.1-26.7,12.6
			c-33,2.9-70.1,28.5-70.1,28.5L214.9,323.5L214.9,323.5z"/>
		<path opacity="0.65" fill="#FFFFFE" enable-background="new    " d="M127.3,174C83.5,155.7,51.2,95.9,51.2,42.3V24.5H24v17.8
			c0,53.6,32.2,113.4,76.1,131.7C56.3,192.3,24,252.1,24,305.7v17.8h27.2v-17.8C51.2,252.1,83.5,192.3,127.3,174z"/>
		<path fill="#A36F4F" d="M228.4,10L228.4,10h-2h-4h-2h-2h-2h-2h-2h-2h-4h-2h-2h-2h-2h-2h-2h-6h-2h-2h-2h-2h-2h-2h-2h-2h-2h-2h-2h-6
			h-2h-2h-2h-2h-2h-2h-4h-2h-2h-2h-2h-2h-2h-4h-2h-2h-2h-8.4h-2h-2h-2h-4h-2h-2h-2h-2h-2h-2h-4h-2h-2h-2h-2h-2h-2h-6h-2h-2h-2h-2h-2
			h-2h-2h-2h-2h-2h-2h-6h-2h-2h-2h-2h-2h-2h-4h-2h-2h-2h-2h-2h-2h-4h-2c-1.1,0-2,0.9-2,2v14.5c0,1.1,0.9,2,2,2h2h2v0h8h6h2h12h4h2h4
			h6h2h4h10h2h2h6h8h2h8h6h24.3h6h8h2h8h6h2h2h10h4h2h6h4h2h4h12h2h6h8v0h2h2h0c1.1,0,2-0.9,2-2V12C230.4,10.9,229.5,10,228.4,10z"
			/>
		<path fill="#A36F4F" d="M228.4,319.5L228.4,319.5h-2h-4h-2h-2h-2h-2h-2h-2h-4h-2h-2h-2h-2h-2h-2h-6h-2h-2h-2h-2h-2h-2h-2h-2h-2h-2
			h-2h-6h-2h-2h-2h-2h-2h-2h-4h-2h-2h-2h-2h-2h-2h-4h-2h-2h-2h-8.4h-2h-2h-2h-4h-2h-2h-2h-2h-2h-2h-4h-2h-2h-2h-2h-2h-2h-6h-2h-2h-2
			h-2h-2h-2h-2h-2h-2h-2h-2h-6h-2h-2h-2h-2h-2h-2h-4h-2h-2h-2h-2h-2h-2h-4h-2c-1.1,0-2,0.9-2,2V336c0,1.1,0.9,2,2,2h2h2v0h8h6h2h12
			h4h2h4h6h2h4h10h2h2h6h8h2h8h6h24.3h6h8h2h8h6h2h2h10h4h2h6h4h2h4h12h2h6h8v0h2h2h0c1.1,0,2-0.9,2-2v-14.5
			C230.4,320.4,229.5,319.5,228.4,319.5z"/>
	</g>
</g>
</svg>
