<?xml version="1.0" encoding="utf-8"?>
<!-- Generator: Adobe Illustrator 22.0.1, SVG Export Plug-In . SVG Version: 6.00 Build 0)  -->
<svg version="1.1" id="레이어_1" xmlns="http://www.w3.org/2000/svg" xmlns:xlink="http://www.w3.org/1999/xlink" x="0px"
	 y="0px" viewBox="0 0 37.7 350" enable-background="new 0 0 37.7 350" xml:space="preserve">
<g>
	<g>
		<path fill="#FFFFFF" d="M34.3,170.9c-0.1-2.3-0.2-4.6-0.3-6.9c-0.7-12.2-1.4-24.5-1.5-36.7c-0.2-33.8,0.1-67.5,2.1-101.2
			c0.2-3.5,0-10-4.5-9.7c-3.8,0.3-7.4,4.9-9.3,7.8C11,38.5,8.5,56.8,6.5,73.6c-1.2,10-1.4,20.2-2.1,30.3c-0.6,9-1,18-0.9,27
			c0.1,11.7-0.7,23,0.8,34.7c0.3,2,0.6,5.1,1.3,7.7c0.5,1.7,1.2,3.2,2.3,4.1c2.9,2.4,4.5,1,4.5,5.8c-0.4,46.5-0.9,93.1-1.3,139.6
			c0,3.7,0.5,7.4,4.6,8.3c4.7,1.1,12.1,1.1,16.6-0.7c4-1.5,3.6-5.6,3.6-9.4c-0.2-16.7-0.4-33.4-0.6-50.1c-0.3-24.5-0.6-49.1-1-73.6
			C34.2,188.3,34.5,179.7,34.3,170.9z"/>
		<path fill="#E2E2E2" d="M30,16.3c-1.9,0.2-3.4,1.3-4.8,2.5c-1.3,1.3-2.5,2.7-3.5,4.2c-2.1,3.1-3.9,6.3-5.4,9.6
			c-3,6.7-4.9,13.9-6.2,21.1C8.8,61.1,8,68.4,7.2,75.7c-0.7,7.3-0.9,14.7-1.3,22.1c-0.3,7.4-0.8,14.8-1,22.1
			c-0.1,3.7-0.1,7.4-0.1,11c0,3.7,0,7.4,0,11.1c-0.1,7.4-0.1,14.7,0.8,22l0.3,2.7c0.1,0.9,0.2,1.8,0.4,2.7c0.3,1.8,0.7,3.5,1.4,5
			c0.3,0.7,0.7,1.3,1.2,1.7c0.6,0.5,1.2,0.9,2.1,1.3c0.4,0.2,0.9,0.4,1.5,0.9c0.6,0.5,1,1.3,1.1,1.9c0.3,1.2,0.3,2.2,0.3,3.2
			l-0.6,44.4c-0.2,14.8-0.3,29.6-0.6,44.4l-0.8,44.4l-0.1,5.5c-0.1,1.8-0.1,3.7,0.5,5.3c0.3,0.8,0.7,1.5,1.3,2.1
			c0.6,0.5,1.4,0.9,2.2,1.1c1.8,0.4,3.6,0.6,5.4,0.8c1.8,0.1,3.7,0.1,5.5-0.1c1.8-0.2,3.6-0.5,5.4-1.1c0.8-0.3,1.6-0.7,2.2-1.4
			c0.6-0.7,1-1.5,1.2-2.4c0.4-1.8,0.4-3.7,0.4-5.5c0.1,1.8,0.2,3.7-0.2,5.6c-0.2,0.9-0.6,1.8-1.2,2.6c-0.6,0.7-1.5,1.3-2.3,1.6
			c-1.8,0.7-3.6,1-5.5,1.3c-1.9,0.2-3.7,0.3-5.6,0.2c-1.9-0.1-3.7-0.2-5.6-0.6c-1-0.2-1.9-0.6-2.7-1.3c-0.8-0.7-1.4-1.6-1.7-2.5
			c-0.7-1.9-0.7-3.8-0.7-5.7l0-5.5l0-44.4c0-14.8,0.1-29.6,0.2-44.4l0.3-44.4c0-0.9,0-1.8-0.2-2.3c-0.1-0.3-0.1-0.4-0.2-0.5
			c-0.1-0.1-0.4-0.3-0.8-0.5c-0.8-0.4-1.8-1-2.6-1.7c-1-0.8-1.5-1.8-2-2.8c-0.9-1.9-1.2-3.8-1.6-5.7c-0.2-0.9-0.3-1.9-0.4-2.8
			l-0.3-2.8C1.9,157,2,149.5,2.1,142.1c0.1-3.7,0.1-7.4,0.1-11.1c0-3.7,0-7.4,0.1-11.1c0.1-3.7,0.3-7.4,0.5-11.1l0.8-11.1
			c0.5-7.4,0.8-14.8,1.7-22.2c0.9-7.4,1.9-14.7,3.4-22c1.5-7.3,3.7-14.4,6.9-21.2c1.6-3.4,3.5-6.5,5.7-9.6c1.1-1.5,2.3-2.9,3.7-4.1
			C26.5,17.5,28.2,16.5,30,16.3z"/>
		<g opacity="0.3">
			<path fill="#E2E2E2" d="M20.1,158.1c0.1,5.5,3.4,11.1,7.2,14.7c0.4,0.4,0.9,0.8,1.4,1s1.3,0.1,1.6-0.4c0.1-0.2,0.2-0.4,0.3-0.6
				c0.9-3.1,0.5-6.3,0.1-9.5c-1.5-12.3-2.6-25-2.4-37.4c0.1-8.1-0.5-16.3-0.6-24.4c-0.2-8.3,0.4-16.6,0.2-24.9
				c-0.2-8.5,0.8-16.9,1.3-25.4c0.5-8,1.2-15.9,1.7-23.9c0-0.4,0-0.8-0.2-1.1c-0.4-0.8-3,4.2-3.1,4.6c-3.2,10.6-2.9,21-4.4,31.8
				C21.9,73,21.9,83.5,21.3,94c-1.1,20.7-1.7,41.5-1.2,62.3C20.1,156.9,20.1,157.5,20.1,158.1z"/>
		</g>
		<path opacity="0.5" fill="#E2E2E2" d="M30.2,178.1c0.5,0,1.2,0.1,1.2,0.6c0,0.4-0.4,0.6-0.7,0.8c-3.3,1.7-6.7,3.6-10.3,4.7
			c-1.2,0.4-2.4,1-3.5,0.1c-0.4-0.3-0.9-3.9-0.6-4C20.6,179.3,25.7,178.3,30.2,178.1z"/>
	</g>
</g>
</svg>
