<?xml version="1.0" encoding="utf-8"?>
<!-- Generator: Adobe Illustrator 22.0.1, SVG Export Plug-In . SVG Version: 6.00 Build 0)  -->
<svg version="1.1" id="레이어_1" xmlns="http://www.w3.org/2000/svg" xmlns:xlink="http://www.w3.org/1999/xlink" x="0px"
	 y="0px" viewBox="0 0 350 350" enable-background="new 0 0 350 350" xml:space="preserve">
<g>
	<g>
		<circle fill="#FFFFFF" cx="174.5" cy="175.3" r="167.4"/>
		<g>
			<path fill="#3A3536" d="M174.5,344.6c-93.3,0-169.3-75.9-169.3-169.3S81.1,6,174.5,6s169.3,75.9,169.3,169.3
				S267.8,344.6,174.5,344.6z M174.5,9.8C83.2,9.8,9,84,9,175.3s74.2,165.5,165.5,165.5S340,266.6,340,175.3S265.7,9.8,174.5,9.8z"
				/>
		</g>
		<path fill="#3A3536" d="M334.3,121.1c-5.5-15.5-17-39.3-40.6-64.5c-0.2-0.2-0.4-0.3-0.6-0.3h-18c-0.1-0.2-0.3-0.5-0.6-0.6
			l-65.2-36l6.1-5.5c0.2-0.2,0.3-0.5,0.3-0.7c0-0.3-0.2-0.5-0.5-0.6c-1.3-0.5-31.4-12.6-84.6,0c-0.3,0.1-0.6,0.3-0.6,0.6
			c-0.1,0.3,0.1,0.6,0.3,0.8l8.2,5.5L68.6,55.7c-0.5,0.2-0.7,0.7-0.8,1.1l-18.5,6.3c-0.1,0-0.2,0.1-0.3,0.2
			C26.2,84.5,13.2,127.5,13,128c0,0.2,0,0.3,0,0.5l6.3,19.7c-0.2,0.2-0.3,0.4-0.3,0.6L6.1,188.6c-0.3,0.9,0.2,1.8,1.1,2.1
			c0.2,0.1,0.3,0.1,0.5,0.1c0.7,0,1.3-0.4,1.6-1.1L22,149.8l18.8-3l10.1,51.5c0.1,0.5,0.4,0.8,0.8,1.1v56.1l-18.2,6.6
			c-0.8,0.3-1.3,1.2-1,2.1c0.2,0.7,0.9,1.1,1.5,1.1c0.2,0,0.4,0,0.6-0.1l18.5-6.7c0.1,0,0.1-0.1,0.2-0.1l51.8,32.9
			c0.1,0,0.1,0,0.2,0l33.8,32.6l-8.9,8.1c-0.2,0.2-0.3,0.5-0.3,0.7c0,0.3,0.2,0.5,0.5,0.6c16.4,7.9,32,10.5,45.6,10.5
			c26.3,0,44.9-9.9,46.1-10.6c0.2-0.1,0.4-0.4,0.4-0.7c0-0.3-0.1-0.5-0.3-0.7l-11.2-8.2l25.5-27.4c0.1,0.1,0.2,0.1,0.4,0.1
			c0.2,0,0.3,0,0.5-0.2l54.5-39.1H319c0.9,0,1.6-0.7,1.6-1.6s-0.7-1.6-1.6-1.6h-25.1v-48.6c0.3-0.2,0.6-0.5,0.7-0.9L313,150h26.8
			c0.2,0,0.4-0.1,0.6-0.2c0.2-0.2,0.2-0.4,0.2-0.6C340.6,148.7,340.3,138,334.3,121.1z M175.3,50.9l2.4-29.6h28.2
			c0.1,0.2,0.3,0.5,0.6,0.6l66.4,36.6v27.7l-46.5,5.4c-0.1,0-0.3,0.1-0.4,0.1L175.2,51C175.2,51,175.2,51,175.3,50.9z M70.1,58.6
			L141.6,22c0.3-0.1,0.5-0.4,0.6-0.6h32.2L172,50.7c0,0.1,0,0.2,0,0.3l-50.7,35.4c-0.3-0.1-0.6-0.2-0.9-0.2l-50.3,7.4V58.6z
			 M100.8,201.3l-46.8-4l-10.4-53.4L69.3,97l51-7.5l22.1,58.7c0,0,0,0,0,0L100.8,201.3C100.8,201.2,100.8,201.3,100.8,201.3z
			 M207.8,322.2c-0.1,0.1-0.1,0.2-0.2,0.3h-65.4c-0.1-0.1-0.1-0.3-0.2-0.4l-34.1-32.9l32.5-32.5c0.1,0,0.3,0.1,0.4,0.1h63.9
			c0.1,0,0.1,0,0.2,0l29.3,37L207.8,322.2z M204.9,253.6c-0.1,0-0.1,0-0.2,0h-63.9c-0.1,0-0.1,0-0.2,0l-37-50.7l41.4-52.7
			c0-0.1,0.1-0.1,0.1-0.2h61.6c0,0,0,0,0,0l33.5,57L204.9,253.6z M310,148.7l-18.4,54.5l-48.5,2.4l-33.6-57.1
			c-0.1-0.1-0.1-0.1-0.2-0.2L227,94.9l46.8-5.4l36.4,59C310.1,148.5,310.1,148.6,310,148.7z"/>
	</g>
</g>
</svg>
