<?xml version="1.0" encoding="utf-8"?>
<!-- Generator: Adobe Illustrator 22.0.1, SVG Export Plug-In . SVG Version: 6.00 Build 0)  -->
<svg version="1.1" id="레이어_1" xmlns="http://www.w3.org/2000/svg" xmlns:xlink="http://www.w3.org/1999/xlink" x="0px"
	 y="0px" viewBox="0 0 350 350" enable-background="new 0 0 350 350" xml:space="preserve">
<g>
	<g>
		<circle fill="#FFBC1E" cx="174.1" cy="171.3" r="167.3"/>
		<path fill="#FFAB00" d="M174.1,4c21.9,0,43.8,4.2,64.1,12.5c20.3,8.2,39,20.5,54.9,35.8c15.8,15.4,28.7,33.8,37.5,54.1
			c8.9,20.3,13.8,42.5,14.3,64.8c0.5,22.3-3.4,44.9-11.7,65.9c-8.3,21-20.7,40.4-36.5,56.7c-15.8,16.3-35,29.4-55.9,38.3
			c-10.5,4.4-21.4,7.8-32.6,10.1c-11.2,2.2-22.6,3.4-34,3.4c-11.4,0-22.8-1.2-34-3.4c-11.2-2.2-22.1-5.7-32.6-10.1
			c-21-8.9-40.1-22-56-38.2c-15.8-16.3-28.3-35.7-36.5-56.7c-8.3-21-12.2-43.6-11.7-65.9c0.5-22.4,5.4-44.5,14.3-64.8
			c8.8-20.4,21.8-38.8,37.6-54.1C70.9,37,89.6,24.8,110,16.5C130.3,8.3,152.2,4,174.1,4z M174.1,4c-11,0-21.9,1.1-32.6,3.3
			c-10.7,2.1-21.2,5.4-31.3,9.7C90,25.5,71.6,38.1,56.5,53.7c-15.2,15.6-27.1,34.3-35,54.4c-7.9,20.1-11.6,41.8-11.2,63.2
			c0.5,21.5,5.2,42.7,13.7,62.1c4.3,9.7,9.5,19,15.5,27.7c6,8.7,13,16.8,20.5,24.1c15.2,14.7,33.1,26.4,52.6,34.3
			c19.5,7.9,40.4,12,61.4,12c10.5,0,21-1,31.3-3c10.3-2,20.4-5,30.1-8.9c19.5-7.9,37.4-19.6,52.6-34.3c15.2-14.7,27.6-32.4,36-51.9
			c8.6-19.5,13.3-40.7,13.7-62.2c0.5-21.5-3.3-43.1-11.2-63.2c-7.9-20.1-19.8-38.8-35-54.4C276.5,38.1,258.2,25.5,238,17
			c-10.1-4.2-20.6-7.5-31.3-9.7C196,5.2,185,4.1,174.1,4z"/>
	</g>
	<g>
		<g>
			<path fill="#233840" d="M213.7,216.6c-25.2-10.7-53.6-10.7-78.8,0c-4.8,2.1-5.8,9.1-3.5,13.2c2.8,5,8.4,5.5,13.2,3.5
				c18.1-7.7,41.3-7.7,59.3,0c4.8,2.1,10.3,1.4,13.2-3.5C219.6,225.8,218.5,218.7,213.7,216.6L213.7,216.6z"/>
		</g>
		<g>
			<circle fill="#233840" cx="120.5" cy="175.7" r="24.1"/>
			<circle fill="#233840" cx="228.1" cy="175.7" r="24.1"/>
		</g>
		<g>
			<g>
				<path fill="#233840" d="M91,145.3c19.1-2.5,36.2-10.3,49.7-24.2c10.8-11.1-6.2-28.2-17.1-17.1c-8.8,9-20.1,15.5-32.7,17.1
					c-6.5,0.9-12.1,4.9-12.1,12.1C78.9,139.1,84.5,146.2,91,145.3L91,145.3z"/>
			</g>
			<g>
				<path fill="#233840" d="M252.1,121.2c-12.6-1.7-23.9-8.1-32.7-17.1c-10.9-11.1-27.9,5.9-17.1,17.1
					c13.6,13.9,30.6,21.7,49.7,24.2c6.5,0.9,12.1-6.2,12.1-12.1C264.1,126,258.6,122.1,252.1,121.2L252.1,121.2z"/>
			</g>
		</g>
		<g>
			<path fill="#6BD9F6" d="M97,175.5c-4.6,8.8-8.8,17.8-12.8,26.9c-2,4.5-3.9,9.1-5.7,13.8c-0.5,1.2-0.9,2.3-1.3,3.5
				c-0.4,1.2-0.9,2.3-1.3,3.5c-0.9,2.3-1.7,4.7-2.5,7.1c-1.5,4.8-3,9.5-3.8,14.6l-0.1,1c0,0.3-0.1,0.6-0.1,1c0,0.7-0.1,1.3,0,2
				c0,1.3,0.2,2.6,0.4,3.9c0.2,1.3,0.6,2.5,0.9,3.8c0.4,1.2,0.9,2.4,1.5,3.6c1.2,2.3,2.6,4.4,4.4,6.3c1.8,1.9,3.8,3.5,6,4.8
				c4.4,2.6,9.5,3.8,14.5,3.5c14.6,0,26.5-11.8,26.5-26.5C123.5,233.5,97,175.5,97,175.5z"/>
			<g>
				<path fill="#B4E8F3" d="M87.8,205.9c-1.8,5.6-3.6,11.1-5.4,16.7c-2.2,6.7,8.3,9.5,10.5,2.9c1.8-5.6,3.6-11.1,5.4-16.7
					C100.5,202.1,90,199.3,87.8,205.9L87.8,205.9z"/>
			</g>
			<g>
				<path fill="#B4E8F3" d="M84.5,246c7.8,0,7.8-12.1,0-12.1C76.7,234,76.7,246,84.5,246L84.5,246z"/>
			</g>
		</g>
		<g>
			<path fill="#6BD9F6" d="M252.4,175.5c-4.6,8.8-8.8,17.8-12.8,26.9c-2,4.5-3.9,9.1-5.7,13.8c-0.5,1.2-0.9,2.3-1.3,3.5
				c-0.4,1.2-0.9,2.3-1.3,3.5c-0.9,2.3-1.7,4.7-2.5,7.1c-1.5,4.8-3,9.5-3.8,14.6l-0.1,1c0,0.3-0.1,0.6-0.1,1c0,0.7-0.1,1.3,0,2
				c0,1.3,0.2,2.6,0.4,3.9c0.2,1.3,0.6,2.5,0.9,3.8c0.4,1.2,0.9,2.4,1.5,3.6c1.2,2.3,2.6,4.4,4.4,6.3c1.8,1.9,3.8,3.5,6,4.8
				c4.4,2.6,9.5,3.8,14.5,3.5c14.6,0,26.5-11.8,26.5-26.5C278.9,233.5,252.4,175.5,252.4,175.5z"/>
			<g>
				<path fill="#B4E8F3" d="M243.2,205.9c-1.8,5.6-3.6,11.1-5.4,16.7c-2.2,6.7,8.3,9.5,10.5,2.9c1.8-5.6,3.6-11.1,5.4-16.7
					C255.8,202.1,245.4,199.3,243.2,205.9L243.2,205.9z"/>
			</g>
			<g>
				<path fill="#B4E8F3" d="M239.9,246c7.8,0,7.8-12.1,0-12.1C232.1,234,232.1,246,239.9,246L239.9,246z"/>
			</g>
		</g>
	</g>
</g>
</svg>
