<?xml version="1.0" encoding="utf-8"?>
<!-- Generator: Adobe Illustrator 22.0.1, SVG Export Plug-In . SVG Version: 6.00 Build 0)  -->
<svg version="1.1" id="레이어_1" xmlns="http://www.w3.org/2000/svg" xmlns:xlink="http://www.w3.org/1999/xlink" x="0px"
	 y="0px" viewBox="0 0 350 350" enable-background="new 0 0 350 350" xml:space="preserve">
<g>
	<polygon fill="#BCE4F8" points="215.6,10 146.7,10 117.4,10 98.1,10 9,10 9,125.5 9,150.6 9,188.7 9,278 9,340 339,340 339,10 	"/>
	<g>
		<polygon fill="#BCE4F8" points="215.6,10 9,278 9,340 339,340 339,10 		"/>
		<polygon fill="#BCE4F8" points="117.4,10 9,150.6 9,188.7 146.7,10 		"/>
		<polygon fill="#BCE4F8" points="9,10 9,125.5 98.1,10 		"/>
		<polygon fill="#BCE4F8" points="146.7,10 9,188.7 9,278 215.6,10 		"/>
		<polygon opacity="0.54" fill="#E9F6FF" points="146.7,10 9,188.7 9,278 215.6,10 		"/>
		<polygon fill="#BCE4F8" points="98.1,10 9,125.5 9,150.6 117.4,10 		"/>
		<polygon opacity="0.54" fill="#E9F6FF" points="98.1,10 9,125.5 9,150.6 117.4,10 		"/>
	</g>
</g>
</svg>
