<?xml version="1.0" encoding="utf-8"?>
<!-- Generator: Adobe Illustrator 22.0.1, SVG Export Plug-In . SVG Version: 6.00 Build 0)  -->
<svg version="1.1" id="레이어_1" xmlns="http://www.w3.org/2000/svg" xmlns:xlink="http://www.w3.org/1999/xlink" x="0px"
	 y="0px" viewBox="0 0 350 341.7" enable-background="new 0 0 350 341.7" xml:space="preserve">
<g>
	<g>
		<path fill="#E4F6F7" d="M308.8,98.7c-3-0.8-4.9-2-5.6-5.2c-0.7-3.1-2-6-3.6-8.7c-11.5-19.5-28.7-29.3-51.1-29.7
			c-4.3-0.1-6.5-1.1-8.5-5.3c-7.4-16.3-19.5-28.3-35.7-36.1c-6-2.9-12.5-4.6-19.1-5.7c-34.2-5.7-67.5,14.1-80.6,45.9
			c-1.2,2.9-2.8,3.7-5.7,3.4C75.4,55,54.3,61,35.9,75.8c-15.7,12.7-25.4,29.2-27,49.5c-2.2,27.9,9.3,50,32.1,65.4
			c28.7,19.4,59.2,20.4,90.2,5.2c3-1.5,5-1.6,7.8,0.4c10.6,7.3,22.6,10.6,35.4,10.4c12.4-0.2,23.9-3.9,34.1-11
			c1.7-1.2,3.3-1.9,5.6-1c21.6,7.8,41.7,5,60.2-8.5c1.8-1.3,3.2-1.4,5.2-0.6c7.6,3.1,15.4,4.5,23.7,3.4c23.1-3.2,39.3-20.7,40.2-45
			C344.1,122.9,330,104,308.8,98.7z"/>
		<g>
			<g>
				<path fill="#CBE6F7" d="M126.4,225.2c0,0-12.3,27.8,0,28.1C126.4,253.3,138,254.5,126.4,225.2z"/>
				<path fill="#CBE6F7" d="M167.6,235.8c0,0-10.3,23.2,0,23.5C167.6,259.3,177.3,260.3,167.6,235.8z"/>
				<path fill="#CBE6F7" d="M193.3,261c0,0-18.6,42,0,42.5C193.3,303.5,210.8,305.3,193.3,261z"/>
				<path fill="#CBE6F7" d="M247.9,162.9c0,0-15.1,27.8,0,28.1C247.9,191.1,262.1,192.3,247.9,162.9z"/>
				<path fill="#CBE6F7" d="M214.3,212.4c0,0-18.5,27.8,0,28.1C214.3,240.5,231.7,241.7,214.3,212.4z"/>
				<path fill="#CBE6F7" d="M280.4,212.4c0,0-12.3,27.8,0,28.1C280.4,240.5,292,241.7,280.4,212.4z"/>
				<path fill="#CBE6F7" d="M241.5,242.1c0,0-16.5,37.3,0,37.7C241.5,279.8,257.1,281.5,241.5,242.1z"/>
				<path fill="#CBE6F7" d="M106.1,183c0,0-12.3,27.8,0,28.1C106.1,211.1,117.6,212.3,106.1,183z"/>
				<path fill="#CBE6F7" d="M138.9,280.7c0,0-10,20.7,0,20.9C138.9,301.7,148.2,302.6,138.9,280.7z"/>
				<path fill="#CBE6F7" d="M94,283.5c0,0-15.6,35.2,0,35.6C94,319.1,108.7,320.6,94,283.5z"/>
				<path fill="#CBE6F7" d="M74.5,219.2c0,0-24.9,43.1,0,43.6C74.5,262.8,97.9,264.6,74.5,219.2z"/>
				<path fill="#CBE6F7" d="M275.1,261.7c0,0-12.3,27.8,0,28.1C275.1,289.8,286.7,291,275.1,261.7z"/>
				<path fill="#CBE6F7" d="M226.5,309.8c0,0-18.4,27.8,0,28.1C226.5,337.9,243.8,339.2,226.5,309.8z"/>
			</g>
		</g>
		<path fill="#FFFFFF" d="M169.1,7.6l-2.3,0c-1.6,0-3.1,0-4.7,0.1c-1.6,0.1-3.1,0.2-4.7,0.4c-1.6,0.2-3.1,0.5-4.7,0.7
			c-6.3,1.2-12.5,3.3-18.4,6.3c-5.9,3-11.4,6.9-16.3,11.6l-1.8,1.7l-1.7,1.9l-1.7,1.9c-0.5,0.6-1,1.3-1.6,2c-1,1.3-2.1,2.6-3,4
			c-0.9,1.4-2,2.8-2.8,4.2c-0.8,1.4-1.7,2.9-2.5,4.3l-1.2,2.3c-6.5-0.8-13.2-0.9-19.9-0.4c-6.8,0.6-13.6,2-20.1,4.1
			C55,55.1,48.8,58.1,43,61.7c-5.8,3.7-11.1,7.8-16.1,12.6c-4.9,4.8-9.3,10.3-12.9,16.3c-3.5,6-6.4,12.6-8,19.3
			c-0.8,3.4-1.5,6.8-1.8,10.2c-0.4,3.4-0.4,6.9-0.4,10.2c0,1.7,0.1,3.4,0.3,5c0.1,0.8,0.1,1.7,0.2,2.5l0.4,2.5l0.4,2.5l0.5,2.5
			l0.5,2.5c0.2,0.8,0.5,1.6,0.7,2.4c1.9,6.5,4.7,12.7,8.4,18.2c3.7,5.5,8.1,10.4,13.1,14.4c5,4.1,10.4,7.3,16.1,9.9
			c-4.4-4.4-8.5-9-11.9-13.8c-3.4-4.9-6.3-10-8.3-15.3c-4.2-10.6-5.3-21.8-4.1-32.8c0.3-2.8,0.7-5.5,1.3-8.1
			c0.5-2.6,1.3-5.2,2.1-7.7c1.8-5,4.2-9.7,7.1-14c3-4.3,6.4-8.4,10.4-12c3.9-3.6,8.4-7,12.9-9.8c9.1-5.8,19.3-9.5,30-11.1
			c5.4-0.8,10.9-1,16.5-0.9l2.8,0.1c0.7,0,1.6,0,2.6-0.2c1-0.2,2.1-0.4,3.3-0.9c1.2-0.5,2.3-1.2,3.3-2c0.9-0.8,1.7-1.7,2.2-2.5
			l0.4-0.6l0.3-0.6c0.2-0.4,0.4-0.7,0.5-1.1c0.3-0.6,0.6-1.4,0.7-1.6L118,54c0.5-1.3,1.1-2.6,1.7-3.8c4.6-10.1,11.1-19.3,20-26.5
			c4.4-3.6,9.4-6.7,14.7-9.4l4.1-1.9c1.4-0.6,2.8-1.1,4.2-1.7c1.4-0.6,2.9-1,4.3-1.6l2.2-0.8c0.8-0.3,1.4-0.7,2.1-1
			C170.6,7.5,169.8,7.6,169.1,7.6z"/>
		<path opacity="0.42" fill="#FFFFFF" d="M265.7,88.4c-1.1-6.1-4.2-11.9-9.2-16.2c-4.9-4.2-11-6.7-17.2-7.6
			c-3.1-0.5-6.2-0.6-9.3-0.4c0.2-2.8,0-5.5-0.6-8.1c-1.3-5.7-4.1-10.9-8.1-14.9c-3.9-4-8.8-6.6-13.8-8.2c-5-1.5-10.2-1.9-15.1-1.2
			c4.7,1.6,9.1,3.5,13,6c3.9,2.5,7.1,5.5,9.5,8.9c1.1,1.7,2.1,3.5,2.8,5.4c0.7,1.9,1.2,3.8,1.4,5.8c0.5,3.9-0.1,7.7-1.7,10.8
			l-5.8,11.1l12.3-3.1c4.6-1.2,9.3-1.6,13.9-1.1c4.6,0.5,9,1.8,12.8,4.3c3.7,2.3,6.8,6,8.7,10.4c1.9,4.3,2.7,9.4,1.2,14.5l0,0
			c0,0.1-0.1,0.1-0.1,0.2l-3.4,6.7l4.9-6.1c1.8-2.2,3.1-5,3.7-8C266.2,94.5,266.2,91.4,265.7,88.4z"/>
		<path opacity="0.29" fill="#FFFFFF" d="M173.6,12.9l-2.2,0c-1.5,0-3,0-4.5,0.1c-1.5,0.1-3,0.2-4.5,0.4c-1.5,0.2-3,0.5-4.5,0.7
			c-6,1.2-11.9,3.3-17.4,6.3c-5.6,3-10.8,6.9-15.4,11.6l-1.7,1.8l-1.6,1.9l-1.6,1.9c-0.5,0.6-1,1.3-1.5,2c-1,1.3-2,2.6-2.9,4
			c-0.9,1.4-1.9,2.8-2.6,4.2c-0.8,1.4-1.6,2.9-2.4,4.4l-1.1,2.3c-6.2-0.8-12.5-1-18.9-0.4c-6.4,0.6-12.9,2-19.1,4.1
			c-6.2,2.2-12.1,5.2-17.7,8.8c-5.5,3.7-10.6,7.8-15.3,12.6C34.2,84.5,30,90,26.5,96c-3.4,6-6,12.6-7.6,19.4
			c-0.8,3.4-1.4,6.8-1.7,10.2c-0.4,3.4-0.4,6.9-0.4,10.2c0,1.7,0.1,3.4,0.2,5c0.1,0.8,0.1,1.7,0.2,2.5l0.3,2.5l0.3,2.5l0.5,2.5
			l0.5,2.5c0.2,0.8,0.4,1.6,0.7,2.4c1.8,6.5,4.5,12.7,8,18.2c3.5,5.5,7.7,10.4,12.4,14.5c4.7,4.1,9.9,7.3,15.3,9.9
			c-4.2-4.4-8-9-11.3-13.8c-3.3-4.9-5.9-10-7.9-15.3c-4-10.6-5-21.8-3.9-32.9c0.3-2.8,0.6-5.5,1.2-8.1c0.5-2.6,1.2-5.2,2-7.7
			c1.7-5,3.9-9.7,6.8-14c2.8-4.3,6.1-8.4,9.9-12c3.7-3.6,7.9-7,12.3-9.8c8.7-5.8,18.3-9.5,28.5-11.1c5.1-0.8,10.3-1,15.6-0.9
			l2.7,0.1c0.7,0,1.5,0,2.4-0.2c0.9-0.2,2-0.4,3.1-0.9c1.1-0.5,2.2-1.2,3.1-2.1c0.9-0.8,1.6-1.7,2.1-2.5l0.4-0.6l0.3-0.6
			c0.2-0.4,0.4-0.7,0.5-1.1c0.3-0.6,0.6-1.4,0.6-1.6l1.4-3.9c0.5-1.3,1-2.6,1.6-3.8c4.3-10.2,10.6-19.3,19-26.5
			c4.2-3.6,8.9-6.7,14-9.4l3.9-1.9c1.3-0.6,2.7-1.1,4-1.7c1.3-0.6,2.7-1,4.1-1.6l2.1-0.8c0.7-0.3,1.4-0.7,2-1
			C175.1,12.7,174.3,12.9,173.6,12.9z"/>
		<path opacity="0.42" fill="#FFFFFF" d="M306.1,114.8c3.3-0.1,6.4,1.4,9.1,3.8c2.7,2.4,4.9,5.9,6.3,10c1.4,4.2,1.7,9,0.8,13.3
			c-0.9,4.3-3,8.4-6.1,10c0.4-4.3,0.3-7.5-0.1-10.7c-0.4-3.1-1-6-1.9-8.6c-0.9-2.7-2-5.5-3.4-8.3
			C309.4,121.3,307.8,118.4,306.1,114.8z"/>
	</g>
</g>
</svg>
