<?xml version="1.0" encoding="utf-8"?>
<!-- Generator: Adobe Illustrator 22.0.1, SVG Export Plug-In . SVG Version: 6.00 Build 0)  -->
<svg version="1.1" id="레이어_1" xmlns="http://www.w3.org/2000/svg" xmlns:xlink="http://www.w3.org/1999/xlink" x="0px"
	 y="0px" viewBox="0 0 350 350" enable-background="new 0 0 350 350" xml:space="preserve">
<g>
	<g>
		<circle fill="#FFBC1E" cx="175.4" cy="171.6" r="167.3"/>
		<path fill="#FFAB00" d="M175.4,4.3c21.9,0,43.8,4.2,64.1,12.5c20.3,8.2,39.2,20.4,55,35.8c15.8,15.4,28.8,33.8,37.7,54.1
			c9,20.3,14,42.5,14.5,65c0.5,22.4-3.3,45.1-11.5,66.2c-8.3,21.1-20.7,40.6-36.6,57c-15.9,16.3-35.1,29.6-56.2,38.6
			c-10.6,4.5-21.6,7.9-32.8,10.2c-11.3,2.3-22.7,3.4-34.2,3.4c-22.9,0-45.9-4.6-67-13.6c-21.1-8.9-40.3-22.2-56.2-38.6
			c-15.9-16.3-28.3-35.9-36.6-57C7.3,216.7,3.5,194,4,171.6c0.5-22.4,5.5-44.6,14.5-65c8.9-20.4,21.9-38.8,37.7-54.1
			c15.8-15.4,34.6-27.5,55-35.8C131.6,8.5,153.5,4.3,175.4,4.3z M175.4,4.3c-11,0-21.9,1.1-32.6,3.3c-10.7,2.2-21.2,5.5-31.3,9.7
			c-20.1,8.5-38.4,21.2-53.6,36.8c-15.2,15.6-27,34.3-34.8,54.4c-7.8,20.1-11.4,41.7-10.9,63.1c0.5,21.4,5.3,42.5,13.9,61.9
			c8.5,19.4,20.9,36.9,36,51.5c15.1,14.7,33,26.2,52.3,34c19.4,7.8,40.2,11.9,61.1,11.9c20.9,0,41.7-4,61.1-11.8
			c19.4-7.8,37.3-19.3,52.4-34c15.1-14.6,27.5-32.1,36-51.5c8.6-19.4,13.4-40.5,13.9-61.9c0.5-21.4-3.1-43-10.9-63.1
			c-7.9-20.1-19.7-38.8-34.9-54.4c-15.2-15.6-33.4-28.3-53.6-36.8C229.2,13,218.7,9.7,208,7.6C197.3,5.4,186.3,4.3,175.4,4.3z"/>
	</g>
	<g>
		<path fill="#6BD9F6" d="M58.4,101.2c-4.2,7.9-7.9,16-11.5,24.3c-1.8,4.1-3.5,8.2-5.2,12.4c-0.4,1-0.8,2.1-1.2,3.1
			c-0.4,1-0.8,2.1-1.2,3.2c-0.8,2.1-1.5,4.2-2.2,6.4c-1.4,4.3-2.7,8.6-3.4,13.2l-0.1,0.9c0,0.3-0.1,0.6-0.1,0.9c0,0.6-0.1,1.2,0,1.8
			c0,1.2,0.2,2.3,0.4,3.5c0.2,1.2,0.5,2.3,0.9,3.4c0.4,1.1,0.8,2.2,1.3,3.2c1.1,2.1,2.4,4,4,5.7c1.6,1.7,3.4,3.1,5.4,4.3
			c4,2.3,8.6,3.4,13,3.2c13.2,0,23.8-10.7,23.8-23.8C82.2,153.4,58.4,101.2,58.4,101.2z"/>
		<g>
			<path fill="#B4E8F3" d="M50.1,128.6c-1.6,5-3.3,10-4.9,15c-2,6,7.5,8.6,9.4,2.6c1.6-5,3.3-10,4.9-15
				C61.5,125.2,52,122.6,50.1,128.6L50.1,128.6z"/>
		</g>
		<g>
			<path fill="#B4E8F3" d="M47.1,164.8c7,0,7-10.9,0-10.9C40.1,153.9,40.1,164.8,47.1,164.8L47.1,164.8z"/>
		</g>
	</g>
	<circle fill="#233840" cx="121.5" cy="166.4" r="24.1"/>
	<circle fill="#233840" cx="229.2" cy="166.4" r="24.1"/>
	<g>
		<path fill="#233840" d="M94.8,129c19.1-2.5,36.2-10.3,49.7-24.2c10.8-11.1-6.2-28.2-17.1-17.1c-8.8,9-20.1,15.5-32.7,17.1
			c-6.5,0.9-12.1,4.9-12.1,12.1C82.8,122.8,88.3,129.8,94.8,129L94.8,129z"/>
	</g>
	<g>
		<path fill="#233840" d="M255.9,104.8c-12.6-1.7-23.9-8.1-32.7-17.1c-10.9-11.1-27.9,5.9-17.1,17.1c13.6,13.9,30.6,21.7,49.7,24.2
			c6.5,0.9,12.1-6.2,12.1-12.1C267.9,109.7,262.4,105.7,255.9,104.8L255.9,104.8z"/>
	</g>
	<g>
		<path fill="#233840" d="M235.3,227.9c0-13.4-26.8-24.2-60-24.2s-60,10.8-60,24.2c0,7.5,8.5,14.2,21.7,18.6
			c9-11.2,22.8-18.5,38.3-18.5c15.5,0,29.3,7.2,38.3,18.4C226.9,242.1,235.3,235.4,235.3,227.9z"/>
		<path fill="#F92B42" d="M175.4,228.1c-15.5,0-29.3,7.2-38.3,18.5c10.4,3.5,23.7,5.6,38.2,5.6c14.6,0,27.9-2.1,38.3-5.6
			C204.7,235.3,190.9,228.1,175.4,228.1z"/>
	</g>
</g>
</svg>
