<?xml version="1.0" encoding="utf-8"?>
<!-- Generator: Adobe Illustrator 22.0.1, SVG Export Plug-In . SVG Version: 6.00 Build 0)  -->
<svg version="1.1" id="레이어_1" xmlns="http://www.w3.org/2000/svg" xmlns:xlink="http://www.w3.org/1999/xlink" x="0px"
	 y="0px" viewBox="0 0 231.4 350" enable-background="new 0 0 231.4 350" xml:space="preserve">
<g>
	<g>
		<path fill="#F7BE08" d="M223.2,113.9c0-12.1-1.5-24-6.3-36c-7.7-19.2-21.6-35.7-38.9-47C160.2,19.1,139,13,117.6,13
			c-43,0-84.4,25.8-99.9,66.5c-10.3,27-4.2,56-1.7,83.9c2.7,29.1,5.4,58.2,10.1,87.1c2,12.3,4.3,24.6,7.1,36.8
			c1.4,6,2.9,12,4.5,17.9c0.8,3.1,2.7,16.4,5.2,17.9c1.6,1,2.9,1.9,4.2,2.8l-9.7-118.5c0,0,6.6,63.6,12.9,120.9
			c0.7,0.6,1.4,1.1,2.2,1.6L40.5,179.6c0,0,8.3,86.1,15.3,152.2c1.6,0.7,3.6,1.3,6,1.7L46.4,179.6c0,0,11.8,92,19.7,154.3
			c1.2,0.1,2.5,0.1,4,0.1c-7-68.3-17-137.5-15.8-205c19.8,3.8,41.1,5.9,63.3,5.9c12.3,0,24.3-0.6,36-1.9c0.6-4.6,0.7-8.8,0.3-12.1
			c1.9,2.1,2.8,6.3,2.7,11.8c2-0.2,4-0.5,6-0.7c-0.4-11.2-2.4-20.9-5.3-26.9c4.6,2.6,8.2,13,9.5,26.3c4.9-0.7,9.7-1.5,14.4-2.4
			c1.2,67.5-8.8,136.8-15.8,205.1c2.8,0,5.1-0.1,7.1-0.4l19-164.4c-0.2,2.1-11.7,101.4-15.8,163.9c1.6-0.4,2.9-0.8,4.1-1.3
			l14.1-157.4c-0.2,1.8-8.3,93.1-11.2,155.8c0.9-0.6,1.8-1.3,2.7-2l15.4-171.5c-0.2,1.9-9.5,106.5-11.8,168.7
			c1.1-0.8,2.3-1.6,3.6-2.4c1.3-0.8,2.4-7.7,2.8-9.4c1.1-3.7,2.1-7.4,3.1-11c1.9-7,3.5-14.1,5.1-21.2c3.1-14.1,5.5-28.4,7.6-42.6
			c4.2-28.9,6.7-58.1,9.4-87.2C221.6,138.7,223.2,126.3,223.2,113.9z"/>
		<path fill="#F9CB4B" d="M117,37.4C70.7,40.5,31.2,74.4,24,113c-0.3-2.8-0.5-5.7-0.5-8.6c0-39.5,31.3-72.7,73.9-82.6L87.8,36
			L117,37.4z"/>
	</g>
</g>
</svg>
