<?xml version="1.0" encoding="utf-8"?>
<!-- Generator: Adobe Illustrator 22.0.1, SVG Export Plug-In . SVG Version: 6.00 Build 0)  -->
<svg version="1.1" id="레이어_1" xmlns="http://www.w3.org/2000/svg" xmlns:xlink="http://www.w3.org/1999/xlink" x="0px"
	 y="0px" viewBox="0 0 350 126" enable-background="new 0 0 350 126" xml:space="preserve">
<g>
	<polygon fill="#BCE4F8" points="158.4,9 120.3,9 104.1,9 93.4,9 8.7,9 8.7,118.8 8.7,119.5 18.9,119.5 35.1,119.5 73.2,119.5 
		341.3,119.5 341.3,9 	"/>
	<g>
		<polygon fill="#BCE4F8" points="104.1,9 18.9,119.5 35.1,119.5 120.3,9 		"/>
		<polygon fill="#BCE4F8" points="158.4,9 73.2,119.5 341.3,119.5 341.3,9 		"/>
		<polygon fill="#BCE4F8" points="8.7,9 8.7,118.8 93.4,9 		"/>
		<polygon fill="#B5E1FC" points="120.3,9 35.1,119.5 73.2,119.5 158.4,9 		"/>
		<polygon opacity="0.54" fill="#E9F6FF" points="120.3,9 35.1,119.5 73.2,119.5 158.4,9 		"/>
		<polygon fill="#B5E1FC" points="93.4,9 8.7,118.8 8.7,119.5 18.9,119.5 104.1,9 		"/>
		<polygon opacity="0.54" fill="#E9F6FF" points="93.4,9 8.7,118.8 8.7,119.5 18.9,119.5 104.1,9 		"/>
	</g>
</g>
</svg>
