<?xml version="1.0" encoding="utf-8"?>
<!-- Generator: Adobe Illustrator 22.0.1, SVG Export Plug-In . SVG Version: 6.00 Build 0)  -->
<svg version="1.1" id="레이어_1" xmlns="http://www.w3.org/2000/svg" xmlns:xlink="http://www.w3.org/1999/xlink" x="0px"
	 y="0px" viewBox="0 0 350 293.6" enable-background="new 0 0 350 293.6" xml:space="preserve">
<path fill="#FCAC0E" d="M334.2,92.4l2-36.6l-69.5-19.9l0.3-0.1l-28.4-8.1c-0.4-1.5-0.9-3-1.5-4.5l-0.1-0.1l-0.1-0.1
	c-0.9-1.1-1.7-2-2.7-2.9c-1-0.9-2-1.7-3.1-2.4c-2.2-1.4-4.6-2.6-7.2-3.1c-0.6-0.1-1.3-0.2-1.9-0.3c-0.7,0-1.3-0.1-2-0.1l-2,0.1
	c-0.6,0.1-1.3,0.2-1.9,0.3c-1.3,0.2-2.5,0.5-3.8,0.8c-0.6,0.1-1.2,0.4-1.8,0.6c-0.6,0.2-1.2,0.4-1.8,0.6c-1.4,0.5-2.7,1.1-4,1.7
	L176.4,10l-42.8,15c-3.8-0.7-7.6-0.9-11.4-0.6c-7.8,0.8-12.3,6.3-14.2,9.6l-27.3,9.6l0,0L11,68l1.9,39.2l2,0.8l0.1,1.5l0.1,2.3
	l6.3,92.6l44.1,24.2l0,0l33.1,18.1c0,0,0,0,0,0l68.8,37.8l80.5-42l0,0.1l0.1,0l1.5-0.9l76.5-39.9l5.4-105.2l0.3-3.2L334.2,92.4
	L333,93L334.2,92.4z"/>
<g>
	<g>
		<g>
			<polygon fill="#FECA05" points="284.4,77.4 336.3,55.8 266.8,35.9 210.3,57.1 			"/>
			<g>
				<polygon fill="#FECA05" points="176.4,10 80.7,43.6 136.6,59.9 174,47.1 234.4,26.6 				"/>
				<polygon fill="#FECA05" points="11,68 60.2,86.4 60.2,85.8 136.6,59.9 80.7,43.6 				"/>
			</g>
			<polygon fill="#FECA05" points="167.4,126.3 248.5,92.4 174,70.7 96.4,99.8 			"/>
			<polygon fill="#FCAC0E" points="331.4,96.8 284.5,119.6 279.8,226.1 249.5,241.9 326,202.1 331.4,96.9 331.6,93.7 331.6,93.8 			
				"/>
			<polygon fill="#FCAC0E" points="167.4,176.5 167.4,284.7 247.9,242.7 249.3,136.6 			"/>
			<polygon fill="#FCAC0E" points="286.3,78 284.6,115.9 333,93 334.2,92.4 336.3,55.8 284.4,77.4 			"/>
			<polygon fill="#FCAC0E" points="167.4,172.5 167.4,171.5 249.4,132.6 249.9,92.8 248.5,92.4 167.4,126.3 			"/>
			<polygon fill="#FCBA0E" points="12.9,107.2 14.8,108 14.8,108 61.7,127.6 60.2,86.4 11,68 12.9,107.2 14.8,108.1 14.8,108 			"/>
			<g>
				<polygon fill="#FCBA0E" points="15.1,111.8 14.9,109.5 15.1,111.8 21.4,204.5 65.5,228.7 61.9,131.7 				"/>
				<polygon fill="#FCBA0E" points="167.3,176.5 96.4,146.3 98.6,246.9 167.4,284.7 167.4,176.5 				"/>
			</g>
			<polygon fill="#FCBA0E" points="167.4,126.3 96.4,99.8 95.4,100.2 96.3,141.9 167.3,171.5 167.3,176.5 167.4,172.5 			"/>
			<polygon fill="#EFAD2B" points="61.9,131.7 61.7,127.6 14.8,108 14.8,108.1 14.9,109.5 15.1,111.8 			"/>
			<polygon fill="#EFAD2B" points="12.9,107.2 14.8,108 14.8,108 			"/>
			<polygon fill="#EFAD2B" points="96.3,141.9 96.4,146.3 167.3,176.5 167.3,171.5 			"/>
			<polygon fill="#E59B07" points="333,93 284.6,115.9 284.5,119.6 331.4,96.8 331.6,93.8 331.6,93.7 334.3,92.4 			"/>
			<polygon fill="#E59B07" points="167.4,172.5 167.3,176.5 167.4,176.5 249.3,136.6 249.4,132.6 167.4,171.5 			"/>
			<g>
				<polygon fill="#EC3A40" points="115.3,31.4 80.7,43.6 80.7,43.6 136.6,59.9 174,47.1 				"/>
				<polygon fill="#EC3A40" points="284.4,77.4 210.3,57.1 174,70.7 248.5,92.4 249.9,92.8 249.4,132.6 249.3,136.6 247.9,242.7 
					249.5,241.9 279.8,226.1 284.5,119.6 284.6,115.9 286.3,78 				"/>
				<path fill="#D82533" d="M174,70.7c6.4,1.7,12.7,3.4,19.1,5.1l9.5,2.6l9.5,2.6l19,5.3l19,5.4L251,92l0,0.8
					c-0.1,12.5-0.3,25-0.4,37.5c-0.2,12.5-0.4,25-0.6,37.5l-0.4,18.7l-0.4,18.7l-0.2,9.4l-0.3,9.4c-0.2,6.2-0.4,12.5-0.6,18.7
					l-0.1,0l1.6-0.8l-1.5,0.9l-0.1,0l0-0.1c-0.1-6.2-0.1-12.5-0.1-18.7l0-9.4l0-9.4l0-18.7l0.1-18.7c0.1-12.5,0.2-25,0.4-37.5
					c0.2-12.5,0.3-25,0.6-37.5l0.8,1l-18.9-5.7l-18.9-5.7l-9.5-2.9l-9.4-2.9C186.5,74.7,180.2,72.7,174,70.7z"/>
			</g>
			<polygon fill="#EC3A40" points="96.3,141.9 95.4,100.2 96.4,99.8 174,70.7 210.3,57.1 266.8,35.9 267,35.8 234.6,26.5 
				234.4,26.6 174,47.1 136.6,59.9 60.2,85.8 60.2,86.4 61.7,127.6 61.9,131.7 65.5,228.7 65.5,228.8 98.6,246.9 98.6,246.9 
				96.4,146.3 			"/>
			<path fill="#D82533" d="M98.6,246.9c-0.5-12.2-0.9-24.4-1.3-36.7c-0.4-12.2-0.7-24.4-1.1-36.7l-0.5-18.3l-0.5-18.3l-0.5-18.3
				l-0.4-18.3l0-0.8l0.8-0.3l42.9-16.1l21.5-8l21.5-8l43-15.8l21.6-7.8l10.8-3.9l10.8-3.8L256.4,40l-10.7,4.2l-21.4,8.3l-42.8,16.4
				l-21.4,8.1l-21.4,8.1l-42.9,16.1l0.7-1.1l0.4,18.3l0.3,18.3l0.3,18.3l0.3,18.3c0.2,12.2,0.4,24.5,0.5,36.7
				C98.4,222.4,98.6,234.7,98.6,246.9z"/>
		</g>
		<g>
			<path opacity="0.57" fill="#D82A36" d="M107.4,36.4c-0.2,3.5-0.2,7-0.1,10.5c0.2,3.5,0.5,7,1.2,10.4c0.2,0.9,0.3,1.7,0.5,2.5
				c0.2,0.8,0.5,1.7,0.8,2.5c0.6,1.6,1.3,3.2,2,4.8c1.4,3.2,3,6.3,4.6,9.4l0,0.4l0,0l0-0.3l0.7,1.4l-0.3-0.3l0,0l0.1,0l0.1,0.1
				l-0.2-0.1c1.7,0.5,3.6,0.7,5.4,0.7c1.8,0,3.7-0.1,5.5-0.4c1.8-0.3,3.6-0.9,5.3-1.5c1.7-0.7,3.3-1.6,5-2.5
				c6.6-3.5,13.1-7.4,19.4-11.4l3.9-2.5l-2.5,3.9c-4.2,6.3-7.9,12.9-10.9,19.9c-3,6.9-5.4,14.1-6.6,21.5c-1.1,7.4-1.8,15.1-2.4,22.6
				c-0.6,7.6-1.2,15.2-1.7,22.8l-2.2-1.6l16.1-6.1l0.9-0.4l0.8,0.7l15,13.2l-2.9,1.5l0,0l-0.4-4l3.2,2.4l0,0l-2.8,1.5
				c-0.5-7.9-0.9-15.7-1.1-23.6c-0.1-3.9-0.2-7.9-0.1-11.8c0-4,0.1-7.9,0.6-12c0.1-0.5,0.1-1,0.2-1.5l0.3-1.5c0.2-1,0.4-2,0.6-2.9
				c0.4-1.9,0.9-3.9,1.3-5.8c0.9-3.8,1.9-7.7,2.8-11.5c1.9-7.6,3.9-15.2,6-22.8l1.3-4.7l2.4,4.2c3.9,6.9,7.8,13.9,11.6,20.9
				c1.9,3.5,3.8,7,5.7,10.5c0.9,1.8,1.8,3.5,2.8,5.3l1.3,2.7l0.6,1.4c0.2,0.5,0.4,1,0.6,1.4c1.6,3.9,2.6,7.7,3.7,11.6
				c1.1,3.9,2,7.8,3,11.6c1.8,7.8,3.5,15.6,5.1,23.4l-3.6-0.8l11.2-15.9l0.7-1l1.2,0.2l17.3,2.7l-2.1,2.5
				c-2.4-7.2-4.9-14.3-7.4-21.4c-2.5-7.1-5.1-14.2-8-21.1c-2.9-6.8-6.9-13.1-11.3-19.1c-4.5-6-9.5-11.5-14.9-16.7l-5.1-4.9l6.7,2.3
				c3.3,1.1,6.5,2.3,9.8,3.3l4.9,1.5c1.6,0.5,3.3,1,4.9,1.4c1.7,0.5,3.2,0.9,4.9,1.1c1.6,0.2,3.3,0.3,4.9,0.2
				c1.6-0.1,3.3-0.3,4.9-0.7c0.8-0.2,1.6-0.4,2.4-0.7c0.4-0.1,0.8-0.3,1.1-0.4c0.4-0.1,0.8-0.3,1-0.5l-0.6,0.8l0.4-1.5l0.1,0.9
				c0.1,0.2,0.2,0.4,0.5,0.5c0.2,0.1,0.5,0.2,0.7,0.2l-1.2-1.6c0.8-3.4,1.5-6.8,2.1-10.1c0.3-1.7,0.5-3.4,0.7-5.1
				c0.1-0.8,0.1-1.7,0.1-2.5c0-0.8-0.1-1.7-0.1-2.5c-0.3-3.4-0.9-6.8-1.6-10.2c-0.7-3.4-1.6-6.7-2.7-9.9l0.1,0.2
				c-0.7-0.9-1.5-1.8-2.4-2.7c-0.9-0.8-1.8-1.6-2.8-2.3c-2-1.4-4.2-2.4-6.5-3c-0.6-0.1-1.2-0.2-1.8-0.3l-1.8-0.1l-1.8,0.1
				c-0.6,0.1-1.2,0.2-1.8,0.2c-1.2,0.1-2.4,0.4-3.6,0.7c-0.6,0.1-1.2,0.3-1.8,0.5c-0.6,0.2-1.2,0.3-1.8,0.5
				c-4.7,1.6-9.2,3.9-13.4,6.6c-2.1,1.4-4.1,2.8-6.1,4.4c-2,1.6-3.9,3.2-5.7,4.9l-0.2,0.2l-0.2-0.2c-1.5-1.3-3.4-2-5.4-2.3
				c-2-0.3-4-0.3-6-0.1c-2,0.2-4,0.5-5.9,1.2c-1.9,0.7-3.6,1.9-4.7,3.6c1-1.8,2.8-3,4.7-3.8c1.9-0.8,3.9-1.2,5.9-1.4
				c2-0.2,4.1-0.3,6.1-0.1c2,0.3,4.1,0.9,5.7,2.3l-0.5,0c1.8-1.8,3.7-3.5,5.6-5.1c2-1.6,4-3.1,6.1-4.6c4.2-2.9,8.7-5.3,13.5-7.1
				c0.6-0.2,1.2-0.4,1.8-0.6c0.6-0.2,1.2-0.4,1.8-0.6c1.3-0.3,2.5-0.6,3.8-0.8c0.6-0.1,1.3-0.2,1.9-0.3l2-0.1c0.7,0,1.3,0.1,2,0.1
				c0.7,0.1,1.3,0.2,1.9,0.3c2.6,0.5,5,1.7,7.2,3.1c1.1,0.7,2.1,1.5,3.1,2.4c1,0.9,1.9,1.8,2.7,2.9l0.1,0.1l0.1,0.1
				c1.2,3.3,2.2,6.7,3,10.1c0.8,3.4,1.4,6.9,1.8,10.4c0.1,0.9,0.2,1.7,0.2,2.7c0,0.9,0,1.8-0.1,2.7c-0.1,1.8-0.4,3.5-0.6,5.3
				c-0.5,3.5-1.2,6.9-1.9,10.3l-1.2-1.6c0.2,0,0.4,0.1,0.7,0.2c0.2,0.1,0.4,0.3,0.5,0.5l0.2,0.4l-0.1,0.5l-0.4,1.6l-0.1,0.6
				l-0.5,0.3c-0.5,0.3-0.9,0.4-1.3,0.6c-0.4,0.2-0.8,0.4-1.3,0.5c-0.9,0.3-1.7,0.6-2.6,0.8c-1.8,0.5-3.5,0.8-5.4,0.9
				c-1.8,0.1-3.6,0.1-5.4-0.1l-1.4-0.2c-0.4-0.1-0.9-0.2-1.3-0.3l-0.7-0.1l-0.6-0.2l-1.3-0.3c-1.7-0.4-3.4-0.9-5-1.4l-5-1.5
				c-3.3-1-6.6-2.1-9.9-3.2l1.6-2.6c5.5,5.2,10.8,10.9,15.4,16.9c4.7,6.1,8.8,12.6,11.9,19.7c3,7.1,5.6,14.2,8.2,21.3
				c2.6,7.1,5.1,14.3,7.6,21.4l1,3l-3.1-0.5l-17.3-2.6l1.9-0.8l-11.2,15.9l-2.6,3.8l-0.9-4.5c-1.6-7.8-3.3-15.5-5.1-23.2
				c-0.9-3.9-1.9-7.7-2.9-11.5c-1.1-3.8-2.2-7.6-3.6-11.1c-0.2-0.4-0.3-0.9-0.5-1.3l-0.6-1.3l-1.3-2.6c-0.9-1.8-1.8-3.5-2.7-5.3
				c-1.8-3.5-3.7-7-5.6-10.5c-3.8-7-7.7-13.9-11.6-20.9l3.7-0.5c-2.1,7.6-4.1,15.2-6,22.8c-1,3.8-1.9,7.6-2.8,11.4
				c-0.5,1.9-0.9,3.8-1.3,5.7c-0.2,0.9-0.4,1.9-0.6,2.8l-0.3,1.4c-0.1,0.5-0.2,0.9-0.2,1.4c-0.5,3.7-0.6,7.7-0.6,11.5
				c-0.1,3.9,0,7.8,0.1,11.7c0.2,7.8,0.5,15.7,0.9,23.5l0.2,3.8l-3-2.3l0,0l2.8-1.6l0,0l0.4,4.5l-3.4-3l-14.9-13.3l1.7,0.3
				l-16.2,5.9l-2.4,0.9l0.2-2.5c0.6-7.6,1.3-15.2,2-22.8c0.4-3.8,0.8-7.6,1.2-11.4c0.4-3.8,0.9-7.6,1.5-11.4c1.4-7.6,3.9-15,7.1-22
				c3.2-7,7.1-13.7,11.4-20l1.4,1.4c-6.5,3.9-13,7.7-19.8,11.1c-1.7,0.8-3.4,1.7-5.2,2.4c-1.8,0.7-3.7,1.2-5.6,1.5
				c-1.9,0.3-3.8,0.4-5.8,0.3c-1.9-0.1-3.8-0.3-5.7-0.9l-0.1,0l-0.1-0.1l0.2,0.1l0,0l-0.2-0.1l-0.1-0.2l-0.7-1.4l-0.1-0.2l0-0.2l0,0
				l0,0.4c-1.6-3.1-3.1-6.3-4.4-9.5c-0.7-1.6-1.3-3.2-1.9-4.9c-0.3-0.8-0.5-1.7-0.8-2.5c-0.2-0.9-0.4-1.7-0.5-2.6
				c-0.6-3.5-0.8-7-0.9-10.5C106.9,43.4,107,39.9,107.4,36.4z"/>
			<g>
				<g>
					<path fill="#EE4037" d="M166.1,157.7l-15-13.3l-16.2,6c0,0,2.5-34.8,4.5-46.1c4.7-26.5,24.4-49.8,24.4-49.8l14.9,3.5
						c0,0-10.5,38.1-12.9,51.1C163.7,120.8,166.1,157.7,166.1,157.7z"/>
					<path fill="#E53530" d="M151.1,144.5l15,13.3c0,0-2.3-37-0.2-48.7c2.3-13,12.9-51.1,12.9-51.1l-9.4-2.2
						C154.9,71.8,147.4,105.6,151.1,144.5z"/>
					<path fill="#E53530" d="M211,153.2l11.2-15.9l17.3,2.7c0,0-11.3-33.4-16.2-44c-11.4-24.9-36.4-43.7-36.4-43.7l-13.7,6.3
						c0,0,20,35,25.6,47.2C203.8,116.7,211,153.2,211,153.2z"/>
					<path fill="#EE4037" d="M222.2,137.3L211,153.2c0,0-7.2-36.5-12.2-47.4c-5.6-12.2-25.6-47.2-25.6-47.2l8.6-4
						C199.9,67.3,215.9,98.8,222.2,137.3z"/>
				</g>
				<g>
					<path fill="#EE4037" d="M163.2,59.6c0,0-15.5,10.1-28.9,16.7c-9.4,4.6-18.3,1.8-18.3,1.8s-7.1-13.3-8.2-19.3
						c-2.1-10.9-1.1-22.4-1.1-22.4s4.4-10.8,15.5-11.9c18.9-1.9,39.8,12.2,39.8,12.2L163.2,59.6z"/>
					<path fill="#CC2D29" d="M115.3,76.7L115.3,76.7c0.5,0.9,0.7,1.4,0.7,1.4s8.9,2.8,18.3-1.8c13.4-6.5,28.9-16.7,28.9-16.7
						s-14.3,0.6-33.9,2.2C118.2,62.7,115.3,76.7,115.3,76.7z"/>
					<path fill="#EE4037" d="M186.4,57.2c0,0,17.7,6.8,32.4,10.5c10.3,2.6,18.3-1.8,18.3-1.8s3.5-14.4,3.1-20.5
						c-0.7-11-4.7-22-4.7-22s-7-9.6-18.1-8.5c-18.9,1.9-35.7,19.8-35.7,19.8L186.4,57.2z"/>
					<path fill="#CC2D29" d="M237.5,64.4L237.5,64.4c-0.2,1-0.4,1.5-0.4,1.5s-8,4.5-18.3,1.8c-14.7-3.7-32.4-10.5-32.4-10.5
						s14.1-2.2,33.6-4.6C231.1,51.4,237.5,64.4,237.5,64.4z"/>
					<path fill="#CC2D29" d="M177.5,44.5c0.1,1.9-8.5,3.7-19.2,3.9c-10.7,0.2-19.5-1.2-19.6-3.1c-0.1-1.9,8.5-3.7,19.2-3.9
						C168.6,41.2,177.4,42.6,177.5,44.5z"/>
					<path fill="#CC2D29" d="M172.6,45c0.3,1.9,8.2,1.7,17.6-0.4c9.4-2.1,16.8-5.4,16.5-7.3c-0.3-1.9-8.2-1.7-17.6,0.4
						C179.6,39.8,172.3,43.1,172.6,45z"/>
					<path fill="#CC2D29" d="M188,51.7c1.1,8.8-4.9,9.2-12.3,9.9l0,0c-7.4,0.7-13.3,1.6-14.5-7.2l-1.4-11.1
						c-1.1-8.8,4.6-11.5,12-12.3l0,0c7.4-0.7,13.6,0.8,14.8,9.6L188,51.7z"/>
					<path fill="#EE4037" d="M187.8,50.3c0.9,7.2-5.1,7.6-12.5,8.4l0,0c-7.4,0.7-13.3,1.5-14.3-5.7l-1.2-9.1
						c-0.9-7.2,4.8-9.5,12.2-10.3l0,0c7.4-0.7,13.6,0.4,14.5,7.6L187.8,50.3z"/>
				</g>
			</g>
		</g>
	</g>
</g>
</svg>
