<?xml version="1.0" encoding="utf-8"?>
<!-- Generator: Adobe Illustrator 22.0.1, SVG Export Plug-In . SVG Version: 6.00 Build 0)  -->
<svg version="1.1" id="레이어_1" xmlns="http://www.w3.org/2000/svg" xmlns:xlink="http://www.w3.org/1999/xlink" x="0px"
	 y="0px" viewBox="0 0 349.8 178.6" enable-background="new 0 0 349.8 178.6" xml:space="preserve">
<g>
	<g>
		<polygon fill="#7C7C7C" points="341.2,38.9 341.2,36.6 6,36.6 6,38.9 336.4,38.9 336.4,60 6,60 6,62.3 336.4,62.3 336.4,83.3 
			6,83.3 6,85.7 336.4,85.7 336.4,106.7 6,106.7 6,109 336.4,109 336.4,130 6,130 6,132.4 341.2,132.4 341.2,130 341.1,130 
			341.1,109 341.2,109 341.2,106.7 341.1,106.7 341.1,85.7 341.2,85.7 341.2,83.3 341.1,83.3 341.1,62.3 341.2,62.3 341.2,60 
			341.1,60 341.1,38.9 		"/>
		<path d="M277.7,119.1l0-13.6l-0.1-27.2L277.4,24l0,0c0,0,0,0,0,0c0,0,0,0,0,0l0,0l0-20.2l0,0l0,0l-50.3,8.7
			c-16.8,2.9-33.6,5.8-50.4,8.6l-0.2,0l0,0.2L176,131c-1-0.5-2-1-3.2-1.4c-1.5-0.4-3.1-0.8-4.7-0.9c-1.6-0.2-3.2-0.2-4.8-0.1
			c-1.6,0.1-3.2,0.4-4.7,0.8c-1.5,0.4-3.1,0.8-4.5,1.4c-1.5,0.6-2.9,1.3-4.3,2c-2.8,1.5-5.3,3.5-7.6,5.7c-1.1,1.1-2.2,2.2-3.2,3.5
			c-1,1.3-1.9,2.6-2.6,4.1c-1.4,2.9-2.1,6.3-1.4,9.7c0.4,1.7,1.1,3.2,2.1,4.6c1,1.4,2.2,2.5,3.6,3.4c2.8,1.8,6,2.9,9.3,2.9
			c3.2,0,6.4-0.4,9.5-1.2c3.1-0.8,6.1-2.1,8.8-3.7c2.7-1.7,5.2-3.7,7.4-6c0.5-0.6,1.1-1.2,1.6-1.8c0.5-0.6,1-1.3,1.5-2
			c0.9-1.4,1.6-2.9,2.1-4.4c0.5-1.6,0.8-3.2,0.9-4.8c0.1-0.8,0.1-1.6,0.1-2.4l0-2.3l0-9.2l0-18.5l0-37l0-9.2l0-4.6l0-1.2l0-0.6
			c0,0,0-0.1,0-0.1c0.1,0,0.2-0.1,0.4-0.1l0.6-0.1l18.2-3.2l71.6-12.6l0.4,72.6c-0.7-0.3-1.3-0.6-2.1-0.9c-1.1-0.5-2.3-0.7-3.4-1
			c-2.3-0.5-4.6-0.6-6.9-0.4c-4.6,0.4-9.1,1.8-13.1,4.1c-4,2.2-7.6,5.3-10.5,8.8c-1.5,1.8-2.7,3.8-3.5,6c-0.4,1.1-0.7,2.2-0.9,3.4
			c-0.2,1.2-0.2,2.3-0.1,3.5c0.3,2.3,1.3,4.6,2.9,6.3c0.8,0.9,1.7,1.6,2.7,2.3c1,0.6,2,1.2,3.1,1.6c2.1,0.9,4.5,1.3,6.8,1.2
			c2.3,0,4.6-0.3,6.8-0.8c4.5-1,8.7-2.9,12.4-5.6c1.8-1.4,3.5-2.9,5.1-4.5c1.6-1.7,2.9-3.6,3.8-5.7c0.9-2.1,1.5-4.3,1.7-6.6
			c0.1-1.1,0.1-2.3,0.1-3.4L277.7,119.1z M273.7,26.7l-11.6,2l-11.7,1.9L227,34.2l-23.4,3.6c-7.3,1.1-14.5,2.3-21.8,3.6l0-4.9l0-0.8
			c0-0.1,0-0.2,0-0.3c0.1,0,0.1,0,0.2-0.1l3.1-0.6c4.2-0.7,8.4-1.5,12.7-2.3c8.4-1.5,16.8-3.2,25.3-4.8l25.2-4.9
			c4.2-0.8,8.4-1.6,12.6-2.4c4.2-0.8,8.4-1.5,12.6-2.3l0,6.6L273.7,26.7z"/>
		<path d="M97.1,104.6c0.9-5.3-1.7-10.4-5.3-14.2c-1.1-1.3-2.4-2.4-3.7-3.5c-5-3.9-11.3-5.7-17.2-6.5l0-1.1l-0.1-2.6l-0.2-5.2
			l-0.1-2l0.5-0.1c1.8-0.5,3.6-1.2,5.3-2.1c11.2-6.5,18.2-19.3,16.5-33C92,29.2,89.4,24,85,19.5c-1.4-1.3-2.9-2.4-4.6-3.4
			s-3.4-1.8-5.2-2.4l-0.3-0.1l-0.4,0l-1.6,0l-0.4,0l-0.4,0.1c-2.4,0.8-4.5,2.4-5.9,4.3c-0.7,0.9-1.4,1.8-2,2.8c-0.6,1-1.1,2-1.6,3
			c-1.8,4.1-2.6,8.5-2.9,12.7c-0.3,4.3-0.1,8.5,0.1,12.6l0.4,6.2l0.3,4.7l-1.9,0.7l-3.3,1.3c-23.4,5-35.5,31.5-24.4,52.5
			c1.2,2.2,2.7,4.3,4.4,6.1s3.6,3.5,5.6,4.9c4,2.9,8.6,5,13.4,6.3c2.4,0.6,4.8,1.1,7.3,1.4c1.2,0.1,2.4,0.2,3.7,0.3
			c0.8,0,1.5,0,2.2,0c0,0.5,0.1,1.1,0.1,1.7l0.2,3.2l0.4,6.3c0.1,4.2,0.3,8.5,0.1,12.7l-0.1,1.6c0,0.5-0.1,1-0.2,1.4
			c-0.2,0.9-0.4,1.9-0.9,2.7c-0.8,1.7-2.2,3.2-3.7,4.4c-1.6,1.1-3.5,1.8-5.5,2.1c-0.5,0-1,0.1-1.5,0.1c-0.5,0-1,0-1.4-0.1
			c-0.2,0-0.3-0.1-0.5-0.1c0.4-0.2,0.8-0.4,1.1-0.7c1.1-0.8,2-1.8,2.6-2.9c1.2-2.3,1.3-5.1,0.3-7.5c-1-2.4-3.2-4.2-5.7-4.9
			c-2.5-0.7-5.2-0.2-7.3,1.3c-2.1,1.5-3.4,3.9-3.5,6.3c0,1.3,0.2,2.4,0.5,3.6c0.3,1.2,0.8,2.3,1.4,3.3c1.2,2.1,3.1,3.7,5.2,4.9
			c2,1.2,4.3,1.8,6.7,2l-0.6,0.1c0,0,0,0,0,0h0h0h4.2h0h0c0,0,0,0,0,0l-0.7-0.1c0.5-0.1,1-0.1,1.5-0.2c0.5-0.1,1.1-0.2,1.6-0.3
			c1-0.3,2.1-0.6,3-1.1c2-1,3.7-2.4,5.1-4c1.4-1.7,2.5-3.6,3.3-5.6c0.8-2,1.2-4.2,1.4-6.3c0.1-1.1,0.1-2.2,0.1-3.2l-0.1-3.2
			l-0.1-6.4c-0.1-4-0.1-8-0.3-12c2.9-0.6,5.9-1.5,8.6-2.9c5.6-3.4,10-8.5,12.9-14.8C96.8,111.3,97.3,108,97.1,104.6z M57.6,125.6
			c-3.6-1.1-7-2.6-9.9-4.8c-2.9-2.2-5.4-4.9-7-8C32,95.9,44.2,76.2,62.5,71.3c0,0,0,0,0,0c0.4,3.4,0.8,6.8,1.2,10.2
			c-0.1-0.5-6.8,2.9-7.3,3.4c-2.2,1.7-4,4-5.3,6.4c-3.3,5.9-4,11.3-2,17.6c0.6,1.9,1.4,3.7,2.6,5.3c1.2,1.6,2.8,2.9,4.6,3.7l0,0l0,0
			l3.4,1l0.1,0l0,0c-1.5-2.3-2.8-4.7-3.6-7.2c-0.4-1.3-0.7-2.6-0.8-3.9c-0.1-1.3,0-2.7,0.3-4c0.5-2.6,1.6-5.1,3.4-7.1
			c0.9-1,1.9-1.8,3.1-2.6l0.9-0.5l0.9-0.5l0.9-0.4c0.1-0.1,0.2-0.1,0.3-0.1l1.3,18c0.4,5.6,0.6,11.2,0.7,16.7
			C63.9,127.1,60.7,126.5,57.6,125.6z M58.6,174.6C58.7,174.5,58.7,174.5,58.6,174.6c0.1,0,0.1,0,0.2-0.1
			C58.7,174.5,58.7,174.5,58.6,174.6z M69.6,58.3L69,58.7c-0.2,0.1-0.4,0.2-0.6,0.3l0,0c0,0,0,0,0,0c0,0,0,0,0,0
			c0.4-3.7,0.7-7.5,0.9-11.2c0.1-1.9,0.2-3.7,0.4-5.6c0.1-1.9,0.3-3.7,0.5-5.5c0.2-1.8,0.6-3.5,1-5.3c0.4-1.7,1-3.4,1.7-4.9
			c0.4-0.8,0.8-1.5,1.2-2.3c0.2-0.4,0.5-0.7,0.7-1.1c0.1-0.1,0.2-0.2,0.2-0.3c0.1,0.1,0.3,0.1,0.5,0.2c0.6,0.3,1.2,0.8,1.8,1.3
			c8.5,9,5.9,26.1-4.2,31.5c-0.8,0.5-1.6,1-2.4,1.5L69.6,58.3z M86.5,111c-1.4,4.6-4,9.8-8.3,12.6c-1,0.7-2,1.3-3.1,1.8
			c-0.2-2.1-0.5-4.1-0.7-6.2c-0.4-3-0.8-6-1.2-9c-0.5-3-0.9-6.1-1.4-9.3L70,91.2c0,0,0,0,0,0c0,0,0,0,0,0h0c0,0,0,0,0,0
			c2.3,0.2,4.5,0.9,6.5,1.8c2,0.9,3.8,2.3,5.3,3.8c1.5,1.5,2.7,3.3,3.6,5.2c0.8,1.9,1.3,4,1.3,6C86.8,109,86.6,110,86.5,111z"/>
	</g>
</g>
</svg>
