<?xml version="1.0" encoding="utf-8"?>
<!-- Generator: Adobe Illustrator 22.0.1, SVG Export Plug-In . SVG Version: 6.00 Build 0)  -->
<svg version="1.1" id="레이어_1" xmlns="http://www.w3.org/2000/svg" xmlns:xlink="http://www.w3.org/1999/xlink" x="0px"
	 y="0px" viewBox="0 0 300.4 350" enable-background="new 0 0 300.4 350" xml:space="preserve">
<g>
	<path fill="#75462C" d="M290.2,284.3c-0.4,0.1-1,1.1-1.3,1.5c-0.4,0.5-0.9,1-1.4,1.4c-0.2,0.2-1.1,1-1.2,1.1l0.1-0.1
		c-0.1,0.1-0.2,0.1-0.1,0.1c-5.7,4.8-12.6,8-19.3,10.7c-21.5,8.4-44.5,12.4-67.2,14.7c-29.1,3.1-58.4,3.3-87.5,1
		c-23.9-1.9-48.1-5.4-71.1-13.2c-8.5-2.9-17-6.3-24.5-11.8c-2.1-1.5-4.4-3.2-6-5.3c0.1,2,0,4,0,6s0,4,0,5.9s0,3.7,0,5.5
		c0,0.2,0,0.3,0,0.5c0,0.1,0.1,0.3,0.2,0.4c0.8,1.6,1.4,2.7,2.9,3.7c1.4,0.7,2.8,1.6,4.2,2.4c2.9,1.5,5.9,2.9,8.9,4.2
		c22.5,9.8,47.2,13.8,71.1,16.6c31.1,3.5,62.6,3.8,93.7,1.1c25.5-2.2,51.6-6,76-15c1-0.4,2-0.7,3-1.1c4.1-1.6,8.1-3.3,11.9-5.3
		c2.1-1.1,4.1-2.2,6-3.5c0.7-0.5,1.6-0.9,1.7-1.9c0.1-0.9,0-2,0.1-2.9c0.1-2.3,0.2-4.7,0.2-7.1C290.5,290.7,290.6,287.5,290.2,284.3
		z"/>
	<path fill="#F4C389" d="M192.1,326.7c-31.2,2.8-62.8,2.5-94-1.2c-23.9-2.8-48.7-7-71.3-17.4c-5-2.3-10.9-5.2-16.1-9.1v0.6
		c0,2.4-0.1,4.7,0.6,7c0.5,1.5,1.3,2.9,2.2,4.2c2.3,3.2,5.4,5.8,8.6,7.9c4.3,2.9,9,5.1,13.7,7c5.9,2.5,12.1,4.4,18.2,6.2
		c7.3,2.1,14.7,3.6,22.1,4.9c8.4,1.5,16.8,2.7,25.4,3.6c9.3,0.9,18.6,1.8,28,2.1c7.1,0.3,14.1,0.4,21.2,0.4c7.3,0,14.6-0.1,21.9-0.5
		c9.3-0.4,18.6-1,27.9-2.2c8.4-0.9,16.9-2.2,25.3-3.7c7.4-1.4,14.7-3,22-4.9c6.1-1.8,12.2-3.7,18.1-6.2c4.7-2,9.3-4.2,13.6-7.1
		c3.1-2.2,6.2-4.6,8.4-7.9c2.4-3.5,2.8-7.1,2.6-11.3c-7.1,5.1-14.8,8.7-22.8,11.7C243.9,320.5,217.6,324.5,192.1,326.7z"/>
	<path fill="#F4C389" d="M16.7,291.1c7.4,5.3,16,8.7,24.5,11.5c23,7.5,47.2,10.9,71.1,12.8c29.1,2.2,58.5,2,87.5-1
		c22.6-2.3,45.7-6.1,67.2-14.3c6.7-2.6,13.6-5.7,19.3-10.4c0.1-0.1,1-0.9,1.2-1.1c0.5-0.5,0.9-0.9,1.4-1.4c0.4-0.5,0.8-0.9,1.2-1.4
		c0.1-0.2,0.2-0.2,0.2-0.2s0.1-0.1,0.1-0.2v-69.3c0-0.6,0-1.2-0.1-1.7c0.1-0.4,0.1-0.8,0.1-1.3c0-20.5-62.6-37.2-139.8-37.2
		S10.7,192.5,10.7,213c0,0.4,0,0.8,0.1,1.3c-0.1,0.6-0.1,1.2-0.1,1.7v69.2c0.1,0.2,0.2,0.4,0.2,0.4
		C12.2,287.4,14.8,289.8,16.7,291.1z"/>
	<path fill="#75462C" d="M286.2,289.7c0,0,0,0,0.1-0.1C286.3,289.6,286.3,289.7,286.2,289.7z"/>
	<path fill="#75462C" d="M290.2,285.6C290.1,285.8,290.2,285.6,290.2,285.6L290.2,285.6z"/>
	<path fill="#75462C" d="M10.9,285.7C10.9,285.7,10.9,285.6,10.9,285.7L10.9,285.7z"/>
	<path fill="#75462C" d="M296,216.9c-0.1-17,3-36.6-11.7-46.8c-15.1-10.5-35.1-14.6-52.8-17.9c-27.5-5.1-55.6-7-83.5-7
		s-56,1.9-83.5,7C44.2,155.9,9.9,158,6.2,183c-2.5,16.6-2.6,33.5,0.6,50c0.7,3.4,1.6,7,3.9,9.7c8.3,9.6,18.2-2.8,24.5-7.7
		c5.9-4.5,15.6-6.7,19.8-0.6c1.6,2.3,1.9,5.2,2.7,7.9c2,7,7.4,12.9,14.2,15.5s14.8,1.7,20.9-2.2c5.9-3.8,9.8-10.1,15.3-14.6
		c13.5-11.1,24.1,2.1,29.2,14.4c4.2,10.1,17.4,25.6,30.2,19.5c1.9-0.9,3.7-2.3,4.8-4.1c1.4-2.2,1.9-4.8,2.3-7.4
		c0.8-5.5,1.3-11.1,3-16.4c2.9-8.9,10.5-17.6,20.1-18.6c6.9-0.7,12.3,4.2,15.4,10c3.3,6,3.9,13.2,5.9,19.8c2,6.6,6.4,13.4,13.2,14.5
		c4.2,0.7,8.7-1.1,11.7-4.1c8.1-7.9,8.1-20.5,12.9-30.1c1.8-3.5,8.6-6.6,12.3-5c3.8,1.7,5.8,8.6,7.7,12.1
		c2.7,4.9,9.3,21.3,15.9,10.1c2.8-4.8,1.7-13.7,2.1-19.2C295.4,229.9,296,223.4,296,216.9z"/>
	<g>
		<path fill="#603824" d="M43.8,203.5c4.7,1.4,9.5,2.5,14.3,3.5c12,2.5,24.2,3.5,36.3,4.8c24.7,2.6,49.5,3.2,74.2,3
			c15.1-0.1,30.3-0.5,45.4-2.2c10.9-1.3,21.7-3.2,32.3-5.9c9.5-2.4,18.3-6.8,28-9.4c1.2-0.3,2.8-0.5,3.5,0.5
			c2.8,4.5-36.2,14.1-39.6,14.8c-16.5,3.6-33.8,5.5-50.3,6.4c-15.5,0.9-31.1,1.5-46.6,1.1c-27.2-0.7-54.4-2.4-81.2-7.3
			c-14.5-2.6-29.2-6.5-40.5-16.9c-1-0.9-2.1-2.2-1.6-3.6c4.4,0.3,9.3,4.2,13.2,6.3C35.1,200.6,39.4,202.2,43.8,203.5z"/>
	</g>
	<path fill="#FFFFFF" d="M243.6,159.3c0.9-3.1,2.3-6.2,2.7-9c0.3-1.8,0.4-4.1,2.1-4.6c0.8-0.2,1.7,0.1,2.4,0.5
		c5.7,2.9,17.2,15.4,10.8,22c-4.1,4.3-14.6,5.2-17.8-0.8C242.5,164.9,242.8,162.1,243.6,159.3z"/>
	<path fill="#FFFFFF" d="M59.8,154.1c-0.8-3.1-2.3-6.1-2.7-8.8c-0.3-1.8-0.4-4.1-2.1-4.6c-0.8-0.2-1.6,0.1-2.4,0.5
		c-5.6,2.8-16.9,15.2-10.7,21.6c4.1,4.2,14.3,5.1,17.5-0.7C60.9,159.6,60.6,156.8,59.8,154.1z"/>
	<g>
		<path fill="#75462C" d="M55,153.4c5.3,3.9,11.4,6.4,17.5,8.5c16.5,5.7,33.9,8.2,51.1,9.5c20.8,1.7,42,1.5,62.8-0.7
			c3.2-0.3,6.4-0.7,9.6-1.1c3.3-0.5,6.5-0.9,9.7-1.6c3.2-0.5,6.4-1.2,9.6-2c3.2-0.8,6.4-1.7,9.5-2.6c3.1-0.9,6.2-2,9.3-3.2
			c0.8-0.3,1.4-0.8,2.1-1.2c1.1-0.6,1.9-1.4,3.1-1.9c1.3-0.5,2.5-1,3.7-1.6c2.4-1.2,4.6-2.8,6.6-4.5c0.1-0.1,0.4-0.5,0.7-0.7
			c0.7-0.6,0.5,1.1,0.5,1.3c0,3.7,0.4,7.4,0,11.1c0,0.1,0,0.2-0.1,0.3c0,0.1-0.1,0.1-0.2,0.1c-1,0.5-2,0.7-2.9,1.2
			c-1.2,0.7-2.5,1.3-3.7,2c-2.5,1.2-5.2,2.4-7.9,3.4c-0.4,0.1-0.7,0.3-1.1,0.4c-17.5,6.5-36.2,9.2-54.6,10.8
			c-22.4,2-45,1.7-67.3-0.8c-17.1-2-34.8-4.9-51-11.9c-3.5-1.7-7.8-3.4-11.5-6.1l0.1-12.6c1.3,0.9,2.2,2,3.2,3.3
			C54.4,153.2,54.5,153,55,153.4z"/>
		<path fill="#F46C80" d="M180.2,180.1c-22.3,1.9-44.9,1.6-67.2-0.8c-17.1-1.9-34.8-4.7-50.9-11.5c-3.5-1.5-7.8-3.5-11.5-6.1
			c0,1.6-0.1,3.2,0.3,4.7c0.3,0.9,0.7,1.8,1.2,2.6c0.6,0.9,1.3,1.7,2.1,2.5c0.9,0.9,1.9,1.7,3,2.4c1.2,0.8,2.5,1.6,3.8,2.3
			c1.5,0.8,3,1.5,4.6,2.2c1.7,0.7,3.5,1.4,5.3,2.1c2,0.7,4,1.3,6,1.9c2.2,0.6,4.4,1.2,6.6,1.8c2.4,0.6,4.8,1.1,7.2,1.6
			c2.6,0.5,5.2,1,7.8,1.4c2.7,0.4,5.5,0.8,8.2,1.2c2.9,0.4,5.8,0.7,8.7,1c3,0.3,6.1,0.6,9.1,0.8c3.1,0.2,6.3,0.4,9.4,0.6
			c3.2,0.1,6.5,0.2,9.8,0.3c2.3,0,4.7,0.1,7,0.1c2.6,0,5.2,0,7.7-0.1c3.2-0.1,6.5-0.2,9.7-0.3c3.1-0.1,6.3-0.3,9.4-0.6
			c3-0.2,6-0.5,9.1-0.8c2.9-0.3,5.8-0.6,8.7-1c2.7-0.4,5.5-0.8,8.2-1.2c2.6-0.4,5.1-0.9,7.7-1.4c2.4-0.5,4.8-1,7.2-1.6
			c2.2-0.5,4.4-1.1,6.6-1.8c2-0.6,4-1.2,5.9-1.9c1.8-0.6,3.5-1.3,5.3-2.1c1.5-0.7,3.1-1.4,4.5-2.2c1.3-0.7,2.6-1.5,3.8-2.3
			c1-0.7,2-1.5,2.9-2.4c0.8-0.8,1.5-1.6,2.1-2.5c0.5-0.8,0.9-1.7,1.2-2.6c0.5-1.4,0.2-2.8,0.2-4.3c-5.2,3.6-11.6,6.1-16.3,7.8
			C217.2,176,198.5,178.6,180.2,180.1z"/>
		<path fill="#F46C80" d="M54.7,154.5c5.3,3.8,11.5,6.2,17.5,8.2c16.5,5.4,33.8,7.8,51,9.2c20.9,1.6,41.9,1.4,62.7-0.7
			c16.2-1.7,32.7-4.3,48.1-10.3c2.4-0.9,4.7-1.9,7-3.1c1.4-0.7,2.8-1.5,4.1-2.4c1.3-0.8,2.5-1.7,3.6-2.8c0.6-0.6,1.3-1.1,1.9-1.8
			c0.3-0.4,0.2-0.5,0.2-1c0-0.6,0-1.2,0-1.8c0-1,0-2,0-3c0-1.3,0-2.6,0-3.9c0-1.5,0-3.1,0-4.6c0-1.7,0-3.4,0-5.1c0-1.8,0-3.6,0-5.3
			c0-1.8,0-3.6,0-5.4c0-1.7,0-3.4,0-5.2c0-1.6,0-3.2,0-4.7c0-1.4,0-2.7,0-4.1c0-1.1,0-2.1,0-3.2c0-0.7,0-1.4,0-2.1
			c0-1.4,0.1-2.8-0.1-4.3c-0.4-2-1.5-3.7-2.8-5.1c-1.8-1.9-4.1-3.5-6.4-4.8c-3-1.7-6.2-3.1-9.5-4.3c-4-1.5-8.1-2.7-12.2-3.8
			c-4.8-1.2-9.7-2.2-14.6-3.1c-5.5-1-11.1-1.7-16.7-2.3c-6.1-0.7-12.2-1.1-18.3-1.5c-6.5-0.3-13-0.5-19.5-0.5s-13,0.2-19.5,0.5
			c-6.1,0.3-12.2,0.8-18.3,1.5c-5.6,0.6-11.1,1.4-16.7,2.3c-4.9,0.9-9.8,1.9-14.6,3.1c-4.1,1.1-8.2,2.3-12.2,3.8
			c-3.3,1.2-6.5,2.6-9.5,4.3c-2.3,1.3-4.5,2.8-6.3,4.8c-1.3,1.4-2.5,3.2-2.8,5.1c-0.3,1.7-0.1,3.3-0.1,5c0,0.9,0,1.8,0,2.6
			c0,2.8,0,5.5,0,8.3c0,3.5,0,7.1,0,10.6c0,3.6,0,7.3,0,10.9c0,3.1,0,6.2,0,9.3c0,1.9,0,3.8,0,5.6c0,0.2-0.1,0.7,0,0.8
			c0.1,0.2,0.2,0.3,0.2,0.3C51.5,151.8,53.3,153.5,54.7,154.5z"/>
		<path fill="#75462C" d="M250.8,150.5C250.7,150.7,250.8,150.5,250.8,150.5L250.8,150.5z"/>
		<path fill="#75462C" d="M50.6,150.6C50.6,150.6,50.6,150.5,50.6,150.6L50.6,150.6z"/>
		<g>
			<path fill="#E56581" d="M61.2,135.7c0.2-0.1,0.3-0.2,0.5-0.3c0.7-0.6,0.7-1.6,0.7-2.5s0-1.8-0.3-2.6s-1-1.6-1.9-1.6
				c-1.1-0.1-2,0.8-2.3,1.9C57.7,131.6,59.2,136.5,61.2,135.7z"/>
		</g>
		<g>
			<path fill="#E56581" d="M158.7,144.4c0.2-0.1,0.3-0.2,0.5-0.3c0.7-0.6,0.7-1.6,0.7-2.5s0-1.8-0.3-2.6s-1-1.6-1.9-1.6
				c-1.1-0.1-2,0.8-2.3,1.9C155.2,140.3,156.8,145.2,158.7,144.4z"/>
		</g>
		<g>
			<path fill="#E56581" d="M227,134.9c0.3,0.1,0.7,0.1,1.1,0.1c1.7-0.2,3-1.6,4-3c1-1.3,2.1-2.7,2.6-4.3c0.5-1.6,0.3-3.5-1-4.7
				c-1.5-1.4-4-1.1-5.6,0.2C226.4,124.7,223.1,133.9,227,134.9z"/>
		</g>
		<g>
			<path fill="#E56581" d="M108.7,141.6c0.2-0.1,0.3-0.2,0.5-0.3c0.7-0.6,0.7-1.6,0.7-2.5s0-1.8-0.3-2.6s-1-1.6-1.9-1.6
				c-1.1-0.1-2,0.8-2.3,1.9C105.2,137.6,106.8,142.5,108.7,141.6z"/>
		</g>
		<g>
			<path fill="#E56581" d="M71.4,128.8c1.4-1.6,2.2-5.1,0.6-5.8c-2.4-1.1-4,5.5-2.5,6.4C70.2,129.8,70.9,129.5,71.4,128.8z"/>
		</g>
		<g>
			<path fill="#E56581" d="M163.8,137.6c1.4-1.6,2.2-5.1,0.6-5.8c-2.4-1.1-4,5.5-2.5,6.4C162.5,138.6,163.2,138.2,163.8,137.6z"/>
		</g>
		<g>
			<path fill="#E56581" d="M105.2,149.1c1.4-1.6,2.2-5.1,0.6-5.8c-2.4-1.1-4,5.5-2.5,6.4C103.9,150.1,104.6,149.7,105.2,149.1z"/>
		</g>
		<g>
			<path fill="#E56581" d="M67,134.6c-0.1-1.2-1.2-2.8-2.2-2.3c-1.5,0.8,0.7,3.9,1.7,3.5C67,135.5,67.1,135.1,67,134.6z"/>
		</g>
		<g>
			<path fill="#E56581" d="M202.7,141.3c0.2-0.1,0.3-0.2,0.5-0.3c0.7-0.6,0.7-1.6,0.7-2.5s0-1.8-0.3-2.6s-1-1.6-1.9-1.6
				c-1.1-0.1-2,0.8-2.3,1.9C199.2,137.2,200.8,142.1,202.7,141.3z"/>
		</g>
		<g>
			<path fill="#E56581" d="M208.6,140.2c-0.1-1.2-1.2-2.8-2.2-2.3c-1.5,0.8,0.7,3.9,1.7,3.5C208.5,141.1,208.6,140.7,208.6,140.2z"
				/>
		</g>
	</g>
	<path fill="#FFFFFF" d="M255.1,109.4c1.6-12,0.7-24.3-8.2-33.7c-8.2-8.6-26.4-10.6-37.5-12.7c-19.7-3.7-39.9-5-59.9-5
		c-21,0-41.6,1.8-62.1,5.8c-14.1,2.7-31.2,4.4-37.2,19.9c-4.4,11.4-5,26.3-1,37.9c0.6,1.8,1.6,3.7,3.4,4.2
		c5.8,1.8,10.8-7.1,15.9-8.1c4-0.8,7.7,2.3,9.7,5.8s2.9,7.5,4.9,11s5.8,6.5,9.8,5.7c5.2-1.1,6.9-7.4,9.8-11.8
		c3.5-5.2,10.1-8.2,16.3-7.5c6.3,0.7,12,5.1,14.2,11c0.7,1.7,1.1,3.5,2,5.1c2.7,4.5,9.2,5.6,14,3.4s7.9-6.9,10-11.7
		c0.8-2,1.6-4.1,2.9-5.7c1.8-2.1,4.6-3.2,7.4-3.6c5.9-0.8,12.2,1.4,16.3,5.7c2.9,3,5.3,7.3,9.4,8.2c4.8,1,9.1-3.3,11.5-7.6
		c2.3-4.4,4-9.4,8-12.3c4.6-3.2,10.9-2.5,16.1-0.5c2,0.7,3.9,1.7,5.2,3.3c2.1,2.6,2,6.3,2.5,9.7c0.5,3.4,2.2,7.1,5.6,7.6
		c3.6,0.5,6.3-3.3,7.2-6.7C252.8,121.3,254.2,115.4,255.1,109.4z"/>
	<path fill="#FFFFFF" d="M172.9,193.6c-1.3-1.6-3-2.8-4.5-4.2c-2.1-1.8-3.2-3.9-4.3-6.4c-1.8-4-4.6-7.5-9.4-7.1
		c-1.3,0.1-2.2,1.7-1.1,2.7c3.5,3.1,0.5,7.1-1.6,10.1c-3,3.9-10.9,11.5-4.5,16.1c4.7,3.4,13.3,3,18.7,1.8
		C172.5,205.2,177.7,199.8,172.9,193.6z"/>
	<path fill="#FFFFFF" d="M72.7,183.2c-0.4-0.6-0.7-1.3-1.1-1.9c-1.5-2.5-3.2-5.1-3.8-8c-0.3-1.3-0.3-2.7-0.8-3.9s-1.5-2.4-2.8-2.5
		c-0.8,0-1.6,0.3-2.2,0.8c-2.1,1.5-3.2,4-4.5,6.3c-3.4,6.2-16.5,13.6-8.7,20.5c6.4,5.6,26.6,8.5,26-4.9
		C74.6,187.3,73.8,185.2,72.7,183.2z"/>
	<path fill="#FFFFFF" d="M135.9,190.6c-0.1-0.1-0.2-0.2-0.3-0.2c-2-1.6-4.5-2.4-6.3-4.4c-1.9-2.1-2.2-4.8-3.8-6.8
		c-0.6-0.8-1.9-1.3-2.8-0.8c-0.4,0.2-0.7,0.6-0.9,1c-3.8,5.7-14,15.1-10.5,22.8c1.5,3.2,4.9,4.6,8.2,4.9c6.2,0.7,18.4,0.9,20.8-6.5
		C141.7,196.2,139,193,135.9,190.6z"/>
	<path fill="#FFFFFF" d="M100.6,188.9c-1.6-2.1-3.4-4.1-4.5-6.5c-0.9-2.2-1.4-4.9-3.6-5.8c-4.8-2-17.1,13.2-16.9,18.1
		c0.2,8.1,11.4,10.4,17.8,10.1c9.5-0.4,14.2-6,8.1-14.6C101.2,189.7,100.9,189.3,100.6,188.9z"/>
	<path fill="#FFFFFF" d="M218.1,182.6c0.4-0.6,0.8-1.3,1.1-1.9c1.6-2.5,3.3-5,3.9-7.9c0.3-1.3,0.4-2.7,0.9-3.9s1.6-2.4,2.9-2.4
		c0.8,0,1.6,0.3,2.2,0.8c2.1,1.5,3.2,4.1,4.4,6.4c3.3,6.3,16.3,14,8.3,20.7C232.5,202.1,209.3,198,218.1,182.6z"/>
	<path fill="#FFFFFF" d="M187,188.4c2.7-4.1,5.6-8.3,5.6-11.7c0-0.9,0-1.8,0.4-2.6s1.4-1.3,2.2-0.9c0.4,0.2,0.6,0.5,0.9,0.9
		c4.6,6.3,19.2,16.7,15.1,25.7c-3.3,7.2-15.2,6.6-21.5,4.9C178.8,201.8,182.6,195.2,187,188.4z"/>
	<g>
		<path fill="#E5B37C" d="M25.3,268c0.3-0.1,0.7-0.4,1.1-0.7c1.4-1.3,1.5-3.5,1.6-5.4c0-1.9,0-3.8-0.6-5.6c-0.7-1.8-2.2-3.3-4.1-3.5
			c-2.3-0.2-4.3,1.7-4.8,4C17.8,259.4,21.2,269.8,25.3,268z"/>
	</g>
	<g>
		<path fill="#E5B37C" d="M132.4,287.6c0.3-0.1,0.7-0.4,1.1-0.7c1.4-1.3,1.5-3.5,1.6-5.4c0-1.9,0-3.8-0.6-5.6s-2.2-3.3-4.1-3.5
			c-2.3-0.2-4.3,1.7-4.8,4C124.9,278.9,128.3,289.3,132.4,287.6z"/>
	</g>
	<g>
		<path fill="#E5B37C" d="M47.1,253.3c2.9-3.4,4.8-10.7,1.4-12.3c-5.2-2.4-8.6,11.8-5.3,13.7C44.5,255.4,45.9,254.7,47.1,253.3z"/>
	</g>
	<g>
		<path fill="#E5B37C" d="M37.8,265.7c-0.3-2.6-2.6-6.1-4.6-5c-3.1,1.6,1.5,8.3,3.7,7.3C37.6,267.7,37.9,266.8,37.8,265.7z"/>
	</g>
	<g>
		<path fill="#E5B37C" d="M265.2,276.5c0.2-0.2,0.4-0.4,0.6-0.8c0.8-1.3,0.4-2.9,0.1-4.4c-0.4-1.4-0.8-2.9-1.6-4.1
			c-0.9-1.2-2.3-2.1-3.8-1.8c-1.7,0.3-2.9,2.2-2.8,4C257.8,271.5,262.5,278.7,265.2,276.5z"/>
	</g>
	<g>
		<path fill="#E5B37C" d="M119.4,273.7c0.3,0.1,0.6,0.1,1,0.1c1.5-0.1,2.6-1.4,3.5-2.6s1.8-2.3,2.3-3.8c0.4-1.4,0.2-3.1-0.8-4.1
			c-1.3-1.2-3.5-1-4.9,0.1C118.9,264.8,116.1,272.8,119.4,273.7z"/>
	</g>
	<g>
		<path fill="#E5B37C" d="M192.4,260.3c0.2-0.2,0.4-0.4,0.6-0.8c0.8-1.3,0.4-2.9,0.1-4.4c-0.4-1.4-0.8-2.9-1.6-4.1s-2.3-2.1-3.8-1.8
			c-1.7,0.3-2.9,2.2-2.8,4C184.9,255.3,189.6,262.5,192.4,260.3z"/>
	</g>
	<g>
		<path fill="#E5B37C" d="M270.9,283.1c3.4-0.6,8.2-4.1,7-6.7c-1.9-4-11.1,2.7-10,5.6C268.3,283,269.5,283.3,270.9,283.1z"/>
	</g>
	<g>
		<path fill="#E5B37C" d="M260.9,284.5c1.1-1.7,1.5-4.9-0.3-5.3c-2.7-0.6-3.2,5.7-1.5,6.2C259.8,285.6,260.5,285.2,260.9,284.5z"/>
	</g>
	<g>
		<path fill="#E5B37C" d="M199.8,260.5c1.1-1.7,1.5-4.9-0.3-5.3c-2.7-0.6-3.2,5.7-1.5,6.2C198.7,261.6,199.3,261.2,199.8,260.5z"/>
	</g>
	<g>
		<path fill="#E5B37C" d="M106.3,258.3c1.1-1.7,1.5-4.9-0.3-5.3c-2.7-0.6-3.2,5.7-1.5,6.2C105.2,259.4,105.9,259,106.3,258.3z"/>
	</g>
	<g>
		<path fill="#E5B37C" d="M65.6,295.7c0.8-3.4-0.6-8.9-3.6-8.5c-4.7,0.6-1.8,11.2,1.3,11C64.5,298.2,65.2,297.1,65.6,295.7z"/>
	</g>
	<path fill="#FFFFFF" d="M44.7,174.4c-1-3.7-2.8-7.4-3.2-10.7c-0.3-2.1-0.5-4.9-2.5-5.5c-1-0.3-2,0.1-2.9,0.6
		c-6.7,3.4-20.4,18.3-12.8,26.1c4.9,5,17.3,6.2,21.1-0.9C46,181,45.6,177.7,44.7,174.4z"/>
	<path fill="#FFFFFF" d="M246.1,173.5c0.5-1.7,1.3-3.5,2.5-5.5c1.8-2.8,4-5.5,5-8.7c0.7-2.2,1.4-5.2,3.8-5.2c1.7,0,2.8,1.7,3.6,3.2
		c3,5.7,5.9,11.4,8.9,17.1c0.5,1.1,1.1,2.1,1.2,3.3c0.1,1.9-1,3.7-2.5,4.8C257.8,191.1,242.9,185.5,246.1,173.5z"/>
	<g>
		<path fill="#F2F0F1" d="M79.9,91c3.3,1,6.6,1.7,10,2.4c8.3,1.8,16.8,2.4,25.3,3.3c17.2,1.8,34.4,2.2,51.7,2.1
			c10.5-0.1,21.1-0.3,31.6-1.6c7.6-0.9,15.1-2.2,22.5-4.1c6.6-1.7,12.8-4.7,19.5-6.6c0.8-0.2,1.9-0.4,2.4,0.4
			c1.9,3.1-25.2,9.8-27.6,10.3c-11.5,2.5-23.5,3.8-35,4.5c-10.8,0.6-21.6,1-32.5,0.7c-18.9-0.5-37.9-1.7-56.6-5.1
			C81.1,95.5,70.9,92.8,63,85.6c-0.7-0.6-1.4-1.6-1.1-2.5c3.1,0.2,6.5,2.9,9.2,4.4C73.9,89,76.9,90.1,79.9,91z"/>
	</g>
	<g>
		<path fill="#F46C80" d="M106.7,72c0.2,1.2-0.5,2.4-1.5,2.5l-4.3,0.7c-1,0.2-2-0.7-2.2-2l-6.9-45.4c-0.2-1.2,0.5-2.4,1.5-2.5
			l4.3-0.7c1-0.2,2,0.7,2.2,2L106.7,72z"/>
		<g>
			<path fill="#FCC600" d="M100.4,16.8c0.7,4.5-1.6,7.2-4.8,7.6c-3.2,0.5-6.2-1.3-6.9-5.9c-0.8-5.1,5.2-9.5,5.1-13.1
				C93.7,2.5,100,14.5,100.4,16.8z"/>
			<path fill="#FB9917" d="M97.2,20.3c0.3,2.1-0.5,3.2-1.7,3.4c-1.2,0.2-2.4-0.7-2.7-2.7c-0.4-2.3,1.8-4.2,1.8-5.9
				C94.5,13.7,97,19.2,97.2,20.3z"/>
		</g>
		<g>
			<polygon opacity="0.5" fill="#FFFFFF" enable-background="new    " points="94.3,45.1 101.2,35.8 100.5,31.3 93.6,40.6 			"/>
			<polygon opacity="0.5" fill="#FFFFFF" enable-background="new    " points="96.4,58.7 103.2,49.3 102.6,44.8 95.7,54.2 			"/>
			<polygon opacity="0.5" fill="#FFFFFF" enable-background="new    " points="98.3,71.4 105.2,62 104.5,57.5 97.6,66.9 			"/>
		</g>
	</g>
	<g>
		<path fill="#F46C80" d="M129.9,73c0,1.3-0.9,2.3-1.9,2.3h-4.4c-1.1,0-1.9-1-1.9-2.3V27.1c0-1.3,0.9-2.3,1.9-2.3h4.4
			c1.1,0,1.9,1,1.9,2.3V73z"/>
		<g>
			<path fill="#FCC600" d="M131.9,17.5c0,4.6-2.7,6.8-5.9,6.8s-5.9-2.3-5.9-6.8c0-5.2,6.5-8.6,7-12.2
				C127.5,2.4,131.9,15.2,131.9,17.5z"/>
			<path fill="#FB9917" d="M128.2,20.5c0,2.1-1,3.1-2.2,3.1s-2.2-1-2.2-3.1c0-2.4,2.5-3.9,2.6-5.5C126.5,13.6,128.2,19.4,128.2,20.5
				z"/>
		</g>
		<g>
			<polygon opacity="0.5" fill="#FFFFFF" enable-background="new    " points="121.7,44.6 129.9,36.4 129.9,31.9 121.7,40.1 			"/>
			<polygon opacity="0.5" fill="#FFFFFF" enable-background="new    " points="121.7,58.3 129.9,50.1 129.9,45.6 121.7,53.8 			"/>
			<polygon opacity="0.5" fill="#FFFFFF" enable-background="new    " points="121.7,71.2 129.9,63 129.9,58.4 121.7,66.6 			"/>
		</g>
	</g>
	<g>
		<path fill="#F46C80" d="M154.4,79.4c0,1.3-0.9,2.3-1.9,2.3h-4.4c-1.1,0-1.9-1-1.9-2.3V33.5c0-1.3,0.9-2.3,1.9-2.3h4.4
			c1.1,0,1.9,1,1.9,2.3V79.4z"/>
		<g>
			<path fill="#FCC600" d="M156.4,23.9c0,4.6-2.7,6.8-5.9,6.8c-3.3,0-5.9-2.3-5.9-6.8c0-5.2,6.5-8.6,7-12.2
				C151.9,8.8,156.4,21.6,156.4,23.9z"/>
			<path fill="#FB9917" d="M152.7,26.8c0,2.1-1,3.1-2.2,3.1s-2.2-1-2.2-3.1c0-2.4,2.5-3.9,2.6-5.5C151,20,152.7,25.8,152.7,26.8z"/>
		</g>
		<g>
			<polygon opacity="0.5" fill="#FFFFFF" enable-background="new    " points="146.2,51 154.4,42.8 154.4,38.2 146.2,46.4 			"/>
			<polygon opacity="0.5" fill="#FFFFFF" enable-background="new    " points="146.2,64.7 154.4,56.5 154.4,51.9 146.2,60.1 			"/>
			<polygon opacity="0.5" fill="#FFFFFF" enable-background="new    " points="146.2,77.5 154.4,69.4 154.4,64.8 146.2,73 			"/>
		</g>
	</g>
	<g>
		<path fill="#F46C80" d="M192.7,76.7c-0.4,1.2-1.5,1.9-2.5,1.6L186,77c-1-0.3-1.5-1.5-1.2-2.7l13.5-43.9c0.4-1.2,1.5-1.9,2.5-1.6
			l4.2,1.3c1,0.3,1.5,1.5,1.2,2.7L192.7,76.7z"/>
		<g>
			<path fill="#FCC600" d="M211,24.3c-1.3,4.4-4.6,5.7-7.7,4.8s-5-3.9-3.7-8.3c1.5-4.9,8.8-6.3,10.3-9.6
				C211.2,8.5,211.7,22.1,211,24.3z"/>
			<path fill="#FB9917" d="M206.6,26c-0.6,2-1.9,2.7-3.1,2.3c-1.2-0.4-1.8-1.6-1.2-3.6c0.7-2.2,3.5-3,4.2-4.5
				C207,18.9,206.9,25,206.6,26z"/>
		</g>
		<g>
			<polygon opacity="0.5" fill="#FFFFFF" enable-background="new    " points="193.3,47.2 203.5,41.7 204.8,37.4 194.6,42.8 			"/>
			<polygon opacity="0.5" fill="#FFFFFF" enable-background="new    " points="189.2,60.2 199.5,54.8 200.8,50.5 190.6,55.9 			"/>
			<polygon opacity="0.5" fill="#FFFFFF" enable-background="new    " points="185.4,72.5 195.7,67.1 197,62.7 186.8,68.2 			"/>
		</g>
	</g>
	<g>
		<path fill="#F46C80" d="M178.1,71.1c0,1.3-0.9,2.3-1.9,2.3h-4.4c-1.1,0-1.9-1-1.9-2.3V25.2c0-1.3,0.9-2.3,1.9-2.3h4.4
			c1.1,0,1.9,1,1.9,2.3V71.1z"/>
		<g>
			<path fill="#FCC600" d="M180.1,15.6c0,4.6-2.7,6.8-5.9,6.8c-3.3,0-5.9-2.3-5.9-6.8c0-5.2,6.5-8.6,7-12.2
				C175.6,0.5,180.1,13.3,180.1,15.6z"/>
			<path fill="#FB9917" d="M176.4,18.6c0,2.1-1,3.1-2.2,3.1s-2.2-1-2.2-3.1c0-2.4,2.5-3.9,2.6-5.5C174.7,11.7,176.4,17.5,176.4,18.6
				z"/>
		</g>
		<g>
			<polygon opacity="0.5" fill="#FFFFFF" enable-background="new    " points="169.9,42.7 178.1,34.5 178.1,30 169.9,38.2 			"/>
			<polygon opacity="0.5" fill="#FFFFFF" enable-background="new    " points="169.9,56.4 178.1,48.2 178.1,43.7 169.9,51.9 			"/>
			<polygon opacity="0.5" fill="#FFFFFF" enable-background="new    " points="169.9,69.3 178.1,61.1 178.1,56.5 169.9,64.7 			"/>
		</g>
	</g>
	<g>
		<path fill="#FFFFFF" d="M123.3,90c-8.6-0.6-36.9,0.1-39.8-11.1c-2.9-11,22.6-5,27.6-5.6c3.6-0.4,7.1-1.9,10.8-2.1
			c3.9-0.3,6.3,1.2,8.8,3.9c3.4,3.7,1.1,4.2,6.1,3.1c8.5-1.9,16.3,0.1,24.6-1c6.6-0.9,12.7-5.2,19-6.7c3.1-0.7,5.9,1,9,1
			c1.5,0,2.9-0.7,4.3-1.2c5.6-1.9,11.4-0.7,17,0.8c4.4,1.2,9.8,0.7,13.6,3.7c2.2,1.7,3.5,4.9,2.2,7.4c-1,1.9-3.2,2.8-5.2,3.5
			c-9.8,3.3-20.3,4.1-30.7,4.7C168.1,91.6,145.7,91.4,123.3,90z"/>
	</g>
	<g>
		<circle fill="#F46C80" cx="90.6" cy="70.3" r="2.2"/>
		<circle fill="#F46C80" cx="202.9" cy="84.4" r="2.2"/>
		<circle fill="#F4C389" cx="103.2" cy="88" r="2.2"/>
		<circle fill="#F4C389" cx="134.5" cy="88" r="2.2"/>
		<circle fill="#F4C389" cx="138.7" cy="67.5" r="2.2"/>
		<circle fill="#F4C389" cx="168.9" cy="86.6" r="2.2"/>
		<circle fill="#CDECFF" cx="116.5" cy="78.1" r="2.2"/>
		<circle fill="#CDECFF" cx="222.2" cy="80.2" r="2.2"/>
		<circle fill="#CDECFF" cx="184.7" cy="78.8" r="2.2"/>
	</g>
</g>
</svg>
