<?xml version="1.0" encoding="utf-8"?>
<!-- Generator: Adobe Illustrator 22.0.1, SVG Export Plug-In . SVG Version: 6.00 Build 0)  -->
<svg version="1.1" id="레이어_1" xmlns="http://www.w3.org/2000/svg" xmlns:xlink="http://www.w3.org/1999/xlink" x="0px"
	 y="0px" viewBox="0 0 350 295.2" enable-background="new 0 0 350 295.2" xml:space="preserve">
<g>
	<g>
		<path fill="#EF3763" d="M173.7,110.7c0,0-48.6,12.8-94.3,50.6C33.7,199,18.5,243,18.5,243s23.8-1.3,39.6-2.2
			c4-0.2,7.4-0.4,9.9-0.5c9.7,7.8,8.7,22.2,10.1,32.6c0.4,3.2,0.8,6.4,1.5,9.3c0.7,2.9,1.6,5.7,2.9,8.1c1.3-2.8,2.8-5.5,4.3-8.1
			C92.3,269.7,99,258,107,247c2-2.7,4.1-5.4,6.2-8c14.3-21.6,34.5-35,52.7-54.2c3.8-3.8,6.7-8.6,8.1-14.1c0.9-2.1,1.7-4.3,2.4-6.6
			c1.4-4.5,2.5-9.2,3.1-14.1c0.7-2.6,1.3-5.1,1.9-7.7c1.6-7.7,2.5-15.3,2.5-22.9C177,114,173.7,110.7,173.7,110.7z"/>
	</g>
	<g>
		<path fill="#EF3763" d="M158.6,113.4c0,0,1.1,10,4.3,26.2c0.6,3.2,1.4,6.7,2.2,10.4c0.6,3.3,1.4,6.5,2.2,9.8
			c0.8,3.2,1.8,6.4,2.8,9.5c6.3,22.3,17.8,40.5,32.9,57.1c1.8,2.5,3.5,5,5.2,7.5c5,7.6,9.7,15.2,14.8,23c1.5,2.6,3,5.2,4.4,7.8
			c4.3,7.9,8.1,16.1,11.2,24.7c8.6-16.3,6.7-35.5,14.4-51.8c1-1,5.8,0,9.3,0.8c3.1,0.3,6.8,0.6,10.8,1c19.7,1.7,45.9,4.1,45.9,4.1
			s-45.5-57.4-72.4-89.8c-21.5-25.8-55.8-50-66.8-53.6C163.2,111.4,158.6,113.4,158.6,113.4z"/>
	</g>
	<g opacity="0.4">
		<path fill="#D13559" d="M180.8,142.2c3.6-4.6,4.9-10.9,3.4-16.6c-0.9-3.3-4.2-11.6-7.3-13.6c-6-3.9-16,5.8-20.7,8.8
			c-7.2,4.6-13.8,10.1-20.2,15.8c-11.5,10.3-22.4,21.4-32.4,33.2c-9,10.6-17.6,21.9-28.9,29.9c8.2-1.9,16.5-3.9,24.7-5.8
			c2.5-0.6,5.1-1.2,7.6-0.7s5,2.3,5.3,4.8c0.2,1.3-0.2,2.7-0.6,3.9c-2.5,7.9-5.5,15.6-9,23.1c4.3-1.4,7.8-4.6,10.9-8
			c19.1-20.7,30.4-49.1,53.9-64.7C172.1,149.2,177.3,146.6,180.8,142.2z"/>
	</g>
	<g opacity="0.4">
		<path fill="#D13559" d="M178.2,157.8c5.4,8.6,12.4,16.1,18.9,23.9c11.8,13.9,22.5,28.8,29.9,45.5c0.1-4.5,0.2-9.1,0.3-13.6
			c0.1-2.8,0.1-5.8,1.2-8.4c1.1-2.6,3.5-4.9,6.3-5.1c2.7-0.1,5.5,2,8,2.9c3.7,1.3,7.4,2.7,10.9,4.5c2.5,1.3,5.1,2.8,7.9,2.7
			c-5.2-6.9-9.4-15-15.1-21.5c-4.8-5.5-9.2-10.3-13.2-16.7c-8.3-13.2-15.2-27.2-23.2-40.5c-6.7-11.1-21.8-23-34.5-13.9
			c-2.1,1.5-4,3.4-5.1,5.8C165.7,133.8,172.7,149.1,178.2,157.8z"/>
	</g>
	<g>
		<path fill="#CC214E" d="M150.2,140.7c0.3-0.1,0.7-0.3,1-0.4c0,0-2.1,0.2-5.8,0c-12.9-1.3-34.9-6.2-55-23.1c-2.9-2.4-5.9-4.6-9-6.3
			c-2.7-0.8-5.7-1.6-8.8-2.3s-6.4-1.2-9.8-1.7c-16.6-2.7-33.8-0.7-48.1,8.6c-2.4,1.9-4.5,4.1-6.2,6.7c-1.4,3.1-0.6,6,2,8.8
			C20.8,142,59.8,149.5,97,149c22.3,0.3,44.2-2.1,59.5-8.3C156.5,140.8,154.1,140.9,150.2,140.7z"/>
	</g>
	<g>
		<path fill="#CC214E" d="M344.7,117.7c-17.8-11.4-46.6-10.5-68.8-10.3c-3.3,0.9-6.7,1.9-10,3.1c-13.2,4.5-25.6,9.7-34.9,13.7
			c-33.2,14.4-48.1,18.7-48.1,18.7c2,0,4.1,0.1,6.3,0.1c-0.4,0.2-0.6,0.3-0.6,0.3c30.8,0.4,76.6,5.6,110.9,3.6c2-0.1,4-0.3,5.9-0.4
			c15.7-2.8,36.8-2.8,40.5-21.9C346,122.2,345.6,120,344.7,117.7z"/>
	</g>
	<g>
		<path fill="#EF3763" d="M309.6,13.7c-2.4-3.1-5.5-5.1-8.8-6.3c-3.3-1.2-6.9-1.6-10.3-1.3c-2.8,0.2-5.7,0.7-8.8,1.5
			c-18.3,4.5-40.6,18-54.8,41.6c-0.9,1.5-1.8,3.1-2.8,4.7c-0.3,0.3-0.5,0.6-0.7,0.9c-11.2,15.3-23.7,39.7-29.7,45.4
			c-0.7,0.6-1.3,1-1.7,1.2c0,0-1.4,18.5-3.3,41.9c0.3,0,0.5-0.1,0.8-0.1c13.9-2.4,61.2-5.8,82.9-16.4c2.4-1.2,4.5-2.4,6.2-3.8
			c19.5-14.8,44.5-2.2,66.5-4.1c-0.8-2.2-1.9-5.3-3.1-7.2c-1-1.5-2.1-2.9-3.4-4.2c-2-2-4.4-3.6-6.5-5.5c-2-1.8-3.9-3.8-5.6-5.9
			c-3.2-4-5.8-8.5-7.8-13.3c-1.9-4.7-3.3-9.7-4.2-14.8c-0.9-5.1-1.5-10.4-1.8-15.6c-0.3-5.3-0.5-10.5-0.6-15.8
			c-0.1-2.6-0.1-5.2-0.2-7.8c0-1.3-0.1-2.5-0.1-3.8c-0.1-1.2,0.1-2.6-0.2-3.7C311,18.6,310.3,16.1,309.6,13.7z"/>
	</g>
	<g>
		<path fill="#EF3763" d="M114.5,37C99.9,22.4,63.9,1.7,37.7,10.3c-2.9,1-5.7,2.3-8.3,4c-0.8,2.9-1.3,5.8-1.5,8.7
			c-1,21,16.2,42.1,2.8,63.2C24,96.7,13.4,102.4,9.5,115.3c-0.6,2.3-1.9,6.5-1.9,9.1c3.8-3,7.2-6.3,11.7-8.2
			c4.9-2.1,10.1-3.5,15.4-4.4c5.8-1,11.8-1.2,17.7-0.8c3.1,0.3,6.2,0.8,9.2,1.5c6.1,1.4,11.9,3.6,17.2,6.5c2.6,1.7,5.3,3.4,8.1,5.1
			c22.3,13.5,49.6,25.8,64.2,16.4c0.9-29.8,3.1-40.3,3.1-40.3C142.5,94.4,137.4,59.7,114.5,37z"/>
	</g>
	<g id="shadown_3_" opacity="0.6">
		<path fill="#D13559" d="M250.2,88.4c5.4,5.2-2.8,18.8-18.4,30.4c-15.5,11.6-32.5,16.8-37.9,11.6c-5.4-5.2,2.8-18.8,18.4-30.4
			C227.9,88.4,244.9,83.2,250.2,88.4z"/>
	</g>
	<g id="shadown_2_" opacity="0.6">
		<path fill="#D13559" d="M98.3,80.2c-6.1,4.3-0.1,19,13.4,32.9c13.6,13.9,29.5,21.6,35.7,17.4c6.2-4.3,0.1-19-13.4-32.9
			C120.5,83.7,104.5,75.9,98.3,80.2z"/>
	</g>
	<g>
		<path fill="#EF3763" d="M197.8,104c-4.2-7.5-4.7-8.6-24.2-10.3c-16.5-1.5-24.5,4.1-26.7,11.9c-2.8,9.6-3.2,27.3,1.1,34.5
			c4.6,6.8,10.3,8.8,23.2,9.1c16.9,1.5,18.7-2.3,20.6-4.3C199,137,201.6,115.4,197.8,104z"/>
	</g>
</g>
</svg>
