<?xml version="1.0" encoding="utf-8"?>
<!-- Generator: Adobe Illustrator 22.0.1, SVG Export Plug-In . SVG Version: 6.00 Build 0)  -->
<svg version="1.1" id="레이어_1" xmlns="http://www.w3.org/2000/svg" xmlns:xlink="http://www.w3.org/1999/xlink" x="0px"
	 y="0px" viewBox="0 0 350 280.1" enable-background="new 0 0 350 280.1" xml:space="preserve">
<g>
	<g>
		<g>
			<g>
				<path fill="#FCAF01" d="M210.2,118.4c0.3-8.1,0.3-15.7-2.2-23.4c-2.5,3.8-3.8,7.6-5.1,11.5c2.9-11.2,4.3-24.7,1.2-36
					c-1.2-4.4-3.4-8.6-4.8-12.9c-0.9-2.8-2.1-5.4-3.6-7.9c-0.7-1.1-4.9-5.2-4.9-6.1c-0.2,3.1-0.9,6.3-2.4,9.1
					c-1.3-8.1-1.2-13.5-6.3-20.7c-2.3-3.2-5.9-5.7-7.2-9.6c1.1,3.5-2.3,7.1-1.1,10.5c-1.5-4.4-3.6-9.7-6.4-13.5
					C166.5,18,154.8,5.9,154.7,6c-6.4,6-16.2,21.3-7.8,29.8c-2.9-2.9-7.2-6-8.7-9.9c-1,5.6,0.4,12.3,1.7,17.9
					c0.7,3.3,2.3,13.6,5.2,15.6c-3.6-2.4-7.4-4.6-11.4-6.5c0.4,11.3,9.3,20,14.9,29.3c-3.3-2.1-6.8-4-10.4-5.6
					c3.2,4.9,7.3,10,9.6,15.3c-3.1,0.6-13.1-5.5-15-8.3c5.1,7.6,7.6,16.6,15.3,22.9c-5.1-5.1-12.7-6.4-19.1-10.2
					c8.9,7.6,14,17.8,21.7,26.8c-5.1-2.5-7.6-7.6-14-7.6c7.6,7.6,10.2,19.1,15.3,28c-2.5-3.8-5.1-6.4-7.6-10.2
					c-1.3,12.7,7.6,22.9,13.6,31.3c2.1,2.9,4.4,5.7,6.7,8.5c4.6,5.6,9.3,11,13.5,16.1c0,0,7.7-6.7,15.8-21.1c2-3.6,4.1-7.7,6-12.3
					c3.1-8.5,6.9-17.4,8.2-25.7C208.9,126.4,209.6,122.5,210.2,118.4z"/>
			</g>
			<g>
				<path fill="#FFFFFF" d="M154.9,32.7c3.7,3.9,6.8,8.4,9.4,13.1c2.6,4.7,4.8,9.7,6.7,14.8c1.9,5.1,3.5,10.2,4.9,15.4
					c1.4,5.2,2.6,10.4,3.7,15.7c1,5.3,1.9,10.6,2.7,15.9c0.7,5.3,1.3,10.7,1.7,16c0.8,10.7,1.2,21.4,1,32.1
					c-1.9-10.6-3.4-21.2-4.9-31.7c-0.8-5.3-1.6-10.5-2.5-15.7c-0.9-5.2-1.8-10.5-2.9-15.6c-1-5.2-2.2-10.4-3.4-15.6
					c-1.2-5.2-2.5-10.3-4-15.3C164.3,51.7,160.6,41.8,154.9,32.7z"/>
			</g>
		</g>
		<g>
			<g>
				<path fill="#7411A3" d="M250,67.6c1.3,4.5,3.9,9.6-1.2,13.4c-2.5-15.3-16.6-28-33.1-28c2.5,1.3,5.1,1.3,2.5,7.6
					c-6.4-8.9-16.6-5.1-25.5-5.1c2.5,0,5.1,2.5,7.6,3.8c-6.4,0-14-1.3-19.1,2.5c0,1.3,1.3,3.8,3.8,3.8c-2.5,0-5.1,0-6.4,1.3
					c0,8.9,10.2,10.2,16.6,8.9c-2.5,1.3-5.1,3.8-7.6,3.8c3.8,1.3,6.4,5.1,10.2,5.1c-1.3,0-3.8,0-3.8,1.3c2.5,6.4,8.9,8.9,14,12.7
					c-2.5-2.5-6.4-3.8-8.9-5.1c1.3,5.1,1.3,11.5,6.4,14c-1.3-1.3-3.8-5.1-5.1-3.8c-6.4,2.5,0,10.2-1.3,15.3
					c-1.3-1.3-3.8-3.8-5.1-5.1c-2.5,5.1,0,10.2,1.3,15.3c-2.5-1.3-5.1-2.5-5.1-6.4c-1.3,3.8-1.3,6.4-2.3,10.8
					c-0.6,3.5-0.9,7-0.3,10.8c-1.3-2.5-2.5-3.8-2.5-6.4c-1.3,1.3-1.3,3.8-2,5c-1.2,4.2-2.1,8.5-3,12.9c-1.8,9.4-2.6,18.9-5.4,28.1
					c0.6-2,19.1-2.2,21.6-2.5c6-0.8,14.8-2.2,19.7-6.2c0,0-7.2,0.4-7-3.9c0,0,20.8,0.1,30-9c0,0-4.1,1.4-7.9-1.3
					c0,0,10.2-3.9,17.2-12.1c2.3-2.7,4.3-6,5.5-9.7c-2.4,2.5-4.9,2.5-7.5,2.5c7.6-10.2,19.1-20.4,17.8-34.4c0,5.1-3.8,6.4-7.6,8.9
					c1.6-2.9,2.8-5.9,3.6-9c0.8-3.1,1.2-6.4,1.3-9.7c1.4-6.8-2.4-13.2-3.9-20.1C255.8,74.3,253.4,70.8,250,67.6z"/>
			</g>
			<g>
				<path fill="#FFFFFF" d="M198.8,67.7c6.5-0.3,13.2,1.5,19,4.9c5.8,3.4,10.7,8.4,14.3,14.1c0.9,1.4,1.8,2.9,2.6,4.5
					c0.8,1.6,1.3,3.3,1.8,4.9c0.9,3.4,1.3,6.9,1.2,10.3c-0.1,3.5-0.7,6.9-1.6,10.2c-0.5,1.7-1.1,3.3-1.7,4.9
					c-0.3,0.8-0.7,1.5-1.1,2.3l-1,2.2c-3,6-6.7,11.7-10.8,16.8l-6.3,7.7c-2.2,2.4-4.4,4.9-6.7,7.2c-4.5,4.8-9.5,9.2-14.6,13.2
					c-5.2,4-10.7,7.7-16.6,10.5c5.4-3.7,10.3-7.9,15-12.4c2.4-2.2,4.6-4.5,6.9-6.8c2.2-2.4,4.4-4.7,6.5-7.2c2-2.5,4.1-5,6.2-7.5
					l5.8-7.7c4-5.1,7.3-10.4,10.1-16.1l1-2.2c0.3-0.7,0.7-1.4,1-2.1c0.6-1.4,1.2-2.8,1.6-4.3c0.9-2.9,1.4-6,1.6-9c0.2-3,0-6.1-0.7-9
					c-0.7-3-1.8-5.7-3.4-8.4c-3-5.5-7.1-10.4-12.3-14.1C211.4,70.9,205.2,68.5,198.8,67.7z"/>
			</g>
		</g>
		<g>
			<g>
				<path fill="#5A00BA" d="M77.3,80.4c4.6,0.6,8.4,0.6,12.2,3.1c-15.3,0-29.3,8.9-33.1,22.9c1.3-2.5,3.8-2.5,6.4-3.8
					c-1.3,7.6-8.9,14-3.8,22.9c-1.3-3.8,3.8-3.8,5.1-6.4c-1.3,6.4-1.3,12.7,0,19.1c1.3,0,2.5-1.3,3.8-2.5c0,2.5,0,6.4,1.3,8.9
					c5.1-3.8,10.2-11.5,7.6-17.8c2.5,2.5,3.8,5.1,3.8,8.9c3.8-2.5,3.8-6.4,5.1-10.2c1.3,1.3,2.5,3.8,2.5,6.4
					c3.8-3.8,8.9-5.1,12.7-8.9c-2.5,1.3-5.1,5.1-3.8,7.6c3.8,3.8,8.9-1.3,12.7,0c-1.3,1.3-3.8,3.8-5.1,5.1
					c5.1,2.5,10.2,5.1,16.6,5.1c-1.3,2.5-3.8,3.8-6.4,3.8c3.8,3.8,10.2,3.8,15.3,6.4c-2.5,1.3-3.8,2.5-6.4,2.5
					c2.5,0,3.8,1.3,5.8,2.9c3.5,1.9,8.3,3.9,13.6,4.9c0,0-3.7,2.3-6.4,2c1.2,0.1,3.2,2.1,4.2,2.7c3.8,2.3,7.7,4.3,11.7,6.2
					c8.6,4.2,17.6,7.4,25.8,12.4c-1.8-1.1,2.8-19,3.1-21.5c0.8-6,1.7-14.9-1-20.6c0,0-1.5,7.1-5.5,5.8c0,0,5.4-20.1-1-31.3
					c0,0,0.3,4.3-3.2,7.3c0,0-1.1-10.8-7.3-19.7c-2.1-3-4.7-5.7-8-7.8c0.1,2,2.6,5.8,0.1,8.4c-6.4-12.7-16.6-22.9-30.6-26.8
					c1.3,3.8,8.9,2.5,7.6,8.9c-12.7-7.6-28-12.7-42.8-10.8C85.8,77.2,81.5,78.4,77.3,80.4z"/>
			</g>
			<g>
				<path fill="#FFFFFF" d="M69.8,122c0.9-6.4,3.8-12.8,8.7-17.5c2.4-2.4,5.4-4.3,8.6-5.6c3.2-1.3,6.7-2,10.1-2.1
					c3.4-0.1,6.9,0.2,10.2,1.1c3.3,0.8,6.5,2.1,9.5,3.6c6.1,3,11.4,7,16.7,10.7l0.1,0.1l0.1,0.1c3.5,3.1,6.9,6.2,10.3,9.3l0.2,0.2
					l0.1,0.1c1.8,2.2,3.7,4.3,5.5,6.6l2.6,3.4l1.3,1.7l1.2,1.8l2.5,3.5c0.8,1.2,1.5,2.4,2.3,3.6c1.6,2.4,2.9,4.9,4.4,7.3
					c2.7,5,5.2,10.1,7.3,15.4c2.1,5.3,3.9,10.7,4.9,16.3c-1.9-5.3-4.3-10.4-6.9-15.4c-2.6-5-5.4-9.8-8.5-14.5
					c-3.1-4.7-6.3-9.2-9.7-13.6l-1.3-1.7l-1.3-1.6l-2.6-3.2l-5.4-6.3l0.2,0.2c-3.5-3.1-7-6.2-10.5-9.3l0.2,0.2
					c-5.3-3.8-10.4-7.6-15.9-10.6c-5.5-3-11.4-4.9-17.6-5c-6.1-0.2-12.2,1.7-17.1,5.6C75.3,110.1,71.9,115.8,69.8,122z"/>
			</g>
		</g>
		<g>
			<path fill="#7411A3" d="M93.5,240.2c25.5-8.1,49.2-5.2,50.2-2.1s-16.7,19.2-42.2,27.3c-25.5,8.1-32.4,4.1-34.6-2.8
				C64.8,255.6,68,248.4,93.5,240.2z"/>
		</g>
		<g>
			<path fill="#FCAF01" d="M59.3,224.5c22,6.6,37.3,20.2,36.5,22.8c-0.8,2.7-21.1,5.5-43.1-1.2c-22-6.6-24.8-12.8-23-18.8
				S37.3,217.8,59.3,224.5z"/>
		</g>
		<g>
			<path fill="#5A00BA" d="M37.1,188c13.2,18.8,16.8,38.9,14.5,40.5c-2.3,1.6-19.9-8.8-33.1-27.6s-11.6-25.4-6.5-29
				C17.2,168.3,23.9,169.1,37.1,188z"/>
		</g>
		<g>
			<path fill="#7411A3" d="M255.2,240.2c-25.5-8.1-49.2-5.2-50.2-2.1c-1,3.1,16.7,19.2,42.2,27.3c25.5,8.1,32.4,4.1,34.6-2.8
				C284,255.6,280.8,248.4,255.2,240.2z"/>
		</g>
		<g>
			<path fill="#FCAF01" d="M289.5,224.5c-22,6.6-37.3,20.2-36.5,22.8c0.8,2.7,21.1,5.5,43.1-1.2c22-6.6,24.8-12.8,23-18.8
				S311.5,217.8,289.5,224.5z"/>
		</g>
		<g>
			<path fill="#5A00BA" d="M311.7,188c-13.2,18.8-16.8,38.9-14.5,40.5c2.3,1.6,19.9-8.8,33.1-27.6c13.2-18.8,11.6-25.4,6.5-29
				C331.6,168.3,324.9,169.1,311.7,188z"/>
		</g>
		<g>
			<path fill="#BA025E" d="M250.7,162.5c-29.9,0-57.9,3.2-72.6,12.4c-2.7,1.7-6,1.7-8.7,0c-14.7-9.2-42.7-12.4-72.6-12.4
				c-48.8,0-52.3-23.8-86.8-35.6c20.5,23.8,20.4,109.7,76.3,118c42.2,6.3,66.6-5.5,80.9-24.3c1.6-2.1,3.9-3.2,6.5-3.2
				c2.6,0,4.9,1.1,6.5,3.2c14.3,18.8,38.8,30.6,80.9,24.3c55.8-8.4,55.8-94.3,76.3-118C303,138.7,299.5,162.5,250.7,162.5z
				 M147.3,195.2c-5.8,15.1-18.5,27.1-47.1,22.8c-28.6-4.3-40.7-44-51.2-56.2c17.7,6,31.6,13.9,56.6,13.9
				C130.6,175.7,153.1,180.1,147.3,195.2z M247.4,218c-28.6,4.3-41.3-7.7-47.1-22.8c-5.8-15.1,16.7-19.5,41.7-19.5
				s38.9-7.9,56.6-13.9C288.2,174,276.1,213.7,247.4,218z"/>
		</g>
		<g>
			<g>
				<path fill="#9B0256" d="M82.6,210C66,196.6,57,171.1,48.9,161.8c17.7,6,31.6,13.9,56.6,13.9c12.7,0,24.8,1.1,32.8,4.2
					c-5.8-6.9-22.5-9.1-40.5-9.1c-25,0-38.9-7.9-56.6-13.9C50.5,167.5,60.9,199.4,82.6,210z"/>
			</g>
			<g>
				<path fill="#9B0256" d="M298.7,161.8c-8,9.3-17,34.9-33.7,48.2c21.7-10.6,32.1-42.4,41.4-53.1c-17.7,6-31.6,13.9-56.6,13.9
					c-18,0-34.6,2.3-40.5,9.1c8-3.1,20.1-4.2,32.8-4.2C267.1,175.7,281,167.8,298.7,161.8z"/>
			</g>
			<g>
				<path fill="#9B0256" d="M188,215.7c-0.4-0.5-3.4-5.7-14.2-5.7c-11.8,0-13.8,5.3-14.1,5.7c-14.3,18.8-38.8,30.6-80.9,24.3
					c-5.9-0.9-11.2-2.7-16-5.1c6.6,5.1,14.3,8.6,23.7,10c42.2,6.3,66.6-5.5,80.9-24.3c1.6-2.1,3.8-3.2,6.3-3.2l0,0
					c0.1,0,0.1,0,0.2,0s0.1,0,0.2,0l0,0c2.6,0,4.8,1.2,6.3,3.2c14.3,18.8,38.8,30.6,80.9,24.3c9.3-1.4,17.1-5,23.7-10
					c-4.8,2.5-10.1,4.2-16,5.1C226.7,246.3,202.3,234.6,188,215.7z"/>
			</g>
		</g>
		<g>
			<g>
				<path fill="#FCAF01" d="M27,144.5c-0.3,0-0.7-0.1-0.9-0.4c-0.2-0.2-0.4-0.6-0.4-0.9c0-0.1,0-0.2,0-0.2c0-0.1,0-0.2,0.1-0.2
					c0-0.1,0.1-0.2,0.1-0.2c0-0.1,0.1-0.1,0.2-0.2c0.1-0.1,0.3-0.2,0.4-0.3c0.5-0.2,1-0.1,1.4,0.3c0.2,0.2,0.4,0.6,0.4,0.9
					c0,0.3-0.1,0.7-0.4,0.9C27.7,144.4,27.3,144.5,27,144.5z"/>
			</g>
			<g>
				<path fill="#FCAF01" d="M176.2,182.1c-0.1-0.7,0.3-1.4,1-1.5l0,0l0,0l0,0c0.7-0.1,1.4,0.3,1.5,1l0,0c0.1,0.7-0.3,1.4-1,1.5l0,0
					c-0.1,0-0.2,0-0.2,0l0,0C176.9,183.1,176.3,182.7,176.2,182.1z M169.7,183.1c-0.7-0.1-1.1-0.8-1-1.5l0,0c0.1-0.7,0.8-1.1,1.5-1
					l0,0c0.7,0.1,1.1,0.8,1,1.5l0,0c-0.1,0.6-0.7,1-1.2,1l0,0C169.9,183.1,169.8,183.1,169.7,183.1z M183.4,179.8
					c-0.4-0.6-0.2-1.4,0.4-1.7l0,0c0,0,0,0,0,0l0,0c0.6-0.4,1.4-0.2,1.8,0.4l0,0c0.4,0.6,0.2,1.4-0.4,1.8l0,0
					c-0.2,0.1-0.4,0.2-0.7,0.2l0,0C184,180.4,183.6,180.2,183.4,179.8z M162.3,180.1L162.3,180.1c-0.6-0.4-0.8-1.2-0.4-1.8l0,0
					c0.4-0.6,1.2-0.8,1.8-0.4l0,0c0,0,0,0,0,0l0,0c0.6,0.4,0.8,1.2,0.4,1.8l0,0c-0.3,0.4-0.7,0.6-1.1,0.6l0,0
					C162.7,180.3,162.5,180.2,162.3,180.1z M189.8,175.8c-0.3-0.6,0-1.4,0.6-1.7l0,0c0.6-0.3,1.4-0.1,1.7,0.6l0,0
					c0.3,0.6,0,1.4-0.6,1.7l0,0c-0.2,0.1-0.4,0.1-0.6,0.1l0,0C190.4,176.5,190,176.3,189.8,175.8z M156,176.3L156,176.3
					c-0.6-0.3-0.9-1.1-0.6-1.7l0,0c0.3-0.6,1.1-0.9,1.7-0.6l0,0l0,0l0,0c0.6,0.3,0.9,1.1,0.6,1.7l0,0c-0.2,0.5-0.7,0.7-1.1,0.7l0,0
					C156.3,176.5,156.1,176.4,156,176.3z M196.7,172.8c-0.2-0.7,0.1-1.4,0.8-1.6l0,0c0.7-0.2,1.4,0.1,1.6,0.8l0,0
					c0.2,0.7-0.1,1.4-0.8,1.6l0,0c-0.1,0-0.3,0.1-0.4,0.1l0,0C197.4,173.7,196.9,173.4,196.7,172.8z M149.1,173.6L149.1,173.6
					c-0.7-0.2-1-0.9-0.8-1.6l0,0c0.2-0.7,0.9-1,1.6-0.8l0,0c0,0,0,0,0,0l0,0c0.7,0.2,1,0.9,0.8,1.6l0,0c-0.2,0.5-0.7,0.9-1.2,0.9
					l0,0C149.4,173.6,149.2,173.6,149.1,173.6z M203.9,170.7c-0.2-0.7,0.3-1.4,0.9-1.5l0,0c0.7-0.2,1.4,0.2,1.5,0.9l0,0
					c0.2,0.7-0.2,1.4-0.9,1.5l0,0c-0.1,0-0.2,0-0.3,0l0,0C204.6,171.6,204.1,171.2,203.9,170.7z M141.9,171.5
					c-0.7-0.2-1.1-0.9-0.9-1.5l0,0c0.2-0.7,0.9-1.1,1.5-0.9l0,0c0.7,0.2,1.1,0.9,0.9,1.5l0,0c-0.1,0.6-0.7,1-1.2,1l0,0
					C142.1,171.6,142,171.6,141.9,171.5z M211.3,169c-0.1-0.7,0.3-1.4,1-1.5l0,0c0,0,0,0,0,0l0,0c0.7-0.1,1.4,0.3,1.5,1l0,0
					c0.1,0.7-0.3,1.4-1,1.5h0c-0.1,0-0.2,0-0.2,0l0,0C212,170,211.4,169.6,211.3,169z M134.6,170c-0.7-0.1-1.2-0.8-1-1.5l0,0
					c0.1-0.7,0.8-1.1,1.5-1l0,0c0.7,0.1,1.1,0.8,1,1.5l0,0c-0.1,0.6-0.6,1-1.2,1l0,0C134.8,170,134.7,170,134.6,170z M218.8,167.8
					c-0.1-0.7,0.4-1.3,1.1-1.4l0,0c0.7-0.1,1.3,0.4,1.4,1.1l0,0c0.1,0.7-0.4,1.3-1.1,1.4l0,0c-0.1,0-0.1,0-0.2,0l0,0
					C219.4,168.9,218.9,168.4,218.8,167.8z M127.2,168.8c-0.7-0.1-1.2-0.7-1.1-1.4l0,0c0.1-0.7,0.7-1.2,1.4-1.1l0,0
					c0.7,0.1,1.2,0.7,1.1,1.4l0,0c-0.1,0.6-0.6,1.1-1.3,1.1l0,0C127.3,168.8,127.3,168.8,127.2,168.8z M226.3,166.8
					c-0.1-0.7,0.4-1.3,1.1-1.4l0,0c0.7-0.1,1.3,0.4,1.4,1.1l0,0c0.1,0.7-0.4,1.3-1.1,1.4l0,0c0,0-0.1,0-0.1,0l0,0
					C226.9,168,226.3,167.5,226.3,166.8z M119.8,168L119.8,168c-0.7-0.1-1.2-0.7-1.1-1.4l0,0c0.1-0.7,0.7-1.2,1.4-1.1l0,0l0,0l0,0
					c0.7,0.1,1.2,0.7,1.1,1.4l0,0c-0.1,0.7-0.6,1.1-1.3,1.1l0,0C119.8,168,119.8,168,119.8,168z M233.8,166.2
					c-0.1-0.7,0.5-1.3,1.2-1.4l0,0l0,0l0,0c0.7-0.1,1.3,0.5,1.4,1.2l0,0c0.1,0.7-0.5,1.3-1.2,1.4l0,0c0,0-0.1,0-0.1,0l0,0
					C234.4,167.4,233.8,166.9,233.8,166.2z M112.3,167.4L112.3,167.4c-0.7-0.1-1.2-0.6-1.2-1.4l0,0c0-0.7,0.7-1.2,1.4-1.2l0,0l0,0
					l0,0c0.7,0.1,1.2,0.7,1.2,1.4l0,0C113.6,166.9,113,167.4,112.3,167.4L112.3,167.4C112.3,167.4,112.3,167.4,112.3,167.4z
					 M241.3,165.8c0-0.7,0.5-1.3,1.2-1.3l0,0c0.7,0,1.3,0.5,1.3,1.2l0,0c0,0.7-0.5,1.3-1.2,1.3l0,0c0,0,0,0-0.1,0l0,0
					C241.9,167,241.4,166.5,241.3,165.8z M104.8,167c-0.7,0-1.3-0.6-1.2-1.3l0,0c0-0.7,0.6-1.2,1.3-1.2l0,0c0,0,0,0,0,0l0,0
					c0.7,0,1.2,0.6,1.2,1.3l0,0C106.1,166.4,105.5,167,104.8,167L104.8,167C104.8,167,104.8,167,104.8,167z M248.9,165.5
					c0-0.7,0.5-1.3,1.2-1.3l0,0c0.7,0,1.3,0.6,1.3,1.3l0,0c0,0.7-0.5,1.3-1.3,1.3l0,0c0,0,0,0,0,0l0,0
					C249.4,166.8,248.9,166.2,248.9,165.5z M97.2,166.8c-0.7,0-1.3-0.6-1.3-1.3l0,0c0-0.7,0.6-1.3,1.3-1.3l0,0l0,0l0,0
					c0.7,0,1.3,0.6,1.2,1.3l0,0C98.5,166.2,98,166.8,97.2,166.8L97.2,166.8L97.2,166.8z M256.4,165.5c0-0.7,0.6-1.3,1.3-1.3l0,0
					c0.7,0,1.3,0.6,1.3,1.3l0,0c0,0.7-0.5,1.3-1.3,1.3l0,0l0,0l0,0C257,166.7,256.4,166.2,256.4,165.5z M89.7,166.7
					c-0.7,0-1.3-0.6-1.3-1.3l0,0c0-0.7,0.6-1.3,1.3-1.3l0,0c0.7,0,1.3,0.6,1.3,1.3l0,0C91,166.2,90.4,166.7,89.7,166.7L89.7,166.7
					C89.7,166.7,89.7,166.7,89.7,166.7z M264,165.3c-0.1-0.7,0.5-1.3,1.2-1.4l0,0l0,0l0,0c0.7,0,1.3,0.5,1.4,1.2l0,0
					c0,0.7-0.5,1.3-1.2,1.4h0c0,0-0.1,0-0.1,0l0,0C264.6,166.4,264,165.9,264,165.3z M80.9,165.1c0.1-0.7,0.7-1.2,1.4-1.2l0,0l0,0
					l0,0c0.7,0,1.2,0.6,1.2,1.4l0,0c-0.1,0.7-0.7,1.2-1.4,1.2h0C81.4,166.4,80.8,165.8,80.9,165.1z M271.5,164.6
					c-0.1-0.7,0.4-1.3,1.1-1.4l0,0c0.7-0.1,1.3,0.4,1.4,1.1l0,0c0.1,0.7-0.4,1.3-1.1,1.4l0,0c-0.1,0-0.1,0-0.2,0l0,0
					C272.1,165.7,271.6,165.3,271.5,164.6z M74.5,165.7c-0.7-0.1-1.2-0.7-1.1-1.4l0,0c0.1-0.7,0.7-1.2,1.4-1.1l0,0
					c0.7,0.1,1.2,0.7,1.1,1.4l0,0c-0.1,0.6-0.6,1.1-1.3,1.1l0,0C74.6,165.7,74.5,165.7,74.5,165.7z M279,163.5
					c-0.1-0.7,0.3-1.4,1-1.5l0,0l0,0l0,0c0.7-0.1,1.4,0.3,1.5,1l0,0c0.1,0.7-0.3,1.4-1,1.5l0,0c-0.1,0-0.2,0-0.3,0l0,0
					C279.6,164.5,279.1,164.1,279,163.5z M66.9,164.4c-0.7-0.1-1.1-0.8-1-1.5l0,0c0.2-0.7,0.8-1.1,1.5-1l0,0c0.7,0.1,1.1,0.8,1,1.5
					l0,0c-0.1,0.6-0.6,1-1.2,1l0,0C67.1,164.4,67,164.4,66.9,164.4z M286.3,161.7c-0.2-0.7,0.2-1.4,0.9-1.6l0,0
					c0.7-0.2,1.4,0.2,1.6,0.9l0,0c0.2,0.7-0.2,1.4-0.9,1.6l0,0c-0.1,0-0.2,0.1-0.4,0.1l0,0C287,162.6,286.5,162.3,286.3,161.7z
					 M59.5,162.5L59.5,162.5c-0.7-0.2-1.1-0.9-0.9-1.6l0,0c0.2-0.7,0.9-1.1,1.6-0.9l0,0c0.7,0.2,1.1,0.9,0.9,1.6l0,0
					c-0.2,0.5-0.7,0.9-1.2,0.9l0,0C59.8,162.6,59.6,162.6,59.5,162.5z M293.5,159.4c-0.3-0.6,0.1-1.4,0.7-1.6l0,0
					c0.7-0.3,1.4,0.1,1.7,0.7l0,0c0.3,0.6-0.1,1.4-0.7,1.6l0,0c-0.2,0.1-0.3,0.1-0.5,0.1l0,0C294.2,160.2,293.7,159.9,293.5,159.4z
					 M52.3,160c-0.7-0.3-1-1-0.7-1.7l0,0c0.3-0.6,1-1,1.7-0.7l0,0c0.6,0.3,1,1,0.7,1.7l0,0c-0.2,0.5-0.7,0.8-1.2,0.8l0,0
					C52.6,160.1,52.4,160.1,52.3,160z M300.4,156.4c-0.3-0.6-0.1-1.4,0.6-1.7l0,0l0,0l0,0c0.6-0.3,1.4-0.1,1.7,0.6l0,0
					c0.3,0.6,0.1,1.4-0.6,1.7l0,0c-0.2,0.1-0.4,0.1-0.6,0.1l0,0C301.1,157.1,300.7,156.8,300.4,156.4z M45.3,156.9
					c-0.6-0.3-0.9-1.1-0.6-1.7l0,0c0.3-0.6,1.1-0.9,1.7-0.6l0,0c0.6,0.3,0.9,1.1,0.6,1.7l0,0c-0.2,0.4-0.7,0.7-1.1,0.7l0,0
					C45.7,157,45.5,157,45.3,156.9z M307.1,152.8c-0.4-0.6-0.2-1.4,0.4-1.8l0,0c0.6-0.4,1.4-0.2,1.7,0.4l0,0
					c0.4,0.6,0.2,1.4-0.4,1.7l0,0c-0.2,0.1-0.4,0.2-0.7,0.2l0,0C307.7,153.4,307.3,153.2,307.1,152.8z M38.6,153.1
					c-0.6-0.4-0.8-1.2-0.4-1.8l0,0c0.4-0.6,1.1-0.8,1.8-0.4l0,0c0,0,0,0,0,0l0,0c0.6,0.4,0.8,1.2,0.4,1.8l0,0
					c-0.2,0.4-0.7,0.6-1.1,0.6l0,0C39.1,153.3,38.8,153.2,38.6,153.1z M313.4,148.6c-0.4-0.6-0.3-1.4,0.3-1.8l0,0
					c0.6-0.4,1.4-0.3,1.8,0.3l0,0c0.4,0.6,0.3,1.4-0.3,1.8l0,0c-0.2,0.2-0.5,0.2-0.7,0.2l0,0C314,149.2,313.6,149,313.4,148.6z
					 M32.3,148.8L32.3,148.8c-0.6-0.4-0.7-1.2-0.3-1.8l0,0c0.4-0.6,1.2-0.7,1.8-0.3l0,0c0,0,0,0,0,0l0,0c0.6,0.4,0.7,1.2,0.3,1.8
					l0,0c-0.3,0.3-0.6,0.5-1,0.5l0,0C32.8,149.1,32.5,149,32.3,148.8z"/>
			</g>
			<g>
				<path fill="#FCAF01" d="M320.6,144.5c-0.3,0-0.7-0.1-0.9-0.4c-0.1-0.1-0.2-0.3-0.3-0.4c-0.1-0.2-0.1-0.3-0.1-0.5
					c0-0.3,0.1-0.7,0.4-0.9c0.1-0.1,0.1-0.1,0.2-0.2c0.1-0.1,0.1-0.1,0.2-0.1c0.1,0,0.2-0.1,0.2-0.1c0.2,0,0.3,0,0.5,0
					c0.1,0,0.2,0,0.2,0.1c0.1,0,0.1,0.1,0.2,0.1c0.1,0.1,0.1,0.1,0.2,0.2c0.2,0.2,0.4,0.6,0.4,0.9c0,0.2,0,0.3-0.1,0.5
					c-0.1,0.2-0.2,0.3-0.3,0.4C321.2,144.4,320.9,144.5,320.6,144.5z"/>
			</g>
			<g>
				<path fill="#FCAF01" d="M241.6,238.4c-0.7,0-1.3-0.6-1.2-1.3l0,0c0-0.7,0.6-1.2,1.3-1.2l0,0c0.7,0,1.2,0.6,1.2,1.3l0,0
					C242.9,237.8,242.3,238.4,241.6,238.4L241.6,238.4C241.6,238.4,241.6,238.4,241.6,238.4z M104.9,237.1c0-0.7,0.5-1.3,1.2-1.3
					l0,0c0.7,0,1.3,0.5,1.3,1.2l0,0c0,0.7-0.5,1.3-1.2,1.3l0,0c0,0,0,0,0,0l0,0C105.5,238.4,104.9,237.8,104.9,237.1z M98.5,238.3
					L98.5,238.3L98.5,238.3c-0.7,0-1.2-0.6-1.2-1.3l0,0c0-0.7,0.6-1.2,1.3-1.2l0,0c0.7,0,1.2,0.6,1.2,1.3l0,0
					C99.8,237.8,99.2,238.3,98.5,238.3L98.5,238.3C98.5,238.3,98.5,238.3,98.5,238.3z M248,237.1c0-0.7,0.5-1.3,1.2-1.3l0,0
					c0.7,0,1.3,0.5,1.3,1.2l0,0c0,0.7-0.5,1.3-1.2,1.3l0,0c0,0,0,0-0.1,0l0,0C248.6,238.3,248,237.8,248,237.1z M233.9,237.8
					c-0.7-0.1-1.2-0.7-1.1-1.4l0,0c0.1-0.7,0.7-1.2,1.4-1.1l0,0c0.7,0.1,1.2,0.7,1.1,1.4l0,0c-0.1,0.6-0.6,1.1-1.3,1.1l0,0
					C234,237.8,234,237.8,233.9,237.8z M112.5,236.7c-0.1-0.7,0.4-1.3,1.1-1.4l0,0c0.7-0.1,1.3,0.4,1.4,1.1l0,0
					c0.1,0.7-0.4,1.3-1.1,1.4l0,0c-0.1,0-0.1,0-0.2,0l0,0C113.1,237.8,112.5,237.3,112.5,236.7z M90.8,237.7
					c-0.7-0.1-1.2-0.7-1.1-1.4l0,0c0.1-0.7,0.7-1.2,1.4-1.1l0,0c0.7,0.1,1.2,0.7,1.1,1.4l0,0c-0.1,0.6-0.6,1.1-1.3,1.1l0,0
					C90.9,237.7,90.9,237.7,90.8,237.7z M255.6,236.6c-0.1-0.7,0.4-1.3,1.1-1.4l0,0c0.7-0.1,1.3,0.4,1.4,1.1l0,0
					c0.1,0.7-0.4,1.3-1.1,1.4l0,0l0,0l0,0c0,0-0.1,0-0.1,0l0,0C256.2,237.7,255.6,237.2,255.6,236.6z M83.2,236.7
					c-0.7-0.1-1.2-0.8-1.1-1.5l0,0c0.1-0.7,0.8-1.2,1.5-1l0,0c0.7,0.1,1.2,0.8,1.1,1.5l0,0c-0.1,0.6-0.6,1.1-1.2,1.1l0,0
					C83.4,236.7,83.3,236.7,83.2,236.7z M263.1,235.6c-0.1-0.7,0.4-1.4,1.1-1.5l0,0c0.7-0.1,1.4,0.4,1.5,1.1l0,0
					c0.1,0.7-0.4,1.4-1.1,1.5l0,0c-0.1,0-0.1,0-0.2,0l0,0C263.7,236.7,263.2,236.2,263.1,235.6z M226.3,236.5
					c-0.7-0.2-1.1-0.8-1-1.5l0,0c0.2-0.7,0.8-1.1,1.5-1l0,0c0.7,0.2,1.1,0.8,1,1.5l0,0c-0.1,0.6-0.7,1-1.2,1l0,0
					C226.5,236.6,226.4,236.6,226.3,236.5z M120,235.5c-0.2-0.7,0.3-1.4,1-1.5l0,0c0.7-0.2,1.4,0.3,1.5,1l0,0c0.2,0.7-0.3,1.4-1,1.5
					l0,0c-0.1,0-0.2,0-0.3,0l0,0C120.6,236.5,120.1,236.1,120,235.5z M75.6,234.9L75.6,234.9L75.6,234.9c-0.7-0.2-1-1-0.8-1.6l0,0
					c0.2-0.7,1-1,1.6-0.8l0,0c0.7,0.2,1,1,0.8,1.6l0,0c-0.2,0.5-0.7,0.9-1.2,0.9l0,0C75.9,235,75.8,235,75.6,234.9z M270.5,234.1
					c-0.2-0.7,0.1-1.4,0.8-1.6l0,0c0.7-0.2,1.4,0.1,1.6,0.8l0,0c0.2,0.7-0.1,1.4-0.8,1.6l0,0l0,0l0,0c-0.1,0.1-0.3,0.1-0.4,0.1l0,0
					C271.2,234.9,270.7,234.6,270.5,234.1z M218.8,234.4c-0.7-0.2-1-1-0.8-1.6l0,0c0.2-0.7,1-1,1.6-0.8l0,0c0.7,0.2,1,1,0.8,1.6l0,0
					c-0.2,0.5-0.7,0.9-1.2,0.9l0,0C219.1,234.5,219,234.5,218.8,234.4z M127.3,233.6c-0.2-0.7,0.1-1.4,0.8-1.6l0,0
					c0.7-0.2,1.4,0.1,1.6,0.8l0,0c0.2,0.7-0.1,1.4-0.8,1.6l0,0l0,0l0,0c-0.1,0.1-0.3,0.1-0.4,0.1l0,0
					C128,234.4,127.5,234.1,127.3,233.6z M68.5,231.6c-0.6-0.4-0.8-1.1-0.4-1.7l0,0c0.4-0.6,1.1-0.8,1.7-0.4l0,0
					c0.6,0.4,0.8,1.1,0.4,1.7l0,0c-0.2,0.4-0.7,0.6-1.1,0.6l0,0C68.9,231.8,68.7,231.8,68.5,231.6z M277.5,231.1
					c-0.4-0.6-0.2-1.4,0.4-1.7l0,0c0.6-0.4,1.4-0.2,1.7,0.4l0,0c0.4,0.6,0.2,1.4-0.4,1.7l0,0c-0.2,0.1-0.4,0.2-0.7,0.2l0,0
					C278.2,231.7,277.8,231.5,277.5,231.1z M211.7,231.3c-0.6-0.3-0.9-1.1-0.5-1.7l0,0c0.3-0.6,1.1-0.9,1.7-0.5l0,0
					c0.6,0.3,0.9,1.1,0.6,1.7l0,0c-0.2,0.4-0.7,0.7-1.1,0.7l0,0C212.1,231.5,211.9,231.5,211.7,231.3z M134.4,230.7
					c-0.3-0.6-0.1-1.4,0.5-1.7l0,0c0.6-0.3,1.4-0.1,1.7,0.5l0,0c0.3,0.6,0.1,1.4-0.5,1.7l0,0c-0.2,0.1-0.4,0.1-0.6,0.1l0,0
					C135,231.4,134.6,231.2,134.4,230.7z M205,227.3C205,227.3,205,227.3,205,227.3L205,227.3c-0.6-0.4-0.7-1.2-0.3-1.8l0,0
					c0.4-0.6,1.2-0.7,1.8-0.3h0c0.6,0.4,0.7,1.2,0.3,1.8l0,0c-0.3,0.3-0.6,0.5-1,0.5l0,0C205.5,227.6,205.3,227.5,205,227.3z
					 M140.9,226.9c-0.4-0.6-0.3-1.4,0.3-1.8l0,0c0.6-0.4,1.4-0.3,1.8,0.3l0,0c0.4,0.6,0.3,1.4-0.3,1.8l0,0c-0.2,0.2-0.5,0.2-0.8,0.2
					l0,0C141.6,227.4,141.2,227.2,140.9,226.9z M62.2,227c-0.5-0.5-0.6-1.3-0.1-1.8l0,0c0.5-0.5,1.3-0.6,1.8-0.1l0,0
					c0.5,0.5,0.6,1.3,0.1,1.8l0,0c-0.3,0.3-0.6,0.4-1,0.4l0,0C62.7,227.4,62.4,227.3,62.2,227z M283.8,226.8
					c-0.5-0.5-0.4-1.3,0.1-1.8l0,0c0.5-0.5,1.3-0.4,1.8,0.1l0,0c0.5,0.5,0.4,1.3-0.1,1.8l0,0c-0.2,0.2-0.5,0.3-0.8,0.3l0,0
					C284.4,227.2,284,227.1,283.8,226.8z M199,222.3c-0.5-0.5-0.5-1.3,0-1.8l0,0c0.5-0.5,1.3-0.5,1.8,0l0,0c0.5,0.5,0.5,1.3,0,1.8
					l0,0c-0.3,0.3-0.6,0.4-0.9,0.4l0,0C199.6,222.7,199.3,222.6,199,222.3z M146.9,222.2c-0.5-0.5-0.5-1.3,0-1.8l0,0
					c0.5-0.5,1.3-0.5,1.8,0l0,0c0.5,0.5,0.5,1.3,0,1.8l0,0c-0.2,0.2-0.6,0.4-0.9,0.4l0,0C147.5,222.6,147.1,222.4,146.9,222.2z
					 M56.7,221.5c-0.5-0.5-0.4-1.3,0.1-1.8l0,0c0.5-0.4,1.4-0.4,1.8,0.2l0,0c0.5,0.5,0.4,1.4-0.1,1.8l0,0c-0.2,0.2-0.5,0.3-0.8,0.3
					l0,0C57.4,221.9,57,221.8,56.7,221.5z M289.2,221.5c-0.5-0.4-0.6-1.2-0.2-1.8l0,0c0.5-0.5,1.3-0.6,1.8-0.2l0,0
					c0.5,0.5,0.6,1.3,0.2,1.8l0,0c-0.2,0.3-0.6,0.5-1,0.5l0,0C289.7,221.8,289.4,221.7,289.2,221.5z M193.8,216.6
					C193.8,216.6,193.8,216.6,193.8,216.6L193.8,216.6c-0.4-0.5-0.3-1.4,0.2-1.8l0,0c0.6-0.4,1.4-0.3,1.8,0.2l0,0
					c0.4,0.5,0.3,1.4-0.2,1.8l0,0c-0.2,0.2-0.5,0.3-0.8,0.3l0,0C194.4,217.1,194.1,216.9,193.8,216.6z M152.1,216.6
					c-0.5-0.4-0.6-1.2-0.2-1.8l0,0c0.4-0.5,1.2-0.7,1.8-0.2l0,0c0.5,0.4,0.6,1.2,0.2,1.8l0,0l0,0l0,0c-0.3,0.3-0.6,0.5-1,0.5l0,0
					C152.6,216.9,152.3,216.8,152.1,216.6z M52.1,215.3c-0.4-0.6-0.2-1.4,0.4-1.8l0,0c0.6-0.4,1.4-0.2,1.8,0.4l0,0
					c0.4,0.6,0.2,1.4-0.4,1.8l0,0c-0.2,0.1-0.5,0.2-0.7,0.2l0,0C52.8,215.8,52.3,215.6,52.1,215.3z M293.8,215.4
					c-0.6-0.4-0.7-1.2-0.4-1.8l0,0c0.4-0.6,1.2-0.8,1.8-0.4l0,0c0.6,0.4,0.8,1.2,0.4,1.8l0,0c-0.2,0.4-0.6,0.6-1.1,0.6l0,0
					C294.3,215.7,294,215.6,293.8,215.4z M189.3,210.5L189.3,210.5L189.3,210.5c-0.4-0.6-0.4-1.4,0.2-1.8l0,0
					c0.5-0.4,1.4-0.4,1.8,0.2l0,0c0.4,0.5,0.3,1.4-0.2,1.8l0,0c-0.2,0.2-0.5,0.3-0.8,0.3l0,0C189.9,210.9,189.6,210.8,189.3,210.5z
					 M156.6,210.5c-0.5-0.4-0.6-1.2-0.2-1.8l0,0c0.4-0.5,1.2-0.6,1.8-0.2l0,0c0.5,0.4,0.6,1.2,0.2,1.8l0,0c-0.3,0.3-0.6,0.5-1,0.5
					l0,0C157.1,210.8,156.8,210.7,156.6,210.5z M48.1,208.7L48.1,208.7L48.1,208.7c-0.3-0.6-0.1-1.4,0.5-1.7l0,0
					c0.6-0.3,1.4-0.1,1.7,0.5l0,0c0.3,0.6,0.1,1.4-0.5,1.7l0,0c-0.2,0.1-0.4,0.2-0.6,0.2l0,0C48.8,209.3,48.4,209.1,48.1,208.7z
					 M297.8,209c-0.6-0.3-0.8-1.1-0.5-1.7v0c0.3-0.6,1.1-0.9,1.7-0.5l0,0c0.6,0.3,0.8,1.1,0.5,1.7l0,0l0,0l0,0
					c-0.2,0.4-0.7,0.7-1.1,0.7l0,0C298.2,209.1,298,209.1,297.8,209z M184,205.7L184,205.7L184,205.7c-0.6-0.4-0.8-1.2-0.4-1.8l0,0
					c0.4-0.6,1.2-0.8,1.8-0.4l0,0c0.6,0.4,0.8,1.2,0.4,1.8l0,0c-0.2,0.4-0.7,0.6-1.1,0.6l0,0C184.5,205.9,184.2,205.8,184,205.7z
					 M162,205.2c-0.4-0.6-0.2-1.4,0.4-1.7l0,0c0.6-0.4,1.4-0.2,1.8,0.4l0,0c0.4,0.6,0.2,1.4-0.4,1.8l0,0l0,0l0,0
					c-0.2,0.1-0.4,0.2-0.7,0.2l0,0C162.6,205.8,162.2,205.6,162,205.2z M177.4,203c-0.7-0.1-1.1-0.8-1-1.5l0,0
					c0.1-0.7,0.8-1.1,1.5-1l0,0c0.7,0.1,1.1,0.8,1,1.5l0,0c-0.1,0.6-0.7,1-1.3,1l0,0C177.6,203.1,177.5,203.1,177.4,203z M168.9,202
					c-0.1-0.7,0.3-1.4,1-1.5l0,0c0.7-0.1,1.4,0.3,1.5,1l0,0c0.1,0.7-0.3,1.4-1,1.5l0,0c-0.1,0-0.2,0-0.2,0l0,0
					C169.5,203,169,202.6,168.9,202z M44.7,201.8c-0.3-0.6,0-1.4,0.6-1.7l0,0c0.6-0.3,1.4,0,1.7,0.6l0,0c0.3,0.6,0,1.4-0.6,1.7l0,0
					c-0.2,0.1-0.4,0.1-0.5,0.1l0,0C45.4,202.5,44.9,202.2,44.7,201.8z M301.3,202.2c-0.6-0.3-0.9-1.1-0.6-1.7l0,0
					c0.3-0.6,1.1-0.9,1.7-0.6l0,0c0.6,0.3,0.9,1.1,0.6,1.7l0,0c-0.2,0.5-0.7,0.7-1.2,0.7l0,0C301.6,202.3,301.5,202.3,301.3,202.2z
					 M41.7,194.7c-0.3-0.7,0.1-1.4,0.7-1.7l0,0c0.7-0.3,1.4,0.1,1.7,0.7l0,0c0.3,0.6,0,1.4-0.7,1.7l0,0c-0.2,0.1-0.3,0.1-0.5,0.1
					l0,0C42.3,195.5,41.9,195.2,41.7,194.7z M304.3,195.2c-0.7-0.3-1-1-0.7-1.7l0,0c0.3-0.7,1-1,1.7-0.7l0,0c0.6,0.3,1,1,0.7,1.7
					l0,0c-0.2,0.5-0.7,0.8-1.2,0.8l0,0C304.7,195.3,304.5,195.3,304.3,195.2z M38.9,187.6L38.9,187.6L38.9,187.6
					c-0.2-0.7,0.1-1.4,0.8-1.6l0,0c0.7-0.2,1.4,0.1,1.6,0.8l0,0c0.2,0.6-0.1,1.4-0.8,1.6l0,0c-0.1,0.1-0.3,0.1-0.4,0.1l0,0
					C39.6,188.4,39.1,188.1,38.9,187.6z M307.1,188.1c-0.7-0.2-1-1-0.8-1.6l0,0c0.2-0.7,1-1,1.6-0.8l0,0c0.7,0.2,1,1,0.8,1.6l0,0
					c0,0,0,0,0,0l0,0c-0.2,0.5-0.7,0.8-1.2,0.8l0,0C307.4,188.2,307.2,188.2,307.1,188.1z M36.4,180.4c-0.2-0.7,0.1-1.4,0.8-1.6l0,0
					c0.7-0.2,1.4,0.2,1.6,0.8l0,0c0.2,0.7-0.1,1.4-0.8,1.6l0,0c-0.1,0-0.3,0.1-0.4,0.1l0,0C37.1,181.2,36.6,180.9,36.4,180.4z
					 M309.6,181c-0.7-0.2-1-0.9-0.8-1.6l0,0c0.2-0.7,0.9-1,1.6-0.8l0,0c0.7,0.2,1,0.9,0.8,1.6l0,0l0,0l0,0c-0.2,0.5-0.7,0.9-1.2,0.9
					l0,0C309.9,181,309.7,181,309.6,181z M34.1,173.1c-0.2-0.7,0.2-1.4,0.8-1.6l0,0c0.7-0.2,1.4,0.2,1.6,0.8l0,0
					c0.2,0.7-0.2,1.4-0.9,1.6l0,0c-0.1,0-0.2,0.1-0.4,0.1l0,0C34.8,174,34.3,173.6,34.1,173.1z M311.9,173.7
					c-0.7-0.2-1.1-0.9-0.9-1.6l0,0c0.2-0.7,0.9-1,1.6-0.8l0,0c0.7,0.2,1.1,0.9,0.8,1.6l0,0l0,0l0,0c-0.2,0.5-0.7,0.9-1.2,0.9l0,0
					C312.2,173.8,312.1,173.8,311.9,173.7z M31.9,165.8c-0.2-0.7,0.2-1.4,0.9-1.6l0,0c0.7-0.2,1.4,0.2,1.6,0.9l0,0
					c0.2,0.7-0.2,1.4-0.9,1.6l0,0c-0.1,0-0.2,0.1-0.4,0.1l0,0C32.6,166.7,32.1,166.3,31.9,165.8z M314.1,166.4
					c-0.7-0.2-1.1-0.9-0.9-1.6h0c0.2-0.7,0.9-1.1,1.6-0.9l0,0c0.7,0.2,1.1,0.9,0.9,1.6l0,0c-0.2,0.6-0.7,0.9-1.2,0.9l0,0
					C314.4,166.5,314.2,166.5,314.1,166.4z M29.8,158.4c-0.2-0.7,0.2-1.4,0.9-1.6l0,0c0.7-0.2,1.4,0.2,1.6,0.9l0,0
					c0.2,0.7-0.2,1.4-0.9,1.6l0,0c-0.1,0-0.2,0-0.3,0l0,0C30.5,159.4,30,159,29.8,158.4z M316.2,159.1c-0.7-0.2-1.1-0.9-0.9-1.6h0
					c0.2-0.7,0.9-1.1,1.6-0.9l0,0c0.7,0.2,1.1,0.9,0.9,1.6l0,0c-0.2,0.6-0.7,0.9-1.2,0.9l0,0C316.5,159.2,316.3,159.2,316.2,159.1z
					 M27.8,151.1c-0.2-0.7,0.2-1.4,0.9-1.6l0,0c0.7-0.2,1.4,0.2,1.6,0.9l0,0c0.2,0.7-0.2,1.4-0.9,1.6l0,0c-0.1,0-0.2,0.1-0.3,0.1
					l0,0C28.5,152,28,151.7,27.8,151.1z M318.2,151.8c-0.7-0.2-1.1-0.9-0.9-1.6l0,0c0.2-0.7,0.9-1.1,1.6-0.9l0,0
					c0.7,0.2,1.1,0.9,0.9,1.6l0,0c0,0,0,0,0,0l0,0c-0.2,0.6-0.7,0.9-1.2,0.9l0,0C318.5,151.8,318.4,151.8,318.2,151.8z"/>
			</g>
		</g>
		<g>
			<path fill="#FCAF01" d="M185.5,191C185.5,191,185.5,191,185.5,191L185.5,191c-8.9,0-11-12.3-11-12.3s-2.1,12.3-11,12.3h0
				c0,0,0,0,0,0c0,0,0,0,0,0h0c8.9,0,11,12.3,11,12.3S176.6,191,185.5,191L185.5,191C185.5,191,185.5,191,185.5,191z"/>
		</g>
	</g>
</g>
</svg>
