<?xml version="1.0" encoding="utf-8"?>
<!-- Generator: Adobe Illustrator 22.0.1, SVG Export Plug-In . SVG Version: 6.00 Build 0)  -->
<svg version="1.1" id="레이어_1" xmlns="http://www.w3.org/2000/svg" xmlns:xlink="http://www.w3.org/1999/xlink" x="0px"
	 y="0px" viewBox="0 0 350 350" enable-background="new 0 0 350 350" xml:space="preserve">
<g>
	<g>
		<circle fill="#E0E0E0" cx="173.5" cy="174" r="162"/>
		<g>
			<path fill="#FFFFFF" d="M53.5,65.3C67.7,49.5,85,36.6,104.1,27.5c19.2-9.1,40.1-14.5,61.3-15.7c21.2-1.2,42.7,1.7,62.9,8.8
				c20.2,7,38.9,18,54.9,32.3c16,14.2,29.2,31.6,38.5,51c9.4,19.3,14.9,40.5,16.1,62.1c1.2,21.5-1.9,43.3-9.1,63.6
				c-7.2,20.4-18.5,39.2-33,55.3c-14.5,16-32.2,29.1-51.7,38.3c-19.5,9.2-40.9,14.4-62.4,15.3c-21.5,1-43.2-2.5-63.4-9.9
				c-20.2-7.4-38.8-18.8-54.5-33.3c-15.7-14.5-28.6-32.1-37.5-51.4c-9-19.4-14-40.5-14.9-61.7c-1-21.2,2.3-42.6,9.5-62.6
				C28,99.5,39.2,81,53.5,65.3z M53.5,65.3C39.3,81,28.2,99.6,21.1,119.5c-7.1,20-10.1,41.4-8.9,62.5c1.2,21.1,6.6,42,15.8,60.9
				c9.2,19,22.2,36.1,37.9,50c15.7,14,34.1,24.8,53.9,31.7c19.8,6.9,40.9,9.7,61.7,8.6c20.8-1.1,41.4-6.4,60.2-15.4
				c18.8-8.9,35.8-21.6,49.7-37.1c14-15.4,25-33.6,32-53.2c7.1-19.6,10.3-40.6,9.4-61.4c-0.9-20.8-5.8-41.6-14.7-60.6
				c-8.8-19-21.4-36.3-36.8-50.5c-15.5-14.2-33.7-25.5-53.5-32.7c-19.8-7.3-41.1-10.6-62.2-9.7c-21.1,1-42.1,6-61.3,15.1
				C85.1,36.7,67.7,49.6,53.5,65.3z"/>
		</g>
		<path fill="#D1D1D1" d="M63.9,83.7c-6.2,0.5-11.2,5.1-15.1,9.9c-10.4,12.7-16.8,28.7-18.1,45.1c-0.8,10.4,1.2,22.3,9.9,28.1
			c2.5,1.7,5.5,2.7,7.7,4.9c6.8,6.7,1.7,19.3,7,27.3c3.2,4.8,9.6,6.7,15.3,5.8s10.8-4.2,15.2-7.9c4.9-4.1,10.3-9.3,16.5-8.2
			c5.3,1,8.9,6.6,9,12s-2.5,10.5-5.7,14.9c-2,2.7-4.4,5.6-4.3,9c0.1,5.1,5.6,8.2,10,10.7c9.8,5.7,18.2,13.9,28.9,17.4
			c10.7,3.6,25.3,0,28.2-10.9c3.9-14.5-14.7-25.9-16-40.8c-0.2-2,0-4.1,1.2-5.7c2.4-3.4,7.7-3,11.3-1c3.6,2,6.7,5.2,10.6,6.5
			c6.3,2.1,13.1-1.1,18.1-5.4c16.3-13.9,18.8-41.2,5.4-57.9c-3.3-4.2-7.5-7.7-10.4-12.2c-2.9-4.5-4.4-10.5-1.8-15.2
			c1.6-2.9,4.5-4.9,5.7-7.9c3.3-8-6.4-15.7-6.5-24.3c0-1.8,0.4-3.7-0.3-5.3c-0.8-1.9-2.7-3-4.5-4c-5.7-3.1-11.6-6.2-18-7.2
			c-6.4-1-13.6,0.5-17.8,5.4c-3.3,3.9-4.4,9.2-6.7,13.8c-2.3,4.6-7.2,8.8-12.1,7.2c-5-1.6-6.4-8-6.3-13.2c0.1-5.2,0.6-11.2-3-15
			c-2.7-2.9-7-3.7-10.9-3.3c-6.2,0.5-13.3,5.6-11.5,11.6c0.6,2,2,3.6,3,5.4c3.4,6.6-2.7,20.2-5.9,25.9c-10.3,18.4-9.2,0.9-14.1-7.3
			C75.1,86.9,69.8,83.2,63.9,83.7z"/>
		<g>
			<path fill="#D1D1D1" d="M158.8,45.1c5.3,2.1,23.6,12.8,28.8,9.8c8.1-4.7-0.4-11-4.2-13.3c-5.5-3.4-13-7.7-19.6-6.3
				c-3.2,0.7-10.6,4-7.3,8.3C157,44.4,157.9,44.8,158.8,45.1z"/>
		</g>
		<g>
			<path fill="#D1D1D1" d="M206,59.7c-1.2,5.9-10.4,9-10.5,15.5c-0.1,8.3,9.4,9.1,14.9,4.9c3.1-2.4,7.9-7.4,9.8-10.9
				c2.3-4.2-0.8-9.6,0.6-14.2c0.9-2.7,3.2-4.7,4.7-7.2c3.9-6.3-2.8-6.7-7.3-5.6C209.2,44.4,207.5,52.2,206,59.7z"/>
		</g>
		<g>
			<path fill="#D1D1D1" d="M282.3,213c0.8-2.1,1.4-4.3,1.7-6.6c2.5-18-4.6-31.7,5.1-48.9c3.5-6.3,7.1-15.5-2.2-20.1
				c-4.4-2.2-9.4-2.4-14.3-3.2c-15-2.6-20.4-18.4-32.2-26.3c-9.1-6.1-21.5-8.4-30.9-2.9c-4.5,2.6-8.2,7.8-6.8,12.8
				c1.5,5.6,8.2,7.9,12.2,12.2c5.5,5.9,5.4,15.1,9.4,22.1c3.2,5.7,10.8,11,10.1,18.2c-0.7,7.6-11.2,9.7-11.5,17
				c-0.2,4.3,4.4,7.2,8.6,8c4.2,0.8,8.8,0.4,12.6,2.3c4.9,2.5,7.4,8.4,7.3,14c-0.2,5.3-11.5,24,0.4,25.5c1.2,0.2,2.4-0.2,3.6-0.5
				C267,232.8,277.9,224.3,282.3,213z"/>
		</g>
		<g>
			<path fill="#C2C2C2" d="M68.9,187c0.2,0.1,0.4,0.1,0.6,0.2c3.2,0.8,6.5,0.7,9.8,0.6c1.5-0.1,3.1-0.2,4.4-1
				c1.9-1.2,2.5-3.7,2.7-5.9c0.5-7.9-7.7-12-11.5-18.2c-3.5-5.7-7.1-15.3-15.6-11.8c-4,1.7-6.6,6.6-5.2,10.7c1.2,3.5,4.6,5.8,6,9.3
				c1.3,3.3,0.5,7.2,1.9,10.4C63.3,184.1,66,186,68.9,187z"/>
		</g>
		<g>
			<path fill="#C2C2C2" d="M83.2,89.1c6.1,1.1,5.5-10.6,3-13.2c-9.4-9.5-6.6,6.7-4.8,11.1C81.7,87.9,82.2,88.9,83.2,89.1z"/>
		</g>
		<g>
			<path fill="#C2C2C2" d="M168.8,214.6c-0.3,4.7,8.7,10.7,11,15.1c3.9,7.7,6.1,14.3,17,10.7c4.3-1.4,8.1-4.3,11.6-7.1
				c2.7-2.2,5.6-4.9,5.6-8.4c0.1-3.5-2.9-6.4-6.3-7.5c-8.8-2.8-17.9-1-27-4.9c-2.2-0.9-4.4-2-6.8-2
				C171.6,210.6,169,212.2,168.8,214.6z"/>
		</g>
		<g>
			<path fill="#E0E0E0" d="M157.6,106.6c1,0.1,2.1,0,3.1-0.2c3.6-0.7,7.2-3.2,7.9-6.9c2.2-10.4-10.3-6.7-14.7-3.6
				c-1,0.7-1.9,1.5-2.5,2.5c-1.2,2.2-0.1,5.2,1.9,6.7C154.5,106.1,156,106.5,157.6,106.6z"/>
		</g>
		<g>
			<path fill="#C2C2C2" d="M294.7,103.3c-2.1-5.8-9.1-9.2-15.6-10.1c-5.6-0.8-17.9-3.6-22.8-0.1c-5.9,4.2-4.1,12.7,2.2,15.3
				c4.7,2,22.8,12,21.6,18.1c4.4-0.2,8.7-0.5,13.1-0.7c1.5-0.1,3.1-0.2,4.5-0.8c4.2-1.8,5.2-8.5,1.7-11.4c-1.1-0.9-2.6-1.5-3.4-2.8
				c-0.9-1.4-0.7-3.2-0.8-4.9C295.2,105,295,104.1,294.7,103.3z"/>
		</g>
		<path fill="#C2C2C2" d="M147.9,274.6c6.1,0.8,12.3,1.6,18.4,2.4c1.3,0.2,2.7,0.4,3.8,1.1c1.1,0.8,1.7,2,2.5,3.1
			c3,4.2,8.5,6,13.7,6.1c6.6,0.2,20.6-2.9,23.5-10.1c3.4-8.2-7.1-10.7-13.9-10.4c-6.9,0.4-13.5,3.1-20.6,3.4
			C169.7,270.6,150.3,267.3,147.9,274.6z"/>
		<g opacity="0.8">
			<path fill="#FFFFFF" d="M133,47.3c4.1-6.9-8.2-5.6-11.3-3C112.5,52,128,55.7,133,47.3z"/>
		</g>
		<g>
			<path fill="#C2C2C2" d="M50.5,232.9c11.6,3.2-2.3-20.2-9-13C37.6,224.2,47.3,232,50.5,232.9z"/>
		</g>
		<g opacity="0.2">
			<path fill="#FFFFFF" d="M255.6,144.8c-6.1,23.5-16.7,46.3-30.1,63.3c-23.8,30.4-57.8,52.4-95.5,62.5c-29.3,7.9-61.4,7.2-89.2-4.8
				c23.8,32.6,59.6,56.7,99.2,66.8c55.3,14.1,110.6,1.8,149-40.5c10-10.9,19.5-22.3,27.5-34.7c25.9-40.4,27.4-89.8,13.2-134.5
				c-12.9-41-44.7-67.5-79.6-91.7c5.7,18.9,8.3,38.7,10.4,58.2C262.4,106.7,260.5,126,255.6,144.8z"/>
		</g>
		<g>
			<path fill="#C2C2C2" d="M238.9,302.2c2.3-1.2,4.8-2.9,4.8-5.5c0-12.1-19.8,3.8-21.4,8.9C227.5,308.5,234.1,304.8,238.9,302.2z"/>
		</g>
		<path opacity="0.5" fill="#C2C2C2" d="M266.7,71.1C282,81.3,295,95.5,304.5,112c9.5,16.5,15.5,35.3,17.4,54.6l0.5,7.3
			c0.1,2.4,0.1,4.9,0.2,7.3c-0.1,2.4-0.1,4.9-0.3,7.3c-0.2,2.4-0.4,4.9-0.6,7.3c-1,9.8-3.2,19.4-6.3,28.8c-3.1,9.4-7.3,18.4-12.2,27
			c-5,8.5-10.9,16.5-17.5,23.9c-6.7,7.3-14.1,13.9-22,19.8c-8,5.8-16.6,10.8-25.6,14.8c-18,8-37.6,12.3-57.1,12.3
			c-19.5,0-38.8-4-56.1-11.9c-17.3-7.9-32.8-19.4-44.4-33.6c7.6,5.1,15.6,9.5,23.6,13.2c8.1,3.7,16.4,6.7,24.9,8.8
			c16.9,4.4,34.2,5.7,51,3.9l6.3-0.8l6.2-1.1l6.2-1.3c2-0.6,4.1-1,6.1-1.6c8-2.4,15.8-5.4,23.2-9.2c7.4-3.8,14.5-8.1,21-13.2
			c6.6-5,12.7-10.6,18.3-16.8c5.6-6.1,10.6-12.8,14.9-19.8c4.4-7,8-14.5,11.1-22.2c3-7.7,5.3-15.8,6.8-24c0.4-2.1,0.7-4.1,1-6.2
			l0.7-6.3l0.5-6.3l0.2-6.3c0.1-16.9-2.9-34.1-8.9-50.4c-3-8.2-6.8-16.2-11.3-23.9C277.7,85.6,272.5,78.2,266.7,71.1z"/>
	</g>
</g>
</svg>
