<?xml version="1.0" encoding="utf-8"?>
<!-- Generator: Adobe Illustrator 22.0.1, SVG Export Plug-In . SVG Version: 6.00 Build 0)  -->
<svg version="1.1" id="레이어_1" xmlns="http://www.w3.org/2000/svg" xmlns:xlink="http://www.w3.org/1999/xlink" x="0px"
	 y="0px" viewBox="0 0 350 295.3" enable-background="new 0 0 350 295.3" xml:space="preserve">
<g>
	<g>
		<g>
			<g>
				<path fill="#ECA56D" d="M316.1,240.4c-2.5,6.7-8,12.2-13.6,16c-7,4.8-15.3,7.5-23.5,9.3c-21.6,4.8-44.5,4.5-66.5,5.1
					c-26.1,0.6-52.1,0.3-78.2-0.9c-25-1.2-50.4-2.2-75-7.2c-4.3-0.9-8.6-1.9-12.9-3.1c-6.3-1.8-11.5-4.7-16.3-9.4
					c-3.4-3.3-6-7.6-7.5-12.2c-0.4,1.3-0.7,2.7-1,4c-1.6,9.4,2.2,19.4,8.4,25.9c4.8,5,10,8.2,16.3,10.1c4.3,1.3,8.5,2.3,12.9,3.3
					c24.6,5.3,50,6.4,75,7.7c26,1.3,52.1,1.7,78.2,1c22-0.6,44.9-0.3,66.5-5.4c8.2-2,16.5-4.8,23.5-9.9c7.9-5.8,15.6-15,15-26.5
					C317.3,245.4,316.8,242.9,316.1,240.4z"/>
			</g>
			<g>
				<path fill="#EFBB72" d="M30.2,250.1c4.8,4.7,10,7.7,16.3,9.4c4.3,1.2,8.5,2.2,12.9,3.1c24.6,5,50,6,75,7.2
					c26,1.3,52.1,1.6,78.2,0.9c22-0.5,44.9-0.2,66.5-5.1c8.2-1.8,16.5-4.5,23.5-9.3c5.6-3.8,11.1-9.3,13.6-16
					c-1-3.5-2.5-6.8-4.4-9.7c-7.5-11.1-20.6-16.4-32.8-16.4c-0.1,0-219.2-0.8-219.2-0.8c-11.3,0-23.2,4.3-31,13.6
					c-2.6,3.1-4.7,6.8-6,10.8C24.2,242.5,26.8,246.8,30.2,250.1z"/>
				<path fill="#EFBB72" d="M185.3,271.6c-17,0-34.1-0.4-50.9-1.3l-3.9-0.2c-23.5-1.1-47.8-2.3-71.2-7c-4.5-0.9-8.8-1.9-12.9-3.1
					c-6.4-1.7-11.6-4.8-16.5-9.5c-3.5-3.4-6.1-7.7-7.5-12.5l0-0.1l0-0.1c1.3-4,3.4-7.7,6.1-11c7.3-8.8,18.8-13.8,31.4-13.8
					c2.2,0,218.9,0.8,219.2,0.8c13.6,0,26.3,6.4,33.2,16.6c1.9,3,3.5,6.3,4.5,9.8l0,0.2l-0.1,0.2c-3,8-9.9,13.6-13.8,16.2
					c-6.1,4.2-13.6,7.2-23.7,9.4c-18.7,4.2-38.5,4.6-57.6,4.9c-3,0.1-6,0.1-9,0.2C203.5,271.4,194.4,271.6,185.3,271.6z M23.3,237.8
					c1.4,4.6,3.9,8.7,7.2,11.9l0,0c4.7,4.6,9.9,7.6,16.1,9.3c4.2,1.2,8.4,2.2,12.9,3.1c23.3,4.7,47.6,5.9,71.1,7l3.9,0.2
					c25.9,1.3,52.2,1.6,78.2,0.9c3-0.1,6-0.1,9-0.2c19.1-0.3,38.8-0.7,57.4-4.9c9.9-2.2,17.3-5.1,23.3-9.2
					c3.7-2.5,10.4-7.9,13.4-15.6c-1-3.4-2.4-6.6-4.3-9.4c-6.7-10-19.1-16.2-32.4-16.2c-0.1,0-210.3-0.8-219.2-0.8
					c-12.3,0-23.5,4.9-30.6,13.4C26.6,230.4,24.6,234,23.3,237.8z"/>
			</g>
		</g>
		<g>
			<g>
				<path fill="#EDEFE8" d="M233.5,239c-6.5,0.2-12.9,0.3-19.4,0.4c-32.4,0.1-64.7-1.9-97.1-3.5c-16.2-0.8-32.3-1.5-48.5-1.7
					c-8.4-0.1-16.8-0.6-25.1-0.4c-2.8,0-22.6-0.9-17,7.1c5.4,7.7,16.1,11.4,24.4,13.2c26.4,5.7,53.7,2.7,80.6,2.4
					c13-0.1,26,0.4,39,1.1c11.8,0.6,25.4,3.4,37.1,1.4c11.7-2.1,24.1-1,36-1.4c12.9-0.4,25.8-1.2,38.6-2.7c0.5-0.1,1-0.1,1.5-0.2
					c9.5-1.2,20.1-3.8,27.4-11c2.3-2.3,4.3-6.8,1.8-8.9c-1-0.8-2.3-0.8-3.5-0.7C284,235.5,258.8,238.1,233.5,239z"/>
			</g>
		</g>
		<g>
			<path fill="#6DBE00" d="M35,243c2.1,0.6,4,1.5,5.7,2.9c1.1,0.9,2,2,3.2,2.6c4,2.1,9-1,13.4-0.1c1.7,0.4,3.2,1.3,4.9,1.7
				c3.6,0.8,7.2-1.1,10.8-1.9c11.9-2.4,23.9,1.2,35.7,0.8c7-0.2,13.7-2.5,20.6-2.8c12-0.4,23.9,5.2,35.8,3.3
				c5.8-0.9,11.4-3.6,17.3-3.8c9-0.3,17.5,5.3,26.4,4.4c5.2-0.5,9.9-3.2,15.1-3.8c6.2-0.7,12.3,1.5,18.5,1.2
				c7.7-0.3,15-4.5,22.7-4.4c6.5,0,12.8,3,19.2,2.5c5.7-0.4,10.9-3.6,16.5-4.5c4.5-0.8,9.1-0.2,13.6-0.7c4-0.4,11.6-3,11.5-8
				c-0.2-4.8-8.6-6.6-12.3-7.7c-7-2.3-15-0.2-22.3-0.4c-10.3-0.2-20-3.9-30.2-4.8c-4.1-0.4-7.2,0.8-11.1,1.1
				c-3.9,0.3-7.8-1.4-11.7-1.5c-16.3-0.6-30.5,10-47.2,8.6c-33.4-2.9-60-13-91.1-8.7c-14.6,2-27.3-1.2-41.6-2.9
				c-4.9-0.6-9.6-0.4-14,1.9c-2.4,1.2-4.3,3.8-6.6,4.7c-4.7,1.9-10.1,0.5-14.7,2.6c-4,1.8-13.6,1.4-12.6,8.1c0.3,2.2,2.1,3.9,4,5
				C20.7,242,28.5,241.2,35,243z"/>
		</g>
		<g>
			<path fill="#6D9F00" d="M23.5,232.6c1.2,0.1,2.5,0.4,3.7,0.9c3,1.2,5.9,2.8,9.3,3.1c3.5,0.3,7-0.7,10.5-0.8
				c6.4-0.3,12.7,2.1,19,1.3c3.9-0.4,7.5-2,11.4-2c1.8,0,3.5,0.4,5.2,0.6c7,0.7,12-1.9,18.4-2.8c5.7-0.8,13.4,0.6,18.9,1.9
				c8,1.7,15.9,4.9,24.1,4.1c9.1-0.9,17.2-4.9,26.5-5.7c12.7-1,25.5,3.5,38.2,2.1c5.4-0.6,10.6-2.3,16.1-1.9
				c6.1,0.4,11.2,2,17.4,1.6c6.4-0.3,11.7-0.5,17.9,0.9c5.6,1.2,11.4,2.8,17.1,2c3-0.4,5.8-1.4,8.8-1.6c2.3-0.1,4.5,0.2,6.8,0.4
				c6.6,0.5,13.3-0.5,19.8-1.5c7.8-1.2,16.3-3,22.6-6.7c1-0.6,2.1-1.3,2.4-2.3c0.2-0.7,0-1.4-0.4-2c-2.9-4.4-13.6-3.4-16-8
				c-0.8-1.5-0.4-3.4-1.6-4.7s-3.5-1.8-5.7-2.2c-7.5-1.3-12.5-3-19,0.4c-3.9,2-9.3,6.2-14.6,4.5c-9.6-3.1-30.4-4.6-42.5-6.9
				c-18.5-3.5-32.3,7.2-53.9,5.8c-33.7-2.2-60.6-10-92-6.7c-34.4,3.6-45.3-8.9-61.6,2.1c-5.3,3.6-11.4,6.3-16.1,10.4
				c-2.1,1.8-4,3.7-4.7,6s0.3,5,2.9,6.3C15.8,232.9,19.7,232.2,23.5,232.6z"/>
		</g>
		<g>
			<g>
				<path fill="#7C3E29" d="M20.4,190.8c-3,8.1-2.6,16.2,3.8,21.5c8.3,6.9,17,5.7,26.7,6.3c62.7,4.1,125.6,4.4,188.3,1
					c12.3-0.7,24.8-1.2,37-1.1c11.6,0.1,32.7,1.9,41-10.5c4.6-6.9,3.1-22.4-1.1-29.2c-3.6-5.7-11.7-5.3-16.9-5.2
					c-63.2,1.9-126.4,5.4-189.5,1.7c-15.4-0.9-30.9-2.2-46.3-1.5c-7.8,0.4-15.6,1.3-23.3,3C32.1,178.8,24.2,180.7,20.4,190.8z"/>
			</g>
		</g>
		<g>
			<path fill="#E71E26" d="M133.2,194.9c7.4-0.5,14.8-1.2,22.2-2.1c6.6-0.8,12.2-2.9,18.5-4.7c1.5-0.4,3.1-1,4.3-2.3
				c2.7-3.2,0.4-15.1,0-19.4c0-0.3-0.1-0.7-0.2-0.9c-1.8-3-12.9-2-15.5-2.1c-27.7-0.5-55.4-1-83.1-1.5c-13.9-0.3-27.7-0.5-41.6-0.8
				c-4.1-0.1-13.9-2.5-16.1,1.9c-2.1,4.3,0.4,15.3,0.8,20c0.1,0.9,0.2,2,0.6,2.5c0.2,0.3,0.5,0.4,0.7,0.5
				c26.3,10.5,55.9,9.7,83.3,9.7C115.8,195.8,124.5,195.5,133.2,194.9z"/>
		</g>
		<g>
			<path fill="#E71E26" d="M259.5,195.4c14.1-1,28.1-3.2,41.9-6.3c4.5-1,12.9-1.1,16.4-5.2c3.4-4,1.9-12.8,1.6-17.8
				c0-0.8-0.1-1.7-0.6-2.3c-1.3-1.9-11.6-0.3-13.6-0.3c-6,0-12,0.5-18.1,0.4c-26.3-0.5-52.5-1-78.8-1.5c-8.3-0.2-16.9-1.2-25.1-0.5
				c-3.1,0.3-5.4,0.5-6.6,3.6c-1.4,3.7-0.3,11.6-0.4,15.7c-0.1,3.2,0,6.8,1.9,9c2.3,2.6,7,2.6,9.9,3.6c4.4,1.5,8.8,1.7,13.4,1.9
				c11,0.6,22.1,0.4,33.1,0.4C243,196.2,251.3,195.9,259.5,195.4z"/>
		</g>
		<g>
			<path fill="#FFD000" d="M126,150.5c6.8,5.4,13.6,10.9,21.2,14.3c7.9,3.5,16.4,4.7,24.8,5.8c25.6,3.2,51.9,5.4,76.1,16.8
				c2.8,1.3,5.6,3.5,8.5,4.4c3.4,1.1,4.5-0.4,7.9-2.3c6.5-3.7,13.1-7.1,19.8-10.3c6.3-3.1,12.7-5.9,19.1-8.6
				c4.4-1.8,14.2-2.8,14.6-9.9c0.2-3,0.1-6.1-0.2-9.1c-0.7-7.5-5.8-7.7-10.7-8.5c-7-1.1-13.9-3.2-20.9-4.4
				c-14.6-2.5-29.4-3.8-44.1-4.1c-9.7-0.2-19.3,0.6-28.9,2c-9.3,1.3-19.4,5.1-28.8,4.6C165.2,140.2,144.8,146.6,126,150.5z"/>
		</g>
		<g>
			<path fill="#FFD000" d="M204.3,162.2c-22.3,4.9-44.5,9.9-66.8,14.8c-12.7,2.8-25.4,5.7-37.3,11.8c-1.1,0.5-2.1,1.1-3.3,1.3
				c-1.4,0.2-2.8-0.3-4.1-0.8c-13.6-5-27.5-11.8-41.2-15.7c-3.5-1-43.3-10.1-42.9-12c1.1-5.2,4.9-8,8.4-10.8
				c8.2-6.6,16.8-12.3,25.6-17.3c17.6-10.1,36-17.7,54.3-25.3c1.8-0.7,3.6-1.5,5.5-1.7c2.1-0.2,4.2,0.2,6.2,0.7
				c8.8,1.9,17.6,3.9,26.1,6.9c18.3,6.6,35.1,18.4,51.6,30.2C193.2,149.1,200.1,154.2,204.3,162.2z"/>
		</g>
		<g>
			<path fill="#6D9F00" d="M20.6,159.4c1.3,0.2,2.5,0.6,3.8,1.5c3.1,2.1,6.1,4.7,9.6,5.3c3.6,0.6,7.1-1.1,10.8-1.5
				c6.5-0.6,13,3.5,19.5,2.2c4-0.8,7.7-3.4,11.7-3.3c1.8,0,3.6,0.7,5.3,1c7.1,1.2,12.3-3.2,18.9-4.7c5.9-1.4,13.7,1.1,19.4,3.1
				c8.2,2.9,16.3,8.2,24.7,6.8c9.3-1.5,17.6-8.3,27.1-9.6c13-1.8,26.1,5.9,39.1,3.4c5.5-1,10.9-3.9,16.5-3.3
				c6.2,0.7,11.4,3.3,17.9,2.7s12-0.9,18.4,1.4c5.7,2.1,11.7,4.7,17.5,3.4c3-0.7,5.9-2.3,9-2.6c2.3-0.2,4.6,0.3,7,0.6
				c6.8,0.8,13.6-0.9,20.3-2.6c8-2,16.7-5.2,23.2-11.4c1.1-1,2.2-2.2,2.5-3.9c0.2-1.2,0-2.4-0.4-3.5c-2.9-7.5-13.9-5.8-16.4-13.5
				c-0.8-2.6-0.4-5.7-1.7-8c-1.2-2.3-3.6-3-5.8-3.6c-7.7-2.1-12.8-5.1-19.5,0.7c-4,3.4-9.5,10.5-14.9,7.7
				c-9.8-5.2-31.1-7.7-43.5-11.5c-18.9-5.9-33.1,12.3-55.2,10c-34.5-3.7-62-16.7-94.2-11.1c-35.2,6.2-46.3-14.9-63.1,3.7
				c-5.4,6-11.7,10.7-16.6,17.6c-2.1,3-4.1,6.4-4.8,10.2c-0.7,3.9,0.3,8.4,3,10.6C12.7,159.9,16.7,158.7,20.6,159.4z"/>
		</g>
		<g>
			<path fill="#6DBE00" d="M29.3,152.9c1.7,2.3,3.2,4.9,5.3,6.4c3.8,2.8,8.8,1.6,12.9-0.7s7.8-5.5,12.2-6.7
				c9.1-2.5,18.2,4.3,27.5,4.3c11.1,0,22.5-9.5,32.4-3.6c2.6,1.6,4.9,4.1,7.8,4.6c3.3,0.5,6.4-2,9.7-3.1c12.4-4.5,26.4,10.1,38,3
				c2.2-1.4,4.1-3.4,6.3-4.8c10.5-6.4,22.4,5.1,34.1,5.8c9.3,0.6,18.1-5.8,27.4-6.1c12.9-0.4,25.6,10.7,38,6.2
				c4.4-1.6,8.3-5.1,12.8-6.2c5.1-1.2,10.3,0.9,15.4,1.6c4.4,0.6,8.7,0.2,13-1c3.7-1,7.8-0.4,11.3-2.4c2.3-1.3,4.4-4.4,3.4-7.2
				c-1.1-3.2-4.8-3.1-7.3-4.6c-0.5-0.3-1.1-0.8-1.3-1.5c-0.3-0.8-0.2-1.6-0.1-2.4c0.4-1.9,1.2-3.6,1.6-5.4c1.6-7-7.4-9.9-11.7-11.7
				c-7.2-2.9-15.4-0.2-22.8-0.5c-10.5-0.3-20.5-5-30.9-6.1c-4.2-0.5-7.4,1-11.4,1.4s-8-1.8-12-2c-16.7-0.8-31.2,13-48.3,11.1
				c-34.2-3.7-61.5-16.7-93.4-11.1c-14.9,2.6-28-1.5-42.6-3.7c-5-0.8-9.8-0.5-14.3,2.4c-2.4,1.6-4.4,4.9-6.8,6.1
				c-4.5,2.3-10.3,0.7-15.1,3.4c-5,2.8-9.3,8.3-10,14.9c-0.7,6.6,3,14,8.5,14.8c1.7,0.3,3.5-0.1,5.2,0.4
				C26.3,149.1,27.9,150.9,29.3,152.9z"/>
		</g>
		<g>
			<g>
				<g>
					<path fill="#F29A57" d="M203.9,10.9c2.1,0.5,4.1,0.9,6.2,1.3C208,11.8,206,11.3,203.9,10.9z"/>
				</g>
				<g>
					<path fill="#EFBB72" d="M232.9,124.2c-9.9,0.5-19.4-0.2-29.3,0.3c-11.5,0.6-23,0.9-34.6,1c-23,0.1-46.1-0.8-69.1-1.9
						c-15.2-0.7-30.4-2.4-45.5-4.7c-9.6-1.5-24.6-4.1-36.3-10.8c0,4.5,0.5,9.1,2.4,12.9c5.5,11.3,18.2,13.9,28,15.2
						c12.9,1.7,25.6,3.6,38.6,4.8c52.6,4.7,105.4,6,158.1,3.3c18.5-0.9,37.2-2.8,54.6-10.6c5.8-2.6,11-5.1,14.8-9.2
						c3.2-3.4,5.5-7.8,6.6-14.2c0.2-1.4,0.4-2.9,0.5-4.3c-15.9,14.8-38.5,15.2-57.9,16.4C253.6,123.1,243.2,123.7,232.9,124.2z"/>
				</g>
				<g>
					<g>
						<path fill="#ECA56D" d="M316.7,81c-9.5-19.6-27-32.8-43.2-42.8c-5.3-3.3-10.7-6.3-16.1-9c-15.1-7.4-31-13.1-47.2-16.9
							c-2.1-0.4-4.1-0.9-6.2-1.3c-35.1-7-71.6-4.9-105.1,8.2c-23.2,9-45.2,23.4-63.2,43.5C26,73.5,19.5,88.6,18.4,104.6
							c-0.1,1.2-0.1,2.4-0.1,3.7c11.7,6.6,26.7,9.3,36.3,10.8c15.1,2.3,30.3,3.9,45.5,4.7c23,1.1,46,2,69.1,1.9
							c11.5-0.1,23.1-0.3,34.6-1c9.9-0.5,19.5,0.2,29.3-0.3c10.3-0.5,20.7-1.1,31-1.7c19.3-1.2,42-1.6,57.9-16.4
							C322.4,97.3,320.4,88.6,316.7,81z"/>
					</g>
				</g>
			</g>
			<g>
				
					<ellipse transform="matrix(0.9024 -0.4308 0.4308 0.9024 3.5433 67.491)" fill="#FFCC99" cx="150.8" cy="25.9" rx="3.7" ry="2.1"/>
			</g>
			<g>
				
					<ellipse transform="matrix(0.4397 -0.8982 0.8982 0.4397 75.2754 164.9307)" fill="#FFCC99" cx="169.8" cy="22.1" rx="3.8" ry="2"/>
			</g>
			<g>
				
					<ellipse transform="matrix(0.4397 -0.8982 0.8982 0.4397 54.3936 183.2736)" fill="#FFCC99" cx="174.1" cy="48" rx="3.8" ry="2"/>
			</g>
			<g>
				
					<ellipse transform="matrix(0.4397 -0.8982 0.8982 0.4397 56.7498 135.0124)" fill="#FFCC99" cx="136.6" cy="22" rx="3.8" ry="2"/>
			</g>
			<g>
				
					<ellipse transform="matrix(0.4397 -0.8982 0.8982 0.4397 26.3415 131.0559)" fill="#FFCC99" cx="118.2" cy="44.4" rx="3.8" ry="2"/>
			</g>
			<g>
				
					<ellipse transform="matrix(0.7061 -0.7082 0.7082 0.7061 29.0282 141.5416)" fill="#FFCC99" cx="185" cy="35.8" rx="2" ry="3.8"/>
			</g>
			<g>
				
					<ellipse transform="matrix(0.9024 -0.4308 0.4308 0.9024 -3.582 61.4007)" fill="#FFCC99" cx="133.8" cy="38.6" rx="3.7" ry="2.1"/>
			</g>
			<g>
				
					<ellipse transform="matrix(0.9024 -0.4308 0.4308 0.9024 -0.4441 52.8722)" fill="#FFCC99" cx="116.5" cy="27.4" rx="3.7" ry="2.1"/>
			</g>
			<g>
				
					<ellipse transform="matrix(0.848 -0.5301 0.5301 0.848 3.4687 89.531)" fill="#FFCC99" cx="157.8" cy="38.7" rx="3.7" ry="2.1"/>
			</g>
			<g>
				
					<ellipse transform="matrix(8.843234e-02 -0.9961 0.9961 8.843234e-02 79.3899 189.216)" fill="#FFCC99" cx="143.1" cy="51.2" rx="4.4" ry="1.8"/>
			</g>
			<g>
				
					<ellipse transform="matrix(0.6414 -0.7672 0.7672 0.6414 49.2893 152.8342)" fill="#FFCC99" cx="188.1" cy="23.7" rx="2" ry="3.8"/>
			</g>
			<g>
				
					<ellipse transform="matrix(0.6414 -0.7672 0.7672 0.6414 48.3673 170.276)" fill="#FFCC99" cx="206.3" cy="33.4" rx="2" ry="3.8"/>
			</g>
			<g>
				<ellipse transform="matrix(0.6414 -0.7672 0.7672 0.6414 34.3443 173.55)" fill="#FFCC99" cx="202.8" cy="50" rx="2" ry="3.8"/>
			</g>
			<g>
				
					<ellipse transform="matrix(0.6414 -0.7672 0.7672 0.6414 46.9542 191.3289)" fill="#FFCC99" cx="228.1" cy="45.4" rx="2" ry="3.8"/>
			</g>
			<g>
				
					<ellipse transform="matrix(0.6414 -0.7672 0.7672 0.6414 55.9644 175.1896)" fill="#FFCC99" cx="215.4" cy="27.7" rx="2" ry="3.8"/>
			</g>
			<g>
				
					<ellipse transform="matrix(0.6414 -0.7672 0.7672 0.6414 60.8837 189.1959)" fill="#FFCC99" cx="232.8" cy="29.5" rx="2" ry="3.8"/>
			</g>
		</g>
		<g>
			<g>
				<path fill="#EFBB72" d="M47.1,81c0.6-0.6,1.2-1.2,1.7-1.8c12.7-13.4,26.7-24.9,38.7-38.8c0.9-1.1,1.9-2.3,1.8-3.9
					c-0.1-1.6-1.5-2.8-2.8-3c-1.4-0.2-2.7,0.4-4,1C67.8,41.4,55,51.3,43.7,64.2c-3.4,3.9-6.1,8.7-7,14.2c-0.3,2-0.2,4.4,1.2,5.6
					c0.8,0.7,1.8,0.8,2.8,0.6C43.1,84.4,45.2,82.8,47.1,81z"/>
			</g>
		</g>
	</g>
</g>
</svg>
