<?xml version="1.0" encoding="utf-8"?>
<!-- Generator: Adobe Illustrator 22.0.1, SVG Export Plug-In . SVG Version: 6.00 Build 0)  -->
<svg version="1.1" id="레이어_1" xmlns="http://www.w3.org/2000/svg" xmlns:xlink="http://www.w3.org/1999/xlink" x="0px"
	 y="0px" viewBox="0 0 350 300.4" enable-background="new 0 0 350 300.4" xml:space="preserve">
<g>
	<g>
		<g>
			<path fill="#9E2F21" d="M12.6,284.4c0,0-26-330.4,319.1-254.6C331.8,29.8,362.3,343.3,12.6,284.4z"/>
		</g>
		<g>
			<path fill="#672F28" d="M330.1,29.8c10.7,183.3-107,293.9-319.1,254.6c0,0,100.7,16.4,217.2-79.2
				C344.8,109.6,330.1,29.8,330.1,29.8z"/>
		</g>
		<g>
			<path fill="#FFFFFF" d="M328.9,86.8c0,0-11.2-35.3-46.1-63.9l-37.7-2.5c0,0,48.5,47.5,77.4,104.2
				C322.5,124.6,328,95.9,328.9,86.8z"/>
		</g>
		<g>
			<path fill="#FFFFFF" d="M15.7,231.3c0,0,13,30.8,47.9,59.3l31,1.2c0,0-43-44.2-72-100.9C22.7,190.9,16.7,222.2,15.7,231.3z"/>
		</g>
		<g>
			<path d="M94.6,297.3c-25.7,0-53.4-2.5-82.9-7.4c-2.5-0.4-4.4-2.5-4.6-5c-0.1-1.5-2.7-36.4,5.5-81.3C20.4,161.9,39.3,103.6,86,63
				C142.5,13.8,225.5,0.8,333,24.4c2.3,0.5,4.1,2.5,4.3,4.9c0.1,1.3,3.1,33.5-4.2,75.5c-6.7,38.9-23.9,93.7-67.7,134.5
				C223.9,277.9,166.7,297.3,94.6,297.3z M17.9,279.7c106.3,17.1,187,0.8,240-48.5c41.5-38.7,57.9-91.1,64.4-128.3
				c5.6-32.2,4.9-58.8,4.3-68.5C224.7,12.7,146.3,25.1,93.3,71.2c-44.3,38.5-62.3,94.1-69.7,134C17.2,239.9,17.5,269.1,17.9,279.7z"
				/>
		</g>
		<g>
			<path d="M33.2,287.7c-12.4,0-19.5-1.3-20-1.4c-1.9-0.4-3.1-2.2-2.7-4c0.4-1.9,2.2-3.1,4-2.7c0.3,0,23.7,4.2,60.9-3.1
				c34.4-6.8,87.8-25.2,147.3-74C336.5,109,329.1,32.4,329,31.6c-0.2-1.9,1.1-3.6,3-3.8c1.9-0.2,3.6,1.1,3.8,3
				c0.1,0.8,2.2,20.8-10.3,52.7c-11.4,29.1-37.7,74.3-98.5,124.2c-60.8,49.9-115.5,68.6-150.7,75.5
				C58.5,286.7,43.9,287.7,33.2,287.7z"/>
		</g>
		<g>
			<path d="M14,287.6c-1.7,0-3.2-1.3-3.4-3c-0.1-0.8-2.2-20.8,10.3-52.7c11.4-29.1,37.7-74.3,98.5-124.2
				c60.8-49.9,115.5-68.6,150.7-75.5c38.4-7.5,62.1-3.2,63.1-3.1c1.9,0.4,3.1,2.2,2.7,4c-0.4,1.9-2.1,3.1-4,2.7l0,0
				c-0.2,0-23.7-4.2-60.9,3.1c-34.4,6.8-87.8,25.2-147.3,74C91,139.9,47.7,182.7,27.5,233.8c-12,30.5-10.1,49.8-10.1,50
				c0.2,1.9-1.2,3.6-3,3.8C14.3,287.6,14.1,287.6,14,287.6z"/>
		</g>
		<g>
			<path fill="#FFFFFF" d="M189.4,49.9c-6.2-2.2-9.3,7.6-3.1,9.8c0.9,0.3,1.8,0.9,2.7,1.6c-3.5,1.3-8.7,3.4-15.2,6.5
				c-1.8-3.4-3.5-6.8-5.3-10.2c-3-5.9-12.1-1-9,4.9c1.7,3.3,3.4,6.6,5.1,9.9c-5,2.6-10.3,5.6-15.9,9c-1.7-2.5-3.3-4.9-5-7.4
				c-3.7-5.4-12.7-0.6-9,4.9c1.8,2.7,3.6,5.4,5.4,8c-4.1,2.8-8.4,5.8-12.6,9.1c-1.4-1.8-2.8-3.6-4.2-5.4c-4.1-5.2-11.5,1.8-7.5,7
				c1.3,1.6,2.5,3.2,3.8,4.8c-4.2,3.6-8.3,7.4-12.4,11.5c-1.4-1.6-2.8-3.3-4.2-4.9c-4.3-5-11.8,2-7.5,7c1.6,1.8,3.1,3.6,4.7,5.4
				c-3.3,3.7-6.5,7.6-9.5,11.7c-0.3-1.3-0.5-2.6-0.5-3.9c0-6.6-10.3-7-10.3-0.3c0.1,12.5,8,23.5,19.8,27.4c6.3,2.1,9.3-7.7,3.1-9.8
				c-1.7-0.6-3.4-1.4-4.8-2.4c3.2-4.6,6.7-9,10.3-13.1c3.6,4.1,7.1,8.3,10.7,12.4c4.3,5,11.8-2,7.5-7c-3.7-4.3-7.5-8.6-11.2-13
				c3.9-3.9,7.8-7.6,11.9-11.1c3.6,4.6,7.1,9.2,10.7,13.8c4.1,5.2,11.5-1.8,7.5-7c-3.4-4.4-6.8-8.8-10.2-13.2c4-3.1,8-6,11.9-8.6
				c2.6,3.8,5.2,7.7,7.7,11.5c3.7,5.4,12.7,0.6,9-4.9c-2.7-4-5.4-8.1-8.2-12.1c5.2-3.2,10.1-5.9,14.7-8.3c1.9,3.7,3.8,7.3,5.7,11
				c3,5.9,12.1,1,9-4.9c-1.8-3.6-3.7-7.1-5.5-10.7c7-3.3,12.4-5.4,15.3-6.5c0.3,1.8,0.3,3.5-0.1,4.9c-1.6,6.4,8.2,9.5,9.8,3.1
				C207.5,68.9,200.7,53.9,189.4,49.9z"/>
		</g>
		<g>
			<path d="M209.7,32.3c-0.1,0-0.2,0-0.3,0.1c-0.2,0-0.4,0-0.6,0.1c-9.2,1.9-17.7,5-27.2,5.9c-9.6,0.9-19.3,1.2-28.9,2.9
				c-16.7,3-31.7,11.9-43.9,23.5c-6,5.7-11.3,12.1-15.8,19c-6.2,9.4-10.5,17.9-19.9,24.6c-11.2,8-16.9,20.2-15.9,34.1
				c2.3,31.5,42.5,39.1,65,22.8c3.3-2.4,5.6-5.8,9-8.1c3.8-2.6,8.5-3.3,12.9-4.3c9.5-2.1,18.2-6.3,27.1-10
				c14.2-5.7,27.2-14.9,32.6-29.8c1.8-4.9,2.6-10.4,5.6-14.8c2.8-4.1,7-6.6,11-9.4c7.2-5.1,12.9-12.1,15.2-20.9
				C239.5,52.6,227.5,30.4,209.7,32.3z M221,79.8c-4.9,4.7-11.4,7.4-15.8,12.7c-4,4.9-5.4,11-7.3,16.9
				c-5.2,15.5-18.5,22.8-32.8,28.6c-7.6,3.1-14.8,6.5-22.9,8.3c-6.1,1.4-12,2.7-16.9,6.8c-2.9,2.4-5,5.4-8.3,7.5
				c-3.4,2.1-7.3,3.4-11.1,4.6c-6.7,2-13.2,2.3-20,0.7c-14.1-3.4-22.8-14-21.7-28.7c0.4-6.2,2.4-12.5,6.3-17.3
				c4.6-5.6,11.8-8.4,16.5-14c4.5-5.3,7.6-11.8,11.4-17.6c4.4-6.7,9.5-13,15.3-18.5c13.1-12.5,28.8-20.5,46.8-22.6
				c8.6-1,17.2-1.3,25.7-2.3c8.3-1,15.8-3.9,23.9-5.6c9.8-0.7,15.2,7.5,18.1,15.8C231.3,63.9,227.6,73.4,221,79.8z"/>
		</g>
	</g>
</g>
</svg>
