<?xml version="1.0" encoding="utf-8"?>
<!-- Generator: Adobe Illustrator 22.0.1, SVG Export Plug-In . SVG Version: 6.00 Build 0)  -->
<svg version="1.1" id="레이어_1" xmlns="http://www.w3.org/2000/svg" xmlns:xlink="http://www.w3.org/1999/xlink" x="0px"
	 y="0px" viewBox="0 0 295.7 350" enable-background="new 0 0 295.7 350" xml:space="preserve">
<g>
	<path fill="#02BA24" d="M292.6,139c0,75.1-64.6,205.1-144.3,205.1S3.9,214.1,3.9,139S68.5,3,148.2,3S292.6,63.9,292.6,139z"/>
	<path d="M161.8,289.8c-8.1,5.8-18.6,5.4-26.9,0c-1.3-0.8-2.6-0.4-3.4,0.5c-1,0.8-1.4,2.1-0.5,3.4c5.2,7.7,13.5,16.5,23.6,11.7
		c4.8-2.3,8.7-7,11-11.7C166.8,291.4,164.3,288,161.8,289.8z"/>
	<g>
		<path d="M53.6,176.7c15.8-8.4,41.2,0.6,56.7,20.3s29.1,65.3,13.2,73.8c-15.8,8.4-55.1-23.7-70.6-43.3S37.8,185.1,53.6,176.7z"/>
		<path d="M242.9,176.7c-15.8-8.4-41.2,0.6-56.7,20.3s-29.1,65.3-13.2,73.8c15.8,8.4,55.1-23.7,70.6-43.3S258.7,185.1,242.9,176.7z"
			/>
		<path fill="#FFFFFF" d="M56.4,185.4c9.4-5,24.4,0.4,33.6,12c9.2,11.6-0.7,16.3-10.1,21.3S65.2,227,56,215.4S47,190.3,56.4,185.4z"
			/>
		<path fill="#FFFFFF" d="M235.4,185.4c-9.4-5-24.4,0.4-33.6,12c-9.2,11.6,0.7,16.3,10.1,21.3c9.4,5,14.7,8.4,23.9-3.2
			C245,203.8,244.8,190.3,235.4,185.4z"/>
	</g>
</g>
</svg>
