<?xml version="1.0" encoding="utf-8"?>
<!-- Generator: Adobe Illustrator 22.0.1, SVG Export Plug-In . SVG Version: 6.00 Build 0)  -->
<svg version="1.1" id="레이어_1" xmlns="http://www.w3.org/2000/svg" xmlns:xlink="http://www.w3.org/1999/xlink" x="0px"
	 y="0px" viewBox="0 0 154 350" enable-background="new 0 0 154 350" xml:space="preserve">
<g>
	<polygon fill="#A8A8A8" points="16.7,232.3 19,233.5 30.5,233.5 32.6,232.2 	"/>
	<g>
		<polygon fill="#140F49" points="76.6,87.6 5.3,12 147.9,12 		"/>
		<polygon fill="#CD313E" points="108.7,52.9 70.3,12.1 103.7,12.1 125.5,35.2 		"/>
	</g>
	<polygon fill="#CD313E" points="81.8,81.7 16.2,12.1 49.6,12.1 98.5,63.9 	"/>
	<polygon fill="#140F49" points="143.2,290.1 78,347.3 12.9,290.1 59.5,69 94,69 	"/>
	<polygon fill="#CD313E" points="62.1,333.3 136.3,259.1 129.9,230.3 43.3,316.8 	"/>
	<polygon fill="#CD313E" points="118.9,180.8 13.8,285.8 12.9,290.1 29.9,305 125.3,209.6 	"/>
	<polygon fill="#CD313E" points="20.6,253.8 114.3,160.1 107.9,131.3 30,209.2 	"/>
	<polygon fill="#CD313E" points="36.7,177.2 103.3,110.6 96.9,81.8 46.1,132.5 	"/>
	<polygon opacity="0.4" fill="#424168" points="93.2,69.7 79.8,69.7 123.5,290.3 71.8,340.8 78,346.3 141.8,290.3 	"/>
	<polygon opacity="0.5" fill="#A8A8A8" points="96.1,233.5 24.8,233.5 24.8,232.2 98.6,232.2 	"/>
	<rect x="16.7" y="218.5" fill="#D3D3D3" width="81.9" height="13.8"/>
	<polygon opacity="0.68" fill="#C1C1C1" points="98.6,229.2 98.6,218.5 28.6,218.5 	"/>
	
		<rect x="21.6" y="218.5" transform="matrix(-1 -1.224647e-16 1.224647e-16 -1 49.2475 450.8348)" opacity="0.5" fill="#A8A8A8" width="6.1" height="13.8"/>
	<rect x="22.1" y="218.5" fill="#C6C6C6" width="4.9" height="13.8"/>
</g>
</svg>
