<?xml version="1.0" encoding="utf-8"?>
<!-- Generator: Adobe Illustrator 22.0.1, SVG Export Plug-In . SVG Version: 6.00 Build 0)  -->
<svg version="1.1" id="레이어_1" xmlns="http://www.w3.org/2000/svg" xmlns:xlink="http://www.w3.org/1999/xlink" x="0px"
	 y="0px" viewBox="0 0 350 292.1" enable-background="new 0 0 350 292.1" xml:space="preserve">
<g>
	<g>
		<path fill="#FFFFFF" d="M81.5,46.8c-4.1,3.5-8.6,6.5-13.7,8.3c-7,2.5-14.5,2.7-21.8,4c-12.7,2.3-26.2,8.2-33.7,19.2
			c-9.2,13.5-6.9,28.4,1.5,41.2c21,31.9-14,63.1-3.3,96.3c6.9,21.4,31.4,32.6,54.4,36.3c18.5,3,37.4,2.7,55.7,6.7
			c18.4,4,34.1,13.2,51.7,19.3c29.4,10.3,64.4,5.3,88.4-15.2c10.8-9.3,17.7-22.2,28.3-31.7c5.3-4.8,10-5.9,16.1-8.5
			c5.8-2.5,11.3-8,15.5-12.6c18-19.3,26.8-50.3,5.7-70.8c-8.8-8.6-18.3-14.7-23.5-26.2c-3.2-7-4.3-14.6-5.1-22.2
			c-1.2-12.5,0.2-24.4-5.3-36.1c-4.6-10-12.3-18.6-21.7-24.9c-12.7-8.6-29.1-10.1-44.7-10c-18,0.1-36.9,1.9-54.4-3.2
			c-14.9-4.4-30.5-12.6-46.4-8.4C106.4,13.3,96.3,34,81.5,46.8z"/>
		<ellipse fill="#FFB65A" cx="168" cy="137.4" rx="71.6" ry="63"/>
		<path fill="#FBD37B" d="M107.5,117.8c-0.4,2.1-0.5,4.3,0.1,6.3c0.9,3.1,3.6,5.7,7,6.9s7.3,0.8,10.4-0.8c6-3.3,7.4-10.5,12.2-15.1
			c3.1-2.9,7.4-4.5,10.9-6.9c3.6-2.4,6.6-6.3,5.4-10.1c-0.8-2.5-3.3-4.4-6.2-5.3s-5.9-0.9-8.9-0.7C122.5,93,110,104.1,107.5,117.8z"
			/>
		<path fill="#F0A444" d="M239.6,137.4c1,8.8-0.6,18-4.2,26.4c-3.6,8.4-9.3,16-16.2,22.1c-6.9,6.2-15.1,10.9-23.8,14
			c-4.4,1.6-8.9,2.7-13.5,3.6c-4.6,0.8-9.2,1.2-13.9,1.2c-4.6,0-9.3-0.4-13.9-1.2c-4.6-0.8-9.1-2-13.5-3.6
			c-8.7-3.2-16.9-7.9-23.8-14c-6.9-6.1-12.6-13.7-16.2-22.1c-3.6-8.4-5.2-17.6-4.2-26.4l0.4,3.3c0.2,1.1,0.4,2.2,0.6,3.2
			c0.3,1.1,0.5,2.1,0.8,3.2c0.3,1,0.6,2.1,0.9,3.1c1.4,4.1,3.1,8,5.3,11.7c4.3,7.3,10.1,13.7,16.8,18.7c6.7,5.1,14.2,8.9,22.1,11.5
			c4,1.3,8,2.3,12.2,2.9c4.1,0.7,8.3,1,12.5,1c4.2,0,8.3-0.3,12.5-1c4.1-0.6,8.2-1.6,12.2-2.9c7.9-2.5,15.5-6.4,22.1-11.5
			c6.7-5.1,12.4-11.4,16.8-18.7c2.2-3.7,3.9-7.6,5.3-11.7c0.3-1,0.6-2.1,0.9-3.1c0.3-1.1,0.5-2.1,0.8-3.2c0.2-1.1,0.4-2.1,0.6-3.2
			L239.6,137.4z"/>
		<path fill="#F2F0F1" d="M81.5,46.8c-3.9,3.4-8.3,6.3-13.1,8.1c-4.8,1.8-10,2.5-15.1,3.2c-2.6,0.3-5.1,0.7-7.7,1.1
			c-2.5,0.5-5,1.1-7.5,1.9c-2.5,0.7-4.9,1.7-7.2,2.7c-1.2,0.5-2.3,1.1-3.5,1.7c-1.1,0.6-2.3,1.3-3.3,2c-4.3,2.8-8.2,6.3-11.1,10.5
			c-0.4,0.5-0.7,1.1-1,1.6c-0.3,0.6-0.7,1.1-1,1.7c-0.6,1.1-1.2,2.3-1.6,3.5c-1,2.4-1.6,4.9-2,7.4c-0.8,5.1-0.2,10.2,1.4,15.1
			c0.8,2.4,1.8,4.8,2.9,7.1l0.9,1.7l0.5,0.8l0.5,0.8l1,1.6l1,1.7c1.4,2.2,2.5,4.6,3.5,7.1c0.2,0.6,0.4,1.2,0.6,1.9
			c0.2,0.6,0.4,1.2,0.6,1.9c0.3,1.3,0.7,2.5,0.8,3.9c0.5,2.6,0.6,5.2,0.6,7.9c-0.1,2.6-0.2,5.3-0.6,7.8c-0.7,5.2-2,10.2-3.4,15.2
			c-1.4,5-2.9,9.9-4.3,14.9c-1.3,5-2.4,10-2.8,15c-0.5,5-0.3,10.1,0.8,14.9c1.1,4.9,3.1,9.4,5.9,13.4c2.8,4,6.4,7.5,10.4,10.4
			c8,5.9,17.6,9.7,27.3,12.2c4.9,1.2,9.8,2.1,14.9,2.7c5.1,0.6,10.2,1,15.3,1.4c10.3,0.8,20.7,1.4,31.1,3.1
			c5.2,0.9,10.5,2.1,15.5,3.6c5.1,1.6,10,3.4,14.8,5.4c9.7,3.9,19,8.3,28.5,11.3l3.5,1.1c1.2,0.3,2.4,0.6,3.6,0.9
			c2.4,0.6,4.8,0.9,7.3,1.4c4.9,0.6,9.8,1.1,14.8,0.9c9.9-0.1,19.7-2,28.9-5.2c0.6-0.2,1.2-0.4,1.7-0.6l1.7-0.7l1.7-0.7
			c0.3-0.1,0.6-0.2,0.8-0.4l0.8-0.4l3.3-1.6l0.8-0.4l0.8-0.5l1.6-0.9l1.6-0.9l0.8-0.5l0.8-0.5l3-2.1l0.8-0.5l0.7-0.6l1.4-1.1
			l1.4-1.1c0.5-0.4,1-0.8,1.4-1.2c3.6-3.2,6.9-6.9,10-10.8c3.2-3.9,6.3-8.1,9.8-12.1c1.7-2,3.5-4,5.5-6c0.5-0.5,1-0.9,1.5-1.4
			l0.8-0.7l0.8-0.7c1.1-1,2.3-1.9,3.6-2.7c2.5-1.6,5.2-2.8,7.7-3.8l3.6-1.4l1.7-0.7c0.5-0.2,0.9-0.4,1.4-0.7c1.9-1,3.8-2.4,5.6-3.9
			c1.8-1.5,3.6-3.2,5.3-5c1.8-1.8,3.4-3.6,5-5.5c1.5-1.9,3-3.9,4.3-5.9c5.3-8.1,9-17.5,9.7-27c0.2-2.4,0.1-4.7-0.1-7.1
			c-0.3-2.3-0.7-4.6-1.4-6.9c-0.7-2.2-1.6-4.4-2.7-6.5c-0.5-1-1.2-2-1.8-3c-0.7-0.9-1.4-1.9-2.1-2.8c-0.7-0.9-1.6-1.8-2.4-2.7
			c-0.9-0.9-1.8-1.8-2.7-2.6c-1.8-1.7-3.7-3.4-5.7-5.2c-3.8-3.5-7.8-7.3-11-11.7c-1.6-2.2-3.1-4.6-4.2-7.2c-1.2-2.5-2.1-5.1-2.8-7.7
			c-1.4-5.3-2.1-10.6-2.5-15.8c-1-10.6,0-20.9-2.6-30.4c-0.3-1.2-0.7-2.3-1.1-3.5c-0.5-1.1-0.9-2.3-1.5-3.4
			c-1.1-2.2-2.3-4.4-3.7-6.5c-2.7-4.2-6-8-9.8-11.4c-1.9-1.7-3.8-3.3-5.9-4.7l-0.8-0.6l-0.8-0.5l-1.6-1c-1.1-0.6-2.1-1.3-3.3-1.8
			c-2.2-1.2-4.6-2-7-2.9c-2.4-0.8-4.8-1.4-7.3-2c-5-1.1-10.1-1.6-15.2-1.9c-5.1-0.3-10.3-0.3-15.4-0.2c-10.3,0.1-20.7,0.4-31.1-0.6
			c-5.2-0.5-10.3-1.4-15.3-2.8c-5-1.4-9.8-3.2-14.7-4.9c-4.9-1.7-9.8-3.3-14.8-4.3c-5-1-10.3-1.3-15.3-0.4l-1.9,0.4
			c-0.3,0.1-0.6,0.1-0.9,0.2l-0.9,0.3c-1.2,0.4-2.5,0.7-3.6,1.3l-1.8,0.8c-0.6,0.3-1.1,0.6-1.7,0.9l-1.7,0.9l-1.6,1.1
			c-4.3,2.9-8,6.5-11.6,10.2C95.5,31.6,89.3,40,81.5,46.8z M81.5,46.8c7.8-6.8,14-15.2,21-22.8c3.5-3.8,7.2-7.4,11.5-10.3l1.6-1.1
			l1.7-1c0.6-0.3,1.1-0.7,1.7-0.9l1.8-0.8c1.2-0.6,2.4-0.9,3.6-1.3l0.9-0.3c0.3-0.1,0.6-0.1,0.9-0.2l1.9-0.4
			c2.6-0.4,5.2-0.7,7.7-0.6c2.6,0,5.2,0.4,7.7,0.8c5.1,0.9,10.1,2.4,15,4.1c4.9,1.6,9.8,3.4,14.7,4.7c5,1.3,10.1,2.1,15.2,2.5
			c10.3,0.9,20.6,0.3,30.9-0.1c5.2-0.2,10.4-0.3,15.6-0.1c5.2,0.2,10.4,0.6,15.6,1.6c2.6,0.5,5.1,1.1,7.7,1.8c2.5,0.8,5,1.7,7.4,2.8
			c1.2,0.5,2.4,1.2,3.6,1.8l1.7,1l0.9,0.5l0.8,0.6c2.2,1.5,4.3,3.1,6.3,4.8c4,3.5,7.6,7.4,10.7,11.8c1.5,2.2,2.9,4.5,4.1,6.9
			c0.6,1.2,1.2,2.4,1.7,3.7l0.7,1.9c0.2,0.6,0.4,1.3,0.6,1.9c1.6,5.2,2.2,10.6,2.5,15.8c0.3,5.2,0.5,10.3,1.1,15.3
			c0.6,5.1,1.4,10,2.8,14.7c0.7,2.3,1.6,4.6,2.7,6.7c1.1,2.1,2.3,4.2,3.8,6.1c2.9,3.8,6.6,7.2,10.4,10.5c1.9,1.7,3.9,3.4,5.9,5.1
			c1,0.9,2,1.8,2.9,2.7c1,1,2,2,2.9,3c0.9,1,1.8,2.2,2.6,3.3c0.8,1.2,1.6,2.3,2.3,3.6c1.4,2.4,2.6,5,3.5,7.7
			c0.9,2.7,1.5,5.4,1.9,8.2c0.3,2.8,0.4,5.6,0.3,8.4c-0.1,2.8-0.5,5.5-1.1,8.3c-0.6,2.7-1.3,5.4-2.2,8c-1.8,5.2-4.3,10.1-7.2,14.7
			c-1.5,2.3-3.1,4.5-4.7,6.7c-1.7,2.1-3.6,4.2-5.4,6.1c-1.8,1.9-3.8,3.9-5.9,5.7c-2.1,1.8-4.4,3.5-7.1,5c-0.7,0.4-1.4,0.7-2.1,1
			l-1.9,0.8l-3.6,1.4c-2.3,0.9-4.4,1.9-6.2,3.1c-0.9,0.6-1.8,1.3-2.6,2l-0.6,0.6l-0.7,0.6c-0.4,0.4-0.9,0.8-1.3,1.3
			c-1.7,1.7-3.4,3.6-5,5.4c-3.2,3.8-6.3,7.9-9.6,12c-3.3,4.1-6.9,8.2-11.1,11.9c-0.5,0.5-1,0.9-1.6,1.3l-1.6,1.3l-1.6,1.3l-0.8,0.6
			l-0.8,0.6l-3.4,2.3l-0.8,0.6l-0.9,0.5l-1.8,1l-1.8,1l-0.9,0.5l-0.9,0.5l-3.7,1.8l-0.9,0.4l-0.9,0.4l-1.9,0.8l-1.9,0.8
			c-0.6,0.3-1.3,0.5-1.9,0.7c-10.2,3.6-21,5.5-31.8,5.5c-5.4,0.1-10.8-0.4-16.1-1.2c-2.6-0.5-5.3-0.9-7.9-1.6
			c-1.3-0.3-2.6-0.6-3.9-1l-3.9-1.2c-10.1-3.4-19.5-8-28.9-12c-4.7-2-9.4-3.9-14.2-5.5c-4.8-1.6-9.6-2.8-14.5-3.8
			c-9.9-1.9-20.1-2.8-30.4-3.8c-5.2-0.5-10.3-1.1-15.5-1.9c-5.2-0.8-10.4-1.8-15.5-3.2c-10.2-2.9-20.1-7.2-28.6-13.8
			c-4.2-3.3-8-7.2-11-11.7c-3-4.5-5.1-9.6-6.1-14.9c-1-5.3-1.1-10.7-0.5-15.9c0.6-5.3,1.9-10.4,3.3-15.4c1.5-5,3.1-9.9,4.6-14.8
			c1.5-4.9,2.9-9.9,3.7-14.9c0.5-2.5,0.7-5,0.8-7.6c0-2.5,0-5.1-0.4-7.6c-0.1-1.3-0.5-2.5-0.7-3.7c-0.1-0.6-0.3-1.2-0.5-1.8
			c-0.2-0.6-0.3-1.2-0.6-1.8c-0.9-2.4-1.9-4.7-3.2-6.9l-1-1.6l-1-1.7l-0.5-0.8l-0.5-0.9l-0.9-1.7c-1.1-2.4-2.2-4.8-2.9-7.3
			c-1.5-5-2-10.3-1.2-15.5c0.1-0.3,0.1-0.6,0.2-1l0.2-1c0.2-0.6,0.3-1.3,0.5-1.9l0.6-1.9c0.2-0.6,0.5-1.2,0.7-1.8
			c0.5-1.2,1.1-2.3,1.7-3.5c0.3-0.6,0.7-1.1,1-1.7c0.4-0.5,0.7-1.1,1.1-1.6c1.5-2.1,3.3-4,5.2-5.8c1.9-1.8,4-3.3,6.2-4.7
			c1.1-0.7,2.2-1.3,3.4-2c1.2-0.6,2.3-1.2,3.5-1.7c2.4-1,4.8-1.9,7.3-2.7c2.5-0.7,5-1.4,7.5-1.8c2.5-0.5,5.1-0.8,7.7-1.1
			c5.1-0.6,10.3-1.3,15.1-3.1C73.2,53,77.6,50.1,81.5,46.8z"/>
	</g>
</g>
</svg>
