<?xml version="1.0" encoding="utf-8"?>
<!-- Generator: Adobe Illustrator 22.0.1, SVG Export Plug-In . SVG Version: 6.00 Build 0)  -->
<svg version="1.1" id="레이어_1" xmlns="http://www.w3.org/2000/svg" xmlns:xlink="http://www.w3.org/1999/xlink" x="0px"
	 y="0px" viewBox="0 0 350 229.6" enable-background="new 0 0 350 229.6" xml:space="preserve">
<g>
	<g>
		<circle fill="#EFB000" cx="17.7" cy="81" r="11.3"/>
		<circle fill="#EFB000" cx="98.2" cy="71.7" r="11.3"/>
		<path fill="#EFB000" d="M173.3,5c-12.1,0-21.9,9.8-21.9,21.9s9.8,21.9,21.9,21.9c0.1,0,0.1,0,0.2,0V5C173.4,5,173.4,5,173.3,5z"/>
		<path fill="#EFB000" d="M124.4,119.2C105.8,107.9,99,84.5,99,84.5c0.2,22.1-6.8,36.1-10.8,42.5C102.2,129.6,114.3,126,124.4,119.2
			z"/>
		<path fill="#EFB000" d="M126.3,122.8c-11.2,7.5-24.5,11.4-40,8.6c-16.7-3.1-36-14.1-58-37.2c0,0,38.9,55.2,33.3,116.3
			c20.4-7.2,61.3-11.3,111.3-11.2c0.2,0,0.4,0,0.5,0V51.1C173.5,51.1,158.6,101.3,126.3,122.8z"/>
		<circle fill="#FFC200" cx="329.1" cy="81" r="11.3"/>
		<circle fill="#FFC200" cx="248.6" cy="71.7" r="11.3"/>
		<g>
			<path fill="#FFC200" d="M173.5,5c12.1,0,21.9,9.8,21.9,21.9s-9.8,21.9-21.9,21.9c-0.1,0-0.1,0-0.2,0V5C173.4,5,173.5,5,173.5,5z"
				/>
			<path fill="#FFC200" d="M222.4,119.2c18.6-11.3,25.4-34.7,25.4-34.7c-0.2,22.1,6.8,36.1,10.8,42.5
				C244.6,129.6,232.5,126,222.4,119.2z"/>
			<path fill="#FFC200" d="M220.5,122.8c11.2,7.5,24.5,11.4,40,8.6c16.7-3.1,36-14.1,58-37.2c0,0-38.9,55.2-33.3,116.3
				c-17.6-6.6-60.8-11.2-111.3-11.2c-0.2,0-0.4,0-0.5,0V51.1C173.3,51.1,188.3,101.3,220.5,122.8z"/>
		</g>
		<path fill="none" stroke="#FFC200" stroke-miterlimit="10" d="M86.3,167.8"/>
		<g>
			<path fill="#FFC200" d="M174,204.4c-0.2,0-0.4,0-0.5,0v9.5c0.2,0,0.4,0,0.5,0c50.5,0,93.7,4.6,111.3,11.2v-9.5
				C267.7,209,224.5,204.4,174,204.4z"/>
			<path fill="#EFB000" d="M173,204.4c-50-0.1-91,4-111.3,11.2v9.5c20.4-7.2,61.3-11.3,111.3-11.2c0.2,0,0.4,0,0.5,0v-9.5
				C173.3,204.4,173.2,204.4,173,204.4z"/>
		</g>
	</g>
</g>
</svg>
