<?xml version="1.0" encoding="utf-8"?>
<!-- Generator: Adobe Illustrator 22.0.1, SVG Export Plug-In . SVG Version: 6.00 Build 0)  -->
<svg version="1.1" id="레이어_1" xmlns="http://www.w3.org/2000/svg" xmlns:xlink="http://www.w3.org/1999/xlink" x="0px"
	 y="0px" viewBox="0 0 57 350" enable-background="new 0 0 57 350" xml:space="preserve">
<g>
	<path fill="#FFFFFF" d="M53.6,102.1c-0.7-18.5-1.7-37-2.7-55.4c-0.5-8.6-1.2-18.4-2-27.1c-0.2-1.8-2.4-2.3-3.4-1
		c-0.8,1-1.1,3.7-1.2,4.9c-0.5,5-0.2,11.3-0.3,16.3c0,1.8-0.1,3.6-0.1,5.5c-0.2,14-0.4,28-0.6,42c0,2.1,0.3,8.2-2.9,7.8
		c-3.2-0.4-2.3-9.3-2.3-11.6c-0.1-4.3-0.2-8.6-0.3-12.9c-0.2-9.5-0.4-18.9-0.6-28.4C37,35,36.7,27.8,36.4,20.7
		c-0.1-1.4-0.3-2.6-2-2.7c-1.7-0.1-2.5,0.8-2.7,2.4c-0.2,1.7-0.3,3.3-0.3,5c-0.1,12.6-0.2,25.2-0.3,37.8c-0.1,6.3-0.1,12.6-0.2,18.9
		c0,1.5,0.9,11.1-1.8,12.5c-0.5,0.3-1.1,0.3-1.8-0.1c-1.1-0.5-1.5-3.9-1.5-4.9c-0.1-15.8-0.3-31.6-0.7-47.4
		c-0.2-6.9-0.6-13.8-1-20.7c-0.1-1.5-0.3-3.1-2.3-2.9c-1.8,0.1-2.6,1.4-2.5,3.2c0,0.4,0,0.8,0,1.3c0,0.1,0,0.3,0,0.4
		c-0.1,14-0.2,28.1-0.3,42.1c0,5.1-0.1,10.2-0.1,15.4c0,3.6,0.5,7.2-0.1,10.7c-0.3,1.5-0.5,2.9-2.3,2.8c-1.3-0.1-2.6-1.3-2.6-2.6
		c-0.5-13.5-0.7-27.1-1.1-40.6c-0.2-9.7-0.5-19.3-0.8-29c-0.1-1.9-0.4-4.5-2.9-4.2c-2.2,0.2-2.2,2.7-2.3,4.5C6.3,31,6,39.8,5.6,48.5
		c-0.7,17.9-1.4,35.8-2.2,53.7c-0.4,7.2,1.3,13.4,6.3,18.7c5.1,5.5,8.7,12,9.5,19.4c0.8,6.8,0.8,13.7,0.5,20.6
		c-0.9,20.8-2.2,41.6-3.1,62.5c-1.3,29.8-2.4,59.6-3.5,89.5c-0.2,4.7,1,10.2,4.2,13.9c3.9,4.4,11.3,4.7,16.3,2.1
		c1.1-0.6,2.2-1.3,3-2.2c3.3-3.7,3.5-9.9,3.3-14.7c-1.1-32.5-2.2-65-3.4-97.6c-0.7-20.3-1.6-40.7-2.2-61
		c-0.4-13.1,4.3-24.1,13.8-33.2c1.9-1.8,3.5-4.4,4.2-7C53.4,109.7,53.8,105.8,53.6,102.1z"/>
	<path fill="#EFEFEF" d="M42.3,105.5c1.9-0.3,3.1-1.3,2.5-4.3c-3.9-0.2-8,0.3-11.9,0.4c-5.8,0.2-11.6,0.3-17.4,0.5
		c-0.8,0-1.8,0.3-1.8,1.1c1.9,1.1,4.1,1.2,6.3,1.3c5.5,0.3,11.1,0.5,16.6,0.8C38.3,105.4,40.6,105.8,42.3,105.5z"/>
	<path fill="#EFEFEF" d="M24.6,126.8c4.2-2.1,4.3-9.9,1.4-12.8c-3.9-4-10.2-3.8-15.3-3.8c-0.9,0-2,0.1-2.5,0.8
		c-0.9,1.2,0.3,2.7,1.4,3.7c2.5,2.3,5,4.5,7,7.3c1,1.4,1.9,2.9,3.2,4C21.2,127,23.1,127.5,24.6,126.8z"/>
	<path fill="#E2E2E2" d="M53.5,102.1l-1.7-35.2c-0.6-11.7-1-23.5-2-35.2c-0.2-2.9-0.5-5.9-0.7-8.8L49,20.7c-0.1-0.7,0-1.5-0.5-2
		c-0.4-0.5-1.2-0.8-1.9-0.6c-0.3,0.1-0.6,0.3-0.9,0.5c-0.2,0.2-0.4,0.6-0.5,0.9c-0.5,1.4-0.6,2.8-0.7,4.3c-0.1,1.5-0.2,2.9-0.2,4.4
		c-0.1,2.9,0,5.9,0,8.8l-0.4,35.3l-0.2,17.6c0,0.7-0.1,1.5-0.2,2.2c-0.1,0.7-0.3,1.5-0.7,2.2c-0.2,0.3-0.5,0.6-0.9,0.8
		c-0.4,0.2-0.8,0.3-1.2,0.2c-0.4,0-0.8-0.2-1.2-0.5c-0.3-0.3-0.6-0.6-0.7-1c-0.3-0.7-0.5-1.4-0.7-2.2c-0.1-0.7-0.2-1.5-0.2-2.2
		c-0.1-1.5,0-3,0-4.4c0-0.7,0-1.4,0-2.2l-0.1-2.2l-0.1-4.4l-0.2-8.8L37,49.8C37,46.9,36.9,44,36.8,41l-0.3-8.8l-0.3-8.8L36,21.2
		c0-0.7,0-1.5-0.3-2c-0.2-0.5-0.8-0.8-1.4-0.8c-0.7,0-1.3,0.1-1.6,0.6c-0.2,0.2-0.3,0.5-0.4,0.8c-0.1,0.3-0.1,0.7-0.1,1
		c-0.1,0.7-0.1,1.5-0.2,2.2c-0.1,1.5-0.1,2.9-0.1,4.4l0,8.8l-0.1,17.6l-0.1,17.6l-0.1,8.8c0,0.7,0,1.5,0,2.2l0.1,2.2
		c0,1.5,0.1,3,0,4.5c-0.1,1.5-0.3,3-0.9,4.5c-0.2,0.4-0.4,0.7-0.8,1.1c-0.3,0.3-0.8,0.6-1.3,0.6c-0.5,0-0.9-0.1-1.3-0.3
		c-0.1,0-0.2-0.1-0.3-0.2c-0.1-0.1-0.2-0.2-0.3-0.3c-0.2-0.2-0.3-0.4-0.4-0.6c-0.4-0.8-0.6-1.5-0.7-2.3c-0.1-0.8-0.2-1.5-0.2-2.3
		l-0.1-4.4L25,67.5l-0.3-17.6L24.5,41c-0.1-2.9-0.2-5.9-0.4-8.8l-0.5-8.8l-0.1-2.2c0-0.7-0.2-1.4-0.5-1.7c-0.1-0.2-0.3-0.3-0.6-0.3
		c-0.3,0-0.6,0-0.9,0c-0.6,0.1-1.1,0.4-1.3,0.9C20.1,20.4,20,20.7,20,21c0,0.2,0,0.3,0,0.5l0,0.5c0,0.8,0,1.5,0,2.2l0,4.4l-0.1,8.8
		l-0.3,35.3l-0.1,8.8c0,2.9,0.4,5.9,0.1,8.9c0,0.4-0.1,0.8-0.2,1.1c-0.1,0.4-0.1,0.7-0.2,1.1c-0.1,0.4-0.2,0.8-0.4,1.2
		c-0.2,0.4-0.7,0.9-1.2,1c-0.5,0.2-1,0.2-1.4,0.1c-0.5-0.1-0.9-0.2-1.3-0.4c-0.8-0.5-1.4-1.2-1.7-2.1C13.1,92.2,13,92,13,91.8
		c0-0.2,0-0.4,0-0.6l0-1.1l-0.1-2.2l-0.1-4.4l-1-35.3l-0.5-17.6l-0.3-8.8c0-0.7-0.1-1.4-0.3-2c-0.2-0.6-0.5-1-0.9-1.1
		c-0.2-0.1-0.5-0.1-0.7-0.1c-0.3,0-0.5,0.1-0.7,0.2c-0.3,0.2-0.6,0.7-0.7,1.3c-0.1,0.6-0.2,1.3-0.2,2l-0.1,2.2l-0.2,4.4l-0.3,8.8
		L6.2,55.2L4.8,90.4l-0.4,8.8c-0.1,1.5-0.1,3-0.2,4.4c0,1.4,0.1,2.9,0.3,4.3c0.4,2.8,1.2,5.5,2.6,8c0.7,1.2,1.5,2.4,2.4,3.5l1.5,1.6
		c0.5,0.6,1,1.1,1.5,1.7c1.9,2.3,3.6,4.9,4.8,7.6c0.6,1.4,1.2,2.8,1.7,4.2c0.4,1.4,0.8,2.9,1,4.4c0.8,5.9,0.9,11.8,0.8,17.8
		c-0.1,3-0.2,5.9-0.3,8.8l-0.4,8.8L19.3,192c-0.6,11.7-1.2,23.5-1.7,35.2l-2.8,70.5l-0.4,8.8l-0.2,4.4l-0.1,2.2c0,0.7,0,1.4,0,2.1
		c0.1,2.8,0.8,5.6,2,8.1c0.6,1.2,1.4,2.4,2.4,3.3c1,0.9,2.1,1.6,3.4,2.1c2.5,1,5.5,1.1,8.1,0.5c2.7-0.6,5.3-1.9,6.7-4.2
		c1.5-2.3,2.1-5.1,2.3-8c0.2-2.9,0-5.8-0.1-8.7l-2.1-70.5l-2.2-70.5l-0.3-8.8c-0.1-2.9-0.3-5.9-0.1-8.8c0.3-5.9,1.7-11.8,4.4-17
		c1.3-2.6,3-5.1,4.8-7.4l1.4-1.7l1.5-1.6l1.6-1.6c0.5-0.5,1-1,1.5-1.6c0.9-1.1,1.7-2.4,2.3-3.7c0.6-1.3,0.9-2.8,1.2-4.2
		C53.4,108,53.6,105,53.5,102.1z M53.7,102.1c0.1,2.9-0.1,5.9-0.6,8.8c-0.3,1.4-0.6,2.9-1.2,4.3c-0.6,1.4-1.4,2.6-2.3,3.8
		c-0.5,0.6-1,1.1-1.5,1.6l-1.6,1.6l-1.5,1.6l-1.4,1.7c-1.8,2.3-3.4,4.8-4.7,7.4c-2.6,5.2-4.1,11-4.3,16.9c-0.1,2.9,0.1,5.9,0.2,8.8
		l0.3,8.8l2.8,70.5l2.7,70.5c0.1,2.9,0.3,5.9,0.1,8.9c-0.1,1.5-0.3,3-0.7,4.5c-0.4,1.5-1,3-1.8,4.3c-0.1,0.2-0.2,0.3-0.3,0.5
		l-0.4,0.5c-0.2,0.3-0.5,0.6-0.8,0.9c-0.6,0.6-1.2,1-1.9,1.4c-1.4,0.8-2.8,1.4-4.3,1.7c-3,0.7-6.2,0.6-9.2-0.5
		c-1.5-0.6-2.9-1.4-4-2.5c-1.2-1.1-2-2.4-2.8-3.8c-1.4-2.8-2.1-5.8-2.3-8.9c-0.1-0.8-0.1-1.5,0-2.3l0.1-2.2l0.2-4.4l0.3-8.8
		l2.7-70.5c0.9-23.5,2.6-47,3.4-70.4c0.1-2.9,0.1-5.8-0.1-8.8c-0.1-1.5-0.1-2.9-0.3-4.4c-0.1-1.4-0.2-2.9-0.4-4.3
		c-0.8-5.6-3.5-10.9-7.1-15.4c-0.5-0.6-0.9-1.1-1.4-1.6l-1.5-1.7c-1-1.2-1.9-2.4-2.6-3.8c-1.5-2.7-2.4-5.6-2.8-8.7
		c-0.2-1.5-0.3-3-0.3-4.5c0-1.5,0.1-3,0.2-4.4L3,90.4l1.5-35.2l0.7-17.6l0.4-8.8l0.2-4.4l0.1-2.2c0-0.7,0.1-1.5,0.2-2.3
		c0.1-0.4,0.2-0.8,0.4-1.2c0.2-0.4,0.6-0.8,1-1.1C8.1,17.1,8.6,17,9,17c0.5,0,0.9,0,1.4,0.2c0.5,0.2,0.9,0.5,1.2,0.9
		c0.3,0.4,0.5,0.8,0.6,1.2c0.3,0.8,0.3,1.6,0.4,2.4l0.2,8.8l0.5,17.6l0.9,35.2l0.1,4.4l0.1,2.2l0,1.1c0,0.2,0,0.4,0,0.5
		c0,0.1,0,0.3,0.1,0.4c0.2,0.5,0.5,1,1,1.3c0.2,0.1,0.5,0.2,0.8,0.3c0.3,0,0.6,0,0.8-0.1c0.2-0.1,0.3-0.2,0.4-0.4
		c0.1-0.2,0.2-0.5,0.3-0.8c0.1-0.3,0.1-0.7,0.2-1c0.1-0.3,0.1-0.7,0.2-1c0.3-2.8,0-5.7,0-8.7l0.1-8.8l0.3-35.3l0.1-8.8l0-4.4l0-2.2
		c0-0.7,0-1.7,0.5-2.5c0.2-0.4,0.6-0.8,0.9-1c0.4-0.3,0.8-0.4,1.3-0.5c0.4-0.1,0.9-0.1,1.3,0c0.5,0.1,1,0.3,1.3,0.7
		c0.3,0.4,0.5,0.8,0.6,1.2c0.1,0.4,0.1,0.8,0.2,1.2l0.1,2.2l0.5,8.8c0.2,2.9,0.3,5.9,0.4,8.8l0.1,8.8l0.2,17.6l0.2,17.6l0.1,4.4
		c0,0.7,0.1,1.4,0.2,2.1c0.1,0.7,0.3,1.4,0.6,1.9c0.1,0.1,0.2,0.3,0.2,0.3c0,0,0.1,0.1,0.1,0.1c0,0,0.1,0,0.1,0.1
		c0.3,0.1,0.6,0.2,0.8,0.2c0.5,0,0.9-0.4,1.2-1c0.6-1.2,0.7-2.7,0.8-4.1c0.1-1.4,0.1-2.9,0.1-4.4l-0.1-2.2c0-0.8,0-1.5,0-2.2
		l0.1-8.8l0.2-17.6l0.2-17.6l0.1-8.8c0-1.5,0-2.9,0.1-4.4c0-0.7,0.1-1.5,0.2-2.2c0.1-0.7,0.1-1.6,0.7-2.3c0.3-0.4,0.7-0.6,1.1-0.8
		c0.4-0.1,0.8-0.2,1.2-0.2c0.4,0,0.8,0.1,1.2,0.3c0.4,0.2,0.8,0.6,0.9,1c0.4,0.8,0.3,1.6,0.4,2.3l0.1,2.2l0.3,8.8l0.3,8.8
		c0.1,2.9,0.1,5.9,0.2,8.8l0.4,17.6l0.2,8.8l0.1,4.4l0,2.2c0,0.7,0,1.5,0,2.2c-0.1,1.5-0.1,2.9,0,4.4c0,0.7,0.1,1.5,0.2,2.2
		c0.1,0.7,0.3,1.4,0.6,2c0.3,0.6,0.8,1.1,1.4,1.1c0.7,0.1,1.3-0.3,1.6-0.8c0.4-0.6,0.6-1.3,0.7-2c0.1-0.7,0.2-1.4,0.2-2.2l0.3-17.6
		l0.5-35.3c0-2.9,0-5.9,0-8.8c0-1.5,0.1-2.9,0.2-4.4c0.1-1.5,0.3-2.9,0.8-4.4c0.1-0.3,0.3-0.7,0.6-1c0.3-0.3,0.6-0.5,1-0.6
		c0.8-0.2,1.6,0.1,2.1,0.7c0.2,0.3,0.4,0.7,0.4,1.1l0.1,1.1l0.2,2.2l0.7,8.8c0.9,11.7,1.4,23.5,2,35.2L53.7,102.1z"/>
</g>
</svg>
