<?xml version="1.0" encoding="utf-8"?>
<!-- Generator: Adobe Illustrator 22.0.1, SVG Export Plug-In . SVG Version: 6.00 Build 0)  -->
<svg version="1.1" id="레이어_1" xmlns="http://www.w3.org/2000/svg" xmlns:xlink="http://www.w3.org/1999/xlink" x="0px"
	 y="0px" viewBox="0 0 62.8 350" enable-background="new 0 0 62.8 350" xml:space="preserve">
<path fill="#DC614C" d="M57.8,316.3h-47H4.9c-0.1,0-0.2,0-0.3,0v9.1c0,5.8,4.7,10.5,10.5,10.5h6.2l26.4-0.1
	c5.7,0.1,10.5-4.7,10.5-10.4v-9.1C58.1,316.3,57.9,316.3,57.8,316.3z"/>
<path fill="#F7B661" d="M40.3,68.4v224.9h17.6c0.1,0,0.2,0,0.3,0V68.4l-9.5,8.4L40.3,68.4z"/>
<polygon fill="#ED993E" points="22.5,68.4 22.5,293.3 40.3,293.3 40.3,68.4 30.9,76.8 "/>
<polygon fill="#DB8631" points="22.5,68.4 13.1,76.8 10.8,74.5 10.8,293.3 22.5,293.3 "/>
<path fill="#F0E7D9" d="M36.8,24.3c0,0-1.2,1.3-3.3,1.9l6.8,42.2l8.4,8.4l9.5-8.4l-3.9-8.1L36.8,24.3z"/>
<polygon fill="#C49A6C" points="22.5,68.4 29.4,26.3 10.9,68.4 10.9,74.6 13.1,76.8 "/>
<path fill="#D9BD9E" d="M30.9,76.8l9.4-8.4l-6.8-42.3c-1.2,0.4-2.4,0.8-4.1,0.2l-6.9,42.1L30.9,76.8z"/>
<path fill="#DB8631" d="M10.9,293.3V74.6l-6.3-6.2v224.9c0.1,0,0.2,0,0.3,0H10.9z"/>
<path fill="#B3AEAC" d="M59.7,304.8c-0.4,0.5-1.1,0.8-1.8,0.8H9H4.8c-0.7,0-1.3-0.2-1.7-0.7c-0.4,0.4-0.6,0.9-0.6,1.5v7.7
	c0,1.2,0.9,2.2,2.1,2.3c0.1,0,0.2,0,0.3,0h5h0.8h0.1h47c0.1,0,0.3,0,0.4,0c1.2-0.2,2.1-1.3,2.1-2.5v-7.6
	C60.3,305.7,60.1,305.2,59.7,304.8z"/>
<path fill="#A8A3A1" d="M58.2,293.3c-0.1,0-0.5,0-0.6,0H40.3H22.5H10.9h-0.1H4.9c-0.1,0-0.2,0-0.3,0c-1.2,0.2-2.1,1.1-2.1,2.3v7.7
	c0,0.6,0.2,1.2,0.6,1.6c0.4,0.5,1,0.7,1.7,0.7h4.1l0,0h49c0.7,0,1.4-0.3,1.8-0.8c0.4-0.4,0.6-1,0.6-1.6v-7.7
	C60.3,294.4,59.4,293.4,58.2,293.3z"/>
<path fill="#C49A6C" d="M26.1,24.3L4.6,68.4l6.3,6.2v-6.2l18.5-42.1"/>
<path opacity="0.3" fill="#535456" enable-background="new    " d="M10.8,316.3c-1.2-0.2-2.1-1-2.1-2.2v-7.6c0-0.3,0.1-0.6,0.2-0.8
	c0.1-0.3,0.3-0.5,0.5-0.8c-0.4-0.4-0.6-1-0.6-1.6v-7.6c0-1.2,0.8-2.3,2-2.4l0.1-0.4V74.5v-6.1l18.5-42.1c-1-0.4-2.1-1-3.3-2
	L4.6,68.4v224.9c-1.2,0.2-2.1,1.1-2.1,2.3v7.6c0,0.6,0.2,1.2,0.6,1.6l0,0c-0.4,0.4-0.6,1-0.6,1.6v7.6c0,1.2,0.9,2.2,2.1,2.3v9.1
	c0,5.8,4.7,10.5,10.5,10.5h6.2c-5.8,0-10.5-4.8-10.5-10.5C10.8,325.4,10.8,316.3,10.8,316.3z"/>
<path opacity="0.3" fill="#F0E7D9" enable-background="new    " d="M58.2,325.4v-9.1c1.2-0.2,2.1-1.1,2.1-2.3v-7.6
	c0-0.6-0.2-1.2-0.6-1.6c0.4-0.4,0.6-1,0.6-1.6v-7.6c0-1.2-0.9-2.2-2.1-2.3V68.4l-3.9-8.1L36.2,23.1l-3.5,1.5l17.2,35.6l3.9,8.1v225
	c1.2,0.2,2.1,1,2.1,2.2v7.6c0,0.6-0.2,1.2-0.6,1.6c0.4,0.4,0.6,1,0.6,1.6v7.6c0,1.2-0.9,2.3-2.1,2.4v9c0,5.8-4.7,10.5-10.5,10.5h4.3
	C53.4,335.9,58.2,331.1,58.2,325.4z"/>
<path fill="#535456" d="M33.5,26.4c2.1-0.7,3.3-2.1,3.3-2.1L31.4,13l-5.3,11.3c1.2,1,2.2,1.7,3.2,2C30.9,26.9,32.4,26.8,33.5,26.4z"
	/>
</svg>
