<?xml version="1.0" encoding="utf-8"?>
<!-- Generator: Adobe Illustrator 22.0.1, SVG Export Plug-In . SVG Version: 6.00 Build 0)  -->
<svg version="1.1" id="레이어_1" xmlns="http://www.w3.org/2000/svg" xmlns:xlink="http://www.w3.org/1999/xlink" x="0px"
	 y="0px" viewBox="0 0 350 238.2" enable-background="new 0 0 350 238.2" xml:space="preserve">
<g>
	<g>
		<path fill="#683F09" d="M281.7,143.6v-46c0-27-13.4-56.1-33.3-74.3C230.5,6.9,204.3,4.7,181.2,5c-11.9,0.2-23.8-0.2-35.5,0.6
			c-13.5,1-26.8,3.7-39.3,11C79.7,32.2,62.9,67.4,62.9,97.6c0,0,0,37.7,0,46.7c-34.7,7.9-56.6,19.4-56.6,32.3
			c0,23.8,73.5,55.8,166,55.8s169.2-32.1,169.2-55.8C341.5,163.3,318.3,151.5,281.7,143.6z"/>
		<path fill="#4C300B" d="M281.7,146.2c-0.2,17-49.1,30.7-109.4,30.7S63.1,163.1,62.9,146.2h0v-0.1v-35.2h0
			c0.2,17,49.1,30.7,109.4,30.7c60.3,0,109.2-13.7,109.4-30.7h0L281.7,146.2L281.7,146.2z"/>
		<path fill="#331F07" d="M222,130l37-8.6c4.2-1,7.7,1.8,7.7,6.3v31.5c0,4.4-3.4,8.9-7.7,9.9l-37,8.6c-4.2,1-7.7-1.8-7.7-6.3v-31.5
			C214.4,135.4,217.8,131,222,130z"/>
		<path fill="#4C300B" d="M227.5,135.8l26.1-6.1c3-0.7,5.4,1.3,5.4,4.4v22.2c0,3.1-2.4,6.3-5.4,7l-26.1,6.1c-3,0.7-5.4-1.3-5.4-4.4
			v-22.2C222.1,139.6,224.5,136.4,227.5,135.8z"/>
	</g>
</g>
</svg>
