<?xml version="1.0" encoding="utf-8"?>
<!-- Generator: Adobe Illustrator 22.0.1, SVG Export Plug-In . SVG Version: 6.00 Build 0)  -->
<svg version="1.1" id="레이어_1" xmlns="http://www.w3.org/2000/svg" xmlns:xlink="http://www.w3.org/1999/xlink" x="0px"
	 y="0px" viewBox="0 0 350 350" enable-background="new 0 0 350 350" xml:space="preserve">
<g>
	<g>
		<circle fill="#FFBC27" cx="174.2" cy="170" r="167.3"/>
		<path fill="#FFAB00" d="M174.2,2.7c21.9,0,43.8,4.2,64.1,12.5c20.3,8.2,39.2,20.4,55,35.8c15.8,15.4,28.8,33.8,37.7,54.1
			c9,20.3,14,42.5,14.5,65c0.5,22.4-3.3,45.1-11.5,66.2c-8.3,21.1-20.7,40.6-36.6,57c-15.9,16.3-35.1,29.6-56.2,38.6
			c-10.6,4.5-21.6,7.9-32.8,10.2c-11.3,2.3-22.7,3.4-34.2,3.4c-22.9,0-45.9-4.6-67-13.6C86,322.8,66.9,309.5,51,293.2
			c-15.9-16.3-28.3-35.9-36.6-57C6.1,215.1,2.3,192.4,2.8,170c0.5-22.4,5.5-44.6,14.5-65c8.9-20.4,21.9-38.8,37.7-54.1
			c15.8-15.4,34.6-27.5,55-35.8C130.4,6.9,152.3,2.6,174.2,2.7z M174.2,2.7c-11,0-21.9,1.1-32.6,3.3c-10.7,2.2-21.2,5.5-31.3,9.7
			c-20.1,8.5-38.4,21.2-53.6,36.8c-15.2,15.6-27,34.3-34.8,54.4C14,127,10.4,148.6,10.9,170c0.5,21.4,5.3,42.5,13.9,61.9
			c8.5,19.4,20.9,36.9,36,51.5c15.1,14.7,33,26.2,52.3,34c19.4,7.8,40.2,11.9,61.1,11.9c20.9,0,41.7-4,61.1-11.8
			c19.4-7.8,37.3-19.3,52.4-34c15.1-14.6,27.5-32.1,36-51.5c8.6-19.4,13.4-40.5,13.9-61.9c0.5-21.4-3.1-43-10.9-63.1
			c-7.9-20.1-19.7-38.8-34.9-54.4c-15.2-15.6-33.4-28.3-53.6-36.8C228,11.4,217.5,8.1,206.8,6C196.1,3.8,185.1,2.7,174.2,2.7z"/>
	</g>
	<g>
		<path fill="#283B42" d="M143.9,246.1c25.4,5.4,53.7,0.5,75.3-14.1c10.2-6.9,0.6-23.6-9.7-16.7c-17.3,11.7-39.9,16.5-60.4,12.2
			C136.9,224.9,131.7,243.5,143.9,246.1L143.9,246.1z"/>
	</g>
	<path fill="#283B42" d="M332.5,125.7l-46.9-10c-1-0.2-2-0.3-3-0.2c-0.2,0-0.4,0-0.6,0c0,0-60.9,0-73.6,0c-1.3,0-7.7,0-7.7,0h-53
		c0,0-1,0-1,0c-1.9,0-80.3,0-80.3,0c-2.8,0-5.5,0.7-7.9,1.9l-39.1,8.3c-6.2,1.3-10.1,7.4-8.8,13.6s7.4,10.1,13.6,8.8l27.6-5.9
		c3.8,7.8,10.4,17.1,13.4,22c4.9,8.2,11.7,14.1,19.6,19.9c10.9,8,33.1,3.6,46.2,3.6c17.6,0,26.1-18.7,28.4-32.2
		c1-6.1,3.9-14.7,4.5-22.4h21c0.6,7.7,3.5,16.4,4.5,22.4c2.2,13.6,10.8,32.2,28.4,32.2c13.1,0,35.3,4.4,46.2-3.6
		c7.9-5.8,14.7-11.7,19.6-19.9c3-5,9.9-14.7,13.7-22.7l30.7,6.5c6.2,1.3,12.3-2.7,13.6-8.8C342.6,133.1,338.7,127,332.5,125.7z"/>
	<g>
		<path fill="#FFE200" d="M100,108.7c-10.6,0-18.5-6.1-23.6-18.1c-4-9.5-4.7-19.2-4.7-19.3c-0.1-1.7-1.5-3-3.2-3c0,0,0,0,0,0
			c-1.7,0-3.1,1.3-3.2,3c0,0.4-2.7,37.4-28.3,37.4c-1.8,0-3.2,1.4-3.2,3.2c0,1.8,1.4,3.2,3.2,3.2c10.6,0,18.5,6.1,23.6,18.1
			c4,9.5,4.7,19.2,4.7,19.3c0.1,1.7,1.5,3,3.2,3c0,0,0,0,0,0c1.7,0,3.1-1.3,3.2-3c0-0.4,2.7-37.4,28.3-37.4c1.8,0,3.2-1.4,3.2-3.2
			C103.2,110.1,101.8,108.7,100,108.7z"/>
		<g>
			<path fill="#FFFFFF" d="M64.9,95c-0.3,3.7-2.1,6.9-5,9.3c-2,1.6,0.8,4.4,2.8,2.8c3.7-3,5.9-7.4,6.2-12.1
				C69.1,92.4,65.1,92.4,64.9,95L64.9,95z"/>
		</g>
	</g>
</g>
</svg>
