<?xml version="1.0" encoding="utf-8"?>
<!-- Generator: Adobe Illustrator 22.0.1, SVG Export Plug-In . SVG Version: 6.00 Build 0)  -->
<svg version="1.1" id="레이어_1" xmlns="http://www.w3.org/2000/svg" xmlns:xlink="http://www.w3.org/1999/xlink" x="0px"
	 y="0px" viewBox="0 0 350 350" enable-background="new 0 0 350 350" xml:space="preserve">
<g>
	<circle fill="#BF4000" cx="172.6" cy="172.3" r="164.7"/>
	<g>
		
			<circle fill="none" stroke="#000000" stroke-width="8" stroke-linecap="round" stroke-linejoin="round" stroke-miterlimit="10" cx="172.6" cy="172.3" r="164.7"/>
		<path fill="none" stroke="#000000" stroke-width="8" stroke-linecap="round" stroke-linejoin="round" stroke-miterlimit="10" d="
			M8.4,159.4c9.5-17.6,27.1-27.6,46.2-31.5c22.9-4.7,43.6,6.7,62.9,18.5c20.5,12.5,35.5,32.5,46,53.8c11,22.5,13.3,45.4,5.7,69.8
			c-7.3,23.4-2.3,51.1,18.2,66.4"/>
		<path fill="none" stroke="#000000" stroke-width="8" stroke-linecap="round" stroke-linejoin="round" stroke-miterlimit="10" d="
			M55.3,56.7c0,0,192.4,134.4,243.9,221"/>
		<path fill="none" stroke="#000000" stroke-width="8" stroke-linecap="round" stroke-linejoin="round" stroke-miterlimit="10" d="
			M146.2,9.7c0,0-39,30.1,12.5,66.2c0,0,39.2,31.4,97.2,32c0,0,44.2-1.3,80,42.9"/>
		<path fill="none" stroke="#000000" stroke-width="8" stroke-linecap="round" stroke-linejoin="round" stroke-miterlimit="10" d="
			M74.4,304.6c0,0-49.9-31.5-15.8-99.4c0,0,68.2-137.9,142.1-158.1c0,0,45.3-16.1,69.9-7.1"/>
	</g>
</g>
</svg>
