<?xml version="1.0" encoding="utf-8"?>
<!-- Generator: Adobe Illustrator 22.0.1, SVG Export Plug-In . SVG Version: 6.00 Build 0)  -->
<svg version="1.1" id="레이어_1" xmlns="http://www.w3.org/2000/svg" xmlns:xlink="http://www.w3.org/1999/xlink" x="0px"
	 y="0px" viewBox="0 0 265.8 350" enable-background="new 0 0 265.8 350" xml:space="preserve">
<g>
	<g>
		<path fill="#FDCE9A" d="M222,171.8c3.3-0.6,6.3-1.5,9.1-2.6c-3.7-1-7.2-2.4-10.8-3.7c-20.7-7.4-43.2-13.1-65-14.3
			c-24.3-1.3-48.9,0.1-72.3,7.1c-13.1,3.9-25.6,9.6-38.5,13.8c8.5,1.4,44.8,6.9,89,6.9C187.5,179.1,222,171.8,222,171.8z"/>
		<g>
			<path fill="#FAB979" d="M93.8,154.3c-2.7,2.6-5.7,4.8-8.7,6.9c-3,2.1-6.2,4-9.4,5.8c-3.2,1.8-6.5,3.5-9.8,5
				c-3.4,1.5-6.8,2.9-10.5,3.9c2.7-2.6,5.7-4.8,8.7-7c3-2.1,6.2-4,9.4-5.8c3.2-1.8,6.5-3.5,9.8-5C86.7,156.7,90.2,155.3,93.8,154.3z
				"/>
			<path fill="#FAB979" d="M108.2,152c-2.7,3.8-5.8,7.1-9.2,10.3c-3.4,3.1-6.9,6.1-10.7,8.7c-3.8,2.7-7.7,5.1-11.8,7.2
				c-4.1,2.1-8.3,3.9-12.8,5.2c3.6-2.9,7.3-5.6,11-8.2l11-7.8l11-7.8C100.6,157.1,104.3,154.5,108.2,152z"/>
			<path fill="#FAB979" d="M122.4,145.3c-1.5,4.4-3.6,8.5-5.9,12.5c-2.3,4-5,7.8-7.8,11.4c-2.9,3.6-6,7-9.3,10.2
				c-3.3,3.2-6.9,6.1-10.8,8.6c2.6-3.8,5.5-7.4,8.2-10.9l8.4-10.6l8.4-10.6C116.5,152.3,119.3,148.8,122.4,145.3z"/>
			<path fill="#FAB979" d="M157.8,154.4c2.5,1.5,4.7,3.3,6.9,5.2c2.1,1.9,4.1,3.8,6.1,5.8c1.9,2,3.8,4.1,5.6,6.3
				c1.8,2.2,3.5,4.5,4.9,7.1c-2.7-1.2-5.1-2.9-7.4-4.6c-2.3-1.8-4.4-3.7-6.3-5.7c-2-2.1-3.8-4.2-5.5-6.6
				C160.5,159.6,159,157.1,157.8,154.4z"/>
			<path fill="#FAB979" d="M171.8,154.3c3.3,1.7,6.2,3.6,9.2,5.6c2.9,2,5.8,4,8.7,6.1c2.8,2.1,5.7,4.2,8.4,6.4
				c2.8,2.2,5.5,4.5,8.2,7.1c-3.6-1-6.9-2.4-10.1-4.1c-3.2-1.7-6.2-3.6-9.2-5.7c-2.9-2.1-5.7-4.4-8.3-7
				C176.3,160.1,173.8,157.4,171.8,154.3z"/>
			<path fill="#FAB979" d="M186.3,154.3c3.5,0.9,6.9,2.1,10.2,3.5c3.3,1.4,6.4,2.9,9.6,4.6c3.1,1.7,6.1,3.5,9.1,5.4
				c2.9,2,5.8,4.1,8.5,6.6c-3.5-0.9-6.9-2.1-10.2-3.5c-3.3-1.4-6.4-2.9-9.6-4.6c-3.1-1.7-6.1-3.5-9.1-5.4
				C191.8,158.9,188.9,156.8,186.3,154.3z"/>
		</g>
		<path fill="#C22026" d="M235,167.7c-2.8,1.1-6,2-9.3,2.7c0,0-35.5,7.4-91.1,7.4c-45.6,0-83-5.7-91.7-7.1c-1.2,0.4-2.4,0.8-3.6,1.1
			c-6.1,1.9-12.3,3.3-18.6,4.2c5.3,3.3,12,5.6,20.2,6.6c0,0,41.4,7.4,93.6,7.4c55.7,0,91.1-7.4,91.1-7.4
			c10.8-2.1,18.9-6.7,24.5-12.6c-3.7-0.3-7.4-0.5-11.1-1.3C237.7,168.4,236.3,168.1,235,167.7z"/>
		<g>
			<path fill="#FAB979" d="M175.4,267c-4.5-24-10.2-51.6-9.7-76.4c0.3-11.8-0.4-24.3-3.3-35.9c-1.4-5.6-3.2-10.9-5.8-15.9
				c-2.1-4.2-4.7-7.7-7.9-9.9c-3.4-2.4-7.3-4-11.2-4.7c5.2,9.3,7.8,19.4,8.9,29.6c0.7,6.4,0.9,12.9,0.7,19.1
				c-0.7,25.7,7.3,54.4,13.6,79.3c4.1,16.3,6.7,34.1-1.3,49.1c-8,14.9-25.7,24.5-44,26.9c-4.7,0.6-9.4,0.9-14.1,0.8
				c11.2,9.6,26.8,13.8,41.7,11.2c13-2.3,25.5-11.5,31.2-25.9C180.1,299.8,178.3,282.6,175.4,267z"/>
			<path fill="#FDCE9A" d="M160.9,252.2c-6.3-25-14.4-53.6-13.6-79.3c0.2-6.3,0-12.7-0.7-19.1c-1.2-10.2-3.8-20.4-8.9-29.6
				c-7.2-1.3-14.6,0.5-20.3,6.2c-6.7,6.6-10.9,16.3-13.5,27c-3.9,15.6-4.4,33.5-4.2,47.4c0.2,16.8,2.5,34.2-2.3,50
				c-2.2,7.2-5.8,13.6-8.1,20.8c-7.6,23.7-0.6,42.3,12.4,53.5c4.7,0.1,9.4-0.2,14.1-0.8c18.3-2.4,36-12,44-26.9
				C167.6,286.2,165,268.5,160.9,252.2z"/>
			<path opacity="0.3" fill="#EDA35F" d="M156.6,138.8c-2.1-4.2-4.7-7.7-7.9-9.9c-3.4-2.4-7.3-4-11.2-4.7
				c-7.2-1.3-14.6,0.5-20.3,6.2c-6.3,6.2-10.5,15-13.1,24.2c-1.3,4.7-2.3,9.5-2.8,14.4c-0.6,4.7-1.3,9.5-1.1,14.3
				c0.1,2.9,1.3,4.1,3.7,3.6c1.9-0.4,3.5-1.8,4.9-3.3c3.9-4,7.3-8.7,11.3-12.6c10.1-9.7,23.5-13.1,36.4-12.5
				c1.6,0.1,3.3,0.2,4.8-0.5C165.4,156.2,157.8,141,156.6,138.8z"/>
		</g>
		<path fill="#E31E27" d="M237.2,101.4l-57.5-74.9c-10.1-10.1-22.7-16-36-17.9c-20.3-2.9-42,3.7-58,19.7L26,105.5
			C10.2,121.3,3,144.1,9.5,161.1c2.4,6.5,6.8,12.1,13.5,16.2c6.1-0.8,12.2-2.2,18.1-4c14.2-4.3,27.8-10.6,42-14.9
			c15-4.5,30.5-6.7,46.1-7.3c8.7-0.4,17.4-0.2,26.1,0.2c17.9,1,36.3,5,53.7,10.5c3.8,1.2,7.5,2.5,11.2,3.8c4.9,1.7,9.7,3.7,14.8,4.7
			c3.5,0.7,7.2,0.9,10.8,1.2C262.9,153.2,256.6,120.7,237.2,101.4z"/>
		<path opacity="0.6" fill="#C22026" d="M237.2,101.4l-57.5-74.9c-10.1-10.1-22.7-16-36-17.9L192.9,83
			c18.3,21.2,26.1,54.8,16.1,78.8c3.8,1.2,7.5,2.5,11.2,3.8c4.9,1.7,9.7,3.7,14.8,4.7c3.5,0.7,7.2,0.9,10.8,1.2
			C262.9,153.2,256.6,120.7,237.2,101.4z"/>
		<circle fill="#FFFFFF" cx="66.5" cy="97.4" r="13"/>
		<path fill="#FFFFFF" d="M106.1,124.8c0,4.8-3.9,8.6-8.6,8.6c-4.8,0-8.6-3.9-8.6-8.6c0-4.8,3.9-8.6,8.6-8.6
			C102.2,116.2,106.1,120,106.1,124.8z"/>
		<circle fill="#FFFFFF" cx="112.7" cy="31.2" r="7.3"/>
		<path fill="#FFFFFF" d="M40.2,132.4c0,3.2-2.6,5.9-5.9,5.9s-5.9-2.6-5.9-5.9c0-3.2,2.6-5.9,5.9-5.9
			C37.6,126.6,40.2,129.2,40.2,132.4z"/>
		<path fill="#FFFFFF" d="M119.6,83.9c0,4.2-3.4,7.6-7.6,7.6s-7.6-3.4-7.6-7.6c0-4.2,3.4-7.6,7.6-7.6S119.6,79.6,119.6,83.9z"/>
		<path fill="#FFFFFF" d="M128.5,48.9c0,2.1-1.7,3.8-3.8,3.8c-2.1,0-3.8-1.7-3.8-3.8c0-2.1,1.7-3.8,3.8-3.8
			C126.8,45.1,128.5,46.8,128.5,48.9z"/>
		<circle fill="#FFFFFF" cx="98.8" cy="56.3" r="7.3"/>
		<circle fill="#FFFFFF" cx="159.8" cy="44.6" r="13.9"/>
		<path fill="#C22026" d="M23,177.2c6.2-1.2,12.3-3,18.3-5.1c3-1.1,5.9-2.2,8.8-3.4c2.9-1.2,5.9-2.4,8.8-3.6
			c5.8-2.5,11.7-5,17.7-7.2c6-2.2,12.2-4.2,18.5-5.7c12.6-3,25.4-4.5,38.3-5.1c6.4-0.2,12.9-0.2,19.3,0c3.2,0.1,6.5,0.3,9.7,0.5
			c3.2,0.3,6.5,0.6,9.7,1.1c12.8,1.8,25.4,4.9,37.7,8.7l9.2,3l2.3,0.8c0.7,0.2,1.6,0.6,2.4,0.9l4.4,1.9c2.8,1.2,5.6,2.2,7.8,2.4
			c0.3,0,0.5,0,0.8,0c0.3,0,0.6-0.1,0.9-0.1l0.9-0.1l0.5,0l0.4-0.1c0.6-0.2,1.2-0.2,1.7-0.4c0.5-0.2,1.1-0.4,1.6-0.7
			c4.1-2,6.8-6.9,7.9-12.4c1.2-5.5,1.2-11.5,0.2-17.3c-1-5.8-3-11.5-5.7-16.8c-2.7-5.3-6.2-10.3-10.3-14.6l-0.2-0.2l-0.1-0.1
			c-4.7-6.3-9.3-12.7-13.9-19.1c-4.6-6.4-9.2-12.7-13.8-19.2c-4.5-6.4-9.2-12.8-13.7-19.3c-4.5-6.4-9-12.9-13.4-19.4
			c5.2,6,10.2,12,15.3,18c5.1,6,10.1,12.1,15.1,18.2c5,6.1,10,12.2,14.9,18.3c5,6.1,9.9,12.2,14.8,18.4l-0.3-0.3
			c4.8,4.7,8.9,10,12.2,15.9c3.2,5.9,5.6,12.3,6.9,18.9c1.3,6.7,1.5,13.6,0.2,20.5c-0.7,3.5-1.9,6.9-3.8,10.2
			c-1.9,3.3-4.8,6.3-8.5,8.2c-0.9,0.5-1.9,0.8-2.8,1.2c-0.9,0.3-1.9,0.5-2.9,0.7l-0.7,0.2l-0.7,0.1l-1.4,0.1c-0.5,0-0.9,0.1-1.5,0.1
			c-0.5,0-1.1,0-1.6-0.1c-4.1-0.4-7.3-1.7-10.4-2.9l-4.4-1.8c-0.7-0.3-1.3-0.5-2.1-0.8l-2.2-0.7l-8.9-3c-11.9-3.8-24.1-6.8-36.3-8.7
			c-3.1-0.5-6.1-0.9-9.2-1.2c-3.1-0.3-6.1-0.6-9.3-0.7c-6.3-0.4-12.5-0.5-18.8-0.5c-12.5,0-25,1-37.3,3.3
			c-6.1,1.1-12.2,2.6-18.2,4.5c-6,1.9-12,3.9-18,5.9c-6,2.1-12.1,4-18.3,5.6C35.7,175.5,29.4,176.7,23,177.2z"/>
	</g>
</g>
</svg>
