<?xml version="1.0" encoding="utf-8"?>
<!-- Generator: Adobe Illustrator 22.0.1, SVG Export Plug-In . SVG Version: 6.00 Build 0)  -->
<svg version="1.1" id="레이어_1" xmlns="http://www.w3.org/2000/svg" xmlns:xlink="http://www.w3.org/1999/xlink" x="0px"
	 y="0px" viewBox="0 0 350 350" enable-background="new 0 0 350 350" xml:space="preserve">
<g>
	<g>
		<circle fill="#FFBC1E" cx="174.4" cy="170.5" r="167.3"/>
		<path fill="#FFAB00" d="M174.4,3.2c21.9,0,43.8,4.2,64.1,12.5c20.3,8.2,39.2,20.4,55,35.8c15.8,15.4,28.8,33.8,37.7,54.1
			c9,20.3,14,42.5,14.5,65c0.5,22.4-3.3,45.1-11.5,66.2c-8.3,21.1-20.7,40.6-36.6,57c-15.9,16.3-35.1,29.6-56.2,38.6
			c-10.6,4.5-21.6,7.9-32.8,10.2c-11.3,2.3-22.7,3.4-34.2,3.4c-22.9,0-45.9-4.6-67-13.6c-21.1-8.9-40.3-22.2-56.2-38.6
			c-15.9-16.3-28.3-35.9-36.6-57C6.3,215.6,2.5,192.9,3,170.5c0.5-22.4,5.5-44.6,14.5-65c8.9-20.4,21.9-38.8,37.7-54.1
			c15.8-15.4,34.6-27.5,55-35.8C130.6,7.4,152.5,3.2,174.4,3.2z M174.4,3.2c-11,0-21.9,1.1-32.6,3.3c-10.7,2.2-21.2,5.5-31.3,9.7
			C90.3,24.7,72,37.5,56.9,53c-15.2,15.6-27,34.3-34.8,54.4c-7.8,20.1-11.4,41.7-10.9,63.1c0.5,21.4,5.3,42.5,13.9,61.9
			c8.5,19.4,20.9,36.9,36,51.5c15.1,14.7,33,26.2,52.3,34c19.4,7.8,40.2,11.9,61.1,11.9c20.9,0,41.7-4,61.1-11.8
			c19.4-7.8,37.3-19.3,52.4-34c15.1-14.6,27.5-32.1,36-51.5c8.6-19.4,13.4-40.5,13.9-61.9c0.5-21.4-3.1-43-10.9-63.1
			C318.9,87.3,307,68.6,291.9,53c-15.2-15.6-33.4-28.3-53.6-36.8C228.2,12,217.7,8.7,207,6.5C196.3,4.4,185.3,3.3,174.4,3.2z"/>
	</g>
	<g>
		<ellipse fill="#FFAB00" cx="72.6" cy="186.1" rx="38.4" ry="26.5"/>
		<ellipse fill="#FFAB00" cx="276.1" cy="186.1" rx="38.4" ry="26.5"/>
	</g>
	<g>
		<path fill="#F92B42" d="M154.2,123.2c-0.2-0.6-0.4-1.1-0.6-1.7c0,0,0-0.1,0-0.1c-0.1-0.2-0.2-0.5-0.3-0.7c0-0.1-0.1-0.1-0.1-0.2
			c-0.1-0.2-0.2-0.5-0.3-0.7c0,0,0,0,0,0c-0.1-0.3-0.3-0.5-0.4-0.8c-0.1-0.2-0.2-0.4-0.3-0.6c-0.1-0.1-0.1-0.2-0.2-0.3
			c-0.1-0.1-0.1-0.2-0.2-0.3c-0.1-0.2-0.3-0.4-0.4-0.6c0-0.1-0.1-0.1-0.1-0.2c-0.2-0.3-0.4-0.5-0.6-0.8c0,0-0.1-0.1-0.1-0.1
			c-0.2-0.3-0.5-0.6-0.7-0.8l-0.5-0.5c-0.2-0.2-0.4-0.4-0.5-0.5c0.3,0.3,0.7,0.7,1,1c-0.5-0.6-1.1-1.2-1.7-1.7
			c-0.1-0.1-0.1-0.1-0.2-0.2c-0.1-0.1-0.3-0.2-0.4-0.4c-0.1-0.1-0.1-0.1-0.2-0.2c-0.2-0.1-0.4-0.3-0.6-0.4c-0.1,0-0.1-0.1-0.2-0.1
			c-1.3-0.9-2.7-1.6-4.3-2.1c-2.9-1-6-1.1-9-0.3c-3,0.7-5.7,2.3-7.8,4.5l-6.2,6.5l-4.6-5l-1.2-1.3l-0.6-0.6
			c-0.2-0.2-0.4-0.4-0.6-0.6c-0.9-0.8-1.8-1.5-2.8-2.1c-2-1.2-4.3-1.9-6.6-2.1c-2.3-0.2-4.7,0-6.9,0.8c-2.2,0.8-4.3,2-6,3.6
			c-0.4,0.4-0.8,0.8-1.2,1.2c-0.4,0.4-0.8,0.9-1.2,1.3c-0.7,0.9-1.4,1.9-2,2.9c-1.1,2.1-2,4.3-2.4,6.6c-0.5,2.3-0.7,4.7-0.4,7
			c0.2,2.3,0.8,4.7,2,6.8c0.6,1.1,1.2,2,2,2.9l0.3,0.3c0.1,0.1,0.2,0.2,0.3,0.3l0.6,0.6l1.2,1.2l10,9.6l10,9.6l10,9.6l0.3,0.3
			l0.3-0.3l26.5-26l3.3-3.2l1.7-1.6c0.6-0.5,1-1.2,1.5-1.8c1.8-2.5,2.7-5.6,3-8.7C155.5,129.3,155.1,126.2,154.2,123.2z"/>
		<path fill="#F92B42" d="M265,123.2c-0.2-0.6-0.4-1.1-0.6-1.7c0,0,0-0.1,0-0.1c-0.1-0.2-0.2-0.5-0.3-0.7c0-0.1-0.1-0.1-0.1-0.2
			c-0.1-0.2-0.2-0.5-0.3-0.7c0,0,0,0,0,0c-0.1-0.3-0.3-0.5-0.4-0.8c-0.1-0.2-0.2-0.4-0.3-0.6c-0.1-0.1-0.1-0.2-0.2-0.3
			c-0.1-0.1-0.1-0.2-0.2-0.3c-0.1-0.2-0.3-0.4-0.4-0.6c0-0.1-0.1-0.1-0.1-0.2c-0.2-0.3-0.4-0.5-0.6-0.8c0,0-0.1-0.1-0.1-0.1
			c-0.2-0.3-0.5-0.6-0.7-0.8l-0.5-0.5c-0.2-0.2-0.4-0.4-0.5-0.5c0.3,0.3,0.7,0.7,1,1c-0.5-0.6-1.1-1.2-1.7-1.7
			c-0.1-0.1-0.1-0.1-0.2-0.2c-0.1-0.1-0.3-0.2-0.4-0.4c-0.1-0.1-0.1-0.1-0.2-0.2c-0.2-0.1-0.4-0.3-0.6-0.4c-0.1,0-0.1-0.1-0.2-0.1
			c-1.3-0.9-2.7-1.6-4.3-2.1c-2.9-1-6-1.1-9-0.3c-3,0.7-5.7,2.3-7.8,4.5l-6.2,6.5l-4.6-5l-1.2-1.3l-0.6-0.6
			c-0.2-0.2-0.4-0.4-0.6-0.6c-0.9-0.8-1.8-1.5-2.8-2.1c-2-1.2-4.3-1.9-6.6-2.1c-2.3-0.2-4.7,0-6.9,0.8c-2.2,0.8-4.3,2-6,3.6
			c-0.4,0.4-0.8,0.8-1.2,1.2c-0.4,0.4-0.8,0.9-1.2,1.3c-0.7,0.9-1.4,1.9-2,2.9c-1.1,2.1-2,4.3-2.4,6.6c-0.5,2.3-0.7,4.7-0.4,7
			c0.2,2.3,0.8,4.7,2,6.8c0.6,1.1,1.2,2,2,2.9l0.3,0.3c0.1,0.1,0.2,0.2,0.3,0.3l0.6,0.6l1.2,1.2l10,9.6l10,9.6l10,9.6l0.3,0.3
			l0.3-0.3l26.5-26l3.3-3.2l1.7-1.6c0.6-0.5,1-1.2,1.5-1.8c1.8-2.5,2.7-5.6,3-8.7C266.3,129.3,265.9,126.2,265,123.2z"/>
	</g>
	<g>
		<path fill="#233840" d="M266.4,183.7H82c0,29.4,13.8,55.6,35.3,72.5c10.7-20.5,32.2-34.4,56.9-34.4s46.2,14,56.9,34.4
			C252.6,239.3,266.4,213.1,266.4,183.7z"/>
		<path fill="#F92B42" d="M174.2,221.7c-24.7,0-46.2,14-56.9,34.4c15.7,12.3,35.4,19.7,56.9,19.7s41.2-7.4,56.9-19.7
			C220.4,235.7,198.9,221.7,174.2,221.7z"/>
	</g>
</g>
</svg>
