<?xml version="1.0" encoding="utf-8"?>
<!-- Generator: Adobe Illustrator 22.0.1, SVG Export Plug-In . SVG Version: 6.00 Build 0)  -->
<svg version="1.1" id="레이어_1" xmlns="http://www.w3.org/2000/svg" xmlns:xlink="http://www.w3.org/1999/xlink" x="0px"
	 y="0px" viewBox="0 0 349.8 98.6" enable-background="new 0 0 349.8 98.6" xml:space="preserve">
<g>
	<g>
		<path fill="#262220" d="M220.8,3.3c-22.5-3.6-38.3,5.4-45.7,18.5c-7.4-13.1-23.2-22.1-45.7-18.5c-3.2,0.5-6.3,1.6-9.4,3
			c-17.1,9.4-28.1,25.6-41.4,40.2c-2.7,2.9-5.4,5.8-8.4,8.5c-9.4,8.2-27,16.4-36.3,3.5s4.7-23.4,17.6-23.4
			C31.6,26.9,7,46.8,10.5,67.9c2.3,22.3,29.3,24.6,47,26.2c4,0.2,8.1,0.2,12.2,0.2c8.1-0.1,16.2-0.7,24-1.4
			c4.7-0.5,9.2-1.1,13.6-1.9c34.8-6.3,58.4-21.9,67.8-36.9c8.3,13.2,27.3,26.8,55.3,34.1c4,1.1,8.2,2,12.5,2.8
			c12.6,1.9,25.6,2.9,38.7,2.7c3.3,0,6.5-0.2,9.8-0.3c18.9-0.9,40-4.4,47-24.3c8.2-23.4-18.7-44.5-41-36.3c7,2.3,14.1,2.3,19.9,7
			c4.7,4.7,2.3,11.7-1.2,17.6c-8.2,9.4-21.1,8.2-30.4,2c-3.2-1.6-6.2-3.6-9-5.8c-16.7-13.3-26.9-35.4-46.6-47.3
			C227.1,4.8,224,3.8,220.8,3.3z"/>
		<path fill="#141210" d="M51.5,35.1C31.3,27.5,7.8,47.6,11.6,67.9c0.3,2.5,1,4.9,2.1,7.1c1.1,2.2,2.6,4.2,4.3,5.9
			c3.6,3.4,8.2,5.6,13,7.2c4.8,1.5,9.9,2.4,15,3.1c2.6,0.3,5.1,0.6,7.7,0.8l3.9,0.3l3.9,0l7.7,0c2.6,0,5.2-0.2,7.8-0.3
			c5.2-0.3,10.4-0.7,15.5-1.1c10.2-1,20.4-3,30.3-5.9c2.5-0.7,4.9-1.6,7.3-2.4c1.2-0.4,2.4-0.9,3.6-1.4c1.2-0.4,2.4-0.9,3.6-1.4
			c4.7-2,9.3-4.3,13.7-6.9c4.4-2.6,8.5-5.6,12.3-8.9c3.8-3.3,7.2-7.1,9.8-11.2l2-3.1l2,3.1c5.4,8.4,13.5,15,22.3,20.2
			c8.8,5.2,18.4,9.2,28.4,12.1c4.9,1.5,10,2.7,15.1,3.7c5,0.8,10.3,1.5,15.4,2c5.2,0.5,10.4,0.8,15.6,0.9c2.6,0.1,5.2,0.1,7.8,0.1
			l7.8-0.2c5.2-0.1,10.4-0.5,15.5-1.2c5.1-0.7,10.1-1.9,14.8-3.9c4.7-2,8.9-4.8,12.2-8.6c0.8-1,1.5-2,2.3-3c0.6-1.1,1.3-2.2,1.8-3.3
			c0.5-1.2,1.1-2.3,1.4-3.5c0.2-0.6,0.4-1.2,0.6-1.8l0.4-1.8c0.9-4.9,0.3-10.1-1.9-14.8c-2.1-4.6-5.5-8.7-9.6-11.8
			c-4.1-3.1-9-5.3-14.1-6.2c-5.1-1-10.5-0.7-15.4,1c4.9-1.9,10.3-2.5,15.6-1.7c5.2,0.8,10.3,2.8,14.7,5.9c4.4,3.1,8.1,7.1,10.5,12
			c2.4,4.8,3.4,10.5,2.5,15.9l-0.4,2c-0.1,0.7-0.4,1.3-0.6,2c-0.4,1.3-1,2.5-1.5,3.8c-0.5,1.2-1.3,2.4-1.9,3.6
			c-0.8,1.1-1.6,2.3-2.4,3.3c-3.5,4.3-8.1,7.5-13.1,9.7c-5,2.3-10.2,3.6-15.5,4.4c-5.3,0.9-10.6,1.3-15.9,1.5
			c-10.5,0.7-21.2,0.5-31.7-0.4c-5.3-0.4-10.5-1-15.8-1.9c-5.2-1-10.4-2.1-15.5-3.6c-10.2-2.9-20.2-7-29.5-12.4
			c-4.6-2.7-9-5.8-13.1-9.4c-4.1-3.6-7.8-7.6-10.8-12.3h4c-3,4.6-6.7,8.7-10.7,12.2c-4,3.6-8.4,6.7-13,9.4C148.7,79.6,144,82,139,84
			c-1.2,0.5-2.4,1-3.7,1.5c-1.2,0.5-2.5,1-3.7,1.4c-2.5,0.8-5,1.7-7.6,2.4c-10.2,2.9-20.6,4.8-31.2,5.7c-10.4,0.8-20.9,1.5-31.5,0.9
			l-4-0.1l-3.9-0.4c-2.6-0.3-5.2-0.6-7.8-0.9c-5.2-0.7-10.5-1.8-15.5-3.5c-5-1.7-10-4.2-14-8.1c-1.9-2-3.6-4.2-4.7-6.8
			c-1.1-2.5-1.8-5.2-2.1-7.9c-0.8-5.3,0.1-11,2.4-15.8c2.3-4.9,5.8-9.1,10-12.3c4.2-3.3,9.1-5.6,14.3-6.6
			C41.2,32.5,46.7,33,51.5,35.1z"/>
		<path opacity="0.59" fill="#332F2D" d="M96.4,40.3c12.2-14.2,30.4-33.9,51-31.5c3.1,0.4,7,2.3,6.3,5.3c-0.3,1.2-1.3,2-2.2,2.8
			c-14.8,12-33.7,20.8-50.2,30.5c-5.1,3-15.6,6.1-19.4,10.5C86.4,52.5,91.2,46.3,96.4,40.3z"/>
		<path opacity="0.59" fill="#332F2D" d="M254.7,40.3c-12.2-14.2-30.4-33.9-51-31.5c-3.1,0.4-7,2.3-6.3,5.3c0.3,1.2,1.3,2,2.2,2.8
			c14.8,12,33.7,20.8,50.2,30.5c5.1,3,15.6,6.1,19.4,10.5C264.8,52.5,259.9,46.3,254.7,40.3z"/>
	</g>
</g>
</svg>
