<?xml version="1.0" encoding="utf-8"?>
<!-- Generator: Adobe Illustrator 22.0.1, SVG Export Plug-In . SVG Version: 6.00 Build 0)  -->
<svg version="1.1" id="레이어_1" xmlns="http://www.w3.org/2000/svg" xmlns:xlink="http://www.w3.org/1999/xlink" x="0px"
	 y="0px" viewBox="0 0 231 350" enable-background="new 0 0 231 350" xml:space="preserve">
<g>
	<g>
		<path fill="#E54262" d="M140.4,90.9l-0.5-1.5l-8.3-23.1l-6.9-19.2l-8.4-23.2l0.7,2.4l-0.8-2.3l0.4,1.3l-0.8-2.2v0.1v-0.1v0.1l0,0
			v-0.1V23L89.7,95.6L84,111.4l-9.3,25.9h-0.1L68,155.7h0.1v0.1H68l-7.1,19.9l0,0l-6.2,17.2h0.1v0.1l-6.4,17.5l0,0L41.6,229l0,0v0.1
			l-5.5,15.3L29,264.3l-4.4,12.2l0,0h-0.1l-8.4,23.2L11,313.8c0,0,15.3,25.2,104.7,25.2c51,0,77.9-8.2,91.6-15.2l0,0
			c9.3-4.7,12.5-9,13.2-9.9L140.4,90.9z M63,283.4L63,283.4c0.2,0,0.3,0,0.5,0C63.3,283.4,63.2,283.4,63,283.4z M74.3,283.7
			L74.3,283.7C74.2,283.7,74.3,283.7,74.3,283.7L74.3,283.7z"/>
		<path fill="none" d="M221,314.5l-12.8-35.4L140.5,90.5L140,89l-8.3-23.2l-2-5.4c-12,7.1-21.7,4.1-27.7,0.5L89.6,95.2l-5.7,15.9
			l-9.4,26.1l-6.6,18.5l-7.2,20.1l-6.2,17.3L48,210.8l-6.7,18.5l-5.5,15.4l-7.2,20L24.2,277l-8.4,23.3l-5.1,14.2l0,0l0,0
			c0,0,0,0,0.1,0.1l0,0c0,0,0.1,0.1,0.1,0.2l0,0c0,0.1,0.1,0.1,0.2,0.2l0,0c0.1,0.2,0.3,0.4,0.5,0.6l0,0c2.8,3.2,13,12.4,41,18.4
			l0,0c15.2,3.3,35.7,5.7,63.2,5.7c67.8,0,93.2-14.4,101.5-21.5C219.6,316.5,220.6,315.1,221,314.5L221,314.5L221,314.5z"/>
		<ellipse fill="#E54262" cx="115.5" cy="313.2" rx="113.8" ry="33.1"/>
		<g>
			<g>
				<path fill="#F46C80" d="M67,212.2c35.9,0,69.6-14,95-39.3c2-2,3.9-4,5.8-6.2l-6.4-17.9c-1.9,2.2-3.9,4.4-6,6.5
					c-24.5,24.5-57.1,38-91.8,38l0,0c-3,0-6-0.1-9-0.3L48,210.8C54.2,211.7,60.6,212.2,67,212.2L67,212.2z"/>
				<path fill="#F46C80" d="M202.4,262.9c-36.1,29.7-81.2,46-128.3,46c-20,0-39.5-2.9-58.4-8.6l-5.1,14.2c0,0,15.4,25.3,105.2,25.3
					S221,314.5,221,314.5L202.4,262.9z"/>
				<path fill="#F46C80" d="M142.9,142.8c4.2-4.2,8-8.7,11.4-13.4l-6.8-19c-3.6,5.1-7.5,9.8-11.9,14.2
					c-18.3,18.3-42.2,29.2-67.8,31.1l-7.2,20.1c1,0,1.9,0,2.9,0C93.5,175.7,121.7,164,142.9,142.8z"/>
				<path fill="#F46C80" d="M139.8,89.1l-8.3-23.2c-4.1,9.8-10.1,18.7-17.5,26.1c-8.4,8.4-18.7,15-30.1,19.1l-9.4,26.1
					c18.4-3,35.4-11.6,48.7-25C130,105.4,135.6,97.6,139.8,89.1z"/>
				<path fill="#F46C80" d="M70.6,248.7c41.6,0,80.8-16.2,110.3-45.6l-5.8-16c-29,28.7-67.3,44.5-108.1,44.5l0,0
					c-8.6,0-17.2-0.7-25.7-2.2l-5.5,15.4C47.1,247.3,58.8,248.7,70.6,248.7L70.6,248.7z"/>
				<path fill="#F46C80" d="M193.5,238l-4.8-13.3c-32.6,29.1-74.1,45-118.1,45l0,0c-14.2,0-28.3-1.7-42-5L24.2,277
					c16.2,4.7,32.9,7.2,50,7.2C118.6,284.2,160.7,267.9,193.5,238z"/>
				<path fill="#F46C80" d="M124.6,46.6l-8.7-24.2v-0.2v0.1v-0.1v0.2L89.6,95.2c5.8-3.2,11.2-7.2,15.8-11.8
					C115.2,73.6,122,60.9,124.6,46.6z"/>
				<path fill="#FFC99B" d="M70.6,269.8c44,0,85.5-15.9,118.1-45l-7.8-21.6c-29.5,29.4-68.7,45.6-110.3,45.6l0,0
					c-11.8,0-23.4-1.3-34.8-3.9l-7.2,20C42.2,268.1,56.3,269.8,70.6,269.8L70.6,269.8z"/>
				<path fill="#FFFFFF" d="M67,231.5c40.8,0,79.1-15.8,108.1-44.5l-7.3-20.4c-1.9,2.1-3.8,4.2-5.8,6.2
					c-25.4,25.4-59.1,39.3-95,39.3l0,0c-6.4,0-12.8-0.5-19-1.4l-6.7,18.5C49.8,230.8,58.4,231.5,67,231.5L67,231.5z"/>
				<path fill="#FFC99B" d="M63.5,193.3c34.7,0,67.3-13.5,91.8-38c2.1-2.1,4.1-4.2,6-6.5l-7-19.4c-3.5,4.8-7.3,9.3-11.4,13.4
					c-21.2,21.2-49.4,32.9-79.4,32.9c-1,0-1.9,0-2.9,0L54.4,193C57.4,193.1,60.4,193.3,63.5,193.3L63.5,193.3z"/>
				<path fill="#FFFFFF" d="M147.5,110.4l-7.7-21.3c-4.3,8.5-9.9,16.3-16.7,23c-13.4,13.4-30.3,22-48.7,25l-6.6,18.5
					c25.6-1.9,49.4-12.7,67.8-31.1C140,120.2,143.9,115.4,147.5,110.4z"/>
				<path fill="#FFC99B" d="M131.5,65.9l-6.9-19.3c-2.5,14.2-9.4,27-19.2,36.8c-4.7,4.7-10,8.6-15.8,11.8l-5.7,15.9
					C95.3,107,105.6,100.4,114,92C121.4,84.6,127.4,75.7,131.5,65.9z"/>
				<path fill="#FFFFFF" d="M202.4,262.9l-9-24.9c-32.7,29.8-74.9,46.2-119.3,46.2c-17.1,0-33.8-2.4-50-7.2l-8.4,23.3
					c18.9,5.7,38.4,8.6,58.4,8.6C121.2,308.9,166.3,292.7,202.4,262.9z"/>
			</g>
			<path opacity="0.4" fill="#E54262" enable-background="new    " d="M115.8,22.3L115.8,22.3L115.8,22.3L89.6,95.2l-5.7,15.9
				l-9.4,26.1l-6.6,18.5l-7.2,20.1l-6.2,17.3L48,210.8l-6.7,18.5l-5.5,15.4l-7.2,20L24.2,277l-8.4,23.3l-5.1,14.2
				c0,0,7.4,12.2,41.9,19.6L115.8,22.3L115.8,22.3L115.8,22.3z"/>
			<g opacity="0.4">
				<polygon fill="#E54262" points="131.5,66.1 139.8,89.2 140.4,90.8 115.8,22.4 116.2,23.5 124.6,46.8 				"/>
				<path fill="#E54262" d="M140.5,90.5L140,89l-8.3-23.2l-6.9-19.3l-8.4-23.3l91.4,301.3c9.3-4.7,12.6-9,13.3-9.9L140.5,90.5z"/>
			</g>
			<path opacity="0.4" fill="#E54262" enable-background="new    " d="M129.7,60.4l-5-13.8l-8.4-23.3l0.9,3l-0.9-2.5l-0.5-1.4v-0.2
				v0.1v-0.1v0.1l0,0L102,60.8C108,64.5,117.7,67.5,129.7,60.4z"/>
		</g>
		<g>
			<path fill="#E54262" d="M33.3,335.9c18.9,6.5,39.3,8.8,59.2,9.8c22.5,1.2,45.4,0.8,67.8-2.2c13.9-1.8,27.9-4.6,41-10
				c10.4-4.3,21.1-10,25.4-21.1c1.4-3.7-1.9-6.3-4.3-8.5c-1.3-1.2-2.7-2.4-4.4-2.6c-0.5,5.6-4.3,10.1-8.5,13.4
				c1.7-1.4,0.2-0.1-0.2,0.2c-0.7,0.5-1.3,0.9-2,1.3c-3,1.9-6.2,3.5-9.4,5c-0.3,0.1-1.4,0.6-0.4,0.2c-0.6,0.2-1.2,0.5-1.8,0.7
				c-1,0.4-2.1,0.8-3.1,1.2c-2.9,1-5.8,1.9-8.7,2.7c-6.8,1.9-13.7,3.2-20.6,4.3c-20.3,3.1-41.1,3.6-61.6,3
				c-18.2-0.5-36.6-2.1-54.3-6.6c-8.6-2.2-17.1-5-24.8-9.7c-1.1-0.7-2.2-1.4-3.3-2.2c-1.5-1.1,0.9,0.8-0.4-0.3
				c-0.4-0.3-0.7-0.6-1.1-0.9c-2.3-2.1-5.3-4.3-5.4-7.7c0-0.2,0-0.4-0.1-0.6c-0.1-0.4-0.5-0.6-0.9-0.7c-1.1-0.2-2.1,0.5-2.9,1.2
				c-2.2,1.9-4,3.7-4.8,6.5c-0.3,0.9-0.4,1.9-0.3,2.8c0.3,2.5,3,5.3,4.7,7.1c2.2,2.4,5.1,4.3,7.8,6
				C21.2,331.5,27.3,333.8,33.3,335.9z"/>
		</g>
		<g>
			<path fill="none" d="M129.9,47.7"/>
			<path fill="#D1375C" d="M141.1,37.4l-2.4-1.1l0,0l0.3-0.5l0.7-1.2l0.2-0.3v-0.4l-0.1-0.6l1.3-0.8l0.7-0.4l-0.1-0.7l-0.2-1.3
				l-0.1-0.7l-0.7-0.2l-1.9-0.5l2-1.6l-2.5-0.3l-3-0.4v-0.2V26l-0.1-1.1v-0.2l-0.1-0.2l-0.2-0.4l0.9-1l3.9-2.9l2.4-1.8l-3,0.2
				l-3.4,0.3l-0.7-0.6l-0.3-0.2h-0.3l-0.7,0.1c1.2-1.1,2.4-2.3,3.6-3.4l0.5-0.5l-0.5-0.4l-1-0.7v-1.6V11l-0.6,0.1l-2.8,0.7h-0.1l0,0
				l-3.4,2.1l2.3-4.1l0,0l0,0L130.6,9l1,0.8l-3,4.6l-0.5,0.8l0.8-0.4l4.3-2.3l2.2-0.4l-0.1,1.3v0.2l0.2,0.2l0.6,0.5
				c-1.6,1.4-3.2,2.8-4.8,4.2l-1.6,1.4l2.1-0.2l2.4-0.2l0.7,0.7l0.2,0.2h0.4h0.7l-1.7,1.2l-0.1,0.1l-0.1,0.1l-1.4,1.6l-0.4,0.5
				l0.3,0.6l0.4,0.8V26l-0.3,1l-0.4,1.1l1.2,0.2l1.7,0.3l-1.4,1.1l2.1,0.6l3.1,0.9l-1.1,0.7l-0.6,0.4l0.1,0.7l0.1,0.9l-0.2,0.3
				l-4,0.1l-5.3,0.1l4.9,2.2l2.5,1.1l-2.1-0.3l-1.2-0.2l-0.2,1.2l-0.2,1.1l-0.1,0.5l-3.8-0.7l2.7,2.8l2.6,2.7l-0.2,0.3l-0.1,0.1v0.1
				l-0.5,1.2l-0.1,0.4l0.1,0.4l0.4,1.8l-0.4,1l0,0l-3.2-2.3l-2.4-1.7l0.5,2.9l0.3,1.6l-1.2-0.3l-1.6-0.4l0.1,1.6l0.1,1.3H125
				l-1.1-0.3l-0.3,1l-0.4,1.4l-0.8,0.3l-0.3,0.1l-0.2,0.2l-0.2,0.3l-1-1l-0.1-0.1l-0.1-0.1l-1.5-0.7l-1.4-0.7l-0.2,1.5L117,58
				l-1.4-2.6l-0.5-1l-0.9,0.7l-0.6,0.5l-0.7-0.7l-0.2-0.2l-0.2-0.1l-0.8-0.2l-0.8-1.8l-0.2-0.4l-0.4-0.1l-1.1-0.1l-0.5-0.1l-0.3,0.4
				l-0.4,0.5v-2.5v-1l-0.9,0.4l-1.1,0.5l-1-0.2l-0.4-0.1l-0.2,0.3l-2.3,3.5l1.3-4.5l0.1-0.5l-0.4,0.3l-1.9,1.3l-1.4,0.1l0,0l0,0
				l-1.7,0.3l1.7-0.2h1.4l0,0l0,0l1.6-0.9l-2.1,6.4l-0.8,2.4l1.5-2.1l3.7-5.1l0.7,0.2h0.2l0.2-0.1l0.4-0.1l-0.2,3.9l-0.1,2.4l1.5-2
				l1.5-2h0.2l0.7,1.8l0.2,0.4l0.4,0.1l0.9,0.3l1.1,1.1l0.6,0.6l0.7-0.5l0.3-0.3l1,2.2l0.2,0.4l0.4,0.1l1.5,0.4l1.1,0.3l0.2-1.2
				l0.4-3l1.7,1.8l0.9,0.9l0.8-1l0.8-1.1l1-0.4l0.5-0.2l0.2-0.5l0.3-0.8l0.7,0.2l1.6,0.4l-0.1-1.6l-0.1-1.3h0.2l0.5,0.1l0.4-0.3
				l1.1-0.7l0.7-0.4V51l2.3,1.7l1.5,1.1l0.5-1.7l0.4-1.5l0.5-1.3l0.1-0.4l-0.1-0.4l-0.4-1.8l0.3-0.8l0.6-1l0.5-0.8l-0.7-0.7
				l-0.5-0.6l2.9,0.5l-2.2-2.7l-0.7-0.9l3.4,0.5l0.3,0.1l0.3-0.1l1.9-0.8l2.7-1.1L141.1,37.4z"/>
			<g>
				<polygon fill="#E24261" points="140.4,30.2 140.6,31.5 138.7,32.7 138.8,33.9 138.1,35.1 133.5,35.2 140.7,38.4 138.7,39.2 
					133.2,38.4 133,39.5 134.8,41.6 131.5,41.1 134.7,44.5 134.1,45.5 133.6,46.8 134.1,49 133.5,50.3 133.1,51.9 128.4,48.5 
					128.8,51 127.7,51.7 126,51.2 126.1,54.1 124.4,53.7 123.8,55.5 122.6,56 121.6,57.3 119.7,55.4 118.2,54.7 117.6,59.2 
					116.2,58.8 114.6,55.6 113.3,56.6 112.1,55.3 110.9,55 110,52.8 108.9,52.6 107.1,55.1 107.3,50.2 106,50.7 104.9,50.5 
					101.1,56 103.2,49.1 101.3,50.3 99.8,50.4 98.1,50.7 100,46.4 99.3,45.7 98.2,45.3 91.7,49.8 94.6,45.5 91.4,46.4 91,45.1 
					89.9,44.2 94.9,40 87.4,42.5 92.6,38.7 89.2,38.8 88.7,37.6 87,36.8 86.4,35.5 87.2,34 89.9,32.5 84.8,31.6 92.8,30.2 
					90.7,29.1 84.8,27.4 88.1,26.4 92.2,26 91.3,24.6 86.4,22 88.3,21.2 89.1,20.1 87.5,17.9 89.8,17.6 88.6,15.3 96,18.6 
					94.2,15.9 94.3,14.6 96.8,15.1 98.7,15.5 99.2,14.5 99.3,13 100.8,13.3 97.9,7.1 98.8,6 101.4,7.8 104.5,11.5 105.3,10.8 
					104.3,4.8 105.4,3.9 107.9,8.3 107.7,2 110.1,8.7 110.8,4.1 112.3,8.1 113.3,2.2 114.7,3 115.4,9.3 116.5,8.7 118.1,6.5 
					119.5,5.4 120,8.4 123,3.1 121.8,9.8 122.7,10.4 124.4,9.5 127.3,6.8 126.9,9.8 127.4,11.2 130.6,9.1 131.7,9.9 128.8,14.7 
					133.1,12.3 135.9,11.6 135.9,13.5 137,14.3 131.8,19.1 134.6,18.8 135.5,19.7 139.2,19.4 135.1,22.4 133.8,24 134.3,24.9 
					134.3,26 134,27.1 138.1,27.7 136.5,29 				"/>
				<path opacity="0.5" fill="#F78FAD" enable-background="new    " d="M101.4,17.5c-0.6,1.2-1.2,2.3-2.3,2.7
					c-0.8,0.3-2,0.5-1.9,1.4c0.2,0.9,1.9,0.8,2.1,1.8c0.1,0.5-0.3,0.9-0.7,1.2c-1.2,0.9-2.4,1.7-3.7,2.5c1.2,1.4,3.2,1.7,4.6,3
					c0.8,0.8,1.4,1.9,2.2,2.7c0.8,0.8,2.2,1.3,3.1,0.6c-0.1,0.4-0.5,0.7-0.9,0.6c3-0.7,6.1-1.4,9.1-2.2c-1.2-1.2-2.5-2.3-3.7-3.5
					c0.7-1.6,3.3-2.2,2.9-3.9c-0.6-2.6,1.4-3.2,3-5.4c0.2-0.2,0.3-0.5,0.3-0.7c0-0.3-0.2-0.5-0.5-0.5c1.7-1.6,3.3-3.2,5-4.8
					c-0.3-1-1.7-1.1-2.7-0.8c-1,0.4-1.9,1-2.9,1c-1.5-0.1-2.9-1.7-4.2-1c-0.8,0.4-1.1,1.6-2,1.9c-1,0.4-2-0.8-3.1-0.8
					c-0.9,0-1.6,0.8-2.1,1.5C102.3,15.4,101.9,16.5,101.4,17.5z"/>
			</g>
		</g>
	</g>
</g>
</svg>
