<?xml version="1.0" encoding="utf-8"?>
<!-- Generator: Adobe Illustrator 22.0.1, SVG Export Plug-In . SVG Version: 6.00 Build 0)  -->
<svg version="1.1" id="레이어_1" xmlns="http://www.w3.org/2000/svg" xmlns:xlink="http://www.w3.org/1999/xlink" x="0px"
	 y="0px" viewBox="0 0 350 350" enable-background="new 0 0 350 350" xml:space="preserve">
<g>
	<path fill="#BCE4F8" d="M273.4,34.9c-14.9-10.3-31.5-18.2-49.4-23.3c-8-2.3-16.3-4-24.8-5.1c-5.9-0.7-11.8-1.2-17.9-1.3
		c-1.2,0-2.4,0-3.7,0c-93.3,0-169,75.7-169,169c0,16.2,2.3,31.8,6.5,46.6c1.7,5.8,3.6,11.4,5.9,16.9c3.2,7.8,6.9,15.4,11.2,22.6
		c9.4,15.8,21.2,29.9,35.1,41.8c29.6,25.5,68.2,41,110.3,41c93.3,0,169-75.7,169-169C346.7,116.4,317.6,65.4,273.4,34.9z"/>
	<g>
		<path fill="#BCE4F8" d="M199.2,6.6L21,237.8c3.2,7.8,6.9,15.4,11.2,22.6L224,11.7C216,9.4,207.7,7.7,199.2,6.6z"/>
		<path fill="#BCE4F8" d="M177.7,5.2c-93.3,0-169,75.7-169,169c0,16.2,2.3,31.8,6.5,46.6L181.4,5.3C180.1,5.3,178.9,5.2,177.7,5.2z"
			/>
		<path fill="#BCE4F8" d="M273.4,34.9l-206,267.3c29.6,25.5,68.2,41,110.3,41c93.3,0,169-75.7,169-169
			C346.7,116.4,317.6,65.4,273.4,34.9z"/>
		<path fill="#B5E1FC" d="M224,11.7L32.3,260.4c9.4,15.8,21.2,29.9,35.1,41.8l206-267.3C258.5,24.7,241.8,16.7,224,11.7z"/>
		<path opacity="0.54" fill="#E9F6FF" d="M224,11.7L32.3,260.4c9.4,15.8,21.2,29.9,35.1,41.8l206-267.3
			C258.5,24.7,241.8,16.7,224,11.7z"/>
		<path fill="#B5E1FC" d="M181.4,5.3L15.2,220.8c1.7,5.8,3.6,11.4,5.9,16.9L199.2,6.6C193.4,5.8,187.4,5.4,181.4,5.3z"/>
		<path opacity="0.54" fill="#E9F6FF" d="M181.4,5.3L15.2,220.8c1.7,5.8,3.6,11.4,5.9,16.9L199.2,6.6C193.4,5.8,187.4,5.4,181.4,5.3
			z"/>
	</g>
</g>
</svg>
