<?xml version="1.0" encoding="utf-8"?>
<!-- Generator: Adobe Illustrator 22.0.1, SVG Export Plug-In . SVG Version: 6.00 Build 0)  -->
<svg version="1.1" id="레이어_1" xmlns="http://www.w3.org/2000/svg" xmlns:xlink="http://www.w3.org/1999/xlink" x="0px"
	 y="0px" viewBox="0 0 89.3 350" enable-background="new 0 0 89.3 350" xml:space="preserve">
<g>
	<g>
		<g>
			<path fill="#E2E2E2" d="M23.9,15c-2.3,3.2-4.3,6.5-6,10.1c-1.7,3.5-3.1,7.1-4.2,10.9C11.4,43.3,10,51,9.3,58.7
				c-0.7,7.7-0.5,15.4,0.8,22.9c1.3,7.5,3.8,14.7,7.6,21.2c3.8,6.5,8.8,12.3,13.9,18.4l1.9,2.3l0.9,1.2c0.3,0.4,0.6,0.7,1,1.2
				c1.4,1.8,2.5,3.8,3.3,5.9c1.6,4.2,2.1,8.5,2.2,12.6c0.1,2.1,0,4.1-0.1,6.1l-0.4,5.9l-0.4,5.9l-0.2,5.9l-0.9,23.5
				c-0.3,7.8-0.8,15.7-1,23.5l-0.9,23.5c-0.7,15.7-1.3,31.4-2.2,47l-1.2,23.5L32.8,321l-0.3,5.9c-0.1,1.9-0.1,3.8,0,5.6
				c0.2,1.8,0.5,3.6,1.2,5.2c0.7,1.5,1.8,2.8,3.3,3.7c1.5,0.9,3.3,1.3,5.1,1.6c0.9,0.2,1.9,0.2,2.8,0.3c0.9,0,1.9,0,2.8-0.1
				c1.9-0.1,3.8-0.4,5.4-1.2c1.7-0.8,3.1-2,4-3.7c0.9-1.6,1.5-3.5,1.8-5.4c0.3-1.9,0.4-3.9,0.5-5.8c0.1,2,0.2,3.9,0,5.9
				c-0.2,2-0.5,4-1.4,5.8c-0.9,1.9-2.4,3.5-4.2,4.5c-1.8,1-3.9,1.5-5.9,1.8c-1,0.2-2,0.2-3,0.3c-1,0-2,0-3.1-0.1
				c-2-0.2-4.1-0.6-6.1-1.6c-2-1-3.7-2.7-4.7-4.7c-1-2-1.5-4.1-1.8-6.1c-0.3-2.1-0.3-4.1-0.3-6.1l0.1-5.9l0.1-11.8l0.4-23.6
				c0.6-31.4,1.3-62.8,2.6-94.2l1.1-23.5l0.3-5.9l0.4-5.9l0.4-5.9c0.1-1.9,0.2-3.8,0.2-5.6c0-3.7-0.4-7.3-1.6-10.5
				c-0.6-1.6-1.3-3.1-2.3-4.4c-0.2-0.3-0.5-0.7-0.8-1.1l-0.9-1.1l-1.8-2.3c-4.9-6.1-10-12.3-13.9-19.6c-3.8-7.3-6.3-15.2-7.3-23.2
				c-1-8-0.8-16.1,0.4-24c0.6-3.9,1.4-7.8,2.4-11.7c1-3.8,2.1-7.7,3.6-11.4C13.3,31.6,15,28,17,24.5C19,21.1,21.3,17.9,23.9,15z"/>
		</g>
		<path fill="#FFFFFF" d="M74.9,103.7c8.7-16.1,9.6-34.6,6.3-52.3C78.8,38.2,74.7,25.7,66,15C59.6,7.1,52.3,2.9,45,2.6
			C37.6,2.9,30.3,7.1,23.9,15C15.3,25.7,11.2,38.2,8.7,51.4C5.4,69.1,6.3,87.6,15,103.7c4.6,8.5,11.6,16.1,17.6,23.7
			c5,6.4,5.3,15.2,4.8,23.7c-0.2,3.8-0.6,7.6-0.7,11c-0.7,16-1.4,31.9-2,47.9c-1.4,39-2.9,78-4,117.1c-0.4,12.6,3.4,17,14.4,17.3
			c11-0.2,14.7-4.7,14.4-17.3c-1.1-39-2.6-78-4-117.1c-0.7-16-1.4-31.9-2-47.9c-0.1-3.4-0.5-7.1-0.7-11c-0.5-8.5-0.2-17.3,4.8-23.7
			C63.4,119.8,70.3,112.2,74.9,103.7z"/>
		<path opacity="0.3" fill="#E2E2E2" d="M64.7,42.6c2.1,1.9,3.7,4.4,4.9,7c1.2,2.6,2.1,5.4,2.6,8.3c1,5.7,0.9,11.6-0.3,17.2
			c-1.1,5.6-3.3,11.1-6.4,15.9c-1.6,2.4-3.4,4.7-5.6,6.6c-2.1,1.9-4.6,3.6-7.3,4.6c1.4-2.5,2.7-4.8,3.7-7.2c1-2.4,2-4.8,2.8-7.2
			c1.6-4.8,2.9-9.7,3.9-14.6c1-4.9,1.7-9.9,2.1-14.9C65.5,53.3,65.4,48.3,64.7,42.6z"/>
		<g opacity="0.4">
			<path fill="#E2E2E2" d="M46.1,139.4c-0.2,0-0.3,0-0.5,0c-1.4,0.1-3,0.3-4,1.4c-0.4,0.4-0.9,0.9-1.4,0.7c-0.3-0.1-0.4-0.4-0.4-0.7
				c-0.5-2.3,1.7-2.8,3.5-2.9c1.6-0.1,5.1-0.2,6.5,0.6C48.7,139.2,47.4,139.4,46.1,139.4z"/>
		</g>
	</g>
</g>
</svg>
