<?xml version="1.0" encoding="utf-8"?>
<!-- Generator: Adobe Illustrator 22.0.1, SVG Export Plug-In . SVG Version: 6.00 Build 0)  -->
<svg version="1.1" id="레이어_1" xmlns="http://www.w3.org/2000/svg" xmlns:xlink="http://www.w3.org/1999/xlink" x="0px"
	 y="0px" viewBox="0 0 350 350" enable-background="new 0 0 350 350" xml:space="preserve">
<g>
	<circle fill="#071FBA" cx="174.9" cy="174.4" r="164.4"/>
	<g>
		<path fill="#071F9E" d="M335.1,151.8c4.5,21.5,3.3,44.5-2.8,66.5c-6.1,22-17.3,42.8-32.4,60.6c-15.1,17.8-34.2,32.5-55.7,42.5
			c-10.7,5.1-22.1,8.8-33.7,11.5c-11.6,2.6-23.5,3.8-35.4,3.9c-5.6,0-11.9-0.3-17.7-0.9c-5.9-0.6-11.8-1.4-17.6-2.6
			c-11.7-2.5-23.1-6.1-33.9-11.1c-21.7-10-40.9-25-55.7-43.1c-29.7-36.3-42.2-83.8-36.2-127.2c3.9,21.6,10.2,42.1,19.4,60.8
			c9.2,18.7,21.1,35.6,35.4,49.6c14.3,13.9,30.9,25,49.1,32.2c9,3.6,18.4,6.3,28,8c4.8,0.9,9.6,1.6,14.5,2c5,0.4,9.5,0.6,14.7,0.6
			c39.1,0.1,77.7-15.4,106.8-43.1C311,234.2,330.5,195.4,335.1,151.8z"/>
	</g>
	<g>
		<circle cx="82.1" cy="120.1" r="18"/>
		<g>
			<path fill="#071F9E" d="M85.4,134c-4.8,1.8-10.6,0-14.3-3.7c-3.7-3.7-5.5-9.5-3.7-14.2c1.7,4.7,3.8,8.2,6.8,11.2
				C77.2,130.2,80.7,132.3,85.4,134z"/>
		</g>
	</g>
	<g>
		<ellipse transform="matrix(3.327788e-02 -0.9994 0.9994 3.327788e-02 -104.9274 231.901)" cx="67.4" cy="170.2" rx="18" ry="18"/>
		<g>
			<path fill="#071F9E" d="M70.7,184.1c-4.8,1.8-10.6,0-14.3-3.7c-3.7-3.7-5.5-9.5-3.7-14.3c1.7,4.7,3.8,8.2,6.8,11.2
				C62.5,180.3,66.1,182.4,70.7,184.1z"/>
		</g>
	</g>
	<g>
		<circle cx="118.1" cy="157.3" r="18"/>
		<g>
			<path fill="#071F9E" d="M121.4,171.2c-4.8,1.8-10.5,0-14.3-3.7c-3.7-3.7-5.5-9.5-3.7-14.3c1.7,4.7,3.8,8.2,6.8,11.2
				C113.1,167.4,116.7,169.5,121.4,171.2z"/>
		</g>
	</g>
</g>
</svg>
