<?xml version="1.0" encoding="utf-8"?>
<!-- Generator: Adobe Illustrator 22.0.1, SVG Export Plug-In . SVG Version: 6.00 Build 0)  -->
<svg version="1.1" id="레이어_1" xmlns="http://www.w3.org/2000/svg" xmlns:xlink="http://www.w3.org/1999/xlink" x="0px"
	 y="0px" viewBox="0 0 350 350" enable-background="new 0 0 350 350" xml:space="preserve">
<g>
	<g>
		<circle fill="#FFBC27" cx="173.8" cy="170" r="167.3"/>
		<path fill="#FFAB00" d="M173.8,2.7c21.9,0,43.8,4.2,64.1,12.5c20.3,8.2,39.2,20.4,55,35.8c15.8,15.4,28.8,33.8,37.7,54.1
			c9,20.3,14,42.5,14.5,65c0.5,22.4-3.3,45.1-11.5,66.2c-8.3,21.1-20.7,40.6-36.6,57c-15.9,16.3-35.1,29.6-56.2,38.6
			c-10.6,4.5-21.6,7.9-32.8,10.2c-11.3,2.3-22.7,3.4-34.2,3.4c-22.9,0-45.9-4.6-67-13.6c-21.1-8.9-40.3-22.2-56.2-38.6
			c-15.9-16.3-28.3-35.9-36.6-57C5.7,215.1,1.9,192.4,2.4,170c0.5-22.4,5.5-44.6,14.5-65c8.9-20.4,21.9-38.8,37.7-54.1
			c15.8-15.4,34.6-27.5,55-35.8C130,6.9,151.9,2.6,173.8,2.7z M173.8,2.7c-11,0-21.9,1.1-32.6,3.3c-10.7,2.2-21.2,5.5-31.3,9.7
			c-20.1,8.5-38.4,21.2-53.6,36.8c-15.2,15.6-27,34.3-34.8,54.4C13.6,127,10,148.6,10.5,170c0.5,21.4,5.3,42.5,13.9,61.9
			c8.5,19.4,20.9,36.9,36,51.5c15.1,14.7,33,26.2,52.3,34c19.4,7.8,40.2,11.9,61.1,11.9c20.9,0,41.7-4,61.1-11.8
			c19.4-7.8,37.3-19.3,52.4-34c15.1-14.6,27.5-32.1,36-51.5c8.6-19.4,13.4-40.5,13.9-61.9c0.5-21.4-3.1-43-10.9-63.1
			c-7.9-20.1-19.7-38.8-34.9-54.4c-15.2-15.6-33.4-28.3-53.6-36.8c-10.1-4.2-20.6-7.5-31.3-9.7C195.7,3.8,184.7,2.7,173.8,2.7z"/>
	</g>
	<g>
		<circle fill="#283B42" cx="120" cy="128.1" r="24.1"/>
		<circle fill="#283B42" cx="227.6" cy="128.1" r="24.1"/>
	</g>
	<g>
		<path fill="#283B42" d="M265.9,185.6H81.6c0,29.4,13.8,55.6,35.3,72.5c10.7-20.5,32.2-34.4,56.9-34.4s46.2,14,56.9,34.4
			C252.1,241.2,265.9,215,265.9,185.6z"/>
		<path fill="#F71445" d="M173.8,223.6c-24.7,0-46.2,14-56.9,34.4c15.7,12.3,35.4,19.7,56.9,19.7s41.2-7.4,56.9-19.7
			C219.9,237.6,198.5,223.6,173.8,223.6z"/>
	</g>
</g>
</svg>
