<?xml version="1.0" encoding="utf-8"?>
<!-- Generator: Adobe Illustrator 22.0.1, SVG Export Plug-In . SVG Version: 6.00 Build 0)  -->
<svg version="1.1" id="레이어_1" xmlns="http://www.w3.org/2000/svg" xmlns:xlink="http://www.w3.org/1999/xlink" x="0px"
	 y="0px" viewBox="0 0 350 350" enable-background="new 0 0 350 350" xml:space="preserve">
<g>
	<g>
		<circle fill="#FFBC1E" cx="173.8" cy="171.3" r="167.3"/>
		<path fill="#FFAB00" d="M173.8,4c21.9,0,43.8,4.2,64.1,12.5c20.3,8.2,39,20.5,54.9,35.8c15.8,15.4,28.7,33.8,37.5,54.1
			c8.9,20.3,13.8,42.5,14.3,64.8c0.5,22.3-3.4,44.9-11.7,65.9c-8.3,21-20.7,40.4-36.5,56.7c-15.8,16.3-35,29.4-55.9,38.3
			c-10.5,4.4-21.4,7.8-32.6,10.1c-11.2,2.2-22.6,3.4-34,3.4c-11.4,0-22.8-1.2-34-3.4c-11.2-2.2-22.1-5.7-32.6-10.1
			c-21-8.9-40.1-22-56-38.2c-15.8-16.3-28.3-35.7-36.5-56.7c-8.3-21-12.2-43.6-11.7-65.9c0.5-22.4,5.4-44.5,14.3-64.8
			C26,86.1,39,67.7,54.8,52.4C70.6,37,89.3,24.8,109.6,16.5C129.9,8.3,151.8,4,173.8,4z M173.8,4c-11,0-21.9,1.1-32.6,3.3
			c-10.7,2.1-21.2,5.4-31.3,9.7c-20.1,8.5-38.5,21.1-53.7,36.7C41,69.3,29,88,21.1,108.1c-7.9,20.1-11.6,41.8-11.2,63.2
			c0.5,21.5,5.2,42.7,13.7,62.1c4.3,9.7,9.5,19,15.5,27.7c6,8.7,13,16.8,20.5,24.1c15.2,14.7,33.1,26.4,52.6,34.3
			c19.5,7.9,40.4,12,61.4,12c10.5,0,21-1,31.3-3c10.3-2,20.4-5,30.1-8.9c19.5-7.9,37.4-19.6,52.6-34.3c15.2-14.7,27.6-32.4,36-51.9
			c8.6-19.5,13.3-40.7,13.7-62.2c0.5-21.5-3.3-43.1-11.2-63.2c-7.9-20.1-19.8-38.8-35-54.4c-15.2-15.6-33.5-28.2-53.7-36.7
			c-10.1-4.2-20.6-7.5-31.3-9.7C195.6,5.2,184.7,4.1,173.8,4z"/>
	</g>
	<g>
		<path fill="#233840" d="M119.6,219.2c30.4,28.3,73.4,28.3,103.8,0c9.1-8.5-4.6-22.1-13.7-13.7c-22.6,21-53.9,21-76.5,0
			C124.1,197.1,110.4,210.7,119.6,219.2L119.6,219.2z"/>
	</g>
	<g>
		<circle fill="#233840" cx="229.9" cy="153.3" r="24.1"/>
		<path fill="#233840" d="M157.9,149.4c-16.7-10.8-33.5-21.5-50.2-32.3c-13.1-8.4-25.2,12.5-12.2,20.8c7.3,4.7,14.5,9.3,21.8,14
			c-5.5,0.7-10.9,1.3-16.4,2c-6.5,0.8-12.1,5-12.1,12.1c0,5.9,5.6,12.9,12.1,12.1c17-2.1,33.9-4.1,50.9-6.2
			C163.4,170.4,168.7,156.3,157.9,149.4z"/>
	</g>
</g>
</svg>
