<?xml version="1.0" encoding="utf-8"?>
<!-- Generator: Adobe Illustrator 22.0.1, SVG Export Plug-In . SVG Version: 6.00 Build 0)  -->
<svg version="1.1" id="레이어_1" xmlns="http://www.w3.org/2000/svg" xmlns:xlink="http://www.w3.org/1999/xlink" x="0px"
	 y="0px" viewBox="0 0 350 350" enable-background="new 0 0 350 350" xml:space="preserve">
<g>
	<path fill="#4D2B10" stroke="#4D2B10" stroke-width="3" stroke-miterlimit="10" d="M323.5,179.8c-0.3-0.8-0.7-1.6-1.2-2.4
		c-0.2-0.4-0.4-0.9-0.7-1.3l-0.8-1.1c-0.5-0.8-1.1-1.5-1.7-2.2c-0.5-0.7-1.2-1.5-1.9-2.2c-0.3-0.4-0.7-0.7-1-1.1
		c-1.1-1.2-2.2-2.4-3.2-4c-0.8-1.2-1.4-2.2-1.8-3.4c-0.4-1.1-0.6-2.3-0.8-3.4v-0.2c-0.2-1.1-0.3-2.3-0.3-3.4v-3.2
		c0-2.1,0.1-4.2,0.3-6.3l1-12.2c0.1-1,0.1-2.1,0.2-3.2c0.2-3,0.4-6.1,0.9-9.2c0.2-1.7,0.6-3.3,1-4.9c0.2-0.9,0.4-1.7,0.6-2.6
		c0.3-1.4,0.6-3,0.7-4.3c0.2-3.5-0.5-7.2-2.2-10.8c-1.6-3.3-3.9-6.5-6.8-9.3c-1.1-1.1-2.2-2.1-3.3-2.9c-1.7-1.4-3.6-2.9-6-4.6
		c-3.3-2.5-6.5-5-9.3-8.3c-0.8-0.9-1.4-1.8-2-2.6l-1.7-2.5c-1.2-1.6-2.4-3.2-3.7-4.8c-3-3.5-5.8-6.3-8.6-8.5c-2.7-2.2-5.8-3.6-9-5.2
		c-0.5-0.3-1.1-0.5-1.6-0.8c-1.2-0.5-2.3-1-3.4-1.5c-6-2.6-12.2-5.3-17.3-9.4c-0.2-0.2-0.4-0.3-0.6-0.4l-0.2-0.1
		c-1.2-1.1-2.4-2.2-3.7-3.3c-6.7-6-13.7-12.1-22.7-13.3c-0.7-0.1-1.5-0.2-2.3-0.2h-3.2c-0.4,0-0.6,0-0.9,0.1l-2.3,0.3
		c-0.2,0-0.3,0.1-0.5,0.1c-0.1,0-0.2,0-0.3,0h-0.1c-0.2,0.1-0.3,0.1-0.5,0.1s-0.4,0.1-0.6,0.1c-2.2,0.4-4.4,0.9-6.6,1.4
		c-3.6,0.8-7.3,1.7-10.8,2c-0.2,0-0.4,0.1-0.6,0.1c-0.1,0-0.1,0-0.2,0h-0.3c-3,0.1-5.5-0.2-7.8-0.9c-1.2-0.4-2.4-0.8-3.6-1.2
		c-2.5-0.9-4.9-1.7-7.3-2.3c-1.8-0.4-3.3-0.7-4.9-0.9c-4.5-0.4-8.2-0.1-11.7,0.8c-6.9,1.7-13,5.8-18.9,9.8c-0.9,0.6-1.8,1.2-2.7,1.8
		c-0.2,0.1-0.4,0.3-0.6,0.4c-0.1,0.1-0.3,0.2-0.5,0.3c-2.3,1.5-4.9,2.7-7.4,3.9c-1.5,0.7-2.9,1.4-4.3,2.1c-2.4,1.3-4.5,2.6-6.1,4
		c-1.9,1.6-3.6,3.5-5.1,5.3c-0.7,0.9-1.4,1.7-2.1,2.6c-2.3,2.8-4.7,5.8-7.7,8.4c-3.4,2.9-7.9,5.1-13.4,6.6c-2,0.6-4.1,1.1-6.1,1.6
		c-2.8,0.6-5.4,1.2-7.9,2.1c-4.7,1.4-8.6,3.8-11.7,7.1c-2.9,2.9-5.3,6.6-7.5,11.7c-1.9,4.5-3.1,9.2-4.1,13.6c-0.4,2-0.8,4-1.2,6
		c-0.5,2.7-1.1,5.5-1.7,8.3c-1.1,5.2-2.6,10.1-4.3,14.4c-0.8,2-1.6,3.9-2.4,5.8c-1.2,2.7-2.3,5.2-3.2,7.7c-1.8,4.8-2.6,9.2-2.4,13
		c0.1,1.9,0.5,3.9,1.3,6.2c0.9,2.3,1.8,4.2,2.9,5.9c1.4,2.3,3.1,4.6,4.8,7c1.2,1.6,2.4,3.2,3.5,4.9c1.7,2.5,3,4.6,4,6.8
		c0.9,1.9,2.1,4.8,2.6,8c1,5.6,0,10.8-0.9,15.5l-0.1,0.4c-0.5,2.4-0.9,4.7-1.3,7c-0.2,1-0.3,2.1-0.4,3.2v0.3
		c-0.1,1.1-0.2,2.3-0.2,3.4c-0.2,4.7,0.1,9.3,1,13.5c1,4.6,2.5,8.7,4.7,12.2c0.2,0.2,0.3,0.4,0.4,0.6c0.1,0.2,0.2,0.5,0.4,0.7
		l0.9,1.2c0.4,0.6,0.8,1,1.2,1.4c0.3,0.3,0.6,0.6,0.9,1c0.8,0.7,1.6,1.4,2.4,2.1l0.5,0.4c0.6,0.6,1.4,1.1,2.1,1.6
		c0.6,0.4,1.3,0.8,2,1.2c1.3,0.9,2.7,1.7,4.2,2.7c2.3,1.4,4.5,3.2,6.4,5.1c3.8,3.7,6.6,7.8,9.2,11.7l0.4,0.6
		c5.5,8,11.8,14.9,18.8,20.5c1.6,1.4,3.2,2.6,4.9,3.8l0.7,0.5c1.8,1.3,3.8,2.6,5.7,3.6c1.9,1,3.8,1.9,5.6,2.3
		c1.9,0.5,3.5,0.6,5.7,0.4c1.1,0,2.3-0.2,3.6-0.3c1.2-0.2,2.3-0.3,3.6-0.4c3.1-0.2,5.8-0.2,8.2,0.2l3.9,0.5l3.8,0.9
		c2.5,0.5,4.9,1.3,7.3,2.1l13.9,4.4l3.3,0.9c1.1,0.3,2.2,0.6,3.3,0.8c2.1,0.5,4.2,0.8,6.7,1c1.5,0.1,3.1,0.2,4.6,0.2
		c7.4,0,14.7-1.5,21-4.7c0.8-0.5,1.7-1.1,2.6-1.9c0.5-0.3,1-0.8,1.6-1.2c2-1.7,4.6-3.1,6.8-3.8l0.6-0.2c0.4-0.1,0.8-0.2,1.1-0.3
		c0.4,0,0.8-0.1,1.1-0.2c0.2-0.1,0.4-0.2,0.6-0.2c0.6-0.1,1.1-0.2,1.7-0.3c0.6-0.1,1.2-0.2,1.7-0.3c1.4-0.2,2.8-0.3,4.1-0.4
		c0.8-0.1,1.6-0.1,2.3-0.2c4.3-0.3,7.6-0.7,10.4-1.8c1.6-0.7,2.9-1.6,4.2-2.5c1.6-1.2,3.2-2.4,4.7-3.7c3-2.4,6.1-5,9.2-7.7
		c0.7-0.7,1.5-1.3,2.2-2c0.8-0.7,1.5-1.3,2.3-2l2.2-2l1.1-1.1l1.3-1.2c3.8-3.2,7.9-5.3,11.5-7l1.3-0.6c3.2-1.5,6.3-3,9.2-4.7
		c3.6-2.2,6.4-4.5,8.6-6.9c2.6-2.8,4.4-5.8,5.4-8.7c1.1-3.4,1.1-7.1,0.9-10.6c0-0.8-0.1-1.6-0.1-2.5c-0.1-3.3-0.3-6.9,0.4-10.7
		c0.6-4.1,2.2-8.3,4.8-12.7c2.2-3.8,4.7-7.3,7.1-10.6c0.3-0.4,0.6-0.9,0.9-1.3c0.9-1.2,1.8-2.4,2.5-3.6c1-1.5,2-3.2,2.9-4.9
		c1.9-3.7,3-7,3.4-10.4C325.4,186.3,324.8,182.9,323.5,179.8z M50.5,137.2l-3.1,5.4c-0.1,0.3-0.3,0.4-0.6,0.5c-0.2,0-0.4,0-0.7-0.2
		c-0.3-0.1-0.4-0.3-0.5-0.6c0-0.2,0-0.4,0.2-0.7l3.1-5.4c0.1-0.3,0.3-0.4,0.6-0.5c0.1,0,0.1,0,0.2,0c0.2,0,0.3,0,0.4,0.2l0.1,0.1
		c0.2,0.1,0.3,0.3,0.4,0.5C50.7,136.7,50.6,137,50.5,137.2z M53.6,113.2c-0.3-0.4-0.4-1-0.1-1.4c0.4-0.4,1-0.4,1.4-0.1l4.6,4.2
		c0.4,0.4,0.4,1,0.1,1.4c-0.4,0.4-1,0.4-1.4,0.1L53.6,113.2z M61.9,241.1c-0.1,0.3-0.2,0.5-0.4,0.6c-0.2,0.2-0.4,0.2-0.7,0.2
		s-0.5-0.2-0.7-0.4l-3.5-5.2c-0.2-0.2-0.3-0.4-0.2-0.7s0.3-0.5,0.5-0.7c0.2-0.1,0.4-0.2,0.6-0.2l0,0c0.3,0,0.5,0.2,0.7,0.4l3.5,5.2
		C61.9,240.5,62,240.8,61.9,241.1z M62.9,218.3c-0.4,0.4-1,0.4-1.4,0.1l-4.6-4.2c-0.4-0.4-0.4-1-0.1-1.4c0.3-0.2,0.5-0.3,0.8-0.3
		c0.2,0,0.5,0.1,0.6,0.2l4.6,4.2C63.2,217.3,63.3,217.9,62.9,218.3z M68.3,180.8c-0.5,0.3-1.1,0.2-1.4-0.3l-3.5-5.2
		c-0.2-0.2-0.3-0.4-0.2-0.7s0.3-0.5,0.5-0.7c0.2-0.1,0.4-0.2,0.6-0.2c0.3,0,0.6,0.2,0.8,0.4l3.5,5.2
		C68.8,179.8,68.7,180.4,68.3,180.8z M80.6,151.9l-4.4,4.4c-0.4,0.4-1,0.4-1.4,0c-0.2-0.2-0.3-0.4-0.3-0.7s0.1-0.5,0.3-0.7l4.4-4.4
		c0.2-0.2,0.4-0.3,0.7-0.3c0.3,0,0.5,0.1,0.7,0.3s0.3,0.4,0.3,0.7C80.9,151.5,80.8,151.7,80.6,151.9z M86,122.4L86,122.4
		c-0.2-0.2-0.3-0.3-0.4-0.5c-0.1-0.2-0.1-0.6,0.1-0.9l3-5.4c0.1-0.3,0.3-0.4,0.6-0.5c0.2,0,0.4,0,0.7,0.2c0.3,0.1,0.4,0.3,0.5,0.6
		c0,0.2,0,0.4-0.2,0.7l-3.1,5.4c-0.1,0.3-0.3,0.4-0.6,0.5C86.5,122.6,86.2,122.6,86,122.4z M91.5,219.2l-3.1,5.4
		c-0.1,0.3-0.3,0.4-0.6,0.5c-0.2,0-0.4,0-0.7-0.2c-0.3-0.1-0.4-0.3-0.5-0.6c0-0.2,0-0.4,0.2-0.7l3.1-5.4c0.1-0.3,0.3-0.4,0.6-0.5
		c0.1,0,0.1,0,0.2,0c0.2,0,0.3,0,0.5,0.1l0.1,0.1c0.1,0.1,0.2,0.2,0.3,0.4C91.7,218.5,91.7,218.9,91.5,219.2z M96.6,178.3
		c-0.2,0.1-0.5,0.2-0.7,0.2l-6.2-0.4c-0.6,0-1-0.5-1-1c0.1-0.6,0.6-1,1.1-1l6.1,0.4c0.6,0.1,1,0.5,1,1.1
		C96.9,177.9,96.8,178.1,96.6,178.3z M98.8,73.5l-3.1,5.4c-0.1,0.3-0.3,0.4-0.6,0.5c-0.2,0-0.4,0-0.7-0.2c-0.3-0.1-0.4-0.3-0.5-0.6
		c0-0.2,0-0.4,0.2-0.7l3.1-5.4c0.1-0.3,0.3-0.4,0.6-0.5c0.1,0,0.1,0,0.2,0c0.2,0,0.3,0,0.4,0.1l0.1,0.1c0.2,0.1,0.3,0.3,0.4,0.5
		S99,73.2,98.8,73.5z M229,57l5.7-2.5c0.1-0.1,0.3-0.1,0.4-0.1c0.4,0,0.7,0.2,1,0.6c0.2,0.6,0,1.1-0.5,1.4l-5.7,2.5
		c-0.6,0.2-1.1,0-1.4-0.5C228.3,57.8,228.5,57.2,229,57z M216.7,107.3l4.4-4.4c0.4-0.4,1-0.4,1.4,0c0.2,0.2,0.3,0.4,0.3,0.7
		c0,0.3-0.1,0.5-0.3,0.7l-4.4,4.4c-0.4,0.4-1,0.4-1.4,0C216.3,108.3,216.3,107.7,216.7,107.3z M203.8,74.7c0.3-0.2,0.5-0.3,0.8-0.3
		c0.2,0,0.5,0.1,0.6,0.2l4.6,4.2c0.4,0.4,0.4,1,0.1,1.4c-0.4,0.4-1,0.4-1.4,0.1l-4.6-4.2C203.5,75.7,203.4,75.1,203.8,74.7z
		 M193.1,42.5c0.5-0.2,1,0,1.3,0.6l2.1,5.9c0.2,0.6,0,1.1-0.6,1.3s-1.1-0.1-1.3-0.6l-2.1-5.9C192.4,43.3,192.6,42.7,193.1,42.5z
		 M190.6,96.2l3.1-5.4c0.1-0.3,0.3-0.4,0.6-0.5c0.1,0,0.1,0,0.2,0c0.2,0,0.4,0,0.6,0.1c0.3,0.1,0.4,0.3,0.5,0.6c0,0.2,0,0.4-0.2,0.7
		l-3.1,5.4c-0.1,0.3-0.3,0.4-0.6,0.5c-0.2,0-0.4,0-0.7-0.2c-0.3-0.1-0.4-0.3-0.5-0.6C190.4,96.7,190.4,96.4,190.6,96.2z M171.6,57.2
		c0.2-0.2,0.4-0.4,0.7-0.4l6.1-0.6c0.3-0.1,0.6,0,0.8,0.2c0.1,0.1,0.3,0.3,0.3,0.6c0.1,0.3,0,0.6-0.2,0.8c-0.1,0.1-0.3,0.3-0.6,0.3
		l-6.2,0.6c-0.3,0.1-0.6,0-0.8-0.2c-0.1-0.1-0.3-0.3-0.3-0.6C171.4,57.6,171.4,57.4,171.6,57.2z M158.7,79.8c0.4-0.4,1-0.5,1.3-0.1
		l4.6,4.2c0.4,0.4,0.4,1,0.1,1.4c-0.4,0.4-1,0.4-1.4,0.1l-4.6-4.2c-0.2-0.2-0.3-0.4-0.3-0.7S158.5,80,158.7,79.8z M137.4,36
		c0.1-0.3,0.3-0.5,0.6-0.6c0.5-0.2,1,0,1.3,0.7l2.1,5.9c0.1,0.2,0.1,0.5,0,0.7s-0.3,0.4-0.6,0.5c-0.6,0.2-1.1-0.1-1.3-0.6l-2.1-5.9
		C137.3,36.5,137.3,36.2,137.4,36z M132,75.4c0.5-0.2,1,0,1.3,0.7l2.1,5.9c0.1,0.2,0.1,0.5,0,0.7s-0.3,0.4-0.6,0.5
		c-0.6,0.2-1.1-0.1-1.3-0.6l-2.1-5.9C131.3,76.2,131.5,75.6,132,75.4z M123,127.3l3.1-5.4c0.1-0.3,0.3-0.4,0.6-0.5
		c0.2,0,0.4,0,0.7,0.2c0.3,0.1,0.4,0.3,0.5,0.6c0,0.2,0,0.4-0.2,0.7l-3.1,5.4c-0.1,0.3-0.3,0.4-0.6,0.5c-0.2,0-0.4,0-0.7-0.2
		c-0.2-0.2-0.3-0.4-0.4-0.6C122.8,127.8,122.9,127.5,123,127.3z M109.3,284.9c-0.1,0.3-0.2,0.5-0.4,0.6c-0.5,0.3-1.1,0.2-1.4-0.3
		L104,280c-0.2-0.2-0.3-0.4-0.2-0.7c0.1-0.3,0.3-0.5,0.5-0.7c0.2-0.1,0.4-0.2,0.6-0.2c0.3,0,0.6,0.2,0.7,0.5l3.5,5.2
		C109.3,284.3,109.4,284.6,109.3,284.9z M110.2,262c-0.4,0.4-1,0.4-1.4,0.1l-4.6-4.2c-0.4-0.4-0.4-1-0.1-1.4
		c0.3-0.2,0.5-0.3,0.8-0.3c0.2,0,0.5,0.1,0.6,0.2l4.6,4.2C110.5,261,110.5,261.6,110.2,262z M110.7,91.6c-0.2-0.2-0.3-0.4-0.3-0.7
		v-0.1c-0.1-0.3,0-0.6,0.2-0.8c0.1-0.1,0.3-0.3,0.6-0.3l6.2-0.6h0.1c0.2,0,0.4,0.1,0.7,0.3c0.1,0.1,0.3,0.3,0.3,0.6
		c0.1,0.3,0,0.6-0.2,0.8c-0.1,0.1-0.3,0.3-0.6,0.3l-6.3,0.6C111.1,91.8,110.9,91.7,110.7,91.6z M119.3,229.6l-4.4,4.4
		c-0.4,0.4-1,0.4-1.4,0c-0.2-0.2-0.3-0.4-0.3-0.7s0.1-0.5,0.3-0.7l4.4-4.4c0.2-0.2,0.5-0.3,0.7-0.3c0.3,0,0.6,0.1,0.7,0.3
		c0.2,0.2,0.3,0.4,0.3,0.6C119.6,229.1,119.5,229.4,119.3,229.6z M138.8,262.9l-3.1,5.4c-0.1,0.3-0.3,0.4-0.6,0.5
		c-0.2,0-0.4,0-0.7-0.2c-0.3-0.1-0.4-0.3-0.5-0.6c0-0.2,0-0.4,0.2-0.7l3.1-5.4c0.1-0.3,0.3-0.4,0.6-0.5c0.1,0,0.1,0,0.2,0
		c0.2,0,0.4,0,0.5,0.2c0.2,0.2,0.3,0.4,0.4,0.6C139,262.4,138.9,262.7,138.8,262.9z M158.8,308.4c-0.2,0.2-0.4,0.2-0.7,0.2
		s-0.5-0.2-0.7-0.4l-3.5-5.2c-0.3-0.5-0.2-1,0.3-1.4c0.2-0.1,0.4-0.2,0.6-0.2c0.3,0,0.6,0.2,0.8,0.4l3.5,5.2
		C159.4,307.5,159.3,308,158.8,308.4z M169,259.5l-3.4,5.2c-0.1,0.2-0.4,0.3-0.6,0.4c-0.2,0-0.5,0-0.8-0.2c-0.2-0.1-0.3-0.3-0.4-0.6
		c0-0.3,0-0.6,0.2-0.8l3.4-5.2c0.1-0.2,0.3-0.3,0.6-0.4c0.1,0,0.1,0,0.2,0c0.2,0,0.4,0.1,0.5,0.2C169.2,258.5,169.3,259,169,259.5z
		 M189.9,298.2c-0.5,0.3-1,0.1-1.3-0.3l-3.1-5.4c-0.3-0.5-0.1-1,0.3-1.3c0.2-0.1,0.3-0.1,0.5-0.1c0.3,0,0.6,0.2,0.9,0.5l3.1,5.4
		c0.1,0.2,0.1,0.4,0.1,0.6C190.3,297.8,190.1,298.1,189.9,298.2z M211.5,278.3l-1.4,6.1c-0.1,0.5-0.7,0.8-1.2,0.7
		c-0.2-0.1-0.5-0.3-0.6-0.5c-0.1-0.3-0.2-0.5-0.1-0.8l1.4-6.1c0.1-0.2,0.3-0.5,0.5-0.6c0.1-0.1,0.3-0.1,0.5-0.1c0.1,0,0.2,0,0.2,0.1
		c0.2,0.1,0.5,0.3,0.6,0.5C211.5,277.8,211.6,278,211.5,278.3z M219.5,245.3l-4.1,4.7c-0.2,0.2-0.4,0.3-0.7,0.3s-0.5,0-0.7-0.2
		s-0.3-0.4-0.3-0.7s0.1-0.5,0.2-0.7l4.1-4.7c0.2-0.2,0.5-0.3,0.8-0.3c0.2,0,0.4,0.1,0.5,0.2c0.2,0.2,0.4,0.4,0.4,0.7
		C219.8,244.9,219.7,245.1,219.5,245.3z M221.7,221.5c-5.6,6.1-12.5,10.9-20.3,14.3c-7.5,3.4-16,5.1-24.5,5.1
		c-8.4,0-16.9-1.8-24.5-5.1c-7.5-3.2-14.6-8.2-20.3-14.3c-5.6-6-10-13-12.9-20.9c-2.7-7.2-4-15.5-3.7-23.9c0.6-16,7.7-31.2,19.4-42
		c5.6-5.3,12.1-9.5,19.4-12.3c7.3-2.9,14.8-4.3,22.5-4.3c7.6,0,15.3,1.5,22.7,4.3c7.2,2.9,13.8,7.1,19.4,12.3
		c11.6,10.8,18.6,26.1,19.3,42c0.4,8.2-0.9,16.2-3.7,23.9C231.8,208.3,227.4,215.6,221.7,221.5z M241.8,274.3
		c-0.1,0.3-0.3,0.5-0.5,0.6c-0.4,0.2-1,0.1-1.3-0.4l-2.9-5.6c-0.2-0.2-0.2-0.5-0.1-0.7c0.1-0.2,0.3-0.5,0.5-0.6
		c0.1-0.1,0.2-0.1,0.4-0.1c0.1,0,0.2,0,0.3,0c0.3,0.1,0.5,0.3,0.6,0.5l2.9,5.6C241.9,273.8,241.9,274.1,241.8,274.3z M243.8,124.1
		c-0.3,0-0.6,0-0.8-0.2c-0.1-0.2-0.3-0.4-0.3-0.7c-0.1-0.5,0.3-1,0.9-1.1l6.1-1c0.3,0,0.6,0,0.8,0.2s0.4,0.4,0.4,0.7
		c0,0.3,0,0.6-0.2,0.8s-0.4,0.4-0.7,0.4L243.8,124.1z M250.9,243.9c-0.5,0.2-1.1-0.2-1.2-0.7l-1.5-6.1c-0.2-0.5,0.2-1.1,0.7-1.2
		c0,0,0.1,0,0.2,0c0.1,0,0.3,0,0.5,0.1c0.3,0.1,0.4,0.3,0.5,0.6l1.5,6C251.7,243.1,251.5,243.8,250.9,243.9z M260.8,197.4
		c-0.1,0.3-0.3,0.5-0.5,0.7s-0.4,0.3-0.7,0.2c-0.3,0-0.5-0.2-0.7-0.4l-3.5-5.2c-0.1-0.2-0.2-0.6-0.1-0.9c0-0.2,0.1-0.4,0.3-0.5
		s0.4-0.2,0.6-0.2c0.1,0,0.2,0,0.2,0c0.3,0,0.5,0.2,0.7,0.4l3.5,5.2C260.8,196.9,260.9,197.1,260.8,197.4z M255.4,166.4
		c0-0.2,0-0.4,0.2-0.7l3.1-5.4c0.1-0.3,0.3-0.4,0.6-0.5c0.1,0,0.1,0,0.2,0c0.2,0,0.3,0,0.4,0.2l0.1,0.1c0.2,0.1,0.3,0.3,0.4,0.5
		s0.1,0.5-0.1,0.7l-3.1,5.4c-0.1,0.3-0.3,0.4-0.6,0.5c-0.2,0-0.4,0-0.7-0.2C255.6,166.9,255.5,166.7,255.4,166.4z M260.8,76.1
		c-0.1,0.3-0.3,0.5-0.5,0.7s-0.4,0.3-0.7,0.2c-0.3,0-0.5-0.2-0.7-0.4l-3.5-5.2c-0.2-0.2-0.2-0.5-0.2-0.8c0.1-0.2,0.2-0.5,0.4-0.6
		s0.4-0.2,0.6-0.2c0.1,0,0.2,0,0.2,0c0.3,0,0.5,0.2,0.7,0.4l3.5,5.2C260.8,75.6,260.9,75.8,260.8,76.1z M272.6,250.6
		c-0.6,0.2-1.1,0-1.4-0.5l-2.5-5.7c-0.2-0.6,0-1.1,0.5-1.4c0.6-0.2,1.1,0,1.4,0.5l2.5,5.7C273.3,249.8,273.1,250.3,272.6,250.6z
		 M278.8,216.2c0,0.5-0.5,1-1,1s-1-0.5-1-1V210c0-0.5,0.5-1,1-1s1,0.5,1,1V216.2z M280.5,107.5c-0.4,0.4-1.1,0.3-1.4-0.1l-4-4.8
		c-0.2-0.2-0.2-0.5-0.2-0.8c0-0.2,0.1-0.4,0.3-0.6c0.1-0.1,0.4-0.2,0.6-0.2c0.1,0,0.1,0,0.1,0c0.3,0,0.5,0.1,0.7,0.3l4,4.8
		c0.2,0.2,0.2,0.4,0.2,0.7S280.7,107.3,280.5,107.5z M288.5,144l3.1-5.4c0.1-0.3,0.3-0.4,0.6-0.5c0.2,0,0.4,0,0.7,0.2
		c0.3,0.1,0.4,0.3,0.5,0.6c0,0.2,0,0.4-0.2,0.7l-3.1,5.4c-0.1,0.3-0.3,0.4-0.6,0.5c-0.2,0-0.4,0-0.7-0.2
		C288.4,145.1,288.2,144.5,288.5,144z M293.8,181.6c-0.1,0.3-0.3,0.5-0.5,0.7s-0.4,0.2-0.7,0.2s-0.5-0.2-0.7-0.4l-3.5-5.2
		c-0.2-0.2-0.3-0.5-0.2-0.8c0.1-0.3,0.2-0.5,0.4-0.6s0.4-0.2,0.6-0.2c0.1,0,0.2,0,0.2,0c0.3,0,0.5,0.2,0.7,0.4l3.5,5.2
		C293.8,181.1,293.9,181.3,293.8,181.6z"/>
	<g>
		<path fill="none" d="M135.7,135.4c-5.2,5.6-9.2,12.2-11.8,19.3c-2.6,7.1-3.6,14.6-3.3,22c0.8,14.8,7.4,28.7,17.9,38.4
			c10.4,9.7,24.3,15.2,38.4,15.1c14,0,28-5.4,38.4-15.1c10.5-9.6,17.2-23.6,17.9-38.4c0.4-7.4-0.7-14.9-3.3-22
			c-2.6-7-6.6-13.7-11.8-19.3s-11.6-10.1-18.7-13.2c-7.1-3.1-14.8-4.6-22.5-4.7l0,0l0,0c-7.7,0-15.5,1.6-22.5,4.7
			C147.3,125.3,140.9,129.8,135.7,135.4z"/>
	</g>
	<g>
		<path fill="#593418" d="M221.7,320.7l-1.3,0.3c-0.4,0.1-0.8,0.2-1.1,0.3c-1.2,0.4-2.1,0.9-3.3,1.9c3-0.9,5.9-1.9,8.9-2.9
			c-0.2,0-0.3,0-0.5,0.1C223.5,320.4,222.6,320.5,221.7,320.7z"/>
	</g>
	<g>
		<g>
			<path fill="#593418" d="M162.9,330l-14-4.5c-2.3-0.7-4.5-1.5-6.7-1.9l-3.3-0.8l-3.2-0.4c-2.2-0.3-4.2-0.3-6.3-0.2
				c-2.1,0.1-4.6,0.5-7.4,0.7c-1.4,0.1-2.9,0.1-4.4,0c-0.8-0.1-1.6-0.2-2.5-0.3c1.1,0.6,2.2,1.3,3.2,1.9c16.3,8.8,31.2,7.2,48.3,6.7
				c0,0,0,0-0.1,0C165.4,330.7,164.1,330.4,162.9,330z"/>
			<path fill="#593418" d="M150.6,332.1c-10.9,0-21.5-1.2-32.6-7.2l-0.9-0.5c-0.7-0.5-1.5-0.9-2.3-1.4l-2.2-1.2l2.5,0.3
				c0.9,0.1,1.7,0.2,2.5,0.3c1.5,0.1,2.9,0.1,4.3,0c1.3-0.1,2.6-0.2,3.8-0.4c1.3-0.1,2.5-0.3,3.6-0.3c1.8-0.1,4-0.1,6.4,0.2l3.2,0.4
				l3.4,0.8c1.7,0.3,3.3,0.8,5,1.4c0.6,0.2,1.1,0.4,1.7,0.5l14,4.5c0.4,0.1,0.8,0.3,1.2,0.4c0.8,0.2,1.7,0.5,2.4,0.8l-0.1,0.2l0,0.7
				c-1.7,0.1-3.4,0.1-5.1,0.2C157.8,332,154.2,332.1,150.6,332.1z M117.4,323.4c0.1,0.1,0.2,0.1,0.3,0.2l0.9,0.5
				c14.5,7.8,27.7,7.4,42.9,6.8c0.8,0,1.5-0.1,2.3-0.1c-0.3-0.1-0.7-0.2-1-0.3l-14-4.5c-0.6-0.2-1.1-0.4-1.7-0.5
				c-1.7-0.5-3.3-1.1-4.9-1.4l-3.3-0.8l-3.1-0.4c-2.4-0.3-4.5-0.3-6.2-0.2c-1.1,0.1-2.3,0.2-3.6,0.3c-1.2,0.1-2.5,0.3-3.8,0.4
				c-1.4,0.1-2.9,0.1-4.5,0C117.5,323.4,117.5,323.4,117.4,323.4z"/>
		</g>
	</g>
	<g>
		<path fill="#F46C80" d="M156.1,301.6c-0.5-0.7-1.4-0.9-2.1-0.4c-0.7,0.5-0.9,1.4-0.4,2.1l3.5,5.2c0.5,0.7,1.4,0.9,2.1,0.4
			c0.7-0.5,0.9-1.4,0.4-2.1L156.1,301.6z"/>
	</g>
	<g>
		<path fill="#F4C389" d="M187.5,291.2c-0.4-0.7-1.3-1-2-0.5c-0.7,0.4-1,1.3-0.5,2l3.1,5.4c0.4,0.7,1.3,1,2,0.5c0.7-0.4,1-1.3,0.5-2
			L187.5,291.2z"/>
	</g>
	<g>
		<path fill="#593418" d="M317.8,146c-0.1,2-0.1,4-0.1,6s0.1,4,0.4,5.5c0.3,1.6,0.8,2.9,1.7,4.1c0.9,1.3,2.3,2.6,3.7,4.2
			c0.7,0.8,1.4,1.5,2.2,2.4c0.3,0.4,0.6,0.7,0.9,1.1c-1.1-9-1.6-17.8-3.6-26.9c-1.3-5.7-2.7-11.3-4.4-16.8c-0.2,2.6-0.2,5.3-0.3,8.1
			L317.8,146z"/>
		<path fill="#593418" d="M327.3,171.1l-1.1-1.5c-0.1-0.2-0.3-0.4-0.4-0.5c-0.2-0.2-0.3-0.4-0.5-0.6c-0.4-0.4-0.7-0.8-1.1-1.2
			s-0.7-0.8-1.1-1.2c-0.5-0.6-1-1.1-1.5-1.6c-0.9-0.9-1.7-1.8-2.3-2.6c-0.9-1.2-1.4-2.5-1.8-4.3c-0.3-1.4-0.4-3.2-0.4-5.6
			c0-2,0-4,0.1-6l0.5-12.3c0-0.9,0.1-1.8,0.1-2.7c0-1.9,0.1-3.6,0.2-5.4l0.2-2.6l0.8,2.5c1.5,4.8,2.9,10.2,4.4,16.8
			c1.4,6.6,2.1,13.1,2.8,19.4c0.3,2.5,0.5,5,0.8,7.6L327.3,171.1z M318.9,128.5c0,0.8,0,1.6-0.1,2.5c0,0.9,0,1.8-0.1,2.7l-0.5,12.3
			c-0.1,2-0.1,4-0.1,6c0,2.3,0.1,4.1,0.4,5.4c0.3,1.6,0.8,2.8,1.6,3.9c0.6,0.8,1.3,1.7,2.2,2.5c0.5,0.5,1,1.1,1.5,1.6
			c0.4,0.4,0.7,0.8,1.1,1.2c0.3,0.3,0.6,0.7,0.9,1c-0.2-2-0.4-4-0.6-5.9c-0.7-6.3-1.3-12.7-2.8-19.2
			C321.3,137.1,320.1,132.6,318.9,128.5z"/>
	</g>
	<g>
		<path fill="#593418" d="M313.3,235c-0.6,3.3-0.2,7,0,11.2c0.1,2.1,0.2,4.3,0.1,6.7c-0.1,2.2-0.5,4.5-1.1,6.7
			c7-9.8,12-20.9,13-32.9c0.6-6.9,2.3-13.1,3.2-19.8c-1.6,2.9-3.5,5.6-5.2,8.1C318.6,221.8,314.3,228.3,313.3,235z"/>
		<path fill="#593418" d="M311.1,262.2l0.7-2.7c0.6-2.2,1-4.5,1.1-6.6c0.1-2.4,0-4.7-0.1-6.7c0-0.8-0.1-1.6-0.1-2.3
			c-0.2-3.2-0.4-6.2,0.1-9c1-6.6,5.2-13.1,10.1-20.2l0.7-1c1.5-2.3,3.1-4.6,4.5-7.1l1.3-2.3L329,207c-0.4,2.8-0.9,5.6-1.4,8.3
			c-0.7,3.7-1.4,7.5-1.8,11.5c-0.9,11.1-5.3,22.3-13.1,33.1L311.1,262.2z M327.6,209.4c-1.1,1.7-2.2,3.3-3.3,4.9l-0.7,1
			c-4.9,7-9,13.4-9.9,19.8l0,0c-0.5,2.6-0.3,5.5-0.1,8.7c0,0.8,0.1,1.5,0.1,2.3c0.1,2,0.2,4.3,0.1,6.7c-0.1,1.3-0.2,2.8-0.5,4.2
			c6.7-10,10.6-20.3,11.4-30.5c0.4-4,1.1-7.9,1.8-11.6C326.9,213.2,327.3,211.3,327.6,209.4z"/>
	</g>
	<g>
		<path fill="#593418" d="M273.7,292.9l-0.9,0.9l-1.1,1.1l-2.3,2.2c-0.8,0.7-1.5,1.4-2.3,2.1c5.9-4,11.6-8.3,17.3-12.8
			c-0.5,0.2-1,0.5-1.5,0.7C279.4,288.8,276.2,290.6,273.7,292.9z"/>
	</g>
	<g>
		<path fill="#593418" d="M58.7,272.2c-0.8-0.6-1.7-1.1-2.6-1.7c4.9,5.4,9.9,10.7,15.2,15.8c-2.6-3.8-4.9-7.3-7.7-10.1
			C62.1,274.6,60.6,273.4,58.7,272.2z"/>
	</g>
	<g>
		<g>
			<path fill="none" d="M212.8,21.5c-0.7-0.1-1.4-0.2-2.2-0.2c-0.3,0-0.6,0-0.9,0c-0.4,0-0.8,0-1.2,0s-0.7,0-1.1,0
				c-0.3,0-0.5,0-0.8,0.1c-0.8,0.1-1.6,0.2-2.4,0.3c-0.3,0-0.5,0.1-0.8,0.1c-0.4,0.1-0.7,0.1-1.1,0.2c-5.9,1.1-11.8,3-17.5,3.5
				c-0.3,0-0.6,0.1-0.8,0.1c-0.1,0-0.2,0-0.3,0c-2.7,0.1-5.4-0.1-8-0.9c-4-1.3-7.5-2.6-10.9-3.5c-1.6-0.4-3.1-0.7-4.8-0.9
				c-3.8-0.3-7.6-0.2-11.5,0.8c-7.9,2-14.7,7.1-21.5,11.6c-0.4,0.2-0.7,0.5-1.1,0.7c-3.7,2.4-7.9,4-11.7,6c-2.1,1.1-4.2,2.4-6,3.9
				s-3.4,3.3-5,5.2c-3.1,3.7-6,7.7-9.9,11.1c-3.9,3.3-8.8,5.4-13.6,6.7c-4.8,1.4-9.6,2.2-14,3.7c-4.5,1.4-8.4,3.7-11.5,7
				c-3.2,3.2-5.5,7.2-7.4,11.5c-1.8,4.3-3,8.8-4.1,13.5c-1,4.7-1.8,9.5-2.9,14.3c-1,4.8-2.4,9.8-4.3,14.5c-1.9,4.7-4,9.1-5.6,13.4
				c-1.6,4.3-2.6,8.7-2.4,12.8c0.1,2,0.6,4,1.3,6c0.8,2,1.7,3.9,2.9,5.8c2.3,3.9,5.4,7.7,8.2,11.9c1.4,2.1,2.8,4.4,4,6.9
				c1.1,2.5,2.1,5.2,2.6,8.1c1,5.8-0.1,11.3-1,16.1c-0.5,2.4-0.9,4.7-1.3,7c-0.2,1.1-0.3,2.3-0.4,3.4c-0.1,1.1-0.2,2.3-0.2,3.4
				c-0.2,4.5,0.1,9.1,1,13.4c0.9,4.3,2.4,8.4,4.6,12c0.3,0.4,0.5,0.9,0.8,1.3l0.9,1.2c0.6,0.9,1.4,1.5,2,2.3
				c0.7,0.7,1.5,1.4,2.3,2.1c0.8,0.6,1.7,1.3,2.6,1.9c1.9,1.2,4,2.4,6.2,3.9c2.2,1.4,4.5,3.2,6.5,5.2c4,3.9,6.9,8.3,9.6,12.3
				c5.3,7.7,11.5,14.6,18.7,20.4c1.8,1.5,3.6,2.8,5.5,4.2c1.9,1.3,3.8,2.6,5.7,3.6c1.9,1,3.7,1.9,5.5,2.3c1.8,0.5,3.4,0.6,5.5,0.4
				c2.1-0.1,4.5-0.5,7.2-0.7c2.8-0.2,5.6-0.2,8.3,0.2l4,0.5l3.8,0.9c2.6,0.5,5,1.3,7.4,2.1l13.9,4.4c1.1,0.3,2.2,0.6,3.3,0.9
				s2.2,0.6,3.3,0.8c2.2,0.5,4.3,0.8,6.6,1c8.7,0.7,17.6-0.6,25.5-4.1c1.2-0.7,2.4-1.8,4.1-3.1c1.8-1.5,4.4-3.1,7-3.9
				c0.7-0.2,1.3-0.4,1.8-0.5c0.6-0.1,1.2-0.3,1.7-0.4c1.1-0.2,2.3-0.4,3.4-0.6c2.2-0.3,4.4-0.4,6.4-0.6c4.1-0.3,7.5-0.7,10.3-1.8
				c1.5-0.6,2.7-1.4,4.1-2.4c1.6-1.2,3.2-2.4,4.7-3.7c3.1-2.5,6.2-5.1,9.2-7.7c1.5-1.3,3-2.7,4.5-4l2.2-2l1.1-1.1l1.3-1.2
				c3.7-3.2,7.8-5.3,11.6-7.1c3.8-1.8,7.3-3.4,10.5-5.3c3.2-2,6.1-4.2,8.5-6.8c2.4-2.6,4.3-5.5,5.3-8.5s1.1-6.4,0.9-10.4
				c-0.1-3.9-0.6-8.5,0.3-13.3c0.8-4.8,2.7-9.1,4.9-12.9c2.2-3.8,4.7-7.3,7.1-10.6c1.2-1.7,2.4-3.3,3.4-4.9c1-1.6,2-3.2,2.9-4.9
				c1.7-3.3,2.9-6.7,3.3-10.2c0.3-3.4-0.1-6.8-1.5-10c-0.3-0.8-0.7-1.6-1.2-2.4c-0.2-0.4-0.4-0.8-0.7-1.2l-0.8-1.1
				c-0.5-0.8-1.1-1.5-1.7-2.2c-0.5-0.7-1.2-1.5-1.9-2.2c-1.3-1.5-2.8-3-4.2-5.1c-0.7-1.1-1.3-2.2-1.8-3.5c-0.5-1.2-0.7-2.5-0.9-3.7
				c-0.2-1.2-0.3-2.4-0.3-3.5s0-2.2,0-3.2c0-2.1,0.1-4.2,0.3-6.3l1-12.2c0.3-4,0.4-8.2,1.1-12.5c0.4-2.7,1.1-5.1,1.6-7.5
				c0.3-1.5,0.6-3,0.7-4.3c0.2-3.5-0.6-7.2-2.2-10.6s-3.9-6.5-6.7-9.2c-1-1-2.1-2-3.3-2.9c-1.9-1.6-3.9-3.1-6-4.6
				c-3.3-2.5-6.6-5.1-9.4-8.4c-0.7-0.8-1.4-1.7-2-2.6l-1.7-2.5c-1.2-1.6-2.4-3.2-3.7-4.8c-2.6-3.1-5.4-6-8.5-8.4
				c-3.1-2.5-6.8-4.1-10.5-5.9c-7.1-3.2-14.6-6.1-20.8-11c-0.2-0.2-0.4-0.3-0.7-0.5C231.3,31.4,223.4,22.9,212.8,21.5z"/>
		</g>
		<g>
			<path fill="none" d="M58.7,272.2c-0.8-0.6-1.7-1.1-2.6-1.7c4.9,5.4,9.9,10.7,15.2,15.8c-2.6-3.8-4.9-7.3-7.7-10.1
				C62.1,274.6,60.6,273.4,58.7,272.2z"/>
		</g>
		<g>
			<path fill="none" d="M317.8,146c-0.1,2-0.1,4-0.1,6s0.1,4,0.4,5.5c0.3,1.6,0.8,2.9,1.7,4.1c0.9,1.3,2.3,2.6,3.7,4.2
				c0.7,0.8,1.4,1.5,2.2,2.4c0.3,0.4,0.6,0.7,0.9,1.1c-1.1-9-1.6-17.8-3.6-26.9c-1.3-5.7-2.7-11.3-4.4-16.8
				c-0.2,2.6-0.2,5.3-0.3,8.1L317.8,146z"/>
		</g>
		<g>
			<path fill="none" d="M221.7,320.7l-1.3,0.3c-0.4,0.1-0.8,0.2-1.1,0.3c-1.2,0.4-2.1,0.9-3.3,1.9c3-0.9,5.9-1.9,8.9-2.9
				c-0.2,0-0.3,0-0.5,0.1C223.5,320.4,222.6,320.5,221.7,320.7z"/>
		</g>
		<g>
			<path fill="none" d="M162.9,330l-14-4.5c-2.3-0.7-4.5-1.5-6.7-1.9l-3.3-0.8l-3.2-0.4c-2.2-0.3-4.2-0.3-6.3-0.2
				c-2.1,0.1-4.6,0.5-7.4,0.7c-1.4,0.1-2.9,0.1-4.4,0c-0.8-0.1-1.6-0.2-2.5-0.3c1.1,0.6,2.2,1.3,3.2,1.9c16.3,8.8,31.2,7.2,48.3,6.7
				c0,0,0,0-0.1,0C165.4,330.7,164.1,330.4,162.9,330z"/>
		</g>
		<g>
			<path fill="none" d="M313.3,235c-0.6,3.3-0.2,7,0,11.2c0.1,2.1,0.2,4.3,0.1,6.7c-0.1,2.2-0.5,4.5-1.1,6.7c7-9.8,12-20.9,13-32.9
				c0.6-6.9,2.3-13.1,3.2-19.8c-1.6,2.9-3.5,5.6-5.2,8.1C318.6,221.8,314.3,228.3,313.3,235z"/>
		</g>
		<g>
			<path fill="none" d="M273.7,292.9l-0.9,0.9l-1.1,1.1l-2.3,2.2c-0.8,0.7-1.5,1.4-2.3,2.1c5.9-4,11.6-8.3,17.3-12.8
				c-0.5,0.2-1,0.5-1.5,0.7C279.4,288.8,276.2,290.6,273.7,292.9z"/>
		</g>
		<g>
			<path fill="#663C20" d="M174,6C81.1,6,5.7,81.3,5.7,174.3C5.7,267.2,81,342.6,174,342.6s168.3-75.3,168.3-168.3
				C342.2,81.3,266.9,6,174,6z M328.4,206.9c-0.8,6.8-2.6,12.9-3.2,19.8c-1,12-6,23.1-13,32.9c-0.1,0.2-0.1,0.4-0.1,0.5
				c-1.5,4.8-4.2,8.9-7.3,12.3c-3.1,3.4-6.7,6.2-10.5,8.6c-3.3,2.1-6.7,3.7-9.8,5.3c-5.8,4.5-11.5,8.8-17.3,12.8
				c-0.8,0.7-1.5,1.4-2.3,2.1c-3.1,2.8-6.3,5.5-9.6,8.1c-1.6,1.3-3.3,2.6-4.9,3.9c-1.9,1.4-4.1,2.8-6.5,3.8c-4.7,2-9.6,2.4-13.7,2.7
				c-1.9,0.1-3.6,0.3-5.3,0.5c-2.9,1-5.9,2-8.9,2.9c-0.1,0.1-0.2,0.1-0.3,0.2c-1.3,1.1-3.2,2.7-5.4,4.1l-0.3,0.2l-0.3,0.1
				c-9.8,4.5-20.7,6.1-31.3,5.3c-2.6-0.2-5.3-0.6-7.9-1.1c-1.3-0.2-2.5-0.6-3.7-0.9c-17.1,0.5-32,2.1-48.3-6.7
				c-1.1-0.6-2.2-1.2-3.2-1.9c-0.7-0.1-1.4-0.3-2.1-0.5c-2.9-0.8-5.6-2-8-3.4c-2.4-1.3-4.5-2.8-6.6-4.2c-2.1-1.5-4.2-3-6.2-4.7
				c-4-3.3-7.7-6.8-11.2-10.6c-3.4-3.8-6.6-8-9.4-12.1c-0.2-0.3-0.4-0.5-0.5-0.8C66,281,61,275.8,56.1,270.3
				c-1.1-0.7-2.3-1.5-3.5-2.3c-1.1-0.7-2.2-1.5-3.3-2.4s-2.1-1.9-3.1-2.9c-0.9-1.1-2-2.1-2.7-3.2l-1.3-1.7c-0.4-0.6-0.7-1.2-1.1-1.8
				c-2.1-3.5-3.6-7.2-4.7-10.9c-3.6-5.6-6.8-11.4-9.4-17.4c-4.9-11.5-4.9-22.7-7.1-34.6c-5-26.2-4.7-51.8,4.1-77.4
				C29.8,98.5,39.4,82.4,51.9,69c12.5-13.3,26.2-20,41.7-28.4c17.4-9.5,32.3-19.7,52.1-24.3c18.3-4.2,37.2-4.1,55.6-0.5
				c14.9,2.9,29.7,7.2,42.5,15.3c10.6,6.8,22.8,9.4,32.6,17.8c9.3,7.9,16.5,18.3,22.4,29c0.3,0.2,0.5,0.4,0.8,0.5
				c3.3,2.3,6.8,4.6,10,7.5s6,6.3,8.1,10.2c2.1,3.9,3.4,8.4,3.2,13.1c-0.1,2.3-0.5,4.5-0.9,6.5c-0.4,2.1-0.8,3.9-1,5.8
				c-0.2,1.3-0.3,2.6-0.3,3.9c1.7,5.6,3.1,11.2,4.4,16.8c2,9,2.5,17.9,3.6,26.9c0.4,0.5,0.8,1,1.2,1.5l1,1.4c0.3,0.5,0.6,1,0.9,1.5
				c0.6,1,1.1,2,1.6,3.1c2,4.3,2.8,9.2,2.4,13.9C333.2,196.7,331.1,202.1,328.4,206.9z"/>
		</g>
		<g>
			<path fill="#593418" d="M34.4,225.1c0.1-1.3,0.2-2.6,0.3-3.9c0.2-1.3,0.3-2.6,0.6-3.9c0.4-2.6,1-5.1,1.5-7.4
				c1.1-4.7,1.9-9,1.3-12.9c-0.3-2-0.9-3.9-1.7-5.9c-0.9-2-1.9-3.9-3.2-5.9c-2.5-3.9-5.5-7.9-8.1-12.4c-1.3-2.2-2.5-4.7-3.4-7.3
				s-1.5-5.5-1.6-8.3c-0.2-5.7,1.4-11,3.3-15.7s4.2-9.1,6.1-13.4c3.9-8.5,5.4-18,7.8-27.6c1.2-4.8,2.7-9.7,5-14.3
				c2.2-4.6,5.1-9,8.9-12.6c1.9-1.8,4-3.4,6.4-4.6c2.3-1.3,4.8-2.1,7.2-2.9c4.9-1.4,9.7-2.1,14.4-3.2c4.7-1,9.1-2.6,12.8-5.4
				c3.7-2.8,6.8-6.7,10.1-10.3c1.7-1.8,3.4-3.6,5.5-5.1c2-1.5,4.2-2.7,6.5-3.7c4.5-2,9.2-3.4,13.3-6c-0.4,0.3-0.8,0.5-1.2,0.8
				c0.4-0.2,0.7-0.5,1.1-0.7c6.8-4.5,13.6-9.6,21.5-11.6c3.9-1,7.7-1.1,11.5-0.8c1.6,0.2,3.2,0.5,4.8,0.9c3.4,0.9,6.8,2.2,10.9,3.5
				c2.6,0.8,5.3,1.1,8,0.9c0.1,0,0.2,0,0.3,0c0.3,0,0.6,0,0.8-0.1c5.8-0.5,11.7-2.4,17.5-3.5c0.4-0.1,0.7-0.1,1.1-0.2
				c0.3,0,0.5-0.1,0.8-0.1c0.8-0.1,1.6-0.2,2.4-0.3c0.3,0,0.5,0,0.8-0.1c0.4,0,0.7,0,1.1,0c0.4,0,0.8,0,1.2,0c0.3,0,0.6,0,0.9,0
				c0.7,0,1.4,0.1,2.2,0.2c10.6,1.4,18.5,9.9,27.1,16.3c0.2,0.2,0.4,0.3,0.7,0.5c-0.3-0.2-0.5-0.4-0.8-0.6
				c6.7,4.8,14.6,7.2,22.2,10.2c1.9,0.7,3.8,1.5,5.7,2.4c1.9,0.9,3.8,1.9,5.5,3.1c3.5,2.4,6.5,5.3,9.4,8.3c1.4,1.5,2.8,3.1,4.1,4.8
				l1.9,2.4c0.6,0.8,1.2,1.5,1.9,2.2c2.5,2.6,5.4,4.8,8.4,6.9c-5.9-10.7-13.1-21-22.4-29c-9.9-8.4-22-11-32.6-17.8
				c-12.8-8.1-27.6-12.4-42.5-15.3c-18.4-3.6-37.3-3.7-55.6,0.5C126.3,20.8,111.4,31,94,40.5C78.1,49,64.4,55.7,51.9,69
				c-12.5,13.4-22.1,29.5-28.1,46.8c-8.7,25.6-9.1,51.2-4.1,77.4c2.3,11.9,2.2,23.1,7.1,34.6c2.6,6.1,5.8,11.9,9.4,17.4
				c-0.4-1.4-0.7-2.9-1-4.3C34.4,235.6,34.1,230.3,34.4,225.1z"/>
			<path fill="#593418" d="M37.6,248.2l-1.8-2.8c-3.8-5.8-7-11.7-9.4-17.5C23,220,22,212.4,21,204.3c-0.5-3.6-1-7.4-1.7-11.1
				c-5.4-28.2-4-53.6,4.1-77.7c6-17.4,15.8-33.7,28.2-47c11.6-12.3,24-18.9,38.4-26.6c1.2-0.7,2.5-1.3,3.8-2c3.5-1.9,7-3.9,10.3-5.8
				c13.4-7.6,26.1-14.9,41.9-18.6c17.8-4.1,36.6-4.3,55.8-0.5c18.1,3.5,31.7,8.4,42.7,15.4c4.4,2.8,9.2,5,13.7,7
				c6.4,2.9,13.1,5.9,18.9,10.8c8.3,7.1,15.6,16.6,22.5,29.1l1,1.9l-1.8-1.2c-2.7-1.9-5.8-4.2-8.5-7c-0.7-0.7-1.3-1.4-1.9-2.2
				l-1.9-2.4c-1.2-1.5-2.5-3.1-4.1-4.8c-2.7-2.8-5.8-5.8-9.3-8.2c-1.4-1-3.2-2-5.4-3.1c-1.9-0.9-3.8-1.7-5.7-2.4
				c-1.5-0.6-3.1-1.2-4.6-1.8c-5.7-2.2-11.7-4.4-16.9-7.9l0,0l-0.2-0.1c-0.2-0.1-0.4-0.2-0.6-0.4c-1.9-1.4-3.8-3-5.7-4.5
				c-6.4-5.2-13.1-10.6-21.2-11.7h-0.3c-0.7-0.1-1.3-0.2-1.9-0.2h-3.1c-0.3,0.1-0.6,0.1-0.9,0.1l-2.3,0.3c-0.2,0-0.3,0-0.4,0
				c-0.1,0-0.3,0.1-0.4,0.1c-0.2,0-0.4,0.1-0.5,0.1c-0.2,0-0.3,0-0.5,0.1c-2.1,0.4-4.2,0.9-6.3,1.4c-3.7,0.9-7.5,1.8-11.2,2.1
				c-0.3,0.1-0.6,0.1-0.9,0.1H184c-2.7,0.2-5.5-0.1-8.1-0.9c-1.5-0.5-3-1-4.3-1.4c-2.3-0.8-4.4-1.5-6.5-2.1
				c-1.6-0.4-3.2-0.7-4.7-0.9c-4.3-0.3-7.9-0.1-11.3,0.8c-6.7,1.7-12.8,5.8-18.6,9.7c-0.9,0.6-1.8,1.2-2.8,1.9
				c-0.2,0.1-0.4,0.2-0.5,0.3c-0.2,0.1-0.4,0.3-0.6,0.4v-0.1c-2.5,1.4-5.1,2.5-7.7,3.5c-1.4,0.6-2.9,1.2-4.3,1.8
				c-2.5,1.1-4.6,2.3-6.4,3.6c-2.1,1.5-3.8,3.3-5.4,5c-0.7,0.8-1.5,1.7-2.2,2.5c-2.5,2.8-5,5.7-7.9,7.9c-3.4,2.6-7.6,4.3-13,5.5
				c-1.8,0.4-3.6,0.8-5.4,1.1c-2.9,0.6-5.9,1.2-8.9,2L65,66.3c-2.3,0.7-4.6,1.5-6.7,2.7c-2.2,1.1-4.2,2.6-6.3,4.5
				c-3.4,3.3-6.4,7.5-8.8,12.5c-2,3.9-3.5,8.3-5,14.2c-0.6,2.4-1.1,4.8-1.7,7.2c-1.6,7.3-3.2,14.1-6.1,20.5
				c-0.7,1.7-1.5,3.4-2.4,5.1c-1.3,2.7-2.6,5.4-3.7,8.2c-1.5,3.7-3.5,9.4-3.3,15.5c0.1,2.6,0.6,5.5,1.6,8.2c0.8,2.4,2,4.9,3.4,7.2
				c1.6,2.8,3.4,5.5,5.2,8c1,1.5,2,2.9,2.9,4.4c1.2,1.9,2.2,3.8,3.2,6c0.9,2.3,1.5,4.2,1.7,6c0.6,3.8-0.1,7.8-1.3,13.1l-0.3,1.4
				c-0.4,1.9-0.9,3.9-1.2,6c-0.2,0.9-0.3,1.7-0.4,2.6c-0.1,0.4-0.1,0.9-0.2,1.3l-0.3,3.9c-0.3,5,0,10.3,0.8,15.7l0.1,0.6
				c0.3,1.2,0.5,2.5,0.9,3.6L37.6,248.2z M174.6,13.5c-9.7,0-19.1,1.1-28.4,3.2c-15.7,3.7-28.3,10.8-41.7,18.5
				c-3.3,1.9-6.8,3.9-10.3,5.8c-1.3,0.7-2.5,1.4-3.8,2C76,50.6,63.7,57.2,52.2,69.4c-12.3,13.2-22,29.3-28,46.6
				c-8.1,23.8-9.4,49.1-4.1,77.1c0.7,3.8,1.2,7.5,1.7,11.2c1.1,8,2,15.5,5.4,23.3c2.1,4.9,4.7,9.9,7.7,14.8
				c-0.1-0.3-0.1-0.5-0.2-0.8l-0.1-0.6c-0.8-5.5-1.1-10.9-0.8-15.9l0,0l0.3-3.9c0.1-0.5,0.1-0.9,0.2-1.3c0.1-0.9,0.2-1.8,0.4-2.7
				c0.3-2.1,0.8-4.1,1.2-6l0.3-1.4c1.2-5.2,1.9-9.1,1.3-12.7c-0.3-1.8-0.8-3.6-1.7-5.8c-1-2.1-2-4-3.2-5.8c-0.9-1.4-1.9-2.9-2.9-4.4
				c-1.7-2.6-3.5-5.2-5.2-8.1c-1.4-2.4-2.6-4.9-3.4-7.4c-1-2.8-1.5-5.7-1.6-8.4c-0.2-6.3,1.8-12.1,3.3-15.9c1.2-2.9,2.5-5.6,3.7-8.3
				c0.8-1.8,1.6-3.4,2.4-5.1c2.9-6.3,4.4-13.1,6.1-20.3c0.5-2.3,1.1-4.8,1.7-7.2c1.5-6,3-10.4,5-14.4c2.4-5.1,5.5-9.4,9-12.7
				c2.1-2,4.3-3.6,6.5-4.7c2.2-1.2,4.6-2,6.9-2.8l0.4-0.1c3.1-0.9,6.1-1.5,9-2.1c1.8-0.4,3.6-0.7,5.4-1.1c5.2-1.1,9.4-2.9,12.6-5.3
				c2.8-2.1,5.3-5,7.8-7.7c0.7-0.8,1.5-1.7,2.2-2.5c1.7-1.8,3.4-3.6,5.6-5.2c1.9-1.4,4-2.6,6.6-3.8c1.4-0.6,2.9-1.2,4.4-1.8
				c3.1-1.2,6.1-2.4,8.8-4.2l0,0c0.8-0.6,1.7-1.2,2.6-1.8c5.9-4,12-8.1,18.9-9.8c3.5-0.9,7.2-1.2,11.7-0.8c1.6,0.2,3.3,0.5,4.9,0.9
				c2.2,0.6,4.3,1.3,6.6,2.1c1.4,0.5,2.8,0.9,4.3,1.4c2.5,0.8,5.2,1.1,7.8,0.9h0.3c0.2,0,0.5,0,0.6,0l0.2-0.1
				c3.7-0.3,7.5-1.2,11.1-2.1c2.1-0.5,4.2-1,6.3-1.4c0.2,0,0.4-0.1,0.6-0.1c0.2,0,0.3,0,0.5-0.1h0.1c0.1,0,0.2,0,0.3,0
				c0.2,0,0.3-0.1,0.5-0.1l2.3-0.3c0.3,0,0.5,0,0.7-0.1h0.2h3.2c0.6,0,1.3,0.1,2,0.2h0.3c8.4,1.1,15.1,6.6,21.7,11.9
				c1.8,1.5,3.7,3,5.5,4.4l0,0c0.1,0,0.1,0.1,0.2,0.1c5.3,3.7,11.4,6,17.3,8.2c1.5,0.6,3.1,1.2,4.6,1.8c1.9,0.7,3.8,1.5,5.7,2.4
				c2.3,1.1,4.1,2.1,5.6,3.1c3.6,2.5,6.7,5.5,9.5,8.4c1.6,1.7,3,3.3,4.1,4.8l1.9,2.4c0.6,0.8,1.2,1.5,1.9,2.2c2,2.1,4.3,4,6.5,5.5
				c-6.5-11.5-13.5-20.3-21.2-26.9c-5.7-4.8-12.3-7.8-18.7-10.7c-4.6-2.1-9.4-4.2-13.9-7.1c-10.9-6.9-24.3-11.7-42.3-15.2
				C192.5,14.4,183.4,13.5,174.6,13.5z"/>
		</g>
		<g>
			<path fill="#45250A" d="M331.3,176.9c-0.5-1.1-1-2.1-1.6-3.1c-0.3-0.5-0.6-1-0.9-1.5l-1-1.4c-0.4-0.5-0.8-1-1.2-1.5
				c-0.3-0.4-0.6-0.7-0.9-1.1c-0.7-0.9-1.4-1.6-2.2-2.4c-1.4-1.5-2.8-2.9-3.7-4.2c-0.9-1.3-1.4-2.5-1.7-4.1
				c-0.3-1.6-0.4-3.6-0.4-5.5c0-2,0-3.9,0.1-6l0.6-12.3c0.1-2.8,0.1-5.5,0.3-8.1c0.1-1.3,0.2-2.6,0.3-3.9c0.2-1.9,0.6-3.8,1-5.8
				s0.8-4.2,0.9-6.5c0.1-4.7-1.2-9.2-3.2-13.1c-2.1-3.9-4.9-7.4-8.1-10.2c-3.2-2.9-6.7-5.2-10-7.5c-0.3-0.2-0.5-0.4-0.8-0.5
				c-3.1-2.1-6-4.3-8.4-6.9c-0.7-0.7-1.3-1.4-1.9-2.2l-1.9-2.4c-1.3-1.6-2.6-3.2-4.1-4.8c-2.8-3.1-5.9-5.9-9.4-8.3
				c-1.7-1.2-3.6-2.3-5.5-3.1c-1.9-0.9-3.8-1.6-5.7-2.4c-7.7-2.9-15.5-5.4-22.2-10.2c0.3,0.2,0.5,0.4,0.8,0.6
				c6.2,4.8,13.7,7.8,20.8,11c3.7,1.7,7.4,3.4,10.5,5.9c3.2,2.4,6,5.3,8.5,8.4c1.3,1.5,2.5,3.1,3.7,4.8l1.7,2.5
				c0.6,0.9,1.3,1.7,2,2.6c2.8,3.3,6.2,5.9,9.4,8.4c2.1,1.6,4.1,3.1,6,4.6c1.1,0.9,2.3,1.9,3.3,2.9c2.8,2.7,5.1,5.8,6.7,9.2
				c1.6,3.4,2.4,7,2.2,10.6c-0.1,1.4-0.4,2.8-0.7,4.3c-0.5,2.3-1.2,4.8-1.6,7.5c-0.7,4.3-0.8,8.5-1.1,12.5l-1,12.2
				c-0.1,2.1-0.3,4.2-0.3,6.3c0,1.1,0,2.1,0,3.2c0,1.1,0.1,2.3,0.3,3.5c0.2,1.2,0.5,2.5,0.9,3.7c0.5,1.2,1.1,2.4,1.8,3.5
				c1.4,2.1,2.9,3.6,4.2,5.1c0.7,0.7,1.3,1.5,1.9,2.2s1.2,1.4,1.7,2.2l0.8,1.1c0.2,0.4,0.4,0.8,0.7,1.2c0.5,0.8,0.8,1.6,1.2,2.4
				c1.4,3.2,1.8,6.6,1.5,10s-1.6,6.9-3.3,10.2c-0.8,1.7-1.8,3.3-2.9,4.9c-1.1,1.6-2.2,3.3-3.4,4.9c-2.4,3.3-4.9,6.8-7.1,10.6
				s-4.1,8.1-4.9,12.9c-0.9,4.8-0.4,9.3-0.3,13.3c0.2,4,0.1,7.4-0.9,10.4c-1,3.1-2.9,6-5.3,8.5c-2.4,2.6-5.4,4.8-8.5,6.8
				s-6.6,3.5-10.5,5.3c-3.8,1.8-7.9,4-11.6,7.1l-1.3,1.2l-1.1,1.1l-2.2,2c-1.5,1.4-3,2.7-4.5,4c-3,2.6-6.1,5.2-9.2,7.7
				c-1.6,1.2-3.1,2.5-4.7,3.7c-1.4,1-2.6,1.8-4.1,2.4c-2.9,1.2-6.3,1.6-10.3,1.8c-2,0.1-4.2,0.3-6.4,0.6c-1.1,0.1-2.3,0.3-3.4,0.6
				c-0.6,0.1-1.1,0.3-1.7,0.4c-0.6,0.1-1.2,0.3-1.8,0.5c-2.6,0.8-5.2,2.4-7,3.9c-1.7,1.4-2.9,2.4-4.1,3.1
				c-7.9,3.5-16.8,4.8-25.5,4.1c-2.2-0.2-4.4-0.5-6.6-1c-1.1-0.2-2.2-0.5-3.3-0.8s-2.2-0.5-3.3-0.9l-13.9-4.4
				c-2.4-0.7-4.7-1.6-7.4-2.1L141,312l-4-0.5c-2.7-0.4-5.5-0.4-8.3-0.2c-2.7,0.2-5.1,0.6-7.2,0.7s-3.7,0-5.5-0.4
				c-1.8-0.5-3.6-1.3-5.5-2.3s-3.8-2.3-5.7-3.6c-1.9-1.3-3.7-2.7-5.5-4.2c-7.2-5.8-13.4-12.7-18.7-20.4c-2.8-3.9-5.6-8.3-9.6-12.3
				c-2-2-4.4-3.8-6.5-5.2c-2.2-1.4-4.3-2.6-6.2-3.9c-0.9-0.6-1.8-1.2-2.6-1.9c-0.8-0.7-1.6-1.3-2.3-2.1c-0.7-0.8-1.4-1.5-2-2.3
				l-0.9-1.2c-0.3-0.4-0.6-0.9-0.8-1.3c-2.2-3.5-3.7-7.6-4.6-12c-0.9-4.3-1.2-8.9-1-13.4c0-1.1,0.2-2.3,0.2-3.4
				c0.1-1.1,0.2-2.3,0.4-3.4c0.3-2.2,0.8-4.5,1.3-7c0.9-4.8,2-10.3,1-16.1c-0.5-2.9-1.4-5.6-2.6-8.1c-1.2-2.4-2.5-4.8-4-6.9
				c-2.8-4.3-5.9-8.1-8.2-11.9c-1.2-1.9-2.1-3.9-2.9-5.8c-0.7-2-1.2-4-1.3-6c-0.2-4.1,0.8-8.4,2.4-12.8c1.6-4.4,3.7-8.7,5.6-13.4
				c1.9-4.7,3.3-9.7,4.3-14.5c1-4.9,1.9-9.7,2.9-14.3c1-4.7,2.2-9.2,4.1-13.5c1.8-4.3,4.2-8.3,7.4-11.5c3.1-3.3,7.1-5.5,11.5-7
				s9.2-2.4,14-3.7c4.8-1.3,9.7-3.3,13.6-6.7c3.9-3.3,6.8-7.4,9.9-11.1c1.6-1.9,3.1-3.7,5-5.2c1.8-1.5,3.9-2.8,6-3.9
				c3.9-2,8-3.6,11.7-6c0.4-0.3,0.8-0.5,1.2-0.8c-4.2,2.6-8.8,4-13.3,6c-2.2,1-4.5,2.2-6.5,3.7s-3.8,3.3-5.5,5.1
				c-3.3,3.6-6.4,7.4-10.1,10.3c-3.7,2.8-8.1,4.4-12.8,5.4c-4.7,1.1-9.5,1.7-14.4,3.2c-2.4,0.7-4.9,1.6-7.2,2.9s-4.5,2.8-6.4,4.6
				c-3.8,3.6-6.7,8-8.9,12.6c-2.2,4.6-3.7,9.5-5,14.3c-2.4,9.6-3.9,19.2-7.8,27.6c-1.9,4.3-4.2,8.7-6.1,13.4s-3.5,10-3.3,15.7
				c0.1,2.8,0.7,5.7,1.6,8.3s2.1,5.1,3.4,7.3c2.6,4.5,5.6,8.5,8.1,12.4c1.3,2,2.3,3.9,3.2,5.9c0.8,2,1.4,3.9,1.7,5.9
				c0.6,3.9-0.2,8.2-1.3,12.9c-0.5,2.3-1.1,4.8-1.5,7.4c-0.2,1.3-0.4,2.6-0.6,3.9c-0.1,1.3-0.3,2.6-0.3,3.9
				c-0.3,5.2-0.1,10.5,0.9,15.7c0.3,1.4,0.6,2.9,1,4.3c1,3.8,2.6,7.5,4.7,10.9c0.4,0.6,0.7,1.2,1.1,1.8l1.3,1.7
				c0.8,1.2,1.8,2.2,2.7,3.2c1,1,2.1,1.9,3.1,2.9c1.1,0.9,2.2,1.7,3.3,2.4c1.2,0.8,2.4,1.6,3.5,2.3c0.9,0.6,1.8,1.1,2.6,1.7
				c1.9,1.3,3.4,2.5,4.9,4c2.7,2.8,5.1,6.3,7.7,10.1c0.2,0.3,0.4,0.5,0.5,0.8c2.8,4.2,5.9,8.4,9.4,12.1c3.5,3.8,7.2,7.4,11.2,10.6
				c2,1.6,4,3.2,6.2,4.7c2.1,1.5,4.2,2.9,6.6,4.2c2.4,1.3,5,2.6,8,3.4c0.7,0.2,1.4,0.3,2.1,0.5c0.8,0.1,1.6,0.3,2.5,0.3
				c1.5,0.1,3,0.1,4.4,0c2.8-0.2,5.2-0.5,7.4-0.7c2.1-0.1,4.2-0.1,6.3,0.2l3.2,0.4l3.3,0.8c2.2,0.4,4.4,1.2,6.7,1.9l14,4.5
				c1.2,0.4,2.5,0.7,3.7,1c0,0,0,0,0.1,0c1.2,0.3,2.5,0.7,3.7,0.9c2.6,0.5,5.3,0.9,7.9,1.1c10.6,0.8,21.4-0.9,31.3-5.3l0.3-0.1
				l0.3-0.2c2.2-1.4,4-3,5.4-4.1c0.1-0.1,0.2-0.1,0.3-0.2c1.2-0.9,2.2-1.5,3.3-1.9c0.3-0.1,0.7-0.2,1.1-0.3l1.3-0.3
				c0.9-0.2,1.7-0.3,2.6-0.4c0.2,0,0.3,0,0.5-0.1c1.7-0.2,3.4-0.4,5.3-0.5c4.1-0.3,8.9-0.7,13.7-2.7c2.3-1,4.6-2.4,6.5-3.8
				c1.7-1.3,3.3-2.6,4.9-3.9c3.3-2.6,6.5-5.3,9.6-8.1c0.8-0.7,1.5-1.4,2.3-2.1s1.5-1.4,2.3-2.1l2.3-2.2l1.1-1.1l0.9-0.9
				c2.5-2.2,5.7-4,9.2-5.8c0.5-0.2,1-0.5,1.5-0.7c3.1-1.5,6.5-3.2,9.8-5.3c3.8-2.4,7.3-5.2,10.5-8.6c3.1-3.4,5.8-7.5,7.3-12.3
				c0.1-0.2,0.1-0.3,0.1-0.5c0.6-2.2,1-4.5,1.1-6.7c0.1-2.4,0-4.6-0.1-6.7c-0.2-4.2-0.6-7.9,0-11.2c1-6.7,5.3-13.3,9.9-20
				c1.7-2.5,3.6-5.2,5.2-8.1c2.7-4.8,4.9-10.2,5.3-16.1C334.1,186.1,333.3,181.1,331.3,176.9z"/>
			<path fill="#45250A" d="M183.6,333.6c-1.7,0-3.4-0.1-5.1-0.2c-2.4-0.2-5.1-0.6-8-1.1c-0.9-0.1-1.8-0.4-2.6-0.6
				c-0.3-0.1-0.7-0.2-1-0.3h-0.2l-0.6-0.2c-1-0.3-2.1-0.5-3.1-0.9l-14-4.5c-0.6-0.2-1.1-0.4-1.7-0.5c-1.7-0.5-3.3-1.1-4.9-1.4
				l-3.3-0.8l-3.1-0.4c-1.8-0.3-3.7-0.3-6.2-0.2c-0.8,0.1-1.6,0.2-2.4,0.2c-1.6,0.2-3.2,0.3-5,0.5c-1.4,0.1-2.9,0.1-4.5,0l0,0
				c-0.6,0-1.2-0.1-1.8-0.2c-0.3,0-0.5-0.1-0.7-0.1c-0.4-0.1-0.8-0.2-1.1-0.3c-0.4-0.1-0.7-0.2-1.1-0.3c-3-0.8-5.7-2.1-8.1-3.4
				c-2.1-1.1-4.1-2.4-6.7-4.2c-2.2-1.5-4.2-3.1-6.2-4.7c-3.7-3-7.4-6.5-11.3-10.7c-3.1-3.3-6.1-7.1-9.4-12.2l-0.1-0.1
				c0-0.1-0.1-0.3-0.3-0.4c-0.1-0.1-0.1-0.2-0.2-0.3c-2.5-3.7-5-7.2-7.6-10c-1.4-1.4-2.8-2.6-4.8-3.9c-0.5-0.4-1-0.7-1.6-1
				c-0.3-0.2-0.7-0.4-1-0.7c-1.1-0.7-2.3-1.5-3.5-2.3c-1.1-0.7-2.2-1.5-3.3-2.4c-0.5-0.5-1.1-1-1.6-1.5s-1.1-1-1.6-1.5l-0.6-0.6
				c-0.7-0.8-1.5-1.7-2.2-2.6l-1.3-1.7c-0.2-0.3-0.4-0.6-0.6-1c-0.2-0.3-0.3-0.6-0.5-0.9c-2.2-3.5-3.8-7.2-4.8-11
				c-0.3-1.2-0.6-2.5-0.9-3.7V241c-0.9-4.8-1.2-10.2-0.9-15.8c0-0.9,0.1-1.8,0.2-2.6c0-0.4,0.1-0.9,0.1-1.3l0.6-3.9
				c0.3-2.1,0.8-4.1,1.2-6l0.3-1.4c1.2-5.2,1.9-9.1,1.3-12.7c-0.3-1.8-0.8-3.6-1.7-5.8c-1-2.1-2-4-3.2-5.8c-0.9-1.4-1.9-2.9-2.9-4.4
				c-1.7-2.6-3.5-5.2-5.2-8.1c-1.4-2.4-2.6-4.9-3.4-7.4c-1-2.8-1.5-5.7-1.6-8.4c-0.2-6.3,1.8-12.1,3.3-15.9c1.2-2.9,2.5-5.6,3.7-8.3
				c0.8-1.8,1.6-3.4,2.4-5.1c2.9-6.2,4.4-13.1,6.1-20.3c0.5-2.4,1.1-4.8,1.7-7.2c1.2-4.4,2.7-9.6,5-14.4c2.4-5.1,5.5-9.4,9-12.7
				c1.8-1.7,3.9-3.2,6.5-4.7c2-1.1,4.4-2.1,7.3-2.9c3.1-0.9,6.2-1.5,9.2-2.1c1.7-0.3,3.5-0.7,5.3-1.1c5.2-1.1,9.4-2.9,12.6-5.3
				c2.9-2.3,5.5-5.1,7.9-7.9c0.7-0.8,1.4-1.5,2.1-2.3c1.6-1.7,3.5-3.6,5.6-5.2c1.8-1.3,3.8-2.5,6.6-3.8c1.5-0.6,2.9-1.2,4.4-1.8
				c3.1-1.2,6.1-2.4,8.9-4.2L128,33c-0.2,0.2-0.4,0.3-0.6,0.4c-0.2,0.1-0.4,0.2-0.6,0.4c-2.5,1.6-5.2,2.9-7.8,4.1
				c-1.3,0.6-2.6,1.2-3.9,1.9c-2.3,1.2-4.3,2.5-5.9,3.8c-1.8,1.4-3.3,3.2-4.8,5l-0.1,0.1c-0.7,0.9-1.5,1.8-2.2,2.7
				c-2.3,2.9-4.7,5.9-7.7,8.4c-3.4,3-7.9,5.2-13.8,6.8c-1.8,0.5-3.5,0.9-5.2,1.3c-3.1,0.7-5.9,1.4-8.7,2.4
				c-4.8,1.6-8.5,3.9-11.3,6.9c-2.9,2.9-5.4,6.7-7.3,11.4C46,93.3,44.8,98.2,44,102c-0.6,2.9-1.2,5.9-1.8,9
				c-0.3,1.8-0.7,3.5-1.1,5.3c-1.1,5.3-2.6,10.2-4.3,14.6c-0.8,1.9-1.6,3.8-2.4,5.6c-1.2,2.7-2.3,5.2-3.2,7.8
				c-1.8,4.9-2.5,9-2.4,12.6c0.1,1.7,0.5,3.7,1.3,5.9c0.8,1.8,1.7,3.8,2.9,5.7c1.3,2.1,2.7,4.1,4.3,6.3c1.3,1.8,2.6,3.6,3.9,5.6
				c1.6,2.3,3,4.9,4,6.9c1.3,2.6,2.2,5.4,2.6,8.2c1,5.7,0,11.1-0.9,15.8l-0.4,1.8c-0.4,2-0.8,3.8-1,5.6c-0.2,1-0.3,2.1-0.4,3.1v0.3
				c0,0.5,0,1.1-0.1,1.7c0,0.6-0.1,1.1-0.1,1.7c-0.2,4.6,0.1,9.2,1,13.3c0.9,4.5,2.5,8.5,4.5,11.8c0.2,0.4,0.5,0.9,0.8,1.3l0.9,1.2
				c0.4,0.5,0.8,1,1.3,1.5c0.2,0.2,0.5,0.5,0.7,0.8c0.5,0.6,1,1,1.6,1.5c0.2,0.2,0.4,0.4,0.6,0.5c0.8,0.7,1.7,1.3,2.5,1.8
				c1.2,0.8,2.4,1.6,3.7,2.4c0.8,0.5,1.6,1,2.5,1.5c2.6,1.8,4.8,3.5,6.6,5.3c3.3,3.3,5.7,6.7,8,10.1c0.5,0.8,1.1,1.5,1.6,2.3
				c5.4,7.9,11.7,14.7,18.6,20.3c2,1.7,3.7,3,5.5,4.2c1.9,1.3,3.8,2.6,5.7,3.6c2.1,1.1,3.8,1.8,5.4,2.3c1.7,0.4,3.2,0.5,5.3,0.4
				c1.1-0.1,2.3-0.2,3.6-0.3c1.2-0.1,2.3-0.3,3.6-0.4c3.2-0.2,5.9-0.2,8.4,0.2l4,0.5l4.2,1.1c1.9,0.3,3.6,0.9,5.2,1.4
				c0.7,0.2,1.4,0.5,2.2,0.7l13.9,4.4c0.7,0.3,1.4,0.4,2.2,0.6c0.4,0.1,0.7,0.2,1.1,0.3c1.1,0.3,2.2,0.6,3.3,0.8
				c2,0.4,4.1,0.8,6.6,1c8.9,0.7,17.6-0.7,25.3-4.1c1.1-0.6,2.2-1.6,3.8-2.9l0.2-0.2c2.1-1.8,4.8-3.3,7.2-4c0.6-0.2,1.2-0.4,1.9-0.5
				c0.3,0,0.5-0.1,0.8-0.2s0.6-0.2,0.9-0.2c1-0.3,2.2-0.5,3.4-0.6c2.1-0.3,4.3-0.5,6.4-0.6c3.5-0.2,7.1-0.5,10.1-1.8
				c1.5-0.6,2.7-1.4,4-2.3c0.8-0.6,1.6-1.2,2.3-1.8c0.8-0.6,1.6-1.3,2.4-1.9c3-2.4,6.1-5,9.2-7.7c1.5-1.3,3-2.6,4.5-4l2.2-2l1.1-1.1
				l1.3-1.2c4-3.3,8.3-5.6,11.7-7.2l1.7-0.8c3.2-1.4,6.1-2.8,8.8-4.5c2.3-1.5,5.8-3.8,8.4-6.7c2.5-2.6,4.3-5.5,5.2-8.3
				c1.1-3.2,1-6.8,0.9-10.2c0-0.9-0.1-1.7-0.1-2.6c-0.1-3.3-0.3-7,0.4-10.8c0.7-4.2,2.3-8.5,5-13.1c2.2-3.8,4.7-7.3,7.1-10.6
				c0.8-1.1,1.7-2.3,2.4-3.5c0.3-0.5,0.6-1,1-1.4c1.3-1.9,2.2-3.4,2.9-4.8c1.9-3.7,3-7.1,3.3-10c0.3-3.5-0.2-6.8-1.5-9.8
				c-0.1-0.2-0.2-0.5-0.4-0.8c-0.2-0.5-0.5-1-0.8-1.5c-0.3-0.4-0.5-0.8-0.7-1.2l-0.8-1c-0.5-0.8-1.1-1.5-1.7-2.2
				c-0.2-0.2-0.4-0.5-0.6-0.7c-0.4-0.5-0.8-1-1.3-1.5c-0.3-0.4-0.7-0.7-1-1.1c-1.1-1.2-2.2-2.4-3.3-4.1c-0.7-1.1-1.3-2.3-1.8-3.6
				c-0.4-1.2-0.7-2.5-0.9-3.8c-0.2-1.2-0.3-2.4-0.3-3.6v-3.2c0-1.4,0.1-2.9,0.2-4.2c0-0.7,0.1-1.4,0.1-2.1l1-12.2
				c0.1-1,0.1-2.1,0.2-3.2c0.2-3,0.4-6.2,0.9-9.4c0.3-1.9,0.7-3.7,1.1-5.4c0.2-0.7,0.3-1.5,0.5-2.1l0.1-0.4c0.3-1.3,0.5-2.6,0.6-3.8
				c0.2-3.4-0.5-6.9-2.2-10.4c-1.5-3.3-3.8-6.3-6.6-9.1c-1-1-2.2-2-3.3-2.9c-1.4-1.1-2.9-2.3-4.5-3.5l-1.9-1.5
				c-3.1-2.4-6.3-4.9-9-8.1c-0.2-0.3-0.4-0.6-0.7-0.8c-0.5-0.6-1-1.2-1.4-1.8l-1.7-2.5c-1.4-1.9-2.5-3.4-3.7-4.8
				c-2.8-3.4-5.5-6.1-8.4-8.3c-3.1-2.5-6.8-4.2-10.4-5.8c-1-0.4-2-0.9-2.9-1.3c-6.2-2.7-12.6-5.6-18-9.8c-0.1-0.1-0.3-0.2-0.4-0.3
				c-0.1-0.1-0.1-0.1-0.2-0.2c-0.1,0-0.1-0.1-0.2-0.1l0.6-0.8c0.1,0,0.1,0.1,0.2,0.1c5.7,4,12.3,6.5,18.7,8.8
				c1.1,0.4,2.1,0.8,3.2,1.2c0.6,0.3,1.3,0.5,1.9,0.8c1.3,0.5,2.5,1,3.8,1.6c1.8,0.8,3.7,1.9,5.6,3.1c3.4,2.3,6.5,5.1,9.5,8.4
				c1.5,1.6,2.8,3.2,4.1,4.8l1.9,2.4c0.6,0.8,1.2,1.5,1.9,2.2c2.6,2.8,5.8,5.1,8.3,6.8c0.2,0.1,0.4,0.2,0.6,0.4
				c0.1,0.1,0.1,0.1,0.2,0.2l1.5,1c2.9,2,5.8,4,8.6,6.5c3.3,2.9,6.1,6.4,8.2,10.3c2.2,4.3,3.4,9,3.3,13.3c-0.1,2.4-0.5,4.7-0.9,6.6
				l-0.1,0.5c-0.4,1.8-0.7,3.5-0.9,5.2l-0.3,3.9c-0.1,1.7-0.2,3.5-0.2,5.4c0,0.9,0,1.8-0.1,2.7l-0.6,12.3c-0.1,2.1-0.1,4-0.1,6
				c0,2.2,0.1,4,0.4,5.4c0.3,1.5,0.8,2.7,1.6,3.9c0.7,1,1.8,2.1,2.9,3.3l0.8,0.8c0.8,0.8,1.5,1.5,2.2,2.4c0.1,0.2,0.3,0.4,0.4,0.5
				c0.2,0.2,0.3,0.4,0.5,0.6l1.2,1.5l1,1.4l0.9,1.5c0.6,0.9,1.1,1.9,1.6,3.1c2,4.1,2.9,9.2,2.4,14c-0.4,5.2-2.1,10.5-5.4,16.3
				c-1.4,2.6-3,4.9-4.6,7.2l-0.6,1c-4.8,7-8.9,13.3-9.8,19.8c-0.5,2.6-0.3,5.5-0.1,8.8c0,0.8,0.1,1.5,0.1,2.3c0.1,2,0.2,4.3,0.1,6.7
				c-0.1,2.1-0.5,4.4-1.1,6.7c0,0.2,0,0.4-0.2,0.7c-1.3,4.3-3.8,8.5-7.4,12.4c-3.1,3.3-6.6,6.1-10.6,8.7c-3.4,2.2-6.9,3.9-9.8,5.3
				c-0.3,0.1-0.5,0.2-0.7,0.3c-0.3,0.1-0.5,0.3-0.8,0.4c-3.2,1.6-6.5,3.5-9.1,5.7l-2,2l-2.3,2.2c-0.4,0.4-0.8,0.7-1.2,1.1
				c-0.4,0.4-0.8,0.7-1.2,1.1c-0.4,0.3-0.8,0.7-1.1,1c-0.4,0.4-0.8,0.7-1.2,1.1c-3.1,2.8-6.3,5.5-9.6,8.1c-1.6,1.3-3.2,2.6-4.9,3.9
				c-2.1,1.6-4.5,2.9-6.6,3.9c-5,2.1-10.1,2.5-13.9,2.7c-1.9,0.1-3.6,0.3-5.2,0.5c-0.3,0.1-0.4,0.1-0.6,0.1
				c-0.8,0.1-1.6,0.2-2.5,0.4L221,321c-0.4,0.1-0.8,0.2-1.1,0.3c-1,0.4-1.9,0.9-3.2,1.8c-0.1,0.1-0.2,0.1-0.2,0.1
				c-0.4,0.3-0.8,0.6-1.2,0.9c-1.2,1-2.7,2.2-4.3,3.2l-0.4,0.3l-0.3,0.1C201.9,331.7,192.8,333.6,183.6,333.6z M167,330.4h0.2
				c0.4,0.1,0.7,0.2,1.1,0.3c0.9,0.2,1.7,0.5,2.6,0.6c2.8,0.5,5.5,0.9,7.9,1.1c10.8,0.8,21.5-1,31.1-5.3l0.3-0.1l0.2-0.2
				c1.6-1,3-2.2,4.2-3.2c0.4-0.3,0.8-0.6,1.1-0.9c0.1-0.1,0.2-0.1,0.2-0.2c1.4-1,2.4-1.6,3.5-2c0.3-0.1,0.7-0.2,1.1-0.3l1.4-0.3
				c0.9-0.2,1.8-0.3,2.7-0.4c0.2,0,0.2,0,0.3,0h0.2c1.7-0.2,3.4-0.4,5.3-0.5c3.7-0.3,8.7-0.6,13.5-2.7c2.1-0.9,4.3-2.2,6.4-3.7
				c1.7-1.3,3.3-2.6,4.9-3.9c3.3-2.6,6.5-5.3,9.6-8.1c0.4-0.3,0.8-0.7,1.1-1c0.4-0.4,0.8-0.7,1.2-1.1c0.4-0.3,0.8-0.7,1.1-1
				c0.4-0.4,0.8-0.7,1.2-1.1l4.3-4.2c2.6-2.3,6-4.2,9.3-5.9c0.3-0.1,0.5-0.2,0.8-0.4c0.3-0.1,0.5-0.3,0.8-0.4
				c2.9-1.4,6.4-3.1,9.7-5.3c4-2.5,7.4-5.3,10.4-8.5c3.4-3.8,5.9-7.8,7.2-12.1c0.1-0.2,0.1-0.2,0.1-0.4v-0.1c0.6-2.3,1-4.5,1.1-6.6
				c0.1-2.4,0-4.7-0.1-6.7c0-0.8-0.1-1.6-0.1-2.3c-0.2-3.2-0.4-6.3,0.1-9c1-6.7,5.1-13.1,10-20.2l0.6-1c1.5-2.3,3.1-4.6,4.5-7.1
				c3.2-5.7,4.9-10.9,5.2-15.9c0.4-4.6-0.5-9.5-2.4-13.5l0,0c-0.6-1.2-1-2.2-1.6-3.1l-0.9-1.5l-1-1.4l-1.2-1.5
				c-0.2-0.2-0.3-0.4-0.4-0.5c-0.2-0.2-0.3-0.4-0.5-0.6c-0.7-0.9-1.4-1.5-2.1-2.3l-0.8-0.9c-1.1-1.2-2.2-2.3-3-3.4
				c-0.9-1.4-1.5-2.6-1.8-4.3c-0.3-1.4-0.4-3.3-0.4-5.6c0-2,0-3.9,0.1-6l0.6-12.3c0-0.9,0.1-1.8,0.1-2.7c0-1.9,0.1-3.7,0.2-5.4
				l0.3-3.9c0.2-1.8,0.5-3.5,0.9-5.3l0.1-0.5c0.4-1.9,0.8-4.1,0.9-6.4c0.1-4.2-1-8.7-3.1-12.9c-2-3.8-4.8-7.3-8-10.1
				c-2.7-2.5-5.7-4.5-8.5-6.5l-1.5-1c-0.1-0.1-0.2-0.1-0.3-0.2c-0.2-0.1-0.3-0.2-0.4-0.3l-0.1-0.1c-2.5-1.7-5.8-4.1-8.5-7
				c-0.7-0.7-1.3-1.4-1.9-2.2l-1.9-2.4c-1.3-1.6-2.6-3.2-4.1-4.8c-2.9-3.3-6-5.9-9.3-8.2c-1.8-1.3-3.6-2.3-5.4-3.1
				c-1.3-0.6-2.6-1.1-3.8-1.6c-0.6-0.3-1.3-0.5-1.9-0.8c-1.1-0.4-2.1-0.8-3.2-1.2c-1.5-0.5-3-1.1-4.4-1.7c1.5,0.7,3,1.4,4.5,2
				c1,0.4,2,0.9,2.9,1.3c3.7,1.7,7.5,3.4,10.6,6c3,2.2,5.8,5,8.6,8.5c1.1,1.3,2.3,2.9,3.7,4.8l1.7,2.5c0.4,0.6,0.9,1.2,1.3,1.8
				c0.2,0.3,0.4,0.5,0.7,0.8c2.6,3.1,5.8,5.6,8.9,8l1.9,1.5c1.6,1.2,3.1,2.3,4.5,3.5c1.1,0.9,2.3,1.9,3.3,2.9c2.9,2.8,5.2,6,6.8,9.3
				c1.7,3.6,2.4,7.2,2.2,10.8c-0.1,1.3-0.4,2.6-0.6,4l-0.1,0.4c-0.2,0.7-0.3,1.4-0.5,2.2c-0.4,1.7-0.8,3.4-1.1,5.3
				c-0.5,3.2-0.7,6.3-0.9,9.3c-0.1,1.1-0.1,2.1-0.2,3.2l-1,12.2c0,0.7-0.1,1.4-0.1,2.1c-0.1,1.4-0.2,2.8-0.2,4.2v3.2
				c0,1.1,0.1,2.3,0.3,3.4c0.2,1.3,0.5,2.5,0.9,3.6c0.5,1.2,1.1,2.4,1.7,3.4c1,1.6,2.1,2.8,3.2,4c0.3,0.4,0.7,0.7,1,1.1
				c0.5,0.5,0.9,1,1.3,1.5c0.2,0.2,0.4,0.5,0.6,0.7c0.6,0.7,1.2,1.4,1.7,2.3l0.8,1.2c0.2,0.4,0.4,0.7,0.6,1.1
				c0.4,0.6,0.6,1.2,0.9,1.7c0.1,0.3,0.2,0.5,0.4,0.8c1.4,3.1,1.9,6.6,1.6,10.3c-0.3,3.1-1.4,6.6-3.4,10.4c-0.7,1.5-1.6,3-2.9,5
				c-0.3,0.5-0.6,0.9-1,1.4c-0.8,1.2-1.6,2.4-2.5,3.5c-2.4,3.3-4.9,6.8-7.1,10.6c-2.6,4.4-4.2,8.6-4.8,12.7
				c-0.7,3.7-0.5,7.2-0.4,10.6c0,0.9,0.1,1.8,0.1,2.6c0.2,3.5,0.2,7.2-0.9,10.6c-1,3-2.8,6-5.4,8.7c-2.7,3-6.2,5.3-8.6,6.9
				c-2.7,1.7-5.7,3.1-8.9,4.6l-1.7,0.8c-3.3,1.6-7.6,3.8-11.5,7l-1.3,1.2l-1.1,1.1l-2.2,2c-1.5,1.4-3,2.7-4.5,4
				c-3.1,2.7-6.2,5.3-9.2,7.7c-0.8,0.6-1.6,1.2-2.3,1.8c-0.8,0.6-1.6,1.3-2.4,1.9c-1.3,0.9-2.6,1.8-4.2,2.5
				c-3.2,1.3-6.9,1.7-10.5,1.8c-2.1,0.1-4.2,0.3-6.4,0.6c-1.2,0.1-2.3,0.3-3.3,0.6c-0.3,0.1-0.6,0.1-0.9,0.2
				c-0.3,0.1-0.6,0.2-0.9,0.2c-0.6,0.1-1.2,0.3-1.7,0.5c-2.3,0.7-4.8,2.1-6.8,3.8l-0.2,0.2c-1.6,1.3-2.8,2.3-4,3
				c-7.8,3.5-16.7,4.9-25.8,4.2c-2.5-0.2-4.7-0.6-6.7-1c-1.1-0.2-2.2-0.5-3.3-0.8c-0.4-0.1-0.7-0.2-1.1-0.3
				c-0.7-0.2-1.5-0.4-2.3-0.6l-13.9-4.4c-0.7-0.2-1.5-0.4-2.2-0.7c-1.6-0.5-3.3-1.1-5.2-1.4l-4.1-1.1l-3.9-0.5
				c-2.4-0.4-5.1-0.4-8.2-0.2c-1.3,0.1-2.4,0.2-3.6,0.4c-1.3,0.1-2.5,0.3-3.6,0.3c-2.2,0.1-3.8,0-5.6-0.4c-1.7-0.5-3.5-1.2-5.6-2.3
				c-1.9-1-3.9-2.3-5.7-3.6c-1.8-1.2-3.5-2.6-5.5-4.2c-7-5.6-13.3-12.5-18.8-20.5c-0.5-0.7-1.1-1.5-1.6-2.3
				c-2.3-3.3-4.7-6.7-7.9-9.9c-1.7-1.7-3.9-3.5-6.4-5.1c-0.8-0.5-1.7-1-2.5-1.5c-1.3-0.8-2.6-1.6-3.7-2.4c-0.9-0.6-1.8-1.2-2.6-1.9
				c-0.2-0.2-0.4-0.4-0.6-0.5c-0.6-0.5-1.2-1-1.7-1.6c-0.2-0.3-0.4-0.5-0.7-0.7c-0.5-0.5-0.9-1-1.4-1.6l-0.9-1.2
				c-0.3-0.4-0.6-0.9-0.8-1.4c-2.1-3.4-3.7-7.5-4.6-12.1c-0.9-4.2-1.2-8.8-1-13.5c0-0.5,0.1-1.1,0.1-1.7c0-0.6,0.1-1.1,0.1-1.7V222
				c0.1-1.1,0.2-2.2,0.4-3.2c0.2-1.8,0.6-3.7,1-5.6l0.4-1.8c0.9-4.7,1.9-9.9,0.9-15.5c-0.5-2.7-1.3-5.4-2.6-8c-1-2-2.3-4.6-4-6.8
				c-1.3-2-2.6-3.8-3.9-5.6c-1.6-2.2-3.1-4.3-4.3-6.4c-1.2-1.9-2.1-4-2.9-5.9c-0.8-2.3-1.2-4.3-1.3-6.2c-0.2-3.7,0.6-8,2.4-13
				c1-2.6,2.1-5.2,3.2-7.8c0.8-1.8,1.6-3.7,2.4-5.6c1.7-4.3,3.2-9.2,4.3-14.4c0.4-1.8,0.7-3.6,1.1-5.3c0.6-3.1,1.2-6.1,1.8-9
				c0.8-3.8,2-8.8,4.1-13.6c2-4.7,4.5-8.7,7.5-11.7c2.9-3.1,6.7-5.4,11.7-7.1c2.8-1,5.7-1.7,8.8-2.4c1.7-0.4,3.5-0.8,5.2-1.3
				c5.7-1.5,10.1-3.7,13.4-6.6c2.9-2.5,5.3-5.4,7.6-8.3c0.7-0.9,1.5-1.8,2.2-2.7l0.1-0.1c1.6-1.9,3.1-3.6,5-5.1
				c1.3-1.1,2.8-2.1,4.5-3.1c-1.9,1-3.5,1.9-4.8,2.9c-2,1.5-3.9,3.4-5.4,5c-0.7,0.8-1.4,1.5-2.1,2.3c-2.5,2.8-5.1,5.7-8.1,8.1
				c-3.4,2.6-7.6,4.4-13,5.5c-1.7,0.4-3.5,0.8-5.3,1.1c-3,0.6-6,1.2-9.1,2.1c-2.9,0.8-5.1,1.7-7.1,2.9c-2.5,1.4-4.6,2.9-6.3,4.5
				c-3.4,3.3-6.4,7.4-8.8,12.5c-2.3,4.8-3.8,9.9-5,14.2c-0.6,2.4-1.2,4.9-1.7,7.2c-1.6,7.3-3.2,14.1-6.1,20.5
				c-0.7,1.7-1.5,3.4-2.4,5.1c-1.3,2.7-2.6,5.4-3.7,8.2c-1.5,3.7-3.5,9.4-3.3,15.5c0.1,2.6,0.6,5.5,1.6,8.2c0.8,2.4,2,4.9,3.4,7.2
				c1.6,2.8,3.4,5.5,5.2,8c1,1.5,2,2.9,2.9,4.4c1.2,1.9,2.2,3.8,3.2,6c0.9,2.3,1.5,4.2,1.7,6c0.6,3.8-0.1,7.8-1.3,13.1l-0.3,1.4
				c-0.4,1.9-0.9,3.9-1.2,6l-0.6,3.9c0,0.4-0.1,0.8-0.1,1.3c-0.1,0.8-0.2,1.7-0.2,2.6c-0.3,5.6,0,10.9,0.9,15.6l0.1,0.6
				c0.3,1.2,0.5,2.5,0.9,3.6c1,3.8,2.6,7.4,4.6,10.8c0.2,0.3,0.4,0.6,0.6,0.9c0.2,0.3,0.3,0.6,0.5,0.9l1.3,1.7
				c0.6,0.9,1.4,1.8,2.1,2.5l0.6,0.6c0.5,0.5,1,0.9,1.5,1.4s1.1,1,1.6,1.5c1,0.9,2.1,1.6,3.2,2.3c1.2,0.8,2.4,1.6,3.5,2.3
				c0.3,0.2,0.7,0.4,1,0.7c0.6,0.4,1.1,0.7,1.6,1.1c2,1.4,3.5,2.6,5,4c2.8,2.9,5.2,6.4,7.8,10.2c0.1,0.1,0.1,0.2,0.2,0.2
				c0.1,0.2,0.3,0.4,0.4,0.6c3.3,5,6.3,8.8,9.3,12c3.8,4.2,7.5,7.6,11.1,10.6c2,1.6,4,3.2,6.2,4.7c2.5,1.8,4.5,3,6.6,4.2
				c2.4,1.3,5,2.6,7.9,3.4c0.3,0.1,0.7,0.2,1,0.2c0.4,0.1,0.7,0.2,1.1,0.3c0.2,0,0.4,0.1,0.7,0.1c0.5,0.1,1.1,0.2,1.7,0.2
				c1.5,0.1,3,0.1,4.4,0c1.8-0.1,3.4-0.3,4.9-0.5c0.9-0.1,1.7-0.2,2.5-0.2c2.6-0.1,4.6-0.1,6.4,0.2l3.2,0.4l3.4,0.8
				c1.7,0.3,3.3,0.8,5,1.4c0.6,0.2,1.1,0.4,1.7,0.5l14,4.5c1,0.3,2,0.6,3,0.8L167,330.4z"/>
		</g>
	</g>
	<g>
		<path fill="#CDECFF" d="M60,117.8L60,117.8c0.6-0.6,0.5-1.6-0.1-2.1l-4.6-4.2c-0.6-0.6-1.6-0.5-2.1,0.1l0,0
			c-0.6,0.6-0.5,1.6,0.1,2.1l4.6,4.2C58.5,118.5,59.4,118.4,60,117.8z"/>
	</g>
	<g>
		<path fill="#CDECFF" d="M58.6,212.4c-0.6-0.6-1.6-0.5-2.1,0.1c-0.6,0.6-0.5,1.6,0.1,2.1l4.6,4.2c0.6,0.6,1.6,0.5,2.1-0.1
			c0.6-0.6,0.5-1.6-0.1-2.1L58.6,212.4z"/>
	</g>
	<g>
		<path fill="#F46C80" d="M65.5,173.9c-0.5-0.7-1.4-0.9-2.1-0.4c-0.7,0.5-0.9,1.4-0.4,2.1l3.5,5.2c0.5,0.7,1.4,0.9,2.1,0.4
			s0.9-1.4,0.4-2.1L65.5,173.9z"/>
	</g>
	<g>
		<path fill="#F4C389" d="M87.9,122.3l3.1-5.4c0.4-0.7,0.2-1.6-0.5-2s-1.6-0.2-2,0.5l-3.1,5.4c-0.4,0.7-0.2,1.6,0.5,2
			C86.5,123.3,87.5,123,87.9,122.3z"/>
	</g>
	<g>
		<path fill="#F4C389" d="M50.5,135.3c-0.7-0.4-1.6-0.2-2,0.5l-3.1,5.4c-0.4,0.7-0.2,1.6,0.5,2s1.6,0.2,2-0.5l3.1-5.4
			C51.5,136.7,51.2,135.7,50.5,135.3z"/>
	</g>
	<g>
		<path fill="#F4C389" d="M190.7,97.9c0.7,0.4,1.6,0.2,2-0.5l3.1-5.4c0.4-0.7,0.2-1.6-0.5-2s-1.6-0.2-2,0.5l-3.1,5.4
			C189.7,96.6,190,97.5,190.7,97.9z"/>
	</g>
	<g>
		<path fill="#CDECFF" d="M78.9,150.2l-4.4,4.4c-0.6,0.6-0.6,1.5,0,2.1s1.5,0.6,2.1,0l4.4-4.4c0.6-0.6,0.6-1.5,0-2.1
			C80.4,149.6,79.5,149.6,78.9,150.2z"/>
	</g>
	<g>
		<path fill="#F46C80" d="M96,176l-6.2-0.4c-0.8-0.1-1.5,0.6-1.6,1.4c-0.1,0.8,0.6,1.5,1.4,1.6l6.2,0.4c0.8,0.1,1.5-0.6,1.6-1.4
			S96.8,176.1,96,176z"/>
	</g>
	<g>
		<path fill="#F46C80" d="M211,276.5c-0.8-0.2-1.6,0.3-1.8,1.1l-1.4,6.1c-0.2,0.8,0.3,1.6,1.1,1.8c0.8,0.2,1.6-0.3,1.8-1.1l1.4-6.1
			C212.3,277.5,211.8,276.7,211,276.5z"/>
	</g>
	<g>
		<path fill="#F46C80" d="M58.8,234.9c-0.5-0.7-1.4-0.9-2.1-0.4c-0.7,0.5-0.9,1.4-0.4,2.1l3.5,5.2c0.5,0.7,1.4,0.9,2.1,0.4
			c0.7-0.5,0.9-1.4,0.4-2.1L58.8,234.9z"/>
	</g>
	<g>
		<path fill="#F46C80" d="M291.4,182.4c0.5,0.7,1.4,0.9,2.1,0.4s0.9-1.4,0.4-2.1l-3.5-5.2c-0.5-0.7-1.4-0.9-2.1-0.4
			s-0.9,1.4-0.4,2.1L291.4,182.4z"/>
	</g>
	<g>
		<path fill="#F46C80" d="M258.5,76.9c0.5,0.7,1.4,0.9,2.1,0.4s0.9-1.4,0.4-2.1l-3.5-5.2c-0.5-0.7-1.4-0.9-2.1-0.4
			c-0.7,0.5-0.9,1.4-0.4,2.1L258.5,76.9z"/>
	</g>
	<g>
		<path fill="#F46C80" d="M230,59.2l5.7-2.5c0.8-0.3,1.1-1.2,0.8-2s-1.2-1.1-2-0.8l-5.7,2.5c-0.8,0.3-1.1,1.2-0.8,2
			C228.4,59.2,229.3,59.5,230,59.2z"/>
	</g>
	<g>
		<path fill="#F4C389" d="M123.1,129.1c0.7,0.4,1.6,0.2,2-0.5l3.1-5.4c0.4-0.7,0.2-1.6-0.5-2s-1.6-0.2-2,0.5l-3.1,5.4
			C122.2,127.8,122.4,128.7,123.1,129.1z"/>
	</g>
	<g>
		<path fill="#CDECFF" d="M163,85.8c0.6,0.6,1.6,0.5,2.1-0.1c0.6-0.6,0.5-1.6-0.1-2.1l-4.6-4.2c-0.6-0.6-1.6-0.5-2.1,0.1
			c-0.6,0.6-0.5,1.6,0.1,2.1L163,85.8z"/>
	</g>
	<g>
		<path fill="#F4C389" d="M98.8,71.6c-0.7-0.4-1.6-0.2-2,0.5l-3.1,5.4c-0.4,0.7-0.2,1.6,0.5,2s1.6,0.2,2-0.5l3.1-5.4
			C99.8,72.9,99.5,72,98.8,71.6z"/>
	</g>
	<g>
		<path fill="#F46C80" d="M119,90c-0.1-0.8-0.8-1.4-1.6-1.3l-6.2,0.6c-0.8,0.1-1.4,0.8-1.3,1.6c0.1,0.8,0.8,1.4,1.6,1.3l6.2-0.6
			C118.4,91.5,119,90.8,119,90z"/>
	</g>
	<g>
		<path fill="#F4C389" d="M133,82.7c0.3,0.8,1.1,1.2,1.9,0.9c0.8-0.3,1.2-1.1,0.9-1.9l-2.1-5.9c-0.3-0.8-1.1-1.2-1.9-0.9
			c-0.8,0.3-1.2,1.1-0.9,1.9L133,82.7z"/>
	</g>
	<g>
		<path fill="#CDECFF" d="M208.1,80.7c0.6,0.6,1.6,0.5,2.1-0.1c0.6-0.6,0.5-1.6-0.1-2.1l-4.6-4.2c-0.6-0.6-1.6-0.5-2.1,0.1
			c-0.6,0.6-0.5,1.6,0.1,2.1L208.1,80.7z"/>
	</g>
	<g>
		<path fill="#F46C80" d="M172.5,59.3l6.2-0.6c0.8-0.1,1.4-0.8,1.3-1.6c-0.1-0.8-0.8-1.4-1.6-1.3l-6.2,0.6c-0.8,0.1-1.4,0.8-1.3,1.6
			C170.9,58.7,171.7,59.3,172.5,59.3z"/>
	</g>
	<g>
		<path fill="#F4C389" d="M194.1,49.8c0.3,0.8,1.1,1.2,1.9,0.9c0.8-0.3,1.2-1.1,0.9-1.9l-2.1-5.9c-0.3-0.8-1.1-1.2-1.9-0.9
			c-0.8,0.3-1.2,1.1-0.9,1.9L194.1,49.8z"/>
	</g>
	<g>
		<path fill="#F4C389" d="M138.9,42.7c0.3,0.8,1.1,1.2,1.9,0.9c0.8-0.3,1.2-1.1,0.9-1.9l-2.1-5.9c-0.3-0.8-1.1-1.2-1.9-0.9
			c-0.8,0.3-1.2,1.1-0.9,1.9L138.9,42.7z"/>
	</g>
	<g>
		<path fill="#F4C389" d="M288.6,145.9c0.7,0.4,1.6,0.2,2-0.5l3.1-5.4c0.4-0.7,0.2-1.6-0.5-2s-1.6-0.2-2,0.5l-3.1,5.4
			C287.7,144.5,287.9,145.4,288.6,145.9z"/>
	</g>
	<g>
		<path fill="#F4C389" d="M243.9,124.6l6.2-0.9c0.8-0.1,1.4-0.9,1.3-1.7c-0.1-0.8-0.9-1.4-1.7-1.3l-6.2,0.9
			c-0.8,0.1-1.4,0.9-1.3,1.7C242.3,124.2,243.1,124.7,243.9,124.6z"/>
	</g>
	<g>
		<path fill="#CDECFF" d="M278.7,107.7c0.5,0.6,1.5,0.7,2.1,0.2s0.7-1.5,0.2-2.1l-4-4.8c-0.5-0.6-1.5-0.7-2.1-0.2s-0.7,1.5-0.2,2.1
			L278.7,107.7z"/>
	</g>
	<g>
		<path fill="#CDECFF" d="M117.6,227.8l-4.4,4.4c-0.6,0.6-0.6,1.5,0,2.1s1.5,0.6,2.1,0l4.4-4.4c0.6-0.6,0.6-1.5,0-2.1
			C119.2,227.2,118.2,227.2,117.6,227.8z"/>
	</g>
	<g>
		<path fill="#CDECFF" d="M218.4,109l4.4-4.4c0.6-0.6,0.6-1.5,0-2.1s-1.5-0.6-2.1,0l-4.4,4.4c-0.6,0.6-0.6,1.5,0,2.1
			S217.8,109.6,218.4,109z"/>
	</g>
	<g>
		<path fill="#F4C389" d="M258.3,160l-3.1,5.4c-0.4,0.7-0.2,1.6,0.5,2c0.7,0.4,1.6,0.2,2-0.5l3.1-5.4c0.4-0.7,0.2-1.6-0.5-2
			C259.6,159,258.7,159.3,258.3,160z"/>
	</g>
	<g>
		<path fill="#F46C80" d="M258.5,198.2c0.5,0.7,1.4,0.9,2.1,0.4s0.9-1.4,0.4-2.1l-3.5-5.2c-0.5-0.7-1.4-0.9-2.1-0.4
			c-0.7,0.5-0.9,1.4-0.4,2.1L258.5,198.2z"/>
	</g>
	<g>
		<path fill="#F4C389" d="M237.3,267.2c-0.7,0.4-1,1.3-0.6,2l2.9,5.6c0.4,0.7,1.3,1,2,0.6s1-1.3,0.6-2l-2.9-5.6
			C238.9,267.1,238,266.8,237.3,267.2z"/>
	</g>
	<g>
		<path fill="#CDECFF" d="M217.7,243.6l-4.1,4.7c-0.5,0.6-0.5,1.6,0.2,2.1c0.6,0.5,1.6,0.5,2.1-0.2l4.1-4.7c0.5-0.6,0.5-1.6-0.2-2.1
			C219.1,242.9,218.2,243,217.7,243.6z"/>
	</g>
	<g>
		<path fill="#CDECFF" d="M248.6,235.4c-0.8,0.2-1.3,1-1.1,1.8l1.5,6.1c0.2,0.8,1,1.3,1.8,1.1s1.3-1,1.1-1.8l-1.5-6.1
			C250.2,235.7,249.4,235.2,248.6,235.4z"/>
	</g>
	<g>
		<path fill="#CDECFF" d="M277.8,208.5c-0.8,0-1.5,0.7-1.5,1.5v6.3c0,0.8,0.7,1.5,1.5,1.5s1.5-0.7,1.5-1.5V210
			C279.3,209.2,278.7,208.5,277.8,208.5z"/>
	</g>
	<g>
		<path fill="#F4C389" d="M270.8,250.2c0.3,0.8,1.2,1.1,2,0.8s1.1-1.2,0.8-2l-2.5-5.7c-0.3-0.8-1.2-1.1-2-0.8s-1.1,1.2-0.8,2
			L270.8,250.2z"/>
	</g>
	<g>
		<path fill="#F4C389" d="M91.5,217.3c-0.7-0.4-1.6-0.2-2,0.5l-3.1,5.4c-0.4,0.7-0.2,1.6,0.5,2s1.6,0.2,2-0.5l3.1-5.4
			C92.4,218.6,92.2,217.7,91.5,217.3z"/>
	</g>
	<g>
		<path fill="#CDECFF" d="M105.9,256.1c-0.6-0.6-1.6-0.5-2.1,0.1c-0.6,0.6-0.5,1.6,0.1,2.1l4.6,4.2c0.6,0.6,1.6,0.5,2.1-0.1
			s0.5-1.6-0.1-2.1L105.9,256.1z"/>
	</g>
	<g>
		<path fill="#F46C80" d="M106.1,278.7c-0.5-0.7-1.4-0.9-2.1-0.4s-0.9,1.4-0.4,2.1l3.5,5.2c0.5,0.7,1.4,0.9,2.1,0.4s0.9-1.4,0.4-2.1
			L106.1,278.7z"/>
	</g>
	<g>
		<path fill="#CDECFF" d="M169.1,257.7c-0.7-0.4-1.6-0.3-2.1,0.4l-3.4,5.2c-0.4,0.7-0.3,1.6,0.4,2.1c0.7,0.4,1.6,0.3,2.1-0.4
			l3.4-5.2C170,259.1,169.8,258.2,169.1,257.7z"/>
	</g>
	<g>
		<path fill="#F4C389" d="M138.8,261c-0.7-0.4-1.6-0.2-2,0.5l-3.1,5.4c-0.4,0.7-0.2,1.6,0.5,2s1.6,0.2,2-0.5l3.1-5.4
			C139.7,262.4,139.5,261.5,138.8,261z"/>
	</g>
	<g>
		<path fill="#45250A" d="M238.7,176.6c-0.7-16.2-8-31.6-19.5-42.3c-5.7-5.4-12.4-9.6-19.6-12.4c-7.2-2.8-14.9-4.3-22.7-4.3l0,0l0,0
			c7.7,0,15.5,1.6,22.5,4.7c7.1,3.1,13.5,7.6,18.7,13.2s9.2,12.2,11.8,19.3s3.6,14.6,3.3,22c-0.7,14.8-7.4,28.7-17.9,38.4
			c-10.4,9.7-24.3,15.2-38.4,15.1c-14,0-27.9-5.4-38.4-15.1c-10.5-9.6-17.2-23.6-17.9-38.4c-0.4-7.4,0.7-14.9,3.3-22
			c2.6-7,6.6-13.7,11.8-19.3s11.6-10.1,18.7-13.2c7.1-3.1,14.8-4.6,22.5-4.7l0,0c-7.7,0-15.5,1.5-22.7,4.3s-13.9,7.1-19.6,12.4
			c-11.5,10.7-18.8,26.1-19.6,42.3c-0.4,8.1,0.8,16.4,3.7,24.1c2.9,7.7,7.3,15,13,21.1c5.7,6.1,12.8,11,20.5,14.4s16.2,5.1,24.7,5.1
			c8.4,0,16.9-1.7,24.7-5.1c7.7-3.3,14.8-8.3,20.5-14.4c5.7-6.1,10.1-13.3,13-21.1C237.9,192.9,239.1,184.7,238.7,176.6z"/>
	</g>
</g>
</svg>
