<?xml version="1.0" encoding="UTF-8" standalone="no"?>
<svg width="100px" height="100px" viewBox="0 0 100 100" version="1.1" xmlns="http://www.w3.org/2000/svg" xmlns:xlink="http://www.w3.org/1999/xlink">
    <!-- Generator: Sketch 39.1 (31720) - http://www.bohemiancoding.com/sketch -->
    <title>layer_mask_roundstep</title>
    <desc>Created with Sketch.</desc>
    <defs></defs>
    <g id="Page-1" stroke="none" stroke-width="1" fill="none" fill-rule="evenodd">
        <path d="M82,5.0000567 C82,2.23860164 79.7597326,0 77.0046849,0 L22.9953151,0 C20.2364787,0 18,2.24786402 18,5.0000567 L18,9 L14.0000567,9 C11.2386016,9 9,11.247864 9,14.0000567 L9,18 L5.0000567,18 C2.23860164,18 1.37134154e-14,20.2402674 1.31016719e-14,22.9953151 L1.10918277e-15,77.0046849 C4.96598039e-16,79.7635213 2.24786402,82 5.0000567,82 L9,82 L9,86.4996149 C9,89.2612513 11.247864,91.5 14.0000567,91.5 L18,91.5 L18,95.0063495 C18,97.7642665 20.2402674,100 22.9953151,100 L77.0046849,100 C79.7635213,100 82,97.7667251 82,95.0063495 L82,91.5 L85.9999433,91.5 C88.7613984,91.5 91,89.2606624 91,86.4996149 L91,82 L94.9999433,82 C97.7613984,82 100,79.7597326 100,77.0046849 L100,22.9953151 C100,20.2364787 97.752136,18 94.9999433,18 L91,18 L91,14.0000567 C91,11.2386016 88.752136,9 85.9999433,9 L82,9 L82,5.0000567 Z" id="layer_mask_roundstep" fill="#FFFFFF"></path>
    </g>
</svg>