<?xml version="1.0" encoding="UTF-8" standalone="no"?>
<svg width="100px" height="100px" viewBox="0 0 100 100" version="1.1" xmlns="http://www.w3.org/2000/svg" xmlns:xlink="http://www.w3.org/1999/xlink">
    <!-- Generator: Sketch 39.1 (31720) - http://www.bohemiancoding.com/sketch -->
    <title>layer_mask_roundburst</title>
    <desc>Created with Sketch.</desc>
    <defs></defs>
    <g id="Page-1" stroke="none" stroke-width="1" fill="none" fill-rule="evenodd">
        <path d="M4.83665467,53.9819003 C-1.72928763,51.0723035 -1.59419626,46.6989718 5.14487461,44.2113968 L11.9940346,41.6831849 L6.76739934,36.2714321 C1.7818587,31.109313 3.56190842,26.8186559 10.7389792,26.688059 L17.4546322,26.5658582 L15.2079409,20.8632056 C12.5776544,14.1868944 15.8644084,10.9046467 22.5451345,13.530537 L28.796353,15.9876074 L28.9029916,9.85927175 C29.0278375,2.68459746 33.3204641,0.909982328 38.4877654,5.89259179 L43.3228582,10.5548666 L45.7665919,4.93383155 C48.6275634,-1.64692675 53.2723433,-1.64421242 56.1408657,4.93959003 L58.1864063,9.63449317 L61.4242919,6.27967855 C66.4084864,1.11549111 70.7325491,2.74676209 71.0820416,9.91676575 L71.4070813,16.5851072 L77.1753493,14.0750654 C83.7601807,11.209699 87.1339035,14.3702081 84.7129509,21.1281727 L82.4613845,27.4133041 L88.7511208,27.3017486 C95.9312399,27.174401 97.8386789,31.3853985 93.0158492,36.7024853 L88.5304575,41.6475524 L94.3841065,43.9514663 C101.066405,46.5815252 101.219505,51.2008219 94.7306543,54.2667851 L89.6275886,56.6779689 L93.6803171,60.9453806 C98.6249792,66.1519737 96.8070707,70.5183859 89.63239,70.6977231 L83.7285268,70.8452951 L86.0638207,76.9219892 C88.6392894,83.6236449 85.2885427,86.9613116 78.5913727,84.3813661 L73.0804409,82.2583942 L72.912521,88.7662059 C72.7273313,95.9433176 68.3543752,97.7446443 63.1542993,92.7981895 L58.8752884,88.7278769 L56.2297189,94.6760507 C53.3120642,101.235968 48.588248,101.239352 45.6718729,94.6680443 L42.3569379,87.1986834 L36.4198594,92.8525277 C31.2178642,97.8063565 27.2282962,96.0052937 27.5086818,88.835575 L27.7818506,81.850398 L20.9483267,84.4872637 C14.2481088,87.0726904 11.2527197,83.8814999 14.2554948,77.3648425 L17.1809813,71.0159175 L9.85854368,70.8369874 C2.67894947,70.6615478 1.13278654,66.5669864 6.40080582,61.6954923 L11.5332313,56.9493857 L4.83665467,53.9819003 Z" id="layer_mask_roundburst" fill="#FFFFFF"></path>
    </g>
</svg>