<?xml version="1.0" encoding="utf-8"?>
<!-- Generator: Adobe Illustrator 22.0.1, SVG Export Plug-In . SVG Version: 6.00 Build 0)  -->
<svg version="1.1" id="레이어_1" xmlns="http://www.w3.org/2000/svg" xmlns:xlink="http://www.w3.org/1999/xlink" x="0px"
	 y="0px" viewBox="0 0 183.3 350" enable-background="new 0 0 183.3 350" xml:space="preserve">
<g>
	<g>
		<path fill="#FFFFFF" d="M153.8,31.4C132.7,10.2,103.3,2.3,76,7.6c-5.5,1.1-10.9,2.6-16.1,4.8C30.5,22.1,12.3,47.6,6.2,78
			c-4.9,34,9.7,70.4,38.9,87.1c4.7,3.1,9.7,5.7,14.9,7.8c31.3,12.7,68.5,6.3,93.9-19C187.7,120.1,187.7,65.2,153.8,31.4z"/>
		<g>
			<path fill="#CF4946" d="M92.8,90.1c8.1,4.8,12.9,12.1,11.7,20.6c-2.4,12.1-10.9,23.1-20.6,27.9c-27.9,10.9-60.7-4.9-76.5-30.4
				c2.4,43.7,49.8,61.9,85,41.3c15.8-10.9,31.6-36.4,14.6-54.3C102.7,92.1,97.8,90.4,92.8,90.1z"/>
			<path fill="#CF4946" d="M89,90.5c-8.8-6.4-8.8-18.6-5.1-27.1c7.3-9.7,17-17,30.4-18.2c29.1,0,49.8,20.6,64.8,41.5
				c-0.3-3.7-0.7-7.4-1.5-11.1c-1.5-7.3-3.9-14.5-7.3-21.4c-1.7-3.4-3.6-6.8-5.8-10c-28.4-16-68.4-22.1-89.1,8.2
				c-4.9,9.7-7.3,24.3,0.6,32.9C79.9,88.7,84.4,90.3,89,90.5z"/>
			<path fill="#CF4946" d="M92.9,90.3c2,15.6-10.2,27.7-26,26.5c-42.5-6.1-49.8-57.1-32.8-88.6C15.9,44,5,69.5,15.9,92.6
				c9.7,19.4,27.9,35.2,51,36.4c14.6,0,27.9-8.5,30.6-23.7C97.5,99.7,95.8,94.6,92.9,90.3z"/>
			<path fill="#CF4946" d="M89,90.3c-0.3-17.2,19.2-22.1,32.5-18.4c37.6,13.4,37.6,61.9,19.1,92.8c4.7-3.1,9.1-6.7,13.2-10.9
				c3.5-3.5,6.7-7.3,9.4-11.2s5.2-8,7.3-12.3c-1.7-25.8-10.2-51.3-32-65.8c-17-9.7-41.3-9.7-51,10.7C86.3,80.7,87,85.8,89,90.3z"/>
			<path fill="#CF4946" d="M89.2,90.5c-0.4-0.4,2-0.4,2-0.4c-7.3,4.9-14.6,4.9-21.9,0C58.4,81.6,56,64.6,60.8,52.5
				c12.1-26.7,41.3-38.9,69.6-37.8c-4.3-2.1-8.8-3.8-13.4-5.2c-9.1-2.7-18.6-3.8-28-3.5C84.3,6.3,79.6,6.8,75,7.8
				C45,27,25.6,73.1,57.2,99.8c12.1,9.7,30.4,6.1,36.4-9.7h-2.4c15.8-8.5,34,4.9,35.2,20.6c3.6,37.6-31.6,63.1-65.4,62.6
				c5.9,2.3,12.1,4,18.3,4.9s12.5,1.2,18.8,0.8c15-8.9,29.5-21,36.8-38c10.9-23.1-2.4-65.6-33.9-60.6C95.9,82.6,91.9,86.1,89.2,90.5
				z"/>
			<path fill="#CF4946" d="M92.4,95.2"/>
			<path fill="#CF4946" d="M92.8,90.1"/>
			<path fill="#CF4946" d="M92.7,91.5"/>
			<path fill="#CF4946" d="M92.3,91.5"/>
		</g>
		<g opacity="0.32">
			<path fill="#606060" d="M6.5,76.5c-1.3,14.6,0.6,29.3,5.6,42.7c5.1,13.4,13.4,25.6,24.4,34.5l4.3,3.1c1.5,1,3,1.9,4.5,2.8
				l2.3,1.4c0.8,0.5,1.5,0.9,2.3,1.4c1.5,0.9,3.1,1.7,4.7,2.5c1.6,0.8,3.2,1.5,4.8,2.2c0.8,0.3,1.6,0.6,2.5,0.9l2.5,0.9
				c1.6,0.6,3.4,1.1,5.1,1.5l2.6,0.7l2.6,0.5c6.9,1.4,14,2,21,1.6c7-0.4,14-1.7,20.7-3.8c6.7-2.1,13.2-5,19.2-8.7
				c6-3.7,11.4-8.3,16.3-13.4c4.9-5.1,9.1-10.8,12.6-17c0.5-0.8,0.9-1.5,1.2-2.3l1.2-2.4c0.7-1.6,1.5-3.2,2.1-4.9l1-2.5l0.9-2.5
				l0.4-1.3l0.4-1.3l0.7-2.6c1.7-6.9,2.7-14,2.7-21.1l0-2.7l-0.1-2.7l-0.1-1.3l-0.1-1.3l-0.3-2.7l-0.4-2.7l-0.2-1.3l-0.3-1.3
				l-0.5-2.6l-0.6-2.6c-1.7-7-4.4-13.7-7.8-20.1c-1.8-3.2-3.6-6.3-5.8-9.2c-2.1-3-4.4-5.8-6.9-8.5c2.6,2.5,5.3,5.1,7.6,8
				c2.4,2.8,4.5,5.8,6.5,8.9c0.9,1.6,2,3.1,2.8,4.8l1.3,2.5l1.2,2.5l0.6,1.3l0.5,1.3l1.1,2.6l0.9,2.6l0.5,1.3l0.4,1.3
				c4.4,14.2,4.9,29.7,1.6,44.3c-3.3,14.7-10.6,28.4-20.9,39.5c-5.2,5.5-11,10.4-17.4,14.5c-6.4,4-13.3,7.2-20.5,9.5
				c-7.2,2.2-14.7,3.6-22.3,3.9c-7.6,0.3-15.2-0.3-22.5-1.9l-2.8-0.6L68,176c-1.8-0.5-3.6-1-5.4-1.7l-2.7-1c-0.9-0.3-1.8-0.7-2.6-1
				c-1.7-0.8-3.4-1.6-5.1-2.4c-1.7-0.9-3.3-1.8-4.9-2.7c-0.8-0.5-1.6-1-2.4-1.5l-2.3-1.5c-1.6-1-3.1-2-4.7-3.1l-4.4-3.5
				c-5.7-4.9-10.7-10.7-14.7-17c-4-6.3-7.2-13.1-9.5-20.2C4.8,106.1,3.9,90.9,6.5,76.5z"/>
		</g>
		<path fill="#4E473E" d="M98.1,338l0-148.1l0-9.6c0-4.2-3.4-4.6-7.5-4.6c-4.2,0-7.5,0.4-7.5,4.6l0,5.3L83,338
			C83,338,89.7,345.9,98.1,338L98.1,338z"/>
	</g>
</g>
</svg>
