<?xml version="1.0" encoding="utf-8"?>
<!-- Generator: Adobe Illustrator 22.0.1, SVG Export Plug-In . SVG Version: 6.00 Build 0)  -->
<svg version="1.1" id="레이어_1" xmlns="http://www.w3.org/2000/svg" xmlns:xlink="http://www.w3.org/1999/xlink" x="0px"
	 y="0px" viewBox="0 0 154 350" enable-background="new 0 0 154 350" xml:space="preserve">
<g>
	<g>
		<path fill="#21213A" enable-background="new    " d="M137,262.8c-0.6,0-1-0.5-1-1c0-0.6,0.5-1,1-1c0.3,0,0.6,0.1,0.7,0.3
			l-9.4-42.3c0,0-0.1,0-0.1,0c-1.4,0-2.6-1.2-2.6-2.6c0-1.1,0.6-2,1.6-2.4l-5.2-23.5c-0.1,0-0.2,0.1-0.4,0.1c-0.6,0-1-0.5-1-1
			c0-0.5,0.4-1,1-1l-9.2-41.4c-1.2-0.3-2-1.3-2-2.5c0-0.8,0.4-1.6,1-2l-5.3-23.8c-0.4-0.1-0.7-0.5-0.7-1c0-0.3,0.1-0.6,0.3-0.7
			l-5.6-25.3c-0.4,1-1.3,1.6-2.4,1.6c-1.4,0-2.6-1.2-2.6-2.6c0-1.4,1.2-2.6,2.6-2.6c0.7,0,1.3,0.3,1.8,0.7l-3.1-13.9
			c-0.8-0.5-1.3-1.3-1.3-2.2c0-0.5,0.2-1,0.4-1.4l-1.7-7.5L147.4,7H6.4l28.8,30.7c-0.1-0.3-0.2-0.6-0.2-0.9c0-1.4,1.2-2.6,2.6-2.6
			c1.4,0,2.6,1.2,2.6,2.6c0,1.4-1.2,2.6-2.6,2.6c-0.4,0-0.7-0.1-1-0.2L50.4,54c0.3-1,1.3-1.8,2.4-1.8c1.4,0,2.6,1.2,2.6,2.6
			c0,1.2-0.8,2.2-2,2.5l6.1,6.5l-5.2,24.8c0.7,0.5,1.1,1.2,1.1,2.1c0,1.3-0.9,2.3-2.1,2.5l-14.2,67.2c0.6,0.5,1,1.2,1,2
			c0,1.2-0.8,2.2-1.9,2.5l-3.1,14.5c0.4-1,1.3-1.6,2.4-1.6c1.4,0,2.6,1.2,2.6,2.6s-1.2,2.6-2.6,2.6c-1.4,0-2.6-1.2-2.6-2.6
			c0-0.1,0-0.1,0-0.1l-11,52.1c0.5,0.5,0.8,1.1,0.8,1.8c0,1.1-0.7,2-1.7,2.4l-2.9,14c0.5-0.6,1.2-1,2-1c1.4,0,2.6,1.2,2.6,2.6
			c0,1.4-1.2,2.6-2.6,2.6c-1.2,0-2.2-0.8-2.5-2l-6.6,31.1l6.8,6c-0.2-0.4-0.4-0.8-0.4-1.3c0-1.4,1.2-2.6,2.6-2.6s2.6,1.2,2.6,2.6
			s-1.2,2.6-2.6,2.6c-0.4,0-0.7-0.1-1-0.2l15.1,13.3c0.4-0.2,0.8-0.3,1.2-0.3c1.4,0,2.6,1.2,2.6,2.6c0,0.3-0.1,0.6-0.2,0.9l38,33.4
			l64.9-57L138,262C137.9,262.4,137.5,262.8,137,262.8z M128.3,13.9c1.4,0,2.6,1.2,2.6,2.6s-1.2,2.6-2.6,2.6c-1.4,0-2.6-1.2-2.6-2.6
			S126.9,13.9,128.3,13.9z M121.7,26.9c0.6,0,1,0.5,1,1c0,0.6-0.5,1-1,1s-1-0.5-1-1C120.7,27.4,121.1,26.9,121.7,26.9z M112.9,13.9
			c1.4,0,2.6,1.2,2.6,2.6s-1.2,2.6-2.6,2.6c-1.4,0-2.6-1.2-2.6-2.6S111.5,13.9,112.9,13.9z M112.9,34.2c1.4,0,2.6,1.2,2.6,2.6
			c0,1.4-1.2,2.6-2.6,2.6c-1.4,0-2.6-1.2-2.6-2.6C110.4,35.4,111.5,34.2,112.9,34.2z M106.4,26.9c0.6,0,1,0.5,1,1c0,0.6-0.5,1-1,1
			s-1-0.5-1-1C105.4,27.4,105.8,26.9,106.4,26.9z M106.4,44.9c0.6,0,1,0.5,1,1c0,0.6-0.5,1-1,1s-1-0.5-1-1
			C105.4,45.3,105.8,44.9,106.4,44.9z M97.7,13.9c1.4,0,2.6,1.2,2.6,2.6S99.1,19,97.7,19c-1.4,0-2.6-1.2-2.6-2.6
			S96.2,13.9,97.7,13.9z M97.7,34.2c1.4,0,2.6,1.2,2.6,2.6c0,1.4-1.2,2.6-2.6,2.6c-1.4,0-2.6-1.2-2.6-2.6
			C95.1,35.4,96.2,34.2,97.7,34.2z M97.7,52.2c1.4,0,2.6,1.2,2.6,2.6c0,1.4-1.2,2.6-2.6,2.6c-1.4,0-2.6-1.2-2.6-2.6
			C95.1,53.3,96.2,52.2,97.7,52.2z M22.2,19c-1.4,0-2.6-1.2-2.6-2.6s1.2-2.6,2.6-2.6s2.6,1.2,2.6,2.6S23.7,19,22.2,19z M31,29
			c-0.6,0-1-0.5-1-1c0-0.6,0.5-1,1-1c0.6,0,1,0.5,1,1C32,28.5,31.5,29,31,29z M37.6,19c-1.4,0-2.6-1.2-2.6-2.6s1.2-2.6,2.6-2.6
			c1.4,0,2.6,1.2,2.6,2.6S39,19,37.6,19z M46.3,46.9c-0.6,0-1-0.5-1-1c0-0.6,0.5-1,1-1s1,0.5,1,1C47.3,46.5,46.9,46.9,46.3,46.9z
			 M46.3,29c-0.6,0-1-0.5-1-1c0-0.6,0.5-1,1-1s1,0.5,1,1C47.3,28.5,46.9,29,46.3,29z M52.9,39.4c-1.4,0-2.6-1.2-2.6-2.6
			c0-1.4,1.2-2.6,2.6-2.6s2.6,1.2,2.6,2.6C55.4,38.2,54.3,39.4,52.9,39.4z M52.9,19c-1.4,0-2.6-1.2-2.6-2.6s1.2-2.6,2.6-2.6
			s2.6,1.2,2.6,2.6S54.3,19,52.9,19z M22.2,273.2c-1.4,0-2.6-1.2-2.6-2.6c0-1.4,1.2-2.6,2.6-2.6s2.6,1.2,2.6,2.6
			C24.8,272,23.7,273.2,22.2,273.2z M31,298.6c-0.6,0-1-0.5-1-1c0-0.6,0.5-1,1-1c0.6,0,1,0.5,1,1C32,298.2,31.5,298.6,31,298.6z
			 M31,280.7c-0.6,0-1-0.5-1-1s0.5-1,1-1c0.6,0,1,0.5,1,1S31.5,280.7,31,280.7z M31,262.8c-0.6,0-1-0.5-1-1c0-0.6,0.5-1,1-1
			c0.6,0,1,0.5,1,1C32,262.3,31.5,262.8,31,262.8z M31,244.3c-0.6,0-1-0.5-1-1c0-0.6,0.5-1,1-1c0.6,0,1,0.5,1,1
			C32,243.8,31.5,244.3,31,244.3z M31,226.3c-0.6,0-1-0.5-1-1c0-0.6,0.5-1,1-1c0.6,0,1,0.5,1,1C32,225.9,31.5,226.3,31,226.3z
			 M31,208.4c-0.6,0-1-0.5-1-1s0.5-1,1-1c0.6,0,1,0.5,1,1S31.5,208.4,31,208.4z M37.6,291.1c-1.4,0-2.6-1.2-2.6-2.6s1.2-2.6,2.6-2.6
			c1.4,0,2.6,1.2,2.6,2.6S39,291.1,37.6,291.1z M37.6,273.2c-1.4,0-2.6-1.2-2.6-2.6c0-1.4,1.2-2.6,2.6-2.6c1.4,0,2.6,1.2,2.6,2.6
			C40.2,272,39,273.2,37.6,273.2z M37.6,254.7c-1.4,0-2.6-1.2-2.6-2.6c0-1.4,1.2-2.6,2.6-2.6c1.4,0,2.6,1.2,2.6,2.6
			C40.2,253.5,39,254.7,37.6,254.7z M37.6,236.7c-1.4,0-2.6-1.2-2.6-2.6s1.2-2.6,2.6-2.6c1.4,0,2.6,1.2,2.6,2.6S39,236.7,37.6,236.7
			z M37.6,218.8c-1.4,0-2.6-1.2-2.6-2.6c0-1.4,1.2-2.6,2.6-2.6c1.4,0,2.6,1.2,2.6,2.6C40.2,217.6,39,218.8,37.6,218.8z M37.6,200.9
			c-1.4,0-2.6-1.2-2.6-2.6s1.2-2.6,2.6-2.6c1.4,0,2.6,1.2,2.6,2.6S39,200.9,37.6,200.9z M46.3,298.6c-0.6,0-1-0.5-1-1
			c0-0.6,0.5-1,1-1s1,0.5,1,1C47.3,298.2,46.9,298.6,46.3,298.6z M46.3,280.7c-0.6,0-1-0.5-1-1s0.5-1,1-1s1,0.5,1,1
			S46.9,280.7,46.3,280.7z M46.3,262.8c-0.6,0-1-0.5-1-1c0-0.6,0.5-1,1-1s1,0.5,1,1C47.3,262.3,46.9,262.8,46.3,262.8z M46.3,244.3
			c-0.6,0-1-0.5-1-1c0-0.6,0.5-1,1-1s1,0.5,1,1C47.3,243.8,46.9,244.3,46.3,244.3z M46.3,226.3c-0.6,0-1-0.5-1-1c0-0.6,0.5-1,1-1
			s1,0.5,1,1C47.3,225.9,46.9,226.3,46.3,226.3z M46.3,208.4c-0.6,0-1-0.5-1-1s0.5-1,1-1s1,0.5,1,1S46.9,208.4,46.3,208.4z
			 M46.3,190.4c-0.6,0-1-0.5-1-1c0-0.6,0.5-1,1-1s1,0.5,1,1C47.3,190,46.9,190.4,46.3,190.4z M46.3,172.5c-0.6,0-1-0.5-1-1
			c0-0.6,0.5-1,1-1s1,0.5,1,1C47.3,172,46.9,172.5,46.3,172.5z M46.3,154.6c-0.6,0-1-0.5-1-1c0-0.6,0.5-1,1-1s1,0.5,1,1
			C47.3,154.1,46.9,154.6,46.3,154.6z M46.3,136.6c-0.6,0-1-0.5-1-1c0-0.6,0.5-1,1-1s1,0.5,1,1C47.3,136.2,46.9,136.6,46.3,136.6z
			 M52.9,309.1c-1.4,0-2.6-1.2-2.6-2.6s1.2-2.6,2.6-2.6s2.6,1.2,2.6,2.6S54.3,309.1,52.9,309.1z M52.9,291.1c-1.4,0-2.6-1.2-2.6-2.6
			s1.2-2.6,2.6-2.6s2.6,1.2,2.6,2.6S54.3,291.1,52.9,291.1z M52.9,273.2c-1.4,0-2.6-1.2-2.6-2.6c0-1.4,1.2-2.6,2.6-2.6
			s2.6,1.2,2.6,2.6C55.4,272,54.3,273.2,52.9,273.2z M52.9,254.7c-1.4,0-2.6-1.2-2.6-2.6c0-1.4,1.2-2.6,2.6-2.6s2.6,1.2,2.6,2.6
			C55.4,253.5,54.3,254.7,52.9,254.7z M52.9,236.7c-1.4,0-2.6-1.2-2.6-2.6s1.2-2.6,2.6-2.6s2.6,1.2,2.6,2.6S54.3,236.7,52.9,236.7z
			 M52.9,218.8c-1.4,0-2.6-1.2-2.6-2.6c0-1.4,1.2-2.6,2.6-2.6s2.6,1.2,2.6,2.6C55.4,217.6,54.3,218.8,52.9,218.8z M52.9,200.9
			c-1.4,0-2.6-1.2-2.6-2.6s1.2-2.6,2.6-2.6s2.6,1.2,2.6,2.6S54.3,200.9,52.9,200.9z M52.9,182.9c-1.4,0-2.6-1.2-2.6-2.6
			s1.2-2.6,2.6-2.6s2.6,1.2,2.6,2.6S54.3,182.9,52.9,182.9z M52.9,165c-1.4,0-2.6-1.2-2.6-2.6s1.2-2.6,2.6-2.6s2.6,1.2,2.6,2.6
			S54.3,165,52.9,165z M52.9,147c-1.4,0-2.6-1.2-2.6-2.6s1.2-2.6,2.6-2.6s2.6,1.2,2.6,2.6S54.3,147,52.9,147z M52.9,129.1
			c-1.4,0-2.6-1.2-2.6-2.6s1.2-2.6,2.6-2.6s2.6,1.2,2.6,2.6S54.3,129.1,52.9,129.1z M52.9,111.2c-1.4,0-2.6-1.2-2.6-2.6
			c0-1.4,1.2-2.6,2.6-2.6s2.6,1.2,2.6,2.6C55.4,110,54.3,111.2,52.9,111.2z M61.6,320.5c-0.6,0-1-0.5-1-1s0.5-1,1-1s1,0.5,1,1
			S62.2,320.5,61.6,320.5z M61.6,298.6c-0.6,0-1-0.5-1-1c0-0.6,0.5-1,1-1s1,0.5,1,1C62.6,298.2,62.2,298.6,61.6,298.6z M61.6,280.7
			c-0.6,0-1-0.5-1-1s0.5-1,1-1s1,0.5,1,1S62.2,280.7,61.6,280.7z M61.6,262.8c-0.6,0-1-0.5-1-1c0-0.6,0.5-1,1-1s1,0.5,1,1
			C62.6,262.3,62.2,262.8,61.6,262.8z M61.6,244.3c-0.6,0-1-0.5-1-1c0-0.6,0.5-1,1-1s1,0.5,1,1C62.6,243.8,62.2,244.3,61.6,244.3z
			 M61.6,226.3c-0.6,0-1-0.5-1-1c0-0.6,0.5-1,1-1s1,0.5,1,1C62.6,225.9,62.2,226.3,61.6,226.3z M61.6,208.4c-0.6,0-1-0.5-1-1
			s0.5-1,1-1s1,0.5,1,1S62.2,208.4,61.6,208.4z M61.6,190.4c-0.6,0-1-0.5-1-1c0-0.6,0.5-1,1-1s1,0.5,1,1
			C62.6,190,62.2,190.4,61.6,190.4z M61.6,172.5c-0.6,0-1-0.5-1-1c0-0.6,0.5-1,1-1s1,0.5,1,1C62.6,172,62.2,172.5,61.6,172.5z
			 M61.6,154.6c-0.6,0-1-0.5-1-1c0-0.6,0.5-1,1-1s1,0.5,1,1C62.6,154.1,62.2,154.6,61.6,154.6z M61.6,136.6c-0.6,0-1-0.5-1-1
			c0-0.6,0.5-1,1-1s1,0.5,1,1C62.6,136.2,62.2,136.6,61.6,136.6z M61.6,118.7c-0.6,0-1-0.5-1-1s0.5-1,1-1s1,0.5,1,1
			S62.2,118.7,61.6,118.7z M61.6,100.7c-0.6,0-1-0.5-1-1s0.5-1,1-1s1,0.5,1,1S62.2,100.7,61.6,100.7z M61.6,82.8c-0.6,0-1-0.5-1-1
			s0.5-1,1-1s1,0.5,1,1S62.2,82.8,61.6,82.8z M61.6,64.9c-0.6,0-1-0.5-1-1c0-0.6,0.5-1,1-1s1,0.5,1,1C62.6,64.4,62.2,64.9,61.6,64.9
			z M61.6,46.9c-0.6,0-1-0.5-1-1c0-0.6,0.5-1,1-1s1,0.5,1,1C62.6,46.5,62.2,46.9,61.6,46.9z M61.6,29c-0.6,0-1-0.5-1-1
			c0-0.6,0.5-1,1-1s1,0.5,1,1C62.6,28.5,62.2,29,61.6,29z M68.2,330.9c-1.4,0-2.6-1.2-2.6-2.6s1.2-2.6,2.6-2.6
			c1.4,0,2.6,1.2,2.6,2.6S69.6,330.9,68.2,330.9z M68.2,309.1c-1.4,0-2.6-1.2-2.6-2.6s1.2-2.6,2.6-2.6c1.4,0,2.6,1.2,2.6,2.6
			S69.6,309.1,68.2,309.1z M68.2,291.1c-1.4,0-2.6-1.2-2.6-2.6s1.2-2.6,2.6-2.6c1.4,0,2.6,1.2,2.6,2.6S69.6,291.1,68.2,291.1z
			 M68.2,273.2c-1.4,0-2.6-1.2-2.6-2.6c0-1.4,1.2-2.6,2.6-2.6c1.4,0,2.6,1.2,2.6,2.6C70.8,272,69.6,273.2,68.2,273.2z M68.2,254.7
			c-1.4,0-2.6-1.2-2.6-2.6c0-1.4,1.2-2.6,2.6-2.6c1.4,0,2.6,1.2,2.6,2.6C70.8,253.5,69.6,254.7,68.2,254.7z M68.2,236.7
			c-1.4,0-2.6-1.2-2.6-2.6s1.2-2.6,2.6-2.6c1.4,0,2.6,1.2,2.6,2.6S69.6,236.7,68.2,236.7z M68.2,218.8c-1.4,0-2.6-1.2-2.6-2.6
			c0-1.4,1.2-2.6,2.6-2.6c1.4,0,2.6,1.2,2.6,2.6C70.8,217.6,69.6,218.8,68.2,218.8z M68.2,200.9c-1.4,0-2.6-1.2-2.6-2.6
			s1.2-2.6,2.6-2.6c1.4,0,2.6,1.2,2.6,2.6S69.6,200.9,68.2,200.9z M68.2,182.9c-1.4,0-2.6-1.2-2.6-2.6s1.2-2.6,2.6-2.6
			c1.4,0,2.6,1.2,2.6,2.6S69.6,182.9,68.2,182.9z M68.2,165c-1.4,0-2.6-1.2-2.6-2.6s1.2-2.6,2.6-2.6c1.4,0,2.6,1.2,2.6,2.6
			S69.6,165,68.2,165z M68.2,147c-1.4,0-2.6-1.2-2.6-2.6s1.2-2.6,2.6-2.6c1.4,0,2.6,1.2,2.6,2.6S69.6,147,68.2,147z M68.2,129.1
			c-1.4,0-2.6-1.2-2.6-2.6s1.2-2.6,2.6-2.6c1.4,0,2.6,1.2,2.6,2.6S69.6,129.1,68.2,129.1z M68.2,111.2c-1.4,0-2.6-1.2-2.6-2.6
			c0-1.4,1.2-2.6,2.6-2.6c1.4,0,2.6,1.2,2.6,2.6C70.8,110,69.6,111.2,68.2,111.2z M68.2,93.2c-1.4,0-2.6-1.2-2.6-2.6
			c0-1.4,1.2-2.6,2.6-2.6c1.4,0,2.6,1.2,2.6,2.6C70.8,92.1,69.6,93.2,68.2,93.2z M68.2,75.3c-1.4,0-2.6-1.2-2.6-2.6s1.2-2.6,2.6-2.6
			c1.4,0,2.6,1.2,2.6,2.6S69.6,75.3,68.2,75.3z M68.2,57.3c-1.4,0-2.6-1.2-2.6-2.6c0-1.4,1.2-2.6,2.6-2.6c1.4,0,2.6,1.2,2.6,2.6
			C70.8,56.2,69.6,57.3,68.2,57.3z M68.2,39.4c-1.4,0-2.6-1.2-2.6-2.6c0-1.4,1.2-2.6,2.6-2.6c1.4,0,2.6,1.2,2.6,2.6
			C70.8,38.2,69.6,39.4,68.2,39.4z M68.2,19c-1.4,0-2.6-1.2-2.6-2.6s1.2-2.6,2.6-2.6c1.4,0,2.6,1.2,2.6,2.6S69.6,19,68.2,19z
			 M76.9,320.5c-0.6,0-1-0.5-1-1s0.5-1,1-1s1,0.5,1,1S77.5,320.5,76.9,320.5z M76.9,298.6c-0.6,0-1-0.5-1-1c0-0.6,0.5-1,1-1
			s1,0.5,1,1C77.9,298.2,77.5,298.6,76.9,298.6z M76.9,280.7c-0.6,0-1-0.5-1-1s0.5-1,1-1s1,0.5,1,1S77.5,280.7,76.9,280.7z
			 M76.9,262.8c-0.6,0-1-0.5-1-1c0-0.6,0.5-1,1-1s1,0.5,1,1C77.9,262.3,77.5,262.8,76.9,262.8z M76.9,244.3c-0.6,0-1-0.5-1-1
			c0-0.6,0.5-1,1-1s1,0.5,1,1C77.9,243.8,77.5,244.3,76.9,244.3z M76.9,226.3c-0.6,0-1-0.5-1-1c0-0.6,0.5-1,1-1s1,0.5,1,1
			C77.9,225.9,77.5,226.3,76.9,226.3z M76.9,208.4c-0.6,0-1-0.5-1-1s0.5-1,1-1s1,0.5,1,1S77.5,208.4,76.9,208.4z M76.9,190.4
			c-0.6,0-1-0.5-1-1c0-0.6,0.5-1,1-1s1,0.5,1,1C77.9,190,77.5,190.4,76.9,190.4z M76.9,172.5c-0.6,0-1-0.5-1-1c0-0.6,0.5-1,1-1
			s1,0.5,1,1C77.9,172,77.5,172.5,76.9,172.5z M76.9,154.6c-0.6,0-1-0.5-1-1c0-0.6,0.5-1,1-1s1,0.5,1,1
			C77.9,154.1,77.5,154.6,76.9,154.6z M76.9,136.6c-0.6,0-1-0.5-1-1c0-0.6,0.5-1,1-1s1,0.5,1,1C77.9,136.2,77.5,136.6,76.9,136.6z
			 M76.9,118.7c-0.6,0-1-0.5-1-1s0.5-1,1-1s1,0.5,1,1S77.5,118.7,76.9,118.7z M76.9,100.7c-0.6,0-1-0.5-1-1s0.5-1,1-1s1,0.5,1,1
			S77.5,100.7,76.9,100.7z M76.9,82.8c-0.6,0-1-0.5-1-1s0.5-1,1-1s1,0.5,1,1S77.5,82.8,76.9,82.8z M76.9,64.9c-0.6,0-1-0.5-1-1
			c0-0.6,0.5-1,1-1s1,0.5,1,1C77.9,64.4,77.5,64.9,76.9,64.9z M76.9,46.9c-0.6,0-1-0.5-1-1c0-0.6,0.5-1,1-1s1,0.5,1,1
			C77.9,46.5,77.5,46.9,76.9,46.9z M76.9,29c-0.6,0-1-0.5-1-1c0-0.6,0.5-1,1-1s1,0.5,1,1C77.9,28.5,77.5,29,76.9,29z M82.3,330.9
			c-1.4,0-2.6-1.2-2.6-2.6s1.2-2.6,2.6-2.6c1.4,0,2.6,1.2,2.6,2.6S83.8,330.9,82.3,330.9z M82.3,309.1c-1.4,0-2.6-1.2-2.6-2.6
			s1.2-2.6,2.6-2.6c1.4,0,2.6,1.2,2.6,2.6S83.8,309.1,82.3,309.1z M82.3,291.1c-1.4,0-2.6-1.2-2.6-2.6s1.2-2.6,2.6-2.6
			c1.4,0,2.6,1.2,2.6,2.6S83.8,291.1,82.3,291.1z M82.3,273.2c-1.4,0-2.6-1.2-2.6-2.6c0-1.4,1.2-2.6,2.6-2.6c1.4,0,2.6,1.2,2.6,2.6
			C84.9,272,83.8,273.2,82.3,273.2z M82.3,254.7c-1.4,0-2.6-1.2-2.6-2.6c0-1.4,1.2-2.6,2.6-2.6c1.4,0,2.6,1.2,2.6,2.6
			C84.9,253.5,83.8,254.7,82.3,254.7z M82.3,236.7c-1.4,0-2.6-1.2-2.6-2.6s1.2-2.6,2.6-2.6c1.4,0,2.6,1.2,2.6,2.6
			S83.8,236.7,82.3,236.7z M82.3,218.8c-1.4,0-2.6-1.2-2.6-2.6c0-1.4,1.2-2.6,2.6-2.6c1.4,0,2.6,1.2,2.6,2.6
			C84.9,217.6,83.8,218.8,82.3,218.8z M82.3,200.9c-1.4,0-2.6-1.2-2.6-2.6s1.2-2.6,2.6-2.6c1.4,0,2.6,1.2,2.6,2.6
			S83.8,200.9,82.3,200.9z M82.3,182.9c-1.4,0-2.6-1.2-2.6-2.6s1.2-2.6,2.6-2.6c1.4,0,2.6,1.2,2.6,2.6S83.8,182.9,82.3,182.9z
			 M82.3,165c-1.4,0-2.6-1.2-2.6-2.6s1.2-2.6,2.6-2.6c1.4,0,2.6,1.2,2.6,2.6S83.8,165,82.3,165z M82.3,147c-1.4,0-2.6-1.2-2.6-2.6
			s1.2-2.6,2.6-2.6c1.4,0,2.6,1.2,2.6,2.6S83.8,147,82.3,147z M82.3,129.1c-1.4,0-2.6-1.2-2.6-2.6s1.2-2.6,2.6-2.6
			c1.4,0,2.6,1.2,2.6,2.6S83.8,129.1,82.3,129.1z M82.3,111.2c-1.4,0-2.6-1.2-2.6-2.6c0-1.4,1.2-2.6,2.6-2.6c1.4,0,2.6,1.2,2.6,2.6
			C84.9,110,83.8,111.2,82.3,111.2z M82.3,93.2c-1.4,0-2.6-1.2-2.6-2.6c0-1.4,1.2-2.6,2.6-2.6c1.4,0,2.6,1.2,2.6,2.6
			C84.9,92.1,83.8,93.2,82.3,93.2z M82.3,75.3c-1.4,0-2.6-1.2-2.6-2.6s1.2-2.6,2.6-2.6c1.4,0,2.6,1.2,2.6,2.6S83.8,75.3,82.3,75.3z
			 M82.3,57.3c-1.4,0-2.6-1.2-2.6-2.6c0-1.4,1.2-2.6,2.6-2.6c1.4,0,2.6,1.2,2.6,2.6C84.9,56.2,83.8,57.3,82.3,57.3z M82.3,39.4
			c-1.4,0-2.6-1.2-2.6-2.6c0-1.4,1.2-2.6,2.6-2.6c1.4,0,2.6,1.2,2.6,2.6C84.9,38.2,83.8,39.4,82.3,39.4z M82.3,19
			c-1.4,0-2.6-1.2-2.6-2.6s1.2-2.6,2.6-2.6c1.4,0,2.6,1.2,2.6,2.6S83.8,19,82.3,19z M91.1,320.5c-0.6,0-1-0.5-1-1s0.5-1,1-1
			c0.6,0,1,0.5,1,1S91.6,320.5,91.1,320.5z M91.1,298.6c-0.6,0-1-0.5-1-1c0-0.6,0.5-1,1-1c0.6,0,1,0.5,1,1
			C92.1,298.2,91.6,298.6,91.1,298.6z M91.1,280.7c-0.6,0-1-0.5-1-1s0.5-1,1-1c0.6,0,1,0.5,1,1S91.6,280.7,91.1,280.7z M91.1,262.8
			c-0.6,0-1-0.5-1-1c0-0.6,0.5-1,1-1c0.6,0,1,0.5,1,1C92.1,262.3,91.6,262.8,91.1,262.8z M91.1,244.3c-0.6,0-1-0.5-1-1
			c0-0.6,0.5-1,1-1c0.6,0,1,0.5,1,1C92.1,243.8,91.6,244.3,91.1,244.3z M91.1,226.3c-0.6,0-1-0.5-1-1c0-0.6,0.5-1,1-1
			c0.6,0,1,0.5,1,1C92.1,225.9,91.6,226.3,91.1,226.3z M91.1,208.4c-0.6,0-1-0.5-1-1s0.5-1,1-1c0.6,0,1,0.5,1,1
			S91.6,208.4,91.1,208.4z M91.1,190.4c-0.6,0-1-0.5-1-1c0-0.6,0.5-1,1-1c0.6,0,1,0.5,1,1C92.1,190,91.6,190.4,91.1,190.4z
			 M91.1,172.5c-0.6,0-1-0.5-1-1c0-0.6,0.5-1,1-1c0.6,0,1,0.5,1,1C92.1,172,91.6,172.5,91.1,172.5z M91.1,154.6c-0.6,0-1-0.5-1-1
			c0-0.6,0.5-1,1-1c0.6,0,1,0.5,1,1C92.1,154.1,91.6,154.6,91.1,154.6z M91.1,136.6c-0.6,0-1-0.5-1-1c0-0.6,0.5-1,1-1
			c0.6,0,1,0.5,1,1C92.1,136.2,91.6,136.6,91.1,136.6z M91.1,118.7c-0.6,0-1-0.5-1-1s0.5-1,1-1c0.6,0,1,0.5,1,1
			S91.6,118.7,91.1,118.7z M91.1,100.7c-0.6,0-1-0.5-1-1s0.5-1,1-1c0.6,0,1,0.5,1,1S91.6,100.7,91.1,100.7z M91.1,82.8
			c-0.6,0-1-0.5-1-1s0.5-1,1-1c0.6,0,1,0.5,1,1S91.6,82.8,91.1,82.8z M91.1,64.9c-0.6,0-1-0.5-1-1c0-0.6,0.5-1,1-1c0.6,0,1,0.5,1,1
			C92.1,64.4,91.6,64.9,91.1,64.9z M91.1,46.9c-0.6,0-1-0.5-1-1c0-0.6,0.5-1,1-1c0.6,0,1,0.5,1,1C92.1,46.5,91.6,46.9,91.1,46.9z
			 M91.1,29c-0.6,0-1-0.5-1-1c0-0.6,0.5-1,1-1c0.6,0,1,0.5,1,1C92.1,28.5,91.6,29,91.1,29z M97.7,309.1c-1.4,0-2.6-1.2-2.6-2.6
			s1.2-2.6,2.6-2.6c1.4,0,2.6,1.2,2.6,2.6S99.1,309.1,97.7,309.1z M97.7,291.1c-1.4,0-2.6-1.2-2.6-2.6s1.2-2.6,2.6-2.6
			c1.4,0,2.6,1.2,2.6,2.6S99.1,291.1,97.7,291.1z M97.7,273.2c-1.4,0-2.6-1.2-2.6-2.6c0-1.4,1.2-2.6,2.6-2.6c1.4,0,2.6,1.2,2.6,2.6
			C100.2,272,99.1,273.2,97.7,273.2z M97.7,254.7c-1.4,0-2.6-1.2-2.6-2.6c0-1.4,1.2-2.6,2.6-2.6c1.4,0,2.6,1.2,2.6,2.6
			C100.2,253.5,99.1,254.7,97.7,254.7z M97.7,236.7c-1.4,0-2.6-1.2-2.6-2.6s1.2-2.6,2.6-2.6c1.4,0,2.6,1.2,2.6,2.6
			S99.1,236.7,97.7,236.7z M97.7,218.8c-1.4,0-2.6-1.2-2.6-2.6c0-1.4,1.2-2.6,2.6-2.6c1.4,0,2.6,1.2,2.6,2.6
			C100.2,217.6,99.1,218.8,97.7,218.8z M97.7,200.9c-1.4,0-2.6-1.2-2.6-2.6s1.2-2.6,2.6-2.6c1.4,0,2.6,1.2,2.6,2.6
			S99.1,200.9,97.7,200.9z M97.7,182.9c-1.4,0-2.6-1.2-2.6-2.6s1.2-2.6,2.6-2.6c1.4,0,2.6,1.2,2.6,2.6S99.1,182.9,97.7,182.9z
			 M97.7,165c-1.4,0-2.6-1.2-2.6-2.6s1.2-2.6,2.6-2.6c1.4,0,2.6,1.2,2.6,2.6S99.1,165,97.7,165z M97.7,147c-1.4,0-2.6-1.2-2.6-2.6
			s1.2-2.6,2.6-2.6c1.4,0,2.6,1.2,2.6,2.6S99.1,147,97.7,147z M97.7,129.1c-1.4,0-2.6-1.2-2.6-2.6s1.2-2.6,2.6-2.6
			c1.4,0,2.6,1.2,2.6,2.6S99.1,129.1,97.7,129.1z M97.7,111.2c-1.4,0-2.6-1.2-2.6-2.6c0-1.4,1.2-2.6,2.6-2.6c1.4,0,2.6,1.2,2.6,2.6
			C100.2,110,99.1,111.2,97.7,111.2z M106.4,298.6c-0.6,0-1-0.5-1-1c0-0.6,0.5-1,1-1s1,0.5,1,1C107.4,298.2,107,298.6,106.4,298.6z
			 M106.4,280.7c-0.6,0-1-0.5-1-1s0.5-1,1-1s1,0.5,1,1S107,280.7,106.4,280.7z M106.4,262.8c-0.6,0-1-0.5-1-1c0-0.6,0.5-1,1-1
			s1,0.5,1,1C107.4,262.3,107,262.8,106.4,262.8z M106.4,244.3c-0.6,0-1-0.5-1-1c0-0.6,0.5-1,1-1s1,0.5,1,1
			C107.4,243.8,107,244.3,106.4,244.3z M106.4,226.3c-0.6,0-1-0.5-1-1c0-0.6,0.5-1,1-1s1,0.5,1,1C107.4,225.9,107,226.3,106.4,226.3
			z M106.4,208.4c-0.6,0-1-0.5-1-1s0.5-1,1-1s1,0.5,1,1S107,208.4,106.4,208.4z M106.4,190.4c-0.6,0-1-0.5-1-1c0-0.6,0.5-1,1-1
			s1,0.5,1,1C107.4,190,107,190.4,106.4,190.4z M106.4,172.5c-0.6,0-1-0.5-1-1c0-0.6,0.5-1,1-1s1,0.5,1,1
			C107.4,172,107,172.5,106.4,172.5z M106.4,154.6c-0.6,0-1-0.5-1-1c0-0.6,0.5-1,1-1s1,0.5,1,1C107.4,154.1,107,154.6,106.4,154.6z
			 M106.4,136.6c-0.6,0-1-0.5-1-1c0-0.6,0.5-1,1-1s1,0.5,1,1C107.4,136.2,107,136.6,106.4,136.6z M112.9,309.1
			c-1.4,0-2.6-1.2-2.6-2.6s1.2-2.6,2.6-2.6c1.4,0,2.6,1.2,2.6,2.6S114.4,309.1,112.9,309.1z M112.9,291.1c-1.4,0-2.6-1.2-2.6-2.6
			s1.2-2.6,2.6-2.6c1.4,0,2.6,1.2,2.6,2.6S114.4,291.1,112.9,291.1z M112.9,273.2c-1.4,0-2.6-1.2-2.6-2.6c0-1.4,1.2-2.6,2.6-2.6
			c1.4,0,2.6,1.2,2.6,2.6C115.5,272,114.4,273.2,112.9,273.2z M112.9,254.7c-1.4,0-2.6-1.2-2.6-2.6c0-1.4,1.2-2.6,2.6-2.6
			c1.4,0,2.6,1.2,2.6,2.6C115.5,253.5,114.4,254.7,112.9,254.7z M112.9,236.7c-1.4,0-2.6-1.2-2.6-2.6s1.2-2.6,2.6-2.6
			c1.4,0,2.6,1.2,2.6,2.6S114.4,236.7,112.9,236.7z M112.9,218.8c-1.4,0-2.6-1.2-2.6-2.6c0-1.4,1.2-2.6,2.6-2.6
			c1.4,0,2.6,1.2,2.6,2.6C115.5,217.6,114.4,218.8,112.9,218.8z M112.9,200.9c-1.4,0-2.6-1.2-2.6-2.6s1.2-2.6,2.6-2.6
			c1.4,0,2.6,1.2,2.6,2.6S114.4,200.9,112.9,200.9z M112.9,182.9c-1.4,0-2.6-1.2-2.6-2.6s1.2-2.6,2.6-2.6c1.4,0,2.6,1.2,2.6,2.6
			S114.4,182.9,112.9,182.9z M112.9,165c-1.4,0-2.6-1.2-2.6-2.6s1.2-2.6,2.6-2.6c1.4,0,2.6,1.2,2.6,2.6S114.4,165,112.9,165z
			 M121.7,298.6c-0.6,0-1-0.5-1-1c0-0.6,0.5-1,1-1s1,0.5,1,1C122.7,298.2,122.2,298.6,121.7,298.6z M121.7,280.7c-0.6,0-1-0.5-1-1
			s0.5-1,1-1s1,0.5,1,1S122.2,280.7,121.7,280.7z M121.7,262.8c-0.6,0-1-0.5-1-1c0-0.6,0.5-1,1-1s1,0.5,1,1
			C122.7,262.3,122.2,262.8,121.7,262.8z M121.7,244.3c-0.6,0-1-0.5-1-1c0-0.6,0.5-1,1-1s1,0.5,1,1
			C122.7,243.8,122.2,244.3,121.7,244.3z M121.7,226.3c-0.6,0-1-0.5-1-1c0-0.6,0.5-1,1-1s1,0.5,1,1
			C122.7,225.9,122.2,226.3,121.7,226.3z M121.7,208.4c-0.6,0-1-0.5-1-1s0.5-1,1-1s1,0.5,1,1S122.2,208.4,121.7,208.4z M128.3,291.1
			c-1.4,0-2.6-1.2-2.6-2.6s1.2-2.6,2.6-2.6c1.4,0,2.6,1.2,2.6,2.6S129.7,291.1,128.3,291.1z M128.3,273.2c-1.4,0-2.6-1.2-2.6-2.6
			c0-1.4,1.2-2.6,2.6-2.6c1.4,0,2.6,1.2,2.6,2.6C130.9,272,129.7,273.2,128.3,273.2z M128.3,254.7c-1.4,0-2.6-1.2-2.6-2.6
			c0-1.4,1.2-2.6,2.6-2.6c1.4,0,2.6,1.2,2.6,2.6C130.9,253.5,129.7,254.7,128.3,254.7z M128.3,236.7c-1.4,0-2.6-1.2-2.6-2.6
			s1.2-2.6,2.6-2.6c1.4,0,2.6,1.2,2.6,2.6S129.7,236.7,128.3,236.7z M137,280.7c-0.6,0-1-0.5-1-1s0.5-1,1-1c0.6,0,1,0.5,1,1
			S137.6,280.7,137,280.7z"/>
		<path fill="#842B19" d="M22.2,13.9c-1.4,0-2.6,1.2-2.6,2.6s1.2,2.6,2.6,2.6s2.6-1.2,2.6-2.6S23.7,13.9,22.2,13.9z"/>
		<path fill="#842B19" d="M37.6,13.9c-1.4,0-2.6,1.2-2.6,2.6s1.2,2.6,2.6,2.6c1.4,0,2.6-1.2,2.6-2.6S39,13.9,37.6,13.9z"/>
		<circle fill="#DBDBDB" cx="31" cy="28" r="1"/>
		<circle fill="#DBDBDB" cx="46.3" cy="28" r="1"/>
		<path fill="#842B19" d="M40.2,36.8c0-1.4-1.2-2.6-2.6-2.6c-1.4,0-2.6,1.2-2.6,2.6c0,0.3,0.1,0.6,0.2,0.9l1.4,1.5
			c0.3,0.1,0.7,0.2,1,0.2C39,39.4,40.2,38.2,40.2,36.8z"/>
		<path fill="#842B19" d="M52.9,13.9c-1.4,0-2.6,1.2-2.6,2.6s1.2,2.6,2.6,2.6s2.6-1.2,2.6-2.6S54.3,13.9,52.9,13.9z"/>
		<path fill="#842B19" d="M68.2,13.9c-1.4,0-2.6,1.2-2.6,2.6s1.2,2.6,2.6,2.6c1.4,0,2.6-1.2,2.6-2.6S69.6,13.9,68.2,13.9z"/>
		<circle fill="#DBDBDB" cx="61.6" cy="28" r="1"/>
		<path fill="#842B19" d="M52.9,34.2c-1.4,0-2.6,1.2-2.6,2.6c0,1.4,1.2,2.6,2.6,2.6s2.6-1.2,2.6-2.6C55.4,35.4,54.3,34.2,52.9,34.2z
			"/>
		<circle fill="#DBDBDB" cx="76.9" cy="28" r="1"/>
		<path fill="#842B19" d="M68.2,34.2c-1.4,0-2.6,1.2-2.6,2.6c0,1.4,1.2,2.6,2.6,2.6c1.4,0,2.6-1.2,2.6-2.6
			C70.8,35.4,69.6,34.2,68.2,34.2z"/>
		<path fill="#842B19" d="M82.3,13.9c-1.4,0-2.6,1.2-2.6,2.6s1.2,2.6,2.6,2.6c1.4,0,2.6-1.2,2.6-2.6S83.8,13.9,82.3,13.9z"/>
		<path fill="#842B19" d="M97.7,19c1.4,0,2.6-1.2,2.6-2.6s-1.2-2.6-2.6-2.6c-1.4,0-2.6,1.2-2.6,2.6S96.2,19,97.7,19z"/>
		<circle fill="#DBDBDB" cx="91.1" cy="28" r="1"/>
		<path fill="#842B19" d="M82.3,34.2c-1.4,0-2.6,1.2-2.6,2.6c0,1.4,1.2,2.6,2.6,2.6c1.4,0,2.6-1.2,2.6-2.6
			C84.9,35.4,83.8,34.2,82.3,34.2z"/>
		<circle fill="#DBDBDB" cx="106.4" cy="28" r="1"/>
		<path fill="#842B19" d="M97.7,39.4c1.4,0,2.6-1.2,2.6-2.6c0-1.4-1.2-2.6-2.6-2.6c-1.4,0-2.6,1.2-2.6,2.6
			C95.1,38.2,96.2,39.4,97.7,39.4z"/>
		<path fill="#842B19" d="M112.9,19c1.4,0,2.6-1.2,2.6-2.6s-1.2-2.6-2.6-2.6c-1.4,0-2.6,1.2-2.6,2.6S111.5,19,112.9,19z"/>
		<path fill="#842B19" d="M128.3,19c1.4,0,2.6-1.2,2.6-2.6s-1.2-2.6-2.6-2.6c-1.4,0-2.6,1.2-2.6,2.6S126.9,19,128.3,19z"/>
		<circle fill="#DBDBDB" cx="121.7" cy="28" r="1"/>
		<path fill="#842B19" d="M112.9,39.4c1.4,0,2.6-1.2,2.6-2.6c0-1.4-1.2-2.6-2.6-2.6c-1.4,0-2.6,1.2-2.6,2.6
			C110.4,38.2,111.5,39.4,112.9,39.4z"/>
		<circle fill="#DBDBDB" cx="46.3" cy="45.9" r="1"/>
		<circle fill="#DBDBDB" cx="61.6" cy="45.9" r="1"/>
		<path fill="#842B19" d="M55.4,54.8c0-1.4-1.2-2.6-2.6-2.6c-1.2,0-2.1,0.8-2.4,1.8l3.1,3.3C54.6,57,55.4,56,55.4,54.8z"/>
		<circle fill="#DBDBDB" cx="76.9" cy="45.9" r="1"/>
		<path fill="#842B19" d="M68.2,52.2c-1.4,0-2.6,1.2-2.6,2.6c0,1.4,1.2,2.6,2.6,2.6c1.4,0,2.6-1.2,2.6-2.6
			C70.8,53.3,69.6,52.2,68.2,52.2z"/>
		<circle fill="#DBDBDB" cx="91.1" cy="45.9" r="1"/>
		<path fill="#842B19" d="M82.3,52.2c-1.4,0-2.6,1.2-2.6,2.6c0,1.4,1.2,2.6,2.6,2.6c1.4,0,2.6-1.2,2.6-2.6
			C84.9,53.3,83.8,52.2,82.3,52.2z"/>
		<circle fill="#DBDBDB" cx="106.4" cy="45.9" r="1"/>
		<path fill="#842B19" d="M97.7,57.3c1.4,0,2.6-1.2,2.6-2.6c0-1.4-1.2-2.6-2.6-2.6c-1.4,0-2.6,1.2-2.6,2.6
			C95.1,56.2,96.2,57.3,97.7,57.3z"/>
		<circle fill="#DBDBDB" cx="61.6" cy="63.8" r="1"/>
		<circle fill="#DBDBDB" cx="76.9" cy="63.8" r="1"/>
		<path fill="#842B19" d="M68.2,70.1c-1.4,0-2.6,1.2-2.6,2.6s1.2,2.6,2.6,2.6c1.4,0,2.6-1.2,2.6-2.6S69.6,70.1,68.2,70.1z"/>
		<circle fill="#DBDBDB" cx="91.1" cy="63.8" r="1"/>
		<path fill="#842B19" d="M82.3,70.1c-1.4,0-2.6,1.2-2.6,2.6s1.2,2.6,2.6,2.6c1.4,0,2.6-1.2,2.6-2.6S83.8,70.1,82.3,70.1z"/>
		<path fill="#842B19" d="M96.4,74.9l-0.8-3.7c-0.3,0.4-0.4,0.9-0.4,1.4C95.1,73.6,95.6,74.4,96.4,74.9z"/>
		<path fill="#DBDBDB" d="M61.6,80.7c-0.6,0-1,0.5-1,1s0.5,1,1,1s1-0.5,1-1S62.2,80.7,61.6,80.7z"/>
		<path fill="#842B19" d="M55.4,90.6c0-0.9-0.4-1.7-1.1-2.1l-1,4.6C54.5,92.9,55.4,91.9,55.4,90.6z"/>
		<path fill="#DBDBDB" d="M76.9,80.7c-0.6,0-1,0.5-1,1s0.5,1,1,1s1-0.5,1-1S77.5,80.7,76.9,80.7z"/>
		<path fill="#842B19" d="M68.2,88.1c-1.4,0-2.6,1.2-2.6,2.6c0,1.4,1.2,2.6,2.6,2.6c1.4,0,2.6-1.2,2.6-2.6
			C70.8,89.2,69.6,88.1,68.2,88.1z"/>
		<path fill="#DBDBDB" d="M91.1,80.7c-0.6,0-1,0.5-1,1s0.5,1,1,1c0.6,0,1-0.5,1-1S91.6,80.7,91.1,80.7z"/>
		<path fill="#842B19" d="M82.3,88.1c-1.4,0-2.6,1.2-2.6,2.6c0,1.4,1.2,2.6,2.6,2.6c1.4,0,2.6-1.2,2.6-2.6
			C84.9,89.2,83.8,88.1,82.3,88.1z"/>
		<path fill="#842B19" d="M95.1,90.6c0,1.4,1.2,2.6,2.6,2.6c1.1,0,2-0.7,2.4-1.6l-0.6-2.8c-0.5-0.4-1.1-0.7-1.8-0.7
			C96.2,88.1,95.1,89.2,95.1,90.6z"/>
		<circle fill="#DBDBDB" cx="61.6" cy="99.7" r="1"/>
		<path fill="#842B19" d="M52.9,106c-1.4,0-2.6,1.2-2.6,2.6c0,1.4,1.2,2.6,2.6,2.6s2.6-1.2,2.6-2.6C55.4,107.2,54.3,106,52.9,106z"
			/>
		<circle fill="#DBDBDB" cx="76.9" cy="99.7" r="1"/>
		<path fill="#842B19" d="M68.2,106c-1.4,0-2.6,1.2-2.6,2.6c0,1.4,1.2,2.6,2.6,2.6c1.4,0,2.6-1.2,2.6-2.6
			C70.8,107.2,69.6,106,68.2,106z"/>
		<circle fill="#DBDBDB" cx="91.1" cy="99.7" r="1"/>
		<path fill="#842B19" d="M82.3,106c-1.4,0-2.6,1.2-2.6,2.6c0,1.4,1.2,2.6,2.6,2.6c1.4,0,2.6-1.2,2.6-2.6
			C84.9,107.2,83.8,106,82.3,106z"/>
		<path fill="#842B19" d="M97.7,106c-1.4,0-2.6,1.2-2.6,2.6c0,1.4,1.2,2.6,2.6,2.6c1.4,0,2.6-1.2,2.6-2.6
			C100.2,107.2,99.1,106,97.7,106z"/>
		<circle fill="#DBDBDB" cx="61.6" cy="117.7" r="1"/>
		<path fill="#842B19" d="M52.9,123.9c-1.4,0-2.6,1.2-2.6,2.6s1.2,2.6,2.6,2.6s2.6-1.2,2.6-2.6S54.3,123.9,52.9,123.9z"/>
		<circle fill="#DBDBDB" cx="76.9" cy="117.7" r="1"/>
		<path fill="#842B19" d="M68.2,123.9c-1.4,0-2.6,1.2-2.6,2.6s1.2,2.6,2.6,2.6c1.4,0,2.6-1.2,2.6-2.6S69.6,123.9,68.2,123.9z"/>
		<circle fill="#DBDBDB" cx="91.1" cy="117.7" r="1"/>
		<path fill="#842B19" d="M82.3,123.9c-1.4,0-2.6,1.2-2.6,2.6s1.2,2.6,2.6,2.6c1.4,0,2.6-1.2,2.6-2.6S83.8,123.9,82.3,123.9z"/>
		<path fill="#DBDBDB" d="M105.4,117.7c0,0.5,0.3,0.8,0.7,1l-0.4-1.7C105.5,117.1,105.4,117.4,105.4,117.7z"/>
		<path fill="#842B19" d="M97.7,123.9c-1.4,0-2.6,1.2-2.6,2.6s1.2,2.6,2.6,2.6c1.4,0,2.6-1.2,2.6-2.6S99.1,123.9,97.7,123.9z"/>
		<circle fill="#DBDBDB" cx="46.3" cy="135.6" r="1"/>
		<circle fill="#DBDBDB" cx="61.6" cy="135.6" r="1"/>
		<path fill="#842B19" d="M52.9,141.9c-1.4,0-2.6,1.2-2.6,2.6s1.2,2.6,2.6,2.6s2.6-1.2,2.6-2.6S54.3,141.9,52.9,141.9z"/>
		<circle fill="#DBDBDB" cx="76.9" cy="135.6" r="1"/>
		<path fill="#842B19" d="M68.2,141.9c-1.4,0-2.6,1.2-2.6,2.6s1.2,2.6,2.6,2.6c1.4,0,2.6-1.2,2.6-2.6S69.6,141.9,68.2,141.9z"/>
		<circle fill="#DBDBDB" cx="91.1" cy="135.6" r="1"/>
		<path fill="#842B19" d="M82.3,141.9c-1.4,0-2.6,1.2-2.6,2.6s1.2,2.6,2.6,2.6c1.4,0,2.6-1.2,2.6-2.6S83.8,141.9,82.3,141.9z"/>
		<circle fill="#DBDBDB" cx="106.4" cy="135.6" r="1"/>
		<path fill="#842B19" d="M97.7,141.9c-1.4,0-2.6,1.2-2.6,2.6s1.2,2.6,2.6,2.6c1.4,0,2.6-1.2,2.6-2.6S99.1,141.9,97.7,141.9z"/>
		<path fill="#842B19" d="M110.4,144.5c0,1.2,0.9,2.3,2,2.5l-1-4.5C110.8,142.9,110.4,143.6,110.4,144.5z"/>
		<circle fill="#DBDBDB" cx="46.3" cy="153.5" r="1"/>
		<path fill="#842B19" d="M40.2,162.4c0-0.8-0.4-1.5-1-2l-0.9,4.5C39.3,164.6,40.2,163.6,40.2,162.4z"/>
		<circle fill="#DBDBDB" cx="61.6" cy="153.5" r="1"/>
		<path fill="#842B19" d="M52.9,159.8c-1.4,0-2.6,1.2-2.6,2.6s1.2,2.6,2.6,2.6s2.6-1.2,2.6-2.6S54.3,159.8,52.9,159.8z"/>
		<circle fill="#DBDBDB" cx="76.9" cy="153.5" r="1"/>
		<path fill="#842B19" d="M68.2,159.8c-1.4,0-2.6,1.2-2.6,2.6s1.2,2.6,2.6,2.6c1.4,0,2.6-1.2,2.6-2.6S69.6,159.8,68.2,159.8z"/>
		<circle fill="#DBDBDB" cx="91.1" cy="153.5" r="1"/>
		<path fill="#842B19" d="M82.3,159.8c-1.4,0-2.6,1.2-2.6,2.6s1.2,2.6,2.6,2.6c1.4,0,2.6-1.2,2.6-2.6S83.8,159.8,82.3,159.8z"/>
		<circle fill="#DBDBDB" cx="106.4" cy="153.5" r="1"/>
		<path fill="#842B19" d="M97.7,159.8c-1.4,0-2.6,1.2-2.6,2.6s1.2,2.6,2.6,2.6c1.4,0,2.6-1.2,2.6-2.6S99.1,159.8,97.7,159.8z"/>
		<path fill="#842B19" d="M112.9,159.8c-1.4,0-2.6,1.2-2.6,2.6s1.2,2.6,2.6,2.6c1.4,0,2.6-1.2,2.6-2.6S114.4,159.8,112.9,159.8z"/>
		<circle fill="#DBDBDB" cx="46.3" cy="171.5" r="1"/>
		<path fill="#842B19" d="M35,180.2l0.2-0.8C35.1,179.7,35,179.9,35,180.2z"/>
		<path fill="#842B19" d="M37.6,182.9c1.4,0,2.6-1.2,2.6-2.6s-1.2-2.6-2.6-2.6c-1.1,0-2,0.7-2.4,1.6l-0.2,0.8c0,0,0,0.1,0,0.1
			C35,181.8,36.2,182.9,37.6,182.9z"/>
		<circle fill="#DBDBDB" cx="61.6" cy="171.5" r="1"/>
		<path fill="#842B19" d="M52.9,177.8c-1.4,0-2.6,1.2-2.6,2.6s1.2,2.6,2.6,2.6s2.6-1.2,2.6-2.6S54.3,177.8,52.9,177.8z"/>
		<circle fill="#DBDBDB" cx="76.9" cy="171.5" r="1"/>
		<path fill="#842B19" d="M68.2,177.8c-1.4,0-2.6,1.2-2.6,2.6s1.2,2.6,2.6,2.6c1.4,0,2.6-1.2,2.6-2.6S69.6,177.8,68.2,177.8z"/>
		<circle fill="#DBDBDB" cx="91.1" cy="171.5" r="1"/>
		<path fill="#842B19" d="M82.3,177.8c-1.4,0-2.6,1.2-2.6,2.6s1.2,2.6,2.6,2.6c1.4,0,2.6-1.2,2.6-2.6S83.8,177.8,82.3,177.8z"/>
		<circle fill="#DBDBDB" cx="106.4" cy="171.5" r="1"/>
		<path fill="#842B19" d="M97.7,177.8c-1.4,0-2.6,1.2-2.6,2.6s1.2,2.6,2.6,2.6c1.4,0,2.6-1.2,2.6-2.6S99.1,177.8,97.7,177.8z"/>
		<path fill="#842B19" d="M112.9,177.8c-1.4,0-2.6,1.2-2.6,2.6s1.2,2.6,2.6,2.6c1.4,0,2.6-1.2,2.6-2.6S114.4,177.8,112.9,177.8z"/>
		<circle fill="#DBDBDB" cx="46.3" cy="189.4" r="1"/>
		<path fill="#842B19" d="M37.6,195.7c-1.4,0-2.6,1.2-2.6,2.6s1.2,2.6,2.6,2.6c1.4,0,2.6-1.2,2.6-2.6S39,195.7,37.6,195.7z"/>
		<circle fill="#DBDBDB" cx="61.6" cy="189.4" r="1"/>
		<path fill="#842B19" d="M52.9,195.7c-1.4,0-2.6,1.2-2.6,2.6s1.2,2.6,2.6,2.6s2.6-1.2,2.6-2.6S54.3,195.7,52.9,195.7z"/>
		<circle fill="#DBDBDB" cx="76.9" cy="189.4" r="1"/>
		<path fill="#842B19" d="M68.2,195.7c-1.4,0-2.6,1.2-2.6,2.6s1.2,2.6,2.6,2.6c1.4,0,2.6-1.2,2.6-2.6S69.6,195.7,68.2,195.7z"/>
		<circle fill="#DBDBDB" cx="91.1" cy="189.4" r="1"/>
		<path fill="#842B19" d="M82.3,195.7c-1.4,0-2.6,1.2-2.6,2.6s1.2,2.6,2.6,2.6c1.4,0,2.6-1.2,2.6-2.6S83.8,195.7,82.3,195.7z"/>
		<circle fill="#DBDBDB" cx="106.4" cy="189.4" r="1"/>
		<path fill="#842B19" d="M97.7,195.7c-1.4,0-2.6,1.2-2.6,2.6s1.2,2.6,2.6,2.6c1.4,0,2.6-1.2,2.6-2.6S99.1,195.7,97.7,195.7z"/>
		<path fill="#DBDBDB" d="M120.7,189.4c0,0.6,0.5,1,1,1c0.1,0,0.2,0,0.4-0.1l-0.4-2C121.1,188.4,120.7,188.9,120.7,189.4z"/>
		<path fill="#842B19" d="M112.9,195.7c-1.4,0-2.6,1.2-2.6,2.6s1.2,2.6,2.6,2.6c1.4,0,2.6-1.2,2.6-2.6S114.4,195.7,112.9,195.7z"/>
		<circle fill="#DBDBDB" cx="31" cy="207.4" r="1"/>
		<circle fill="#DBDBDB" cx="46.3" cy="207.4" r="1"/>
		<path fill="#842B19" d="M37.6,213.6c-1.4,0-2.6,1.2-2.6,2.6c0,1.4,1.2,2.6,2.6,2.6c1.4,0,2.6-1.2,2.6-2.6
			C40.2,214.8,39,213.6,37.6,213.6z"/>
		<circle fill="#DBDBDB" cx="61.6" cy="207.4" r="1"/>
		<path fill="#842B19" d="M52.9,213.6c-1.4,0-2.6,1.2-2.6,2.6c0,1.4,1.2,2.6,2.6,2.6s2.6-1.2,2.6-2.6
			C55.4,214.8,54.3,213.6,52.9,213.6z"/>
		<circle fill="#DBDBDB" cx="76.9" cy="207.4" r="1"/>
		<path fill="#842B19" d="M68.2,213.6c-1.4,0-2.6,1.2-2.6,2.6c0,1.4,1.2,2.6,2.6,2.6c1.4,0,2.6-1.2,2.6-2.6
			C70.8,214.8,69.6,213.6,68.2,213.6z"/>
		<circle fill="#DBDBDB" cx="91.1" cy="207.4" r="1"/>
		<path fill="#842B19" d="M82.3,213.6c-1.4,0-2.6,1.2-2.6,2.6c0,1.4,1.2,2.6,2.6,2.6c1.4,0,2.6-1.2,2.6-2.6
			C84.9,214.8,83.8,213.6,82.3,213.6z"/>
		<circle fill="#DBDBDB" cx="106.4" cy="207.4" r="1"/>
		<path fill="#842B19" d="M97.7,213.6c-1.4,0-2.6,1.2-2.6,2.6c0,1.4,1.2,2.6,2.6,2.6c1.4,0,2.6-1.2,2.6-2.6
			C100.2,214.8,99.1,213.6,97.7,213.6z"/>
		<circle fill="#DBDBDB" cx="121.7" cy="207.4" r="1"/>
		<path fill="#842B19" d="M112.9,213.6c-1.4,0-2.6,1.2-2.6,2.6c0,1.4,1.2,2.6,2.6,2.6c1.4,0,2.6-1.2,2.6-2.6
			C115.5,214.8,114.4,213.6,112.9,213.6z"/>
		<path fill="#842B19" d="M125.7,216.2c0,1.4,1.2,2.6,2.6,2.6c0,0,0.1,0,0.1,0l-1.1-4.9C126.3,214.3,125.7,215.2,125.7,216.2z"/>
		<circle fill="#DBDBDB" cx="31" cy="225.3" r="1"/>
		<path fill="#842B19" d="M24.8,234.2c0-0.7-0.3-1.4-0.8-1.8l-0.9,4.3C24.1,236.2,24.8,235.3,24.8,234.2z"/>
		<circle fill="#DBDBDB" cx="46.3" cy="225.3" r="1"/>
		<path fill="#842B19" d="M37.6,231.6c-1.4,0-2.6,1.2-2.6,2.6s1.2,2.6,2.6,2.6c1.4,0,2.6-1.2,2.6-2.6S39,231.6,37.6,231.6z"/>
		<circle fill="#DBDBDB" cx="61.6" cy="225.3" r="1"/>
		<path fill="#842B19" d="M52.9,231.6c-1.4,0-2.6,1.2-2.6,2.6s1.2,2.6,2.6,2.6s2.6-1.2,2.6-2.6S54.3,231.6,52.9,231.6z"/>
		<circle fill="#DBDBDB" cx="76.9" cy="225.3" r="1"/>
		<path fill="#842B19" d="M68.2,231.6c-1.4,0-2.6,1.2-2.6,2.6s1.2,2.6,2.6,2.6c1.4,0,2.6-1.2,2.6-2.6S69.6,231.6,68.2,231.6z"/>
		<circle fill="#DBDBDB" cx="91.1" cy="225.3" r="1"/>
		<path fill="#842B19" d="M82.3,231.6c-1.4,0-2.6,1.2-2.6,2.6s1.2,2.6,2.6,2.6c1.4,0,2.6-1.2,2.6-2.6S83.8,231.6,82.3,231.6z"/>
		<circle fill="#DBDBDB" cx="106.4" cy="225.3" r="1"/>
		<path fill="#842B19" d="M97.7,231.6c-1.4,0-2.6,1.2-2.6,2.6s1.2,2.6,2.6,2.6c1.4,0,2.6-1.2,2.6-2.6S99.1,231.6,97.7,231.6z"/>
		<circle fill="#DBDBDB" cx="121.7" cy="225.3" r="1"/>
		<path fill="#842B19" d="M112.9,231.6c-1.4,0-2.6,1.2-2.6,2.6s1.2,2.6,2.6,2.6c1.4,0,2.6-1.2,2.6-2.6S114.4,231.6,112.9,231.6z"/>
		<path fill="#842B19" d="M128.3,231.6c-1.4,0-2.6,1.2-2.6,2.6s1.2,2.6,2.6,2.6c1.4,0,2.6-1.2,2.6-2.6S129.7,231.6,128.3,231.6z"/>
		<path fill="#DBDBDB" d="M31,242.2c-0.6,0-1,0.5-1,1c0,0.6,0.5,1,1,1c0.6,0,1-0.5,1-1C32,242.7,31.5,242.2,31,242.2z"/>
		<path fill="#842B19" d="M22.2,254.7c1.4,0,2.6-1.2,2.6-2.6c0-1.4-1.2-2.6-2.6-2.6c-0.8,0-1.6,0.4-2,1l-0.5,2.2
			C20,253.8,21,254.7,22.2,254.7z"/>
		<path fill="#DBDBDB" d="M46.3,242.2c-0.6,0-1,0.5-1,1c0,0.6,0.5,1,1,1s1-0.5,1-1C47.3,242.7,46.9,242.2,46.3,242.2z"/>
		<path fill="#842B19" d="M37.6,249.5c-1.4,0-2.6,1.2-2.6,2.6c0,1.4,1.2,2.6,2.6,2.6c1.4,0,2.6-1.2,2.6-2.6
			C40.2,250.7,39,249.5,37.6,249.5z"/>
		<path fill="#DBDBDB" d="M61.6,242.2c-0.6,0-1,0.5-1,1c0,0.6,0.5,1,1,1s1-0.5,1-1C62.6,242.7,62.2,242.2,61.6,242.2z"/>
		<circle fill="#842B19" cx="52.9" cy="252.1" r="2.6"/>
		<path fill="#DBDBDB" d="M76.9,242.2c-0.6,0-1,0.5-1,1c0,0.6,0.5,1,1,1s1-0.5,1-1C77.9,242.7,77.5,242.2,76.9,242.2z"/>
		<path fill="#842B19" d="M68.2,249.5c-1.4,0-2.6,1.2-2.6,2.6c0,1.4,1.2,2.6,2.6,2.6c1.4,0,2.6-1.2,2.6-2.6
			C70.8,250.7,69.6,249.5,68.2,249.5z"/>
		<path fill="#DBDBDB" d="M91.1,242.2c-0.6,0-1,0.5-1,1c0,0.6,0.5,1,1,1c0.6,0,1-0.5,1-1C92.1,242.7,91.6,242.2,91.1,242.2z"/>
		<circle fill="#842B19" cx="82.3" cy="252.1" r="2.6"/>
		<path fill="#DBDBDB" d="M106.4,242.2c-0.6,0-1,0.5-1,1c0,0.6,0.5,1,1,1s1-0.5,1-1C107.4,242.7,107,242.2,106.4,242.2z"/>
		<path fill="#842B19" d="M97.7,249.5c-1.4,0-2.6,1.2-2.6,2.6c0,1.4,1.2,2.6,2.6,2.6c1.4,0,2.6-1.2,2.6-2.6
			C100.2,250.7,99.1,249.5,97.7,249.5z"/>
		<path fill="#DBDBDB" d="M121.7,242.2c-0.6,0-1,0.5-1,1c0,0.6,0.5,1,1,1s1-0.5,1-1C122.7,242.7,122.2,242.2,121.7,242.2z"/>
		<circle fill="#842B19" cx="112.9" cy="252.1" r="2.6"/>
		<path fill="#842B19" d="M128.3,249.5c-1.4,0-2.6,1.2-2.6,2.6c0,1.4,1.2,2.6,2.6,2.6c1.4,0,2.6-1.2,2.6-2.6
			C130.9,250.7,129.7,249.5,128.3,249.5z"/>
		<circle fill="#DBDBDB" cx="31" cy="261.7" r="1"/>
		<path fill="#842B19" d="M22.2,268c-1.4,0-2.6,1.2-2.6,2.6c0,1.4,1.2,2.6,2.6,2.6s2.6-1.2,2.6-2.6C24.8,269.2,23.7,268,22.2,268z"
			/>
		<circle fill="#DBDBDB" cx="46.3" cy="261.7" r="1"/>
		<path fill="#842B19" d="M37.6,268c-1.4,0-2.6,1.2-2.6,2.6c0,1.4,1.2,2.6,2.6,2.6c1.4,0,2.6-1.2,2.6-2.6
			C40.2,269.2,39,268,37.6,268z"/>
		<circle fill="#DBDBDB" cx="61.6" cy="261.7" r="1"/>
		<path fill="#842B19" d="M52.9,268c-1.4,0-2.6,1.2-2.6,2.6c0,1.4,1.2,2.6,2.6,2.6s2.6-1.2,2.6-2.6C55.4,269.2,54.3,268,52.9,268z"
			/>
		<circle fill="#DBDBDB" cx="76.9" cy="261.7" r="1"/>
		<path fill="#842B19" d="M68.2,268c-1.4,0-2.6,1.2-2.6,2.6c0,1.4,1.2,2.6,2.6,2.6c1.4,0,2.6-1.2,2.6-2.6
			C70.8,269.2,69.6,268,68.2,268z"/>
		<circle fill="#DBDBDB" cx="91.1" cy="261.7" r="1"/>
		<path fill="#842B19" d="M82.3,268c-1.4,0-2.6,1.2-2.6,2.6c0,1.4,1.2,2.6,2.6,2.6c1.4,0,2.6-1.2,2.6-2.6
			C84.9,269.2,83.8,268,82.3,268z"/>
		<circle fill="#DBDBDB" cx="106.4" cy="261.7" r="1"/>
		<path fill="#842B19" d="M97.7,268c-1.4,0-2.6,1.2-2.6,2.6c0,1.4,1.2,2.6,2.6,2.6c1.4,0,2.6-1.2,2.6-2.6
			C100.2,269.2,99.1,268,97.7,268z"/>
		<circle fill="#DBDBDB" cx="121.7" cy="261.7" r="1"/>
		<path fill="#842B19" d="M112.9,268c-1.4,0-2.6,1.2-2.6,2.6c0,1.4,1.2,2.6,2.6,2.6c1.4,0,2.6-1.2,2.6-2.6
			C115.5,269.2,114.4,268,112.9,268z"/>
		<path fill="#DBDBDB" d="M137,260.7c-0.6,0-1,0.5-1,1c0,0.6,0.5,1,1,1c0.5,0,0.8-0.3,1-0.7l-0.2-1
			C137.6,260.8,137.3,260.7,137,260.7z"/>
		<path fill="#842B19" d="M128.3,268c-1.4,0-2.6,1.2-2.6,2.6c0,1.4,1.2,2.6,2.6,2.6c1.4,0,2.6-1.2,2.6-2.6
			C130.9,269.2,129.7,268,128.3,268z"/>
		<circle fill="#DBDBDB" cx="31" cy="279.7" r="1"/>
		<path fill="#842B19" d="M24.8,288.5c0-1.4-1.2-2.6-2.6-2.6s-2.6,1.2-2.6,2.6c0,0.5,0.1,0.9,0.4,1.3l1.2,1.1c0.3,0.1,0.6,0.2,1,0.2
			C23.7,291.1,24.8,290,24.8,288.5z"/>
		<circle fill="#DBDBDB" cx="46.3" cy="279.7" r="1"/>
		<path fill="#842B19" d="M37.6,286c-1.4,0-2.6,1.2-2.6,2.6s1.2,2.6,2.6,2.6c1.4,0,2.6-1.2,2.6-2.6S39,286,37.6,286z"/>
		<circle fill="#DBDBDB" cx="61.6" cy="279.7" r="1"/>
		<path fill="#842B19" d="M52.9,286c-1.4,0-2.6,1.2-2.6,2.6s1.2,2.6,2.6,2.6s2.6-1.2,2.6-2.6S54.3,286,52.9,286z"/>
		<circle fill="#DBDBDB" cx="76.9" cy="279.7" r="1"/>
		<path fill="#842B19" d="M68.2,286c-1.4,0-2.6,1.2-2.6,2.6s1.2,2.6,2.6,2.6c1.4,0,2.6-1.2,2.6-2.6S69.6,286,68.2,286z"/>
		<circle fill="#DBDBDB" cx="91.1" cy="279.7" r="1"/>
		<path fill="#842B19" d="M82.3,286c-1.4,0-2.6,1.2-2.6,2.6s1.2,2.6,2.6,2.6c1.4,0,2.6-1.2,2.6-2.6S83.8,286,82.3,286z"/>
		<circle fill="#DBDBDB" cx="106.4" cy="279.7" r="1"/>
		<path fill="#842B19" d="M97.7,286c-1.4,0-2.6,1.2-2.6,2.6s1.2,2.6,2.6,2.6c1.4,0,2.6-1.2,2.6-2.6S99.1,286,97.7,286z"/>
		<circle fill="#DBDBDB" cx="121.7" cy="279.7" r="1"/>
		<path fill="#842B19" d="M112.9,286c-1.4,0-2.6,1.2-2.6,2.6s1.2,2.6,2.6,2.6c1.4,0,2.6-1.2,2.6-2.6S114.4,286,112.9,286z"/>
		<circle fill="#DBDBDB" cx="137" cy="279.7" r="1"/>
		<path fill="#842B19" d="M128.3,286c-1.4,0-2.6,1.2-2.6,2.6s1.2,2.6,2.6,2.6c1.4,0,2.6-1.2,2.6-2.6S129.7,286,128.3,286z"/>
		<circle fill="#DBDBDB" cx="31" cy="297.6" r="1"/>
		<circle fill="#DBDBDB" cx="46.3" cy="297.6" r="1"/>
		<path fill="#842B19" d="M37.6,303.9c-0.4,0-0.9,0.1-1.2,0.3l3.6,3.2c0.1-0.3,0.2-0.6,0.2-0.9C40.2,305.1,39,303.9,37.6,303.9z"/>
		<circle fill="#DBDBDB" cx="61.6" cy="297.6" r="1"/>
		<path fill="#842B19" d="M52.9,303.9c-1.4,0-2.6,1.2-2.6,2.6s1.2,2.6,2.6,2.6s2.6-1.2,2.6-2.6S54.3,303.9,52.9,303.9z"/>
		<circle fill="#DBDBDB" cx="76.9" cy="297.6" r="1"/>
		<path fill="#842B19" d="M68.2,303.9c-1.4,0-2.6,1.2-2.6,2.6s1.2,2.6,2.6,2.6c1.4,0,2.6-1.2,2.6-2.6S69.6,303.9,68.2,303.9z"/>
		<circle fill="#DBDBDB" cx="91.1" cy="297.6" r="1"/>
		<path fill="#842B19" d="M82.3,303.9c-1.4,0-2.6,1.2-2.6,2.6s1.2,2.6,2.6,2.6c1.4,0,2.6-1.2,2.6-2.6S83.8,303.9,82.3,303.9z"/>
		<circle fill="#DBDBDB" cx="106.4" cy="297.6" r="1"/>
		<path fill="#842B19" d="M97.7,303.9c-1.4,0-2.6,1.2-2.6,2.6s1.2,2.6,2.6,2.6c1.4,0,2.6-1.2,2.6-2.6S99.1,303.9,97.7,303.9z"/>
		<circle fill="#DBDBDB" cx="121.7" cy="297.6" r="1"/>
		<path fill="#842B19" d="M112.9,303.9c-1.4,0-2.6,1.2-2.6,2.6s1.2,2.6,2.6,2.6c1.4,0,2.6-1.2,2.6-2.6S114.4,303.9,112.9,303.9z"/>
		<circle fill="#DBDBDB" cx="61.6" cy="319.5" r="1"/>
		<circle fill="#DBDBDB" cx="76.9" cy="319.5" r="1"/>
		<path fill="#842B19" d="M68.2,325.8c-1.4,0-2.6,1.2-2.6,2.6s1.2,2.6,2.6,2.6c1.4,0,2.6-1.2,2.6-2.6S69.6,325.8,68.2,325.8z"/>
		<circle fill="#DBDBDB" cx="91.1" cy="319.5" r="1"/>
		<path fill="#842B19" d="M82.3,325.8c-1.4,0-2.6,1.2-2.6,2.6s1.2,2.6,2.6,2.6c1.4,0,2.6-1.2,2.6-2.6S83.8,325.8,82.3,325.8z"/>
	</g>
	<polygon opacity="0.6" fill="#21213A" enable-background="new    " points="91.5,63.4 78.2,63.4 121.7,282.9 71.5,332.1 
		77.7,337.5 139.9,283 	"/>
</g>
</svg>
