<?xml version="1.0" encoding="utf-8"?>
<!-- Generator: Adobe Illustrator 22.0.1, SVG Export Plug-In . SVG Version: 6.00 Build 0)  -->
<svg version="1.1" id="레이어_1" xmlns="http://www.w3.org/2000/svg" xmlns:xlink="http://www.w3.org/1999/xlink" x="0px"
	 y="0px" viewBox="0 0 350 152.2" enable-background="new 0 0 350 152.2" xml:space="preserve">
<g>
	<g>
		<g>
			<path fill="#FCB855" d="M74.2,47.2c38.5,9.5,61.3,36.6,61.3,62.9c0,3-0.2,5.9-0.6,8.6l-0.1,0c-12.2,0-24.1,1.1-35.4,3.1
				c-3.2,0.6-6.5-0.5-8.1-2.6c-11.5-15.6-30.5-27.8-53.5-33.9c-2-0.5-3.4-1.5-4.2-2.9c-0.8-1.4-0.8-2.9,0.1-4.3
				C42.1,65,57.2,55.3,74.2,47.2z"/>
			<path fill="#FCB855" d="M25.1,147.5c44.2-25.3,67.1-27.7,66.7-27.6c-12.1-19-28.5-29.9-56.5-35.6
				C-8.8,116.8,0.4,161.6,25.1,147.5z"/>
			<path fill="#FCB855" d="M173.7,4.8c51.1,0,93.3,8.8,99.5,42.4c-36,10.4-61.3,34.6-61.3,62.9c0,2.9,0.3,5.8,0.8,8.6
				c-12,3.4-25.2,5.4-39,5.4c-13.8,0-27-1.9-39-5.4c0.5-2.8,0.8-5.7,0.8-8.6c0-28.3-25.3-52.6-61.3-62.9
				C80.5,13.6,122.6,4.8,173.7,4.8z"/>
			<path fill="#FAA234" d="M267.3,32.5c2.9,4.3,4.9,9.2,5.9,14.7c-36,10.4-61.3,34.6-61.3,62.9c0,2.9,0.3,5.8,0.8,8.6
				c-0.9,0.2-1.7,0.5-2.6,0.7c-0.3-3.8-0.4-10.3-0.4-21.8C209.7,82,233.4,43,267.3,32.5L267.3,32.5z M137.3,119.5
				c-0.9-0.2-1.7-0.5-2.6-0.7c0.5-2.8,0.8-5.7,0.8-8.6c0-28.3-25.3-52.6-61.3-62.9c1-5.6,3.1-10.5,5.9-14.7
				C114,43,137.7,82,137.7,97.7C137.7,109.2,137.6,115.7,137.3,119.5z"/>
			<path fill="#FAA234" d="M135.4,113c-0.1,2-0.3,3.9-0.6,5.8l-0.1,0c-12.2,0-24.1,1.1-35.4,3.1c-3.2,0.6-6.5-0.5-8.1-2.6
				c-11.5-15.6-30.5-27.8-53.5-33.9c-2-0.5-3.4-1.5-4.2-2.9c-0.8-1.4-0.8-2.9,0.1-4.3c3.4-5.3,7.9-10.1,13.2-14.4
				c-2.6,2.7-4.8,5.5-6.8,8.5c-0.9,1.4-0.9,2.8-0.1,4.3c0.8,1.4,2.2,2.4,4.2,2.9c23,6.1,42.1,18.3,53.5,33.9
				c1.6,2.2,4.8,3.2,8.1,2.6C115.3,114.3,125.3,113.2,135.4,113z"/>
			<path fill="#FCB855" d="M273.1,47.2c-38.5,9.5-61.3,36.6-61.3,62.9c0,3,0.2,5.9,0.6,8.6l0.1,0c12.2,0,24.1,1.1,35.4,3.1
				c3.2,0.6,6.5-0.5,8.1-2.6c11.5-15.6,30.5-27.8,53.5-33.9c2-0.5,3.4-1.5,4.2-2.9c0.8-1.4,0.8-2.9-0.1-4.3
				C305.3,65,290.1,55.3,273.1,47.2z"/>
			<path fill="#FCB855" d="M322.3,147.5c-44.2-25.3-67.1-27.7-66.7-27.6c12.1-19,28.5-29.9,56.5-35.6
				C356.2,116.8,347,161.6,322.3,147.5z"/>
			<path fill="#FAA234" d="M211.9,113c0.1,2,0.3,3.9,0.6,5.8l0.1,0c12.2,0,24.1,1.1,35.4,3.1c3.2,0.6,6.5-0.5,8.1-2.6
				c11.5-15.6,30.5-27.8,53.5-33.9c2-0.5,3.4-1.5,4.2-2.9c0.8-1.4,0.8-2.9-0.1-4.3c-3.4-5.3-7.9-10.1-13.2-14.4
				c2.6,2.7,4.8,5.5,6.8,8.5c0.9,1.4,0.9,2.8,0.1,4.3c-0.8,1.4-2.2,2.4-4.2,2.9c-23,6.1-42.1,18.3-53.5,33.9
				c-1.6,2.2-4.8,3.2-8.1,2.6C232,114.3,222.1,113.2,211.9,113z"/>
			<g>
				<path fill="#FAA234" d="M25.1,147.5c44.2-25.3,67.1-27.7,66.7-27.6c-1.4-2.3-2.9-4.4-4.5-6.4c-10.3,2.8-29.8,9.6-58,25.7
					c-16.7,9.6-26.3-8-17.1-30.4C-3.5,134.9,6.3,158.2,25.1,147.5z"/>
				<path fill="#FAA234" d="M322.3,147.5c-44.2-25.3-67.1-27.7-66.7-27.6c1.4-2.3,2.9-4.4,4.5-6.4c10.3,2.8,29.8,9.6,58,25.7
					c16.7,9.6,26.3-8,17.1-30.4C350.9,134.9,341.1,158.2,322.3,147.5z"/>
			</g>
			<g>
				<g>
					<path fill="#F9C25E" d="M210.1,119.5c-0.4-4.7-0.5-9.4-0.6-14.1l-0.1-7.1c-0.1-2.4,0.3-4.8,0.9-7.1c1.2-4.6,3.1-9,5.2-13.2
						c2.2-4.2,4.7-8.2,7.4-12c5.5-7.6,12.1-14.6,19.5-20.4c3.7-2.9,7.6-5.5,11.8-7.8c4.2-2.2,8.5-4.1,13-5.4
						c-4.5,1.5-8.7,3.5-12.8,5.8c-4.1,2.3-7.9,5-11.5,8c-7.2,5.9-13.7,12.8-19.1,20.4c-2.7,3.8-5.3,7.7-7.5,11.9
						c-2.2,4.1-4.1,8.4-5.3,12.9c-0.6,2.2-1,4.5-1,6.9l0,7C209.9,110.1,209.9,114.8,210.1,119.5z"/>
					<path fill="#F9C25E" d="M273.2,47.2c-3.7,1.2-7.4,2.5-11,4c-3.6,1.5-7.2,3.1-10.6,5c-6.9,3.7-13.4,8.1-19.2,13.3
						c-5.8,5.2-10.8,11.3-14.5,18.2c-3.6,6.9-5.8,14.6-6,22.4c-0.1-3.9,0.3-7.9,1.2-11.7c0.9-3.8,2.3-7.6,4.1-11.1
						c3.6-7.1,8.7-13.3,14.5-18.6c5.9-5.3,12.5-9.7,19.5-13.3C258.2,52,265.6,49.2,273.2,47.2z"/>
					<path fill="#F9C25E" d="M135.5,110.2c-0.2-7.8-2.3-15.6-6-22.4c-3.7-6.9-8.7-13-14.5-18.2c-5.8-5.3-12.3-9.6-19.2-13.3
						c-3.4-1.8-7-3.5-10.6-5c-3.6-1.5-7.3-2.8-11-4c7.6,2,15,4.7,22,8.3c7,3.6,13.6,8,19.5,13.3c5.8,5.3,10.9,11.5,14.5,18.6
						c1.8,3.5,3.1,7.3,4.1,11.1C135.2,102.3,135.6,106.2,135.5,110.2z"/>
					<path fill="#F9C25E" d="M80.2,32.5c4.5,1.3,8.9,3.2,13,5.4c4.1,2.2,8.1,4.9,11.8,7.8c7.4,5.8,13.9,12.8,19.5,20.4
						c2.7,3.8,5.3,7.8,7.4,12c2.2,4.2,4.1,8.5,5.2,13.2c0.6,2.3,0.9,4.7,0.9,7.1l-0.1,7.1c-0.1,4.7-0.2,9.4-0.6,14.1
						c0.2-4.7,0.2-9.4,0.1-14.1l0-7c0-2.3-0.4-4.6-1-6.9c-1.2-4.5-3.1-8.8-5.3-12.9c-2.2-4.1-4.7-8.1-7.5-11.9
						c-5.4-7.6-11.9-14.5-19.1-20.4c-3.6-3-7.5-5.6-11.5-8C88.9,36,84.6,34,80.2,32.5z"/>
				</g>
			</g>
			<g>
				<path fill="#E59B25" d="M134.9,118.8c-4.8,0.1-9.5,0.3-14.3,0.7c-4.7,0.4-9.5,0.9-14.2,1.6c-2.4,0.4-4.7,0.8-7,1.2
					c-2.4,0.4-5.1,0-7.2-1.5c-0.5-0.4-1-0.8-1.4-1.4l-1.1-1.4l-1.1-1.4l-1.2-1.3l-1.2-1.3l-1.2-1.3c-0.8-0.9-1.6-1.7-2.5-2.5
					c-6.8-6.6-14.7-12-23.2-16.3c-4.2-2.2-8.6-4-13.1-5.7c-2.2-0.8-4.5-1.6-6.8-2.2c-1.1-0.4-2.3-0.6-3.4-1.2
					c-1.1-0.5-2-1.4-2.6-2.4c0.6,1,1.6,1.8,2.6,2.3c1.1,0.5,2.3,0.7,3.4,1c2.3,0.6,4.6,1.3,6.9,2c4.5,1.5,9,3.3,13.3,5.4
					c8.6,4.2,16.6,9.6,23.6,16.3c0.9,0.8,1.7,1.7,2.5,2.6l1.2,1.3l1.2,1.4l1.2,1.4l1.1,1.4l1.1,1.4c0.3,0.4,0.7,0.8,1.2,1.2
					c1.8,1.3,4.2,1.8,6.5,1.4c2.3-0.4,4.7-0.8,7.1-1.1C115.8,119.2,125.3,118.6,134.9,118.8z"/>
			</g>
			<g>
				<path fill="#F9C25E" d="M46.9,63.8c-1.8,1.9-3.4,3.9-4.9,6c-0.7,1.1-1.5,2.1-2.1,3.2c-0.5,1.1-0.3,2.5,0.3,3.5
					c0.6,1.1,1.7,1.8,2.8,2.3c1.1,0.4,2.5,0.7,3.7,1.1c1.3,0.3,2.5,0.7,3.7,1.1c1.2,0.4,2.5,0.8,3.7,1.2c9.8,3.4,19.1,8.2,27.4,14.4
					c4.1,3.1,8,6.6,11.5,10.5c0.9,1,1.7,2,2.5,3l2.4,3.1c0.7,1,1.8,1.7,2.9,2.1c1.1,0.4,2.4,0.6,3.6,0.5c1.2-0.1,2.5-0.4,3.8-0.6
					c1.3-0.2,2.6-0.4,3.8-0.6c2.6-0.3,5.1-0.7,7.7-0.9c5.2-0.5,10.3-0.8,15.5-0.8c-10.3,0.5-20.5,1.7-30.8,3.6
					c-1.3,0.1-2.7-0.1-4-0.5c-1.3-0.5-2.5-1.2-3.3-2.4l-2.4-3c-0.8-1-1.7-2-2.5-2.9c-3.5-3.8-7.3-7.2-11.4-10.3
					c-4.1-3.1-8.5-5.9-13-8.3c-4.5-2.4-9.3-4.5-14.1-6.3c-1.2-0.5-2.4-0.9-3.6-1.3c-1.2-0.4-2.4-0.8-3.7-1.2l-1.9-0.5
					c-0.6-0.2-1.3-0.3-1.9-0.6c-1.2-0.5-2.4-1.4-3-2.6c-0.7-1.1-0.9-2.7-0.3-3.9c0.6-1.2,1.4-2.2,2.2-3.2
					C43.3,67.5,45,65.6,46.9,63.8z"/>
			</g>
			<g>
				<path fill="#E59B25" d="M212.5,118.8c9.9-0.2,19.9,0.4,29.7,1.8l3.7,0.5c1.2,0.2,2.5,0.5,3.6,0.5c2.3,0.1,4.8-0.8,6.2-2.6
					c2.9-4,6.3-7.7,10-11.1c7.4-6.7,15.9-12.1,25-16.2c4.5-2,9.2-3.8,14-5.2c1.2-0.4,2.4-0.7,3.6-1c1.2-0.3,2.4-0.6,3.5-1.2
					c1.1-0.6,1.9-1.5,2.4-2.7c0.5-1.1,0.3-2.5-0.4-3.5c0.7,1,1,2.4,0.5,3.6c-0.4,1.2-1.3,2.2-2.4,2.9c-1.1,0.7-2.3,1-3.5,1.3
					c-1.2,0.4-2.4,0.7-3.5,1.1c-4.7,1.5-9.3,3.3-13.8,5.4c-8.9,4.2-17.4,9.5-24.6,16.2c-3.6,3.3-7,7-9.9,10.9c-1.7,2.2-4.4,3-7,2.9
					c-0.6,0-1.3-0.1-1.9-0.2l-1.8-0.3l-3.7-0.6c-4.9-0.8-9.8-1.4-14.7-1.8C222.4,119.1,217.5,118.9,212.5,118.8z"/>
			</g>
			<g>
				<path fill="#F9C25E" d="M300.5,63.8c1.8,1.8,3.5,3.8,5.1,5.8c0.8,1.1,1.6,2,2.2,3.2c0.6,1.2,0.4,2.8-0.3,3.9
					c-0.7,1.2-1.8,2-3,2.6c-0.6,0.3-1.3,0.4-1.9,0.6l-1.9,0.5c-1.2,0.3-2.5,0.7-3.7,1.2c-1.2,0.4-2.4,0.8-3.6,1.3
					c-4.8,1.8-9.6,3.8-14.1,6.3c-4.5,2.4-8.9,5.2-13,8.3c-4.1,3.1-8,6.5-11.4,10.3c-0.9,0.9-1.7,1.9-2.5,2.9l-2.4,3
					c-0.8,1.1-2,1.9-3.3,2.4c-1.3,0.5-2.6,0.6-4,0.5c-10.2-1.8-20.4-3.1-30.8-3.6c5.2,0,10.3,0.3,15.5,0.8c2.6,0.2,5.1,0.5,7.7,0.9
					c1.3,0.2,2.6,0.4,3.8,0.6c1.3,0.2,2.6,0.5,3.8,0.6c1.2,0.1,2.5-0.1,3.6-0.5c1.1-0.4,2.2-1.1,2.9-2.1l2.4-3.1c0.8-1,1.7-2,2.5-3
					c3.5-3.8,7.4-7.3,11.5-10.5c8.3-6.2,17.7-11,27.4-14.4c1.2-0.5,2.5-0.8,3.7-1.2c1.2-0.4,2.5-0.8,3.7-1.1
					c1.2-0.4,2.5-0.6,3.7-1.1c1.2-0.5,2.2-1.2,2.8-2.3c0.7-1,0.9-2.4,0.3-3.5c-0.5-1.1-1.3-2.2-2.1-3.2
					C303.9,67.7,302.2,65.7,300.5,63.8z"/>
			</g>
			<g>
				<g>
					<path fill="#F9C25E" d="M322.3,147.5c-2.7-1.4-5.3-2.8-8-4.2c-2.7-1.4-5.4-2.8-8.1-4.1c-5.4-2.7-10.9-5.3-16.4-7.7
						c-5.5-2.5-11.1-4.7-16.8-6.7c-2.8-1-5.7-2-8.6-2.8c-2.9-0.9-5.8-1.6-8.8-2.2c6,0.7,11.9,2.4,17.6,4.2
						c5.8,1.9,11.4,4.1,16.9,6.5c5.5,2.5,11,5.1,16.3,7.9C311.9,141.3,317.2,144.3,322.3,147.5z"/>
				</g>
				<g>
					<path fill="#F9C25E" d="M260.1,113.5c9.1,2.3,17.9,5.6,26.6,9.3c8.6,3.7,17,8,25.3,12.4c2.1,1.1,4.1,2.3,6.1,3.5
						c2,1.1,4.1,2.1,6.4,2.5c1.1,0.2,2.3,0.3,3.4,0.2c1.1-0.1,2.2-0.4,3.2-0.9c1-0.5,1.9-1.1,2.8-1.9c0.8-0.8,1.5-1.7,2.1-2.7
						c2.3-4,2.8-8.9,2.4-13.5c-0.3-4.7-1.6-9.2-3.2-13.6c1.9,4.3,3.2,8.9,3.7,13.6c0.5,4.7,0.1,9.6-2.2,13.9c-0.6,1-1.3,2-2.2,2.9
						c-0.9,0.8-1.9,1.6-3,2.1c-1.1,0.5-2.3,0.8-3.5,1c-1.2,0.1-2.4,0.1-3.6-0.2c-2.4-0.4-4.6-1.4-6.7-2.6c-2.1-1.1-4.1-2.3-6.2-3.4
						c-8.2-4.5-16.6-8.8-25.1-12.6c-4.3-1.9-8.6-3.7-13-5.4C269.1,116.3,264.6,114.8,260.1,113.5z"/>
				</g>
			</g>
			<g>
				<path fill="#F9C25E" d="M87.2,113.5c-4.5,1.4-8.9,2.9-13.3,4.6c-4.4,1.7-8.7,3.5-13,5.4c-8.5,3.9-16.9,8.1-25.1,12.6
					c-2.1,1.1-4.1,2.3-6.2,3.4c-2.1,1.2-4.3,2.2-6.7,2.6c-1.2,0.2-2.4,0.3-3.6,0.2c-1.2-0.1-2.4-0.5-3.5-1c-1.1-0.5-2.1-1.3-3-2.1
					c-0.8-0.9-1.6-1.9-2.2-2.9C8.4,132,8,127,8.5,122.4c0.5-4.7,1.9-9.3,3.7-13.6c-1.7,4.4-2.9,8.9-3.2,13.6
					c-0.4,4.6,0.1,9.5,2.4,13.5c0.6,1,1.3,1.9,2.1,2.7c0.8,0.8,1.7,1.4,2.8,1.9c1,0.5,2.1,0.7,3.2,0.9c1.1,0.1,2.3,0,3.4-0.2
					c2.2-0.4,4.4-1.4,6.4-2.5c2-1.2,4.1-2.3,6.1-3.5c8.3-4.5,16.7-8.7,25.3-12.4C69.3,119.1,78.1,115.7,87.2,113.5z"/>
			</g>
			<g>
				<path fill="#F9C25E" d="M25.1,147.5c5.1-3.2,10.4-6.2,15.8-9c5.3-2.8,10.8-5.4,16.3-7.9c5.6-2.4,11.2-4.6,16.9-6.5
					c5.8-1.8,11.6-3.6,17.6-4.2c-3,0.5-5.9,1.3-8.8,2.2c-2.9,0.8-5.8,1.8-8.6,2.8c-5.7,2-11.3,4.3-16.8,6.7c-5.5,2.4-11,5-16.4,7.7
					c-2.7,1.3-5.4,2.7-8.1,4.1C30.4,144.6,27.7,146.1,25.1,147.5z"/>
			</g>
		</g>
		<g opacity="0.45">
			<path opacity="0.35" fill="#FAA234" d="M90.7,120c0.2,0,0.3,0,0.5-0.1c0,0,0,0,0,0C91,120,90.9,120,90.7,120z"/>
			<polygon opacity="0.35" fill="#FAA234" points="134.7,118.8 134.7,118.8 134.7,118.8 134.7,118.8 			"/>
			<path opacity="0.35" fill="#FAA234" d="M256.2,119.9c0.2,0,0.3,0,0.5,0.1C256.5,120,256.3,120,256.2,119.9
				C256.2,119.9,256.2,119.9,256.2,119.9z"/>
			<path fill="#FAA234" d="M269.9,103.8c-0.8-1.4-1-3.1-1.9-5c-1-2.2-3-4-5-5.5c-4-3-8.8-5.3-13.5-7.5c-5.4-2.5-11-4.7-16.6-6.6
				c-1.9-0.7-5-1.2-6-2.6c-0.9-1.2-0.7-3.4-1.4-4.7c-0.8-1.5-2-2.9-3.4-4c-3.2-2.5-7.6-3.8-11.9-4.6c-12.1-2.3-23.7-1.3-35.8-1.1
				c-13.2,0.2-26.4,1.3-39.4,3.3c-2.5,0.4-5,0.8-7.3,1.8c-2.5,1.1-7.5,6.3-5.2,8.7c-7.6,1.3-15.2,3-22.6,4.9
				c-6.6,1.8-11.4,3.8-17.1,7c-3.7,2.1-7.8,4.9-9.1,8.6c-0.1,0.2-0.4,3.4-0.2,3.3c-59.2,22.9-59.5,42.6-56.5,50.4c0.1,0,0.1,0,0.2,0
				c0.4,0,0.8-0.1,1.2-0.1c0,0,0.1,0,0.1,0c0.4-0.1,0.9-0.2,1.4-0.3c0.1,0,0.2-0.1,0.3-0.1c0.4-0.1,0.9-0.3,1.4-0.4c0,0,0.1,0,0.1,0
				c0.5-0.2,1-0.4,1.5-0.6c0.1-0.1,0.2-0.1,0.4-0.2c0.5-0.2,1-0.5,1.5-0.8c5.3-2.8,10.6-5.5,15.9-8.2c5.4-2.6,10.7-5.2,16.3-7.6
				c5.5-2.4,11.1-4.7,16.8-6.7c2.9-1,5.8-2,8.7-2.9c2.8-0.8,5.6-1.6,8.4-2.1c1.5,1.7,4.1,2.6,6.5,2.5c0.7,0,1.3-0.1,2-0.2l1.8-0.3
				l3.7-0.6c4.9-0.8,9.8-1.4,14.8-1.8c4.9-0.4,9.9-0.7,14.8-0.8c0.9,0.2,1.7,0.5,2.6,0.7c11.3,3,23.6,4.7,36.4,4.7
				c12.8,0,25.1-1.7,36.4-4.6c0.9-0.2,1.7-0.5,2.6-0.7c10.4,0.2,20.7,1.1,30.9,2.7c1.3,0.2,2.5,0.4,3.8,0.7c1.3,0.3,2.7,0.4,4.1,0.1
				c1.4-0.2,2.7-0.7,3.7-1.5c0.4-0.3,0.7-0.6,1-0.9c2.9,0.5,5.7,1.3,8.4,2.1c2.9,0.9,5.8,1.8,8.7,2.9c5.7,2.1,11.3,4.3,16.8,6.7
				c5.5,2.4,10.9,5,16.3,7.6c5.4,2.6,10.6,5.4,15.9,8.2c0.5,0.3,1,0.6,1.5,0.8c0.1,0.1,0.2,0.1,0.4,0.2c0.5,0.2,1,0.4,1.5,0.6
				c0,0,0.1,0,0.1,0c0.5,0.2,0.9,0.3,1.4,0.4c0.1,0,0.2,0.1,0.3,0.1c0.5,0.1,0.9,0.2,1.4,0.3c0,0,0.1,0,0.1,0
				c0.4,0.1,0.8,0.1,1.2,0.1c0.1,0,0.2,0,0.3,0c0.4,0,0.8,0,1.2,0c0.1,0,0.1,0,0.2,0c0.4,0,0.7-0.1,1.1-0.1c0.1,0,0.1,0,0.2,0
				c3.2-5.2,0.4-10.6-3.7-14.9c-8.4-8.7-21.2-14.6-32.9-19.7c-5.6-2.4-11.3-4.7-17.1-6.8c-2.1-0.8-4.3-1.4-6.4-2.3
				C271.4,105.6,270.5,104.8,269.9,103.8z M90.7,120c0.2,0,0.3-0.1,0.5-0.1c0,0,0,0,0,0C91,120,90.8,120,90.7,120z M134.7,118.8
				C134.7,118.8,134.7,118.8,134.7,118.8C134.7,118.8,134.7,118.8,134.7,118.8C134.7,118.8,134.7,118.8,134.7,118.8
				C134.7,118.8,134.7,118.8,134.7,118.8z M256.2,119.9C256.2,119.9,256.2,119.9,256.2,119.9c0.1,0,0.3,0,0.5,0.1
				C256.5,120,256.4,120,256.2,119.9z"/>
		</g>
		<path fill="#FCC377" d="M101.3,20c-3.7,1.9-6.3,4.2-6,6.9c0.4,3.4,10.1,8.1,13.9,8.2c5.7,0.2,10-3.8,14.4-6.7
			c7.1-4.7,16.2-7,25.2-8.4c7.1-1.1,14.5-1.5,21.6-3c2.8-0.6,13.2-2.6,13.3-5.1c0.2-4.7-26.2-3.2-30.3-3.1c-11.4,0.5-22.9,2-33.8,5
			C116,14.8,107.3,16.9,101.3,20z"/>
		<g>
			<path fill="#FCC377" d="M49.1,67.3c-2.1,1.9-3.1,3.8-2,5.5c0.7,1.1,2.3,1.6,3.8,1.9c2.6,0.6,5.5,1.2,8,0.2c3-1.2,4-3.6,5.6-5.8
				c2-2.7,4.3-5.2,6.9-7.5c1.4-1.2,3-2.5,3.6-4.1c0.2-0.6,0.3-1.3-0.2-1.7c-0.7-0.6-1.8-0.3-2.7,0C68.5,57.2,54.7,62.2,49.1,67.3z"
				/>
		</g>
		<path fill="#FCC377" d="M18.6,105.6c-3.1,4-4.6,7.8-4.7,12.5c0,0.2,0,0.4,0.1,0.6c0.3,0.4,0.9,0.4,1.4,0.3
			c3.5-0.7,5.7-3.3,7.8-5.7c2.2-2.5,4.6-5,7.2-7.3c2.1-1.9,5.1-3.2,7-5.1c3.8-3.7-1-9.7-6.4-7.2C25.8,96.2,21.7,101.6,18.6,105.6z"
			/>
		<g>
			<path fill="#FCC377" d="M287.8,62.8c0-0.3-0.1-0.6-0.2-0.9c-0.1-0.4-0.2-0.9-0.5-1.3c-0.3-0.3-0.7-0.6-1.1-0.8
				c-2-1.2-3.9-2.5-5.9-3.7c-1.7-1.1-3.5-2.2-5.6-2.4c-4.1-0.5-8.3,2.2-11.8,3.7c-2.6,1.1-8.3,4.2-2.5,5.7c2.9,0.7,6.1,0.7,9.1,1.1
				c5.3,0.7,10.5,2.6,15.8,1.8c0.7-0.1,1.5-0.3,2-0.7C287.8,64.6,287.9,63.7,287.8,62.8z"/>
		</g>
		<path fill="#FCC377" d="M317.9,105.4c1.5,1.3,7.9,9.6,10.6,8.1c0.8-0.4,0.8-1.3,0.8-2.1c-0.5-7.2-6.9-20.6-17.3-21.1
			c-2.5-0.1-5,0.6-7.2,1.6c-1.2,0.6-2.5,1.3-3,2.4c-0.6,1.5,2,3,3.3,3.8c3.1,2.1,7,3.2,10.1,5.2C316.2,104,317.1,104.7,317.9,105.4z
			"/>
	</g>
</g>
</svg>
