<?xml version="1.0" encoding="utf-8"?>
<!-- Generator: Adobe Illustrator 22.0.1, SVG Export Plug-In . SVG Version: 6.00 Build 0)  -->
<svg version="1.1" id="레이어_1" xmlns="http://www.w3.org/2000/svg" xmlns:xlink="http://www.w3.org/1999/xlink" x="0px"
	 y="0px" viewBox="0 0 153.2 350" enable-background="new 0 0 153.2 350" xml:space="preserve">
<g>
	<path fill="#FA974A" stroke="#FA974A" stroke-miterlimit="10" d="M99.5,175.2c-3.7,0.1-7.4,0.1-11.2-0.2c-22.1-1.8-43.4-9.3-66.4-8
		c16,0.2,31.3,4.7,46.6,9.2c11,3,22,2,32.7,2.2c3.1-0.2,6.2-0.5,9.2-0.9s6.1-0.9,9.2-1.6c6.1-1.3,12.1-3.1,17.8-6
		c2.8-1.5,5.5-3.2,7.7-5.6c0.6-0.7,1.2-1.4,1.6-2.2c0.4-0.6,0.7-1.2,1-1.9c0.5-1.2,0.7-2.5,0.7-3.7
		C147.9,168.3,125,174.5,99.5,175.2z"/>
	<path fill="#F9A857" d="M137.4,170c-5.6,2.9-11.7,4.7-17.8,6c-3,0.6-6.1,1.1-9.2,1.6s-6.1,0.7-9.2,0.9c-10.7-0.2-21.7,0.8-32.7-2.2
		c-9.4-2.6-18.7-5.5-28.4-7.3c-4.8-0.9-9.7-1.7-14.5-1.8c-3.6-0.1-8.7,0.4-12-1.3c-0.3-0.2-0.6-0.3-0.9-0.3
		c-0.8-0.6-1.8-1.1-2.6-1.8l3.4,15.2c1,3.8,1.9,5.6,3.4,6.4c0.8,0.4,1.7,0.6,2.9,0.6h6.7H33h4.7h6.5h11h6.5h4.7h4h2.5h11h2.6h3.9
		h4.7h6.5h11h6.5h4.7h6.5h6.8c1.1,0,2-0.1,2.8-0.5c1.6-0.8,2.5-2.6,3.5-6.5l3.8-16.8c-0.5,0.8-1,1.5-1.6,2.2
		C142.9,166.7,140.2,168.5,137.4,170z"/>
	<path fill="#F7E1BA" d="M137.4,135.6c6.5-2.4,8.5-7.7,4.9-22.2c-3.3-13.2-8.7-19.7-16.4-22.9c3.5-3.7,4.1-9,2.8-18.7
		c-0.4-3.2-1.1-7-2-11.3c-7.1-26.3-34.1-41.3-58.1-49.3c1,16,0,37-15.7,44.1c-2.2,1.2-4.6,2.6-6.8,4.2c-4.3,3.3-7.6,7.6-6.5,13.7
		c0.1,0.3,0.1,0.6,0.2,0.8c-8.1,3.2-13.6,9.1-19.3,19.6c-1.6,2.9-2.5,5.5-3,7.7c-0.5,2.9,0,5.6,1.4,7.8c1.4,2.2,3.6,4,6.6,5
		c-15,8-24,25-20,42c1.1,4.5,4.2,8.3,8.4,10.3c4,2,9.2,1.8,13.5,1.5c3.6-0.2,7.1-0.1,10.7,0.1c3,0.2,6.2,0,9.2,0.4
		c7.1,1,14.1,2.5,21.1,3.8c6.6,1.2,13.2,2.4,19.9,2.8c3.8,0.2,7.5,0.3,11.2,0.2c2-0.1,3.9-0.2,5.9-0.3c8.7-0.6,17.6-1.7,26-4.3
		c3.3-1,6.5-2.3,9.5-4c2.8-1.7,6.3-3.2,7.6-6.4c2-4.7-0.2-8.5-2.1-12.6C144.2,143.1,140.9,139.1,137.4,135.6z"/>
	<path fill="#F8AA56" d="M136.9,185.8h-6.8h-6.5h-4.7h-6.5h-11h-6.5h-4.7h-3.9h-2.6h-11h-2.5h-4h-4.7H55l0,0H44l0,0h-6.5h-4.7h-6.5
		l0,0h-6.7c-1.2,0-2.1-0.2-2.9-0.6l0,0c0,0.3,0,0.7,0.1,1l0,0c0.1,0.7,0.2,1.3,0.5,2l5.2,14.2l1.9,5.1l0.5,1.4l4.4,12.1l0,0l1.5,4
		l1.9,5.1l6.4,17.5l1.9,5.1l3.6,9.9l4.7,12.8l6.4,17.5l0.6,1.6l1.3,3.5l6.4,17.5l3.3,8.9l1.5,4.1l0,0l2.2,5.9
		c0.5,1.3,1.1,2.3,1.9,3.1c1.3,1.3,2.8,2,4.5,2.2c0.5,0.1,1,0.1,1.5,0c1.6-0.2,3.2-0.9,4.5-2.2c0.8-0.8,1.5-1.8,1.9-3.1l2.7-7.3
		l1.5-4.1l2.8-7.5l6.4-17.5l1.9-5.1l6.4-17.5l4.7-12.8l3.6-9.8l1.3-3.5l0.6-1.6l6.4-17.5l1.9-5.1l1.5-4.1l3.8-10.3l0.7-1.8l0.5-1.2
		l1.9-5.1l5.2-14.1c0.4-1,0.6-2.1,0.6-3.1C138.9,185.6,138,185.8,136.9,185.8z"/>
	<path fill="#FEC26E" d="M131.9,207.8l1.6-4.3l-9.4-11.6l5.6-6.2h-6.5l-2.3,2.6l-2.3-2.6h-6.5l5.6,6.2l-11.1,12.3l-11.1-12.3
		l5.6-6.2h-6.5l-2.3,2.6l-2.3-2.6h-3.9h-2.6l5.6,6.2L78,204.2l-11.1-12.3l5.6-6.2H70h-4l-2.3,2.6l-2.3-2.6h-6.5l5.6,6.2l-6.1,6.8
		l-5,5.6l-8.8-9.8l-2.3-2.5l5.6-6.2h-6.5l-2.3,2.6l-2.3-2.6h-6.5l5.1,5.6l0.5,0.5l-9.4,10.4l1.9,5.1l10.7-11.9l11.1,12.3l-11.1,12.3
		l-10.2-11.2l4.4,12.1l2.4,2.8l-0.9,1l1.9,5.1l2.2-2.5L46,239.7l-6.9,7.7l1.9,5.1l8.2-9.2l11.1,12.3l-11.1,12.3l-4.6-5.2l4.7,12.4
		l0,0l11.1,12.3l-4.6,5.7l1.9,5.1l6-7.2l11,12.4L64,315.5l4.8,13l6,6.8l-1.9,2.2c1.3,1.3,2.7,2,4.4,2.2l0.8-0.9l0.8,0.9
		c1.6-0.2,3.2-0.9,4.5-2.2l-2-2.2l6.1-6.8l4.8-13l-10.9-12.1l11.1-12.3l6.2,6.9l1.9-5.1l-4.8-5.4l11.1-12.4l0.2,0.2l4.7-12.8
		l-4.9,5.5l-11.1-12.3l11.1-12.3l8.4,9.4l1.9-5.1l-7-7.9l11.1-12.3l2.3,2.8l1.9-5.1l-0.9-1.3l2.1-2.1l3.8-10.3l0.7-1.8l-1.7,1.9
		l-8.1,8.8l-8.7-9.7l-2.3-2.6l11.1-12.3L131.9,207.8z M82.8,206l9.4-10.5l11.1,12.3l-1.4,1.5l-9.7,10.8l-11.1-12.3L82.8,206z
		 M77.9,211.5L89,223.8l-11.1,12.3l-11.1-12.3L77.9,211.5z M89,255.6l-11.1,12.3l-11.1-12.3l11.1-12.3L89,255.6z M59.4,200.2
		l4.2-4.7l6.8,7.6l4.3,4.7l-11.1,12.3l-11.1-12.3L59.4,200.2z M38.2,223.8l11.1-12.3l11.1,12.3l-11.1,12.3L38.2,223.8z M52.5,239.7
		l11.1-12.3l11.1,12.3L63.6,252L52.5,239.7z M52.5,271.6l11.1-12.3l11.1,12.3l-11.1,12.3L52.5,271.6z M89,319.3l-11.1,12.3
		l-11.1-12.3L77.9,307L89,319.3z M77.9,299.8l-11.1-12.3l11.1-12.3L89,287.5L77.9,299.8z M103.3,271.6l-11.1,12.3l-11.1-12.3
		l11.1-12.3L103.3,271.6z M92.2,252l-11.1-12.3l11.1-12.3l11.1,12.3L92.2,252z M117.6,223.8l-11.1,12.3l-11.1-12.3l11.1-12.3
		L117.6,223.8z"/>
	<path opacity="0.4" fill="#FA974A" enable-background="new    " d="M137.3,185.4h-6.8H124h-4.7h-6.5h-11h-6.5h-4.7h-3.9h-2.6h-11
		h-2.5h-4h-4.7h-6.5h-11h-6.5h-4.7h-6.5H20c-1.2,0-2.1-0.2-2.9-0.6c0,0.3,0,0.7,0.1,1l0,0c3.6,1.4,8.6,3.2,14.6,5.2
		c2.9,1,6,2,9.2,3.1c4.3,1.4,9,2.8,13.8,4.3c1.7,0.5,3.4,1,5.1,1.5c3.6,1,7.3,2,11,2.9c4.1,1,8.2,2,12.4,2.9
		c6.4,1.4,12.8,2.5,19.1,3.4c3.4,0.5,6.8,0.8,10.2,1.1c6.1,0.5,11.9,0.5,17.3,0.1c0.3,0,0.7,0,1-0.1l0.7-1.8l0.5-1.2l1.9-5.1
		l5.2-14.1c0.4-1,0.6-2.1,0.6-3.1C139.3,185.2,138.4,185.4,137.3,185.4z"/>
	<g>
		<path fill="#EDD3A9" d="M112.6,67.2c-0.7,2.8-2.1,5-3.6,6.8c-3.1,3.7-7.3,5.9-9.5,8.2c7.4,3,19.4,14.6,24.1,26.6
			c8,20.5-7.7,20.5-20.6,17.5c17.7,8.4,26.5,17.2,26.5,23.4c0,6.4-6.8,11-17.1,14c-3.4,1-7.2,1.8-11.3,2.5
			c-8.6,0.9-17.6,1.9-26.6,0.9c-8.2-1.6-16.3-2.7-24.3-3.6c14.4,3.8,28.9,7.6,43,8.1c2.2,0,4.4,0,6.7,0c24-0.9,45.4-6.9,45.4-18.1
			c0-6.2-3.9-13.2-10.6-19.7c6.2-2.3,8.1-7.4,4.7-21.2c-3.2-12.6-8.3-18.8-15.7-21.9c3.3-3.5,3.9-8.6,2.6-17.9
			c-0.4-3.1-1.1-6.7-1.9-10.8c-6.9-26-31.9-41-55.9-51C85.5,26.2,115.5,40.2,112.6,67.2z"/>
		<path fill="#EDD3A9" d="M40.9,162.7c3.1,0.3,6.2,0.6,9.3,0.9c-0.6-0.1-1.1-0.3-1.7-0.4C46,162.8,43.4,162.7,40.9,162.7z"/>
		<path fill="#EDD3A9" d="M40.9,162.7c-9.4-0.9-18.8-1.6-28.4-2.5C22,164.9,31.4,162.8,40.9,162.7z"/>
		<path fill="#EDD3A9" d="M53.4,78.4c4.6,1,19.1,2.9,19.1,2.9s-20-6.2-27.5-14.2c-4.6-5-4.4,7.3-4.4,7.3S50,77.7,53.4,78.4z"/>
		<path fill="#EDD3A9" d="M76.5,123.2c-13-4-25-11-36.6-18.2c-3-1.9-5.8-3.7-8.2-5.2c-5-2.9-8.8-4.3-10.4-2.1
			c-0.9,2.2-1.8,4.1-2.1,5.9c-0.2,1.8,0.2,3.6,2.1,5.8c2.2,2.9,5.2,4.6,5.2,4.6C42.5,119.2,59.5,120.2,76.5,123.2z"/>
	</g>
</g>
</svg>
