<?xml version="1.0" encoding="utf-8"?>
<!-- Generator: Adobe Illustrator 22.0.1, SVG Export Plug-In . SVG Version: 6.00 Build 0)  -->
<svg version="1.1" id="레이어_1" xmlns="http://www.w3.org/2000/svg" xmlns:xlink="http://www.w3.org/1999/xlink" x="0px"
	 y="0px" viewBox="0 0 350 326.7" enable-background="new 0 0 350 326.7" xml:space="preserve">
<g>
	<g>
		<g>
			<path fill="#CBE6F7" d="M84.6,231.9c4,0,4-6.3,0-6.3C80.6,225.7,80.6,231.9,84.6,231.9L84.6,231.9z"/>
		</g>
		<g>
			<path fill="#E4F6F7" d="M305.5,101c-2.9-0.7-4.7-1.9-5.4-5.1c-0.6-3-1.9-5.8-3.5-8.5C285.4,68.6,268.8,59,247,58.7
				c-4.2-0.1-6.4-1.1-8.2-5.2c-7.2-15.8-18.9-27.5-34.7-35.1c-5.8-2.8-12.1-4.5-18.5-5.5c-33.2-5.5-65.5,13.7-78.3,44.5
				c-1.2,2.9-2.7,3.6-5.6,3.3c-22.8-2.2-43.3,3.6-61.1,18c-15.2,12.3-24.7,28.3-26.2,48c-2.1,27,9,48.5,31.1,63.5
				c27.8,18.8,57.4,19.8,87.5,5.1c2.9-1.4,4.9-1.5,7.6,0.4c10.3,7.1,21.9,10.3,34.4,10.1c12-0.2,23.2-3.8,33.1-10.7
				c1.7-1.2,3.2-1.8,5.4-1c20.9,7.6,40.5,4.8,58.5-8.3c1.7-1.2,3.1-1.4,5-0.6c7.4,3,14.9,4.4,23,3.3c22.4-3.1,38.2-20.1,39-43.7
				C339.7,124.5,326,106.1,305.5,101z"/>
			<path fill="#FFFFFF" d="M169.8,12.6l-2.2,0c-1.5,0-3.1,0-4.6,0.1c-1.5,0.1-3.1,0.2-4.6,0.4c-1.5,0.2-3,0.5-4.6,0.7
				c-6.1,1.2-12.1,3.2-17.9,6.1c-5.7,2.9-11.1,6.7-15.8,11.3l-1.8,1.7l-1.7,1.8l-1.6,1.8c-0.5,0.6-1,1.3-1.5,1.9
				c-1,1.3-2.1,2.6-2.9,3.9c-0.9,1.3-1.9,2.7-2.7,4.1c-0.8,1.4-1.7,2.8-2.4,4.2l-1.2,2.3c-6.3-0.8-12.8-0.9-19.3-0.4
				c-6.6,0.5-13.2,1.9-19.5,4c-6.3,2.1-12.4,5.1-18.1,8.5c-5.6,3.6-10.8,7.6-15.6,12.2c-4.7,4.7-9,10-12.6,15.8
				c-3.4,5.9-6.2,12.2-7.8,18.8c-0.8,3.3-1.5,6.6-1.8,9.9c-0.4,3.3-0.4,6.7-0.4,9.9c0,1.6,0.1,3.3,0.3,4.9c0.1,0.8,0.1,1.6,0.2,2.4
				l0.4,2.4l0.4,2.4l0.5,2.4l0.5,2.4c0.2,0.8,0.5,1.6,0.7,2.4c1.8,6.3,4.6,12.3,8.2,17.7c3.6,5.4,7.9,10.1,12.7,14
				c4.8,4,10.1,7.1,15.6,9.6c-4.3-4.3-8.2-8.7-11.6-13.4c-3.3-4.7-6.1-9.7-8.1-14.8c-4.1-10.3-5.1-21.1-4-31.8
				c0.3-2.7,0.6-5.3,1.2-7.9c0.5-2.6,1.3-5,2.1-7.5c1.8-4.8,4-9.4,6.9-13.6c2.9-4.2,6.2-8.1,10.1-11.6c3.8-3.5,8.1-6.8,12.6-9.5
				c8.9-5.6,18.7-9.2,29.2-10.7c5.2-0.8,10.6-1,16-0.9l2.8,0.1c0.7,0,1.6,0,2.5-0.2c1-0.2,2.1-0.4,3.2-0.9c1.1-0.5,2.3-1.2,3.2-2
				c0.9-0.8,1.6-1.6,2.1-2.4l0.4-0.6l0.3-0.5c0.2-0.4,0.4-0.7,0.5-1c0.3-0.6,0.6-1.4,0.6-1.6l1.4-3.8c0.5-1.3,1.1-2.5,1.6-3.7
				c4.4-9.8,10.8-18.7,19.4-25.7c4.3-3.5,9.1-6.5,14.3-9.1l4-1.8c1.3-0.6,2.7-1.1,4.1-1.7c1.4-0.6,2.8-1,4.2-1.5l2.1-0.7
				c0.7-0.3,1.4-0.7,2.1-1C171.3,12.4,170.6,12.6,169.8,12.6z"/>
			<path opacity="0.42" fill="#FFFFFF" d="M263.6,91c-1.1-5.9-4.1-11.5-8.9-15.7c-4.7-4-10.7-6.5-16.7-7.4c-3-0.5-6-0.6-9-0.4
				c0.2-2.7,0-5.3-0.6-7.8c-1.2-5.5-4-10.5-7.8-14.4c-3.8-3.8-8.6-6.4-13.4-7.9c-4.9-1.5-9.9-1.9-14.7-1.2c4.6,1.5,8.8,3.4,12.6,5.8
				c3.7,2.4,6.9,5.4,9.2,8.7c1.1,1.6,2.1,3.4,2.7,5.2c0.7,1.8,1.1,3.7,1.4,5.6c0.5,3.8-0.1,7.5-1.7,10.5l-5.6,10.8l12-3.1
				c4.4-1.1,9.1-1.5,13.5-1.1c4.4,0.5,8.7,1.8,12.4,4.2c3.5,2.2,6.6,5.8,8.4,10c1.8,4.2,2.6,9.1,1.1,14.1l0,0c0,0.1-0.1,0.1-0.1,0.2
				l-3.3,6.5l4.8-5.9c1.8-2.2,3-4.9,3.6-7.8C264.1,97,264.1,93.9,263.6,91z"/>
			<path opacity="0.29" fill="#FFFFFF" d="M174.3,17.7l-2.1,0c-1.4,0-2.9,0-4.3,0.1c-1.4,0.1-2.9,0.2-4.3,0.4
				c-1.4,0.2-2.9,0.5-4.3,0.7c-5.8,1.2-11.5,3.2-16.9,6.1c-5.4,2.9-10.5,6.7-15,11.3l-1.7,1.7l-1.6,1.8l-1.6,1.8
				c-0.5,0.6-1,1.3-1.4,1.9c-1,1.3-1.9,2.6-2.8,3.9c-0.9,1.3-1.8,2.7-2.5,4.1c-0.8,1.4-1.6,2.8-2.3,4.2l-1.1,2.3
				c-6-0.8-12.1-0.9-18.3-0.4c-6.3,0.5-12.5,1.9-18.5,4c-6,2.1-11.8,5.1-17.1,8.6c-5.3,3.6-10.2,7.6-14.8,12.2
				c-4.5,4.7-8.6,10-11.9,15.8c-3.3,5.9-5.8,12.2-7.4,18.8c-0.7,3.3-1.4,6.6-1.7,9.9c-0.4,3.3-0.4,6.7-0.3,9.9
				c0,1.6,0.1,3.3,0.2,4.9c0.1,0.8,0.1,1.6,0.2,2.4l0.3,2.4l0.3,2.4l0.5,2.4l0.5,2.4c0.2,0.8,0.4,1.6,0.7,2.4
				c1.7,6.3,4.4,12.3,7.7,17.7c3.4,5.4,7.5,10.1,12.1,14c4.6,4,9.6,7.1,14.8,9.6c-4.1-4.3-7.8-8.7-11-13.4
				c-3.2-4.7-5.8-9.7-7.7-14.8c-3.9-10.3-4.9-21.2-3.8-31.9c0.3-2.7,0.6-5.3,1.2-7.9c0.5-2.6,1.2-5,2-7.5c1.7-4.8,3.8-9.4,6.6-13.6
				c2.8-4.2,5.9-8.1,9.6-11.6c3.6-3.5,7.7-6.8,11.9-9.5c8.4-5.6,17.8-9.2,27.7-10.7c4.9-0.8,10-1,15.2-0.9l2.6,0.1
				c0.7,0,1.5,0,2.4-0.2c0.9-0.2,1.9-0.4,3-0.9c1.1-0.5,2.2-1.2,3-2c0.9-0.8,1.5-1.6,2-2.4l0.4-0.6l0.3-0.5c0.2-0.4,0.4-0.7,0.5-1
				c0.3-0.6,0.5-1.4,0.6-1.6l1.3-3.8c0.5-1.3,1-2.5,1.5-3.7c4.2-9.9,10.2-18.7,18.4-25.7c4.1-3.5,8.6-6.5,13.6-9.1l3.8-1.8
				c1.3-0.6,2.6-1.1,3.9-1.7c1.3-0.6,2.6-1,4-1.5l2-0.7c0.7-0.3,1.3-0.7,2-1C175.7,17.6,175,17.7,174.3,17.7z"/>
			<path opacity="0.42" fill="#FFFFFF" d="M302.8,116.6c3.2-0.1,6.2,1.3,8.8,3.6c2.6,2.3,4.8,5.7,6.1,9.7c1.3,4.1,1.6,8.7,0.8,12.9
				c-0.8,4.2-2.9,8.1-5.9,9.7c0.4-4.1,0.3-7.3-0.1-10.4c-0.4-3-1-5.8-1.8-8.4c-0.9-2.7-1.9-5.3-3.3-8.1
				C306.1,123,304.5,120.1,302.8,116.6z"/>
		</g>
		<g>
			<g>
				<path fill="#CBE6F7" d="M119.5,195.6c4,0,4-6.3,0-6.3C115.4,189.3,115.4,195.6,119.5,195.6L119.5,195.6z"/>
			</g>
			<g>
				<path fill="#CBE6F7" d="M167.9,188.9c4,0,4-6.3,0-6.3C163.9,182.7,163.9,188.9,167.9,188.9L167.9,188.9z"/>
			</g>
			<g>
				<path fill="#CBE6F7" d="M199.9,238.8c4,0,4-6.3,0-6.3C195.9,232.6,195.9,238.8,199.9,238.8L199.9,238.8z"/>
			</g>
			<g>
				<path fill="#CBE6F7" d="M208.8,193.1c4,0,4-6.3,0-6.3C204.8,186.8,204.8,193.1,208.8,193.1L208.8,193.1z"/>
			</g>
			<g>
				<path fill="#CBE6F7" d="M219.7,307.1c4,0,4-6.3,0-6.3C215.7,300.8,215.7,307.1,219.7,307.1L219.7,307.1z"/>
			</g>
			<g>
				<path fill="#CBE6F7" d="M122,284.1c4,0,4-6.3,0-6.3C117.9,277.8,117.9,284.1,122,284.1L122,284.1z"/>
			</g>
			<g>
				<path fill="#CBE6F7" d="M126.2,235.7c4,0,4-6.3,0-6.3C122.1,229.4,122.1,235.7,126.2,235.7L126.2,235.7z"/>
			</g>
			<g>
				<path fill="#CBE6F7" d="M267.2,272.2c9.1,0,9.1-14.2,0-14.2C258.1,258.1,258.1,272.2,267.2,272.2L267.2,272.2z"/>
			</g>
			<g>
				<path fill="#CBE6F7" d="M187,291.1c4,0,4-6.3,0-6.3C183,284.8,183,291.1,187,291.1L187,291.1z"/>
			</g>
			<g>
				<path fill="#CBE6F7" d="M91.1,317.5c4,0,4-6.3,0-6.3C87.1,311.2,87.1,317.5,91.1,317.5L91.1,317.5z"/>
			</g>
			<path fill="#CBE6F7" d="M160.2,253c8.1,0,8.1-12.5,0-12.5C152.1,240.5,152.1,253,160.2,253L160.2,253z"/>
			<g>
				<path fill="#CBE6F7" d="M152,303.9c8.1,0,8.1-12.5,0-12.5C144,291.4,144,303.9,152,303.9L152,303.9z"/>
			</g>
			<g>
				<path fill="#CBE6F7" d="M223,265.2c8.1,0,8.1-12.5,0-12.5C214.9,252.6,214.9,265.2,223,265.2L223,265.2z"/>
			</g>
			<path fill="#CBE6F7" d="M297.6,211.8c-0.2-0.9-1.2-1.5-2.1-1.2l-12.5,3.2l-5.9-3.4l9.1-2.3c0.9-0.2,1.5-1.2,1.2-2.1
				c-0.2-0.9-1.1-1.5-2.1-1.2l-12.5,3.2l-9.4-5.5l9.4-5.5l11.8,3.4c0.2,0,0.3,0.1,0.5,0.1c0.7,0,1.4-0.5,1.6-1.2
				c0.3-0.9-0.3-1.8-1.2-2.1l-8.7-2.5l5.8-3.4l12.1,3.5c0.2,0,0.3,0.1,0.5,0.1c0.7,0,1.4-0.5,1.6-1.2c0.3-0.9-0.3-1.8-1.2-2.1
				l-9-2.6l7.4-4.3c0.8-0.5,1.1-1.5,0.6-2.3c-0.5-0.8-1.5-1.1-2.3-0.6l-6.9,4l2.6-8.8c0.3-0.9-0.3-1.8-1.2-2.1
				c-0.9-0.3-1.8,0.3-2.1,1.2l-3.6,12.2l-6,3.5l2.6-9c0.3-0.9-0.3-1.8-1.2-2.1c-0.9-0.3-1.8,0.3-2.1,1.2l-3.6,12.5l-8.9,5.2v-10.2
				l8.8-8.8c0.7-0.7,0.7-1.7,0-2.4c-0.7-0.7-1.7-0.7-2.4,0l-6.4,6.4v-6.9l8.7-8.7c0.7-0.7,0.7-1.7,0-2.4c-0.7-0.7-1.7-0.7-2.4,0
				l-6.4,6.3v-8.1c0-0.9-0.8-1.7-1.7-1.7c-0.9,0-1.7,0.8-1.7,1.7v8.2l-6.7-6.7c-0.7-0.7-1.7-0.7-2.4,0s-0.7,1.7,0,2.4l9.1,9.1v6.7
				l-6.6-6.7c-0.7-0.7-1.7-0.7-2.4,0c-0.7,0.7-0.7,1.7,0,2.4l9,9.1v10.6l-9.7-5.6l-3.1-12c-0.2-0.9-1.2-1.5-2.1-1.2
				c-0.9,0.2-1.5,1.2-1.2,2.1l2.2,8.8l-5.9-3.4l-3.1-12c-0.2-0.9-1.2-1.5-2.1-1.2c-0.9,0.2-1.5,1.2-1.2,2.1l2.2,8.8l-7.3-4.2
				c-0.8-0.5-1.8-0.2-2.3,0.6c-0.5,0.8-0.2,1.8,0.6,2.3l7.2,4.2l-9.1,2.3c-0.9,0.2-1.5,1.2-1.2,2.1c0.2,0.8,0.9,1.3,1.6,1.3
				c0.1,0,0.3,0,0.4-0.1l12.5-3.2l5.8,3.4l-9.1,2.3c-0.9,0.2-1.5,1.2-1.2,2.1c0.2,0.8,0.9,1.3,1.6,1.3c0.1,0,0.3,0,0.4-0.1l12.5-3.2
				l9.3,5.4l-9,5.3l-12.2-3.2c-0.9-0.2-1.8,0.3-2.1,1.2c-0.2,0.9,0.3,1.8,1.2,2.1l8.9,2.3l-6,3.5l-12-3.1c-0.9-0.2-1.8,0.3-2.1,1.2
				c-0.2,0.9,0.3,1.8,1.2,2.1l8.7,2.3l-7.4,4.3c-0.8,0.5-1.1,1.5-0.6,2.3c0.3,0.5,0.9,0.8,1.5,0.8c0.3,0,0.6-0.1,0.9-0.2l7.5-4.3
				l-2.4,9.2c-0.2,0.9,0.3,1.8,1.2,2.1c0.1,0,0.3,0.1,0.4,0.1c0.8,0,1.4-0.5,1.6-1.3l3.3-12.5l5.8-3.4l-2.4,9
				c-0.2,0.9,0.3,1.8,1.2,2.1c0.1,0,0.3,0.1,0.4,0.1c0.8,0,1.4-0.5,1.6-1.3l3.2-12.3l9.5-5.5v11.1l-9,9c-0.7,0.7-0.7,1.7,0,2.4
				c0.3,0.3,0.8,0.5,1.2,0.5c0.4,0,0.9-0.2,1.2-0.5l6.6-6.6v6.7l-9.1,9.1c-0.7,0.7-0.7,1.7,0,2.4c0.3,0.3,0.8,0.5,1.2,0.5
				c0.4,0,0.9-0.2,1.2-0.5l6.7-6.7v8.2c0,0.9,0.8,1.7,1.7,1.7c0.9,0,1.7-0.8,1.7-1.7v-8.2l6.4,6.4c0.7,0.7,1.7,0.7,2.4,0
				c0.7-0.7,0.7-1.7,0-2.4l-8.8-8.8V221l6.5,6.5c0.7,0.7,1.7,0.7,2.4,0c0.7-0.7,0.7-1.7,0-2.4l-8.9-8.8v-10.5l9,5.2l3.1,12
				c0.2,0.8,0.9,1.3,1.6,1.3c0.1,0,0.3,0,0.4-0.1c0.9-0.2,1.5-1.2,1.2-2.1l-2.2-8.8l5.9,3.4l3.1,12c0.2,0.8,0.9,1.3,1.6,1.3
				c0.1,0,0.3,0,0.4-0.1c0.9-0.2,1.5-1.2,1.2-2.1l-2.2-8.8l7.2,4.2c0.3,0.2,0.6,0.2,0.9,0.2c0.6,0,1.2-0.3,1.5-0.8
				c0.5-0.8,0.2-1.8-0.6-2.3l-7.1-4.1l9.1-2.3C297.3,213.7,297.9,212.8,297.6,211.8z"/>
			<path fill="#CBE6F7" d="M90.3,275.2c-0.2-0.7-0.8-1.1-1.5-0.9l-9.1,2.3l-4.3-2.5l6.7-1.7c0.7-0.2,1.1-0.8,0.9-1.5
				c-0.2-0.7-0.8-1.1-1.5-0.9l-9.1,2.3l-6.9-4l6.9-4l8.7,2.5c0.1,0,0.2,0.1,0.3,0.1c0.5,0,1-0.4,1.2-0.9c0.2-0.7-0.2-1.3-0.8-1.5
				l-6.4-1.9l4.3-2.5l8.9,2.6c0.1,0,0.2,0.1,0.3,0.1c0.5,0,1-0.4,1.2-0.9c0.2-0.7-0.2-1.3-0.8-1.5l-6.6-1.9l5.4-3.2
				c0.6-0.3,0.8-1.1,0.4-1.7c-0.3-0.6-1.1-0.8-1.7-0.4l-5.1,3l1.9-6.4c0.2-0.7-0.2-1.3-0.8-1.5c-0.7-0.2-1.3,0.2-1.5,0.8l-2.6,8.9
				l-4.4,2.5l1.9-6.6c0.2-0.7-0.2-1.3-0.8-1.5c-0.7-0.2-1.3,0.2-1.5,0.8l-2.7,9.1l-6.5,3.8v-7.4l6.5-6.4c0.5-0.5,0.5-1.3,0-1.8
				c-0.5-0.5-1.3-0.5-1.8,0l-4.7,4.7V250l6.4-6.4c0.5-0.5,0.5-1.3,0-1.8c-0.5-0.5-1.3-0.5-1.8,0l-4.7,4.6v-6c0-0.7-0.6-1.2-1.2-1.2
				c-0.7,0-1.2,0.6-1.2,1.2v6l-4.9-4.9c-0.5-0.5-1.3-0.5-1.8,0c-0.5,0.5-0.5,1.3,0,1.8l6.7,6.7v4.9l-4.9-4.9c-0.5-0.5-1.3-0.5-1.8,0
				c-0.5,0.5-0.5,1.3,0,1.8l6.6,6.7v7.8l-7.1-4.1l-2.2-8.8c-0.2-0.7-0.8-1.1-1.5-0.9c-0.7,0.2-1.1,0.8-0.9,1.5l1.6,6.4l-4.3-2.5
				l-2.2-8.8c-0.2-0.7-0.8-1.1-1.5-0.9c-0.7,0.2-1.1,0.8-0.9,1.5l1.6,6.5l-5.3-3.1c-0.6-0.3-1.4-0.1-1.7,0.4
				c-0.3,0.6-0.1,1.4,0.4,1.7l5.2,3.1l-6.7,1.7c-0.7,0.2-1.1,0.8-0.9,1.5c0.1,0.6,0.6,0.9,1.2,0.9c0.1,0,0.2,0,0.3,0l9.1-2.3
				l4.3,2.5l-6.7,1.7c-0.7,0.2-1.1,0.8-0.9,1.5c0.1,0.6,0.6,0.9,1.2,0.9c0.1,0,0.2,0,0.3,0l9.1-2.3l6.8,4l-6.6,3.9l-8.9-2.3
				c-0.7-0.2-1.3,0.2-1.5,0.9c-0.2,0.7,0.2,1.3,0.9,1.5l6.5,1.7l-4.4,2.6l-8.8-2.3c-0.7-0.2-1.3,0.2-1.5,0.9
				c-0.2,0.7,0.2,1.3,0.9,1.5l6.4,1.7l-5.4,3.2c-0.6,0.3-0.8,1.1-0.4,1.7c0.2,0.4,0.6,0.6,1.1,0.6c0.2,0,0.4-0.1,0.6-0.2l5.5-3.2
				l-1.8,6.7c-0.2,0.7,0.2,1.3,0.9,1.5c0.1,0,0.2,0,0.3,0c0.6,0,1.1-0.4,1.2-0.9l2.4-9.1l4.2-2.5l-1.7,6.6c-0.2,0.7,0.2,1.3,0.9,1.5
				c0.1,0,0.2,0,0.3,0c0.6,0,1.1-0.4,1.2-0.9l2.4-9l7-4.1v8.1l-6.6,6.6c-0.5,0.5-0.5,1.3,0,1.8c0.2,0.2,0.6,0.4,0.9,0.4
				c0.3,0,0.6-0.1,0.9-0.4l4.8-4.9v4.9l-6.7,6.7c-0.5,0.5-0.5,1.3,0,1.8c0.2,0.2,0.6,0.4,0.9,0.4c0.3,0,0.6-0.1,0.9-0.4l4.9-4.9v6
				c0,0.7,0.6,1.2,1.2,1.2c0.7,0,1.2-0.6,1.2-1.2v-6l4.7,4.7c0.5,0.5,1.3,0.5,1.8,0c0.5-0.5,0.5-1.3,0-1.8l-6.4-6.4v-5.1l4.7,4.7
				c0.5,0.5,1.3,0.5,1.8,0c0.5-0.5,0.5-1.3,0-1.8l-6.5-6.5v-7.7l6.6,3.8l2.2,8.8c0.1,0.6,0.6,0.9,1.2,0.9c0.1,0,0.2,0,0.3,0
				c0.7-0.2,1.1-0.8,0.9-1.5l-1.6-6.4l4.3,2.5l2.2,8.8c0.1,0.6,0.6,0.9,1.2,0.9c0.1,0,0.2,0,0.3,0c0.7-0.2,1.1-0.8,0.9-1.5l-1.6-6.5
				l5.3,3.1c0.2,0.1,0.4,0.2,0.6,0.2c0.4,0,0.8-0.2,1.1-0.6c0.3-0.6,0.1-1.4-0.4-1.7l-5.2-3l6.7-1.7C90,276.5,90.4,275.8,90.3,275.2
				z"/>
		</g>
	</g>
</g>
</svg>
