<?xml version="1.0" encoding="utf-8"?>
<!-- Generator: Adobe Illustrator 22.0.1, SVG Export Plug-In . SVG Version: 6.00 Build 0)  -->
<svg version="1.1" id="레이어_1" xmlns="http://www.w3.org/2000/svg" xmlns:xlink="http://www.w3.org/1999/xlink" x="0px"
	 y="0px" viewBox="0 0 350 350" enable-background="new 0 0 350 350" xml:space="preserve">
<g>
	<g>
		<circle fill="#FF4106" cx="174.4" cy="169.1" r="167.3"/>
		<path fill="#F23300" d="M174.4,3.6c21.9,0,43.8,4.2,64.1,12.5c20.3,8.2,39.2,20.4,55,35.8c15.8,15.4,28.8,33.8,37.7,54.1
			c9,20.3,14,42.5,14.5,65c0.5,22.4-3.3,45.1-11.5,66.2c-8.3,21.1-20.7,40.6-36.6,57c-15.9,16.3-35.1,29.6-56.2,38.6
			c-10.6,4.5-21.6,7.9-32.8,10.2c-11.3,2.3-22.7,3.4-34.2,3.4c-22.9,0-45.9-4.6-67-13.6c-21.1-8.9-40.3-22.2-56.2-38.6
			c-15.9-16.3-28.3-35.9-36.6-57C6.4,216,2.6,193.3,3.1,170.9c0.5-22.4,5.5-44.6,14.5-65c8.9-20.4,21.9-38.8,37.7-54.1
			C71.1,36.4,90,24.2,110.3,16C130.6,7.8,152.5,3.5,174.4,3.6z M174.4,3.6c-11,0-21.9,1.1-32.6,3.3c-10.7,2.2-21.2,5.5-31.3,9.7
			c-20.1,8.5-38.4,21.2-53.6,36.8C41.8,69,30,87.7,22.1,107.8c-7.8,20.1-11.4,41.7-10.9,63.1c0.5,21.4,5.3,42.5,13.9,61.9
			c8.5,19.4,20.9,36.9,36,51.5c15.1,14.7,33,26.2,52.3,34c19.4,7.8,40.2,11.9,61.1,11.9c20.9,0,41.7-4,61.1-11.8
			c19.4-7.8,37.3-19.3,52.4-34c15.1-14.6,27.5-32.1,36-51.5c8.6-19.4,13.4-40.5,13.9-61.9c0.5-21.4-3.1-43-10.9-63.1
			C319,87.7,307.1,69,292,53.4c-15.2-15.6-33.4-28.3-53.6-36.8c-10.1-4.2-20.6-7.5-31.3-9.7C196.3,4.7,185.4,3.6,174.4,3.6z"/>
	</g>
	<g>
		<circle fill="#283B42" cx="123.2" cy="169.1" r="24.1"/>
		<g>
			<path fill="#283B42" d="M216.3,208.6c-25.2-10.7-53.6-10.7-78.8,0c-4.8,2.1-5.8,9.1-3.5,13.2c2.8,5,8.4,5.5,13.2,3.5
				c18.1-7.7,41.3-7.7,59.3,0c4.8,2.1,10.3,1.4,13.2-3.5C222.2,217.8,221.1,210.6,216.3,208.6L216.3,208.6z"/>
		</g>
		<g>
			<path fill="#283B42" d="M104.8,140.8c1.4,1,2.8,1.9,4.1,2.8c5.4,4,10.8,8,16.1,12.1c7.7,5.9,13.2,10.1,20.5,15.8
				c5.2,4,12,5,17.1,0c4.2-4.1,5.1-13.1,0-17.1c-8.9-6.9-17.7-13.8-26.7-20.6c-5.6-4.2-11.1-8.5-16.8-12.6c-4-2.9-7.9-6.2-13.2-6.3
				c-6.6-0.2-11.4,4.7-11.6,11.2C94,132.9,99.6,137.1,104.8,140.8z"/>
		</g>
		<circle fill="#283B42" cx="225.7" cy="169.1" r="24.1"/>
		<g>
			<path fill="#283B42" d="M244,140.8c-1.4,1-2.8,1.9-4.1,2.8c-5.4,4-10.8,8-16.1,12.1c-7.7,5.9-13.2,10.1-20.5,15.8
				c-5.2,4-12,5-17.1,0c-4.2-4.1-5.1-13.1,0-17.1c8.9-6.9,17.7-13.8,26.7-20.6c5.6-4.2,11.1-8.5,16.8-12.6c4-2.9,7.9-6.2,13.2-6.3
				c6.6-0.2,11.4,4.7,11.6,11.2C254.8,132.9,249.3,137.1,244,140.8z"/>
		</g>
	</g>
</g>
</svg>
