<?xml version="1.0" encoding="utf-8"?>
<!-- Generator: Adobe Illustrator 22.0.1, SVG Export Plug-In . SVG Version: 6.00 Build 0)  -->
<svg version="1.1" id="레이어_1" xmlns="http://www.w3.org/2000/svg" xmlns:xlink="http://www.w3.org/1999/xlink" x="0px"
	 y="0px" viewBox="0 0 192 350" enable-background="new 0 0 192 350" xml:space="preserve">
<g>
	<g id="Layer_2">
		<path fill="#E4F6F7" d="M182.6,247.7c0,46.9-38,84.9-84.9,84.9c-46.9,0-84.9-38-84.9-84.9C12.9,200.9,97.7,15,97.7,15
			S182.6,200.9,182.6,247.7z"/>
	</g>
	<g id="Layer_2_1_">
		<path fill="#FFFFFF" d="M97.7,332.6c-15.9,1-32.3-3-46.4-11.3c-7-4.1-13.5-9.3-19.1-15.3c-5.7-6-10.4-12.9-14.1-20.2
			c-1.8-3.7-3.4-7.5-4.8-11.5c-1.3-3.9-2.3-8-3-12.1c-0.7-4.1-1.2-8.2-1.3-12.4c-0.1-2.1,0-4.2,0.1-6.4c0-1.1,0.2-2.1,0.3-3.1
			l0.4-3.1c2.5-16.3,7.3-31.6,12.2-46.8c2.6-7.6,5.2-15.1,7.9-22.6c1.4-3.7,2.8-7.5,4.2-11.2c1.4-3.7,2.8-7.5,4.3-11.2
			c5.9-14.8,11.9-29.6,18.4-44.2c12.7-29.2,26.2-58.1,41-86.3C86.3,44.7,74.5,74.3,63,103.9c-11.4,29.6-22.8,59.3-32.8,89.3
			c-2.5,7.5-4.9,15-7,22.6c-2.1,7.5-4.1,15.2-5.4,22.7l-0.4,2.8c-0.1,0.9-0.3,1.9-0.3,2.8c-0.1,1.8-0.3,3.6-0.2,5.6
			c0,3.8,0.4,7.6,0.9,11.3c0.5,3.8,1.5,7.5,2.5,11.1c1.1,3.6,2.4,7.2,4,10.7c6.3,13.9,16.5,26.1,29.4,34.8
			C66.4,326.5,81.8,331.6,97.7,332.6z"/>
	</g>
	<g id="Layer_2_2_">
		<path fill="#FFFFFF" d="M168.1,231.6c2.8,11.1,1.9,23.2-1.7,34.5c-3.6,11.3-10.1,21.7-18.5,30.2c-8.4,8.5-18.9,14.9-30.2,18.5
			c-11.3,3.6-23.3,4.4-34.5,1.7c11.1-2.8,21.2-6.3,30.5-11.2c9.3-4.9,17.6-11,24.9-18.3c7.3-7.3,13.4-15.6,18.3-24.8
			C161.8,252.8,165.3,242.6,168.1,231.6z"/>
	</g>
</g>
</svg>
