<?xml version="1.0" encoding="utf-8"?>
<!-- Generator: Adobe Illustrator 22.0.1, SVG Export Plug-In . SVG Version: 6.00 Build 0)  -->
<svg version="1.1" id="레이어_1" xmlns="http://www.w3.org/2000/svg" xmlns:xlink="http://www.w3.org/1999/xlink" x="0px"
	 y="0px" viewBox="0 0 302.9 349.3" enable-background="new 0 0 302.9 349.3" xml:space="preserve">
<g>
	<g>
		<g>
			<path fill="#75462C" d="M64.3,202.9c14.3,21,25,124.7,26.3,137.7c15.4,2.4,33.2,4,45.2,4.7c-3.3-44.3-13.5-114.7-17.2-142.5H64.3
				V202.9z"/>
			<path fill="#75462C" d="M180.2,203.3c-3.7,27.8-10.1,97.8-13.3,142c11.9-0.7,32.2-2.4,47.3-4.8c1.3-12.7,11.7-116.7,26-137.7
				h-53.5L180.2,203.3z"/>
			<path fill="#663720" d="M19.5,202.9c15.3,18.7,26.6,116,26.6,116c-2.2,11.2,20,17.8,44.7,21.7c-1.3-13-12.2-116.7-26.5-137.7
				L19.5,202.9L19.5,202.9z"/>
			<path fill="#663720" d="M285.5,202.9h-45.3c-14.3,21-24.9,124.9-26.2,137.6c24.9-3.9,47.1-10.3,44.9-21.6
				C258.9,318.9,270.3,221.6,285.5,202.9z"/>
			<path fill="#663720" d="M118.5,202.9c3.7,27.8,12.8,98,16,142.3c10.7,0.7,17.9,0.8,17.9,0.8s7.4-0.2,18.2-0.9
				c3.3-44.3,12.3-114.5,16-142.2L118.5,202.9L118.5,202.9z"/>
		</g>
		<path fill="#632C1C" d="M164.3,49.4c-1.1,2.4-2.3,4.8-3.5,7.3c-1,2-1.8,3.7-1.2,6c2.7-0.2,4.2-3.2,5.2-5.7
			c5.5-13.9,11.2-27.7,16.6-41.6c0.7-1.7,2.9-4.5,2.6-6.3c-0.3-1.6-2.1-2.8-3.7-2.7c-2.9,0.3-1.7,2.7-2.4,4.5
			c-2.9,7.6-5.1,15.4-7.6,23.2C168.5,39.6,166.6,44.5,164.3,49.4z"/>
		<path fill="#FFFFFF" d="M34.7,158c0,0-38.9,9.5-26.5,40.4s30.6,11.1,52.6,25.8c22.1,14.7,54.3,46.9,94.5,26s29.7-7.3,67.8-9
			s75.8-1.7,75.8-45.3s-49.1-40.4-72.8-38C202.4,160.2,34.7,158,34.7,158z"/>
		<path fill="#FFFFFF" d="M80.7,114.2c0,0-49.2,7.2-48.7,45.1c0,0,82.1-6.8,119.4,26.6s130.8,23,118.3-31.2s-99.6-44.6-99.6-44.6
			L80.7,114.2z"/>
		<circle fill="#E52859" cx="151.5" cy="72.1" r="30"/>
		<path fill="#FFFFFF" d="M121.4,72.1c0,0-38.5,15.6-40.7,42.1c0,0,27.7-2.5,47,10s45.8,30,69.1,21.5s30.6-18.5,24.3-39.8
			s-43-31-58.9-21.4S119.7,82.1,121.4,72.1z"/>
		<path fill="#F2F0F1" d="M80.7,114.2c3.6-0.4,7.2-0.5,10.9-0.4c3.6,0.1,7.3,0.3,10.9,0.8c7.2,0.9,14.4,2.8,21.1,6
			c0.9,0.4,1.7,0.8,2.5,1.3l2.4,1.4l4.6,2.9c3.1,1.9,6.1,3.8,9.2,5.7c6.2,3.7,12.5,7.1,19.2,9.7c3.3,1.3,6.7,2.5,10.1,3.2
			c1.7,0.5,3.5,0.7,5.2,1.1c1.8,0.2,3.5,0.5,5.3,0.6c3.5,0.4,7.1,0.3,10.6,0.2c1.8-0.2,3.5-0.3,5.3-0.6c0.9-0.2,1.8-0.3,2.6-0.5
			l2.6-0.6c0.9-0.2,1.7-0.5,2.5-0.8s1.7-0.5,2.5-0.9c1.6-0.7,3.2-1.4,4.7-2.4c1.6-0.8,2.9-2,4.4-3c0.7-0.6,1.3-1.2,1.9-1.8l1-0.9
			l0.8-1c2.2-2.7,3.4-6.2,3.5-9.7c0.2-3.6-0.5-7.2-1.3-10.7c1.1,3.4,2.1,7,2.1,10.7c0.1,3.7-0.9,7.5-3.2,10.6l-0.9,1.1l-1,1
			c-0.7,0.7-1.3,1.4-2,2c-1.5,1.1-2.8,2.4-4.5,3.3c-3.1,2.1-6.6,3.5-10.1,4.6s-7.2,1.7-10.9,2.1c-3.7,0.2-7.4,0.4-11.1,0
			c-1.8-0.1-3.7-0.4-5.5-0.6c-1.8-0.4-3.6-0.6-5.4-1.1c-3.6-0.8-7.1-2-10.6-3.3c-6.8-2.8-13.3-6.3-19.5-10.1
			c-3.1-1.9-6.2-3.9-9.2-5.9l-4.5-3l-2.3-1.4c-0.8-0.5-1.5-0.9-2.3-1.3c-6.3-3.3-13.2-5.4-20.3-6.6
			C95.2,114.5,87.9,114.1,80.7,114.2z"/>
		<path fill="#F2F0F1" d="M32,159.3c5.8-0.7,11.6-1,17.4-1.2s11.6-0.2,17.5,0c11.7,0.4,23.3,1.5,34.8,3.8c5.8,1.1,11.5,2.5,17.1,4.3
			c5.6,1.7,11.1,3.9,16.5,6.5c5.3,2.6,10.4,5.8,15.1,9.6c2.4,2,4.4,3.8,6.7,5.4c1.2,0.8,2.3,1.6,3.5,2.4l3.6,2.1
			c9.9,5.4,21,8.6,32.3,10c5.7,0.7,11.4,1,17.1,0.9c5.7-0.2,11.4-0.8,17-2c5.6-1.1,11-2.9,16.2-5.2c5.1-2.4,10-5.5,13.9-9.6
			c4-4,7-9,8.5-14.5s1.5-11.4,0.6-17.1l0.8,4.3c0.3,1.4,0.3,2.9,0.4,4.4c0.1,2.9-0.1,5.9-0.8,8.8c-1.2,5.8-4.1,11.2-8,15.7
			c-4,4.5-8.9,8-14.2,10.7s-11,4.6-16.7,6c-11.5,2.8-23.5,3.2-35.3,1.9c-5.9-0.6-11.7-1.9-17.4-3.6c-5.7-1.7-11.2-3.9-16.5-6.8
			l-3.9-2.3c-1.3-0.8-2.5-1.7-3.7-2.6c-1.2-0.9-2.3-1.9-3.5-2.8l-3.3-2.8c-4.3-3.6-9.2-6.6-14.2-9.2c-10.1-5.2-21.2-8.6-32.4-11.1
			s-22.7-4-34.3-4.9C55.3,159.2,43.6,159,32,159.3z"/>
		<g>
			<path fill="#CDECFF" d="M41.1,175l-0.6,0.7c-0.4,0.4-1.1,0.5-1.5,0.1l-5.3-4.9c-0.4-0.4-0.5-1.1-0.1-1.5l0.6-0.7
				c0.4-0.4,1.1-0.5,1.5-0.1l5.3,4.9C41.5,173.9,41.5,174.6,41.1,175z"/>
			<path fill="#CDECFF" d="M130.7,208.3l-0.6,0.7c-0.4,0.4-1.1,0.5-1.5,0.1l-5.3-4.9c-0.4-0.4-0.5-1.1-0.1-1.5l0.6-0.7
				c0.4-0.4,1.1-0.5,1.5-0.1l5.3,4.9C131,207.2,131.1,207.8,130.7,208.3z"/>
			<path fill="#F46C80" d="M58.1,203.5l-0.7,0.5c-0.5,0.3-1.2,0.2-1.5-0.3l-4-6c-0.3-0.5-0.2-1.2,0.3-1.5l0.7-0.5
				c0.5-0.3,1.2-0.2,1.5,0.3l4,6C58.7,202.5,58.6,203.1,58.1,203.5z"/>
			<path fill="#F4C389" d="M67.5,180.7l-0.8-0.4c-0.5-0.3-0.7-1-0.4-1.5l3.6-6.3c0.3-0.5,1-0.7,1.5-0.4l0.8,0.4
				c0.5,0.3,0.7,1,0.4,1.5l-3.6,6.3C68.7,180.9,68,181,67.5,180.7z"/>
			<path fill="#F4C389" d="M26.9,201.5l-0.8-0.4c-0.5-0.3-0.7-1-0.4-1.5l3.6-6.3c0.3-0.5,1-0.7,1.5-0.4l0.8,0.4
				c0.5,0.3,0.7,1,0.4,1.5l-3.6,6.3C28.1,201.6,27.4,201.8,26.9,201.5z"/>
			<path fill="#F4C389" d="M161.1,166l-0.8-0.4c-0.5-0.3-0.7-1-0.4-1.5l3.6-6.3c0.3-0.5,1-0.7,1.5-0.4l0.8,0.4
				c0.5,0.3,0.7,1,0.4,1.5l-3.6,6.3C162.3,166.1,161.6,166.3,161.1,166z"/>
			<path fill="#CDECFF" d="M95.9,225.4l-0.6-0.6c-0.4-0.4-0.4-1.1,0-1.5l5.1-5.1c0.4-0.4,1.1-0.4,1.5,0l0.6,0.6
				c0.4,0.4,0.4,1.1,0,1.5l-5.1,5.1C97,225.8,96.3,225.8,95.9,225.4z"/>
			<path fill="#F46C80" d="M79.3,198.4l0.1-0.9c0-0.6,0.5-1,1.1-1l7.2,0.5c0.6,0,1,0.5,1,1.1l-0.1,0.9c0,0.6-0.5,1-1.1,1l-7.2-0.5
				C79.7,199.5,79.2,199,79.3,198.4z"/>
			<path fill="#F46C80" d="M175.9,180.3l0.1-0.9c0-0.6,0.5-1,1.1-1l7.2,0.5c0.6,0,1,0.5,1,1.1l-0.1,0.9c0,0.6-0.5,1-1.1,1l-7.2-0.5
				C176.3,181.4,175.8,180.9,175.9,180.3z"/>
			<path fill="#F46C80" d="M129.3,232.2l-0.7,0.5c-0.5,0.3-1.2,0.2-1.5-0.3l-4-6c-0.3-0.5-0.2-1.2,0.3-1.5l0.7-0.5
				c0.5-0.3,1.2-0.2,1.5,0.3l4,6C129.9,231.2,129.8,231.9,129.3,232.2z"/>
			<path fill="#F46C80" d="M261.3,215.3l-0.7,0.5c-0.5,0.3-1.2,0.2-1.5-0.3l-4-6c-0.3-0.5-0.2-1.2,0.3-1.5l0.7-0.5
				c0.5-0.3,1.2-0.2,1.5,0.3l4,6C261.9,214.3,261.8,214.9,261.3,215.3z"/>
			<path fill="#F46C80" d="M240.1,150.8l-0.7,0.5c-0.5,0.3-1.2,0.2-1.5-0.3l-4-6c-0.3-0.5-0.2-1.2,0.3-1.5l0.7-0.5
				c0.5-0.3,1.2-0.2,1.5,0.3l4,6C240.8,149.8,240.6,150.4,240.1,150.8z"/>
			<path fill="#F46C80" d="M199.3,119.6l-0.4-0.8c-0.2-0.5,0-1.2,0.5-1.4l6.6-2.9c0.5-0.2,1.2,0,1.4,0.5l0.4,0.8
				c0.2,0.5,0,1.2-0.5,1.4l-6.6,2.9C200.2,120.4,199.6,120.1,199.3,119.6z"/>
			<path fill="#F4C389" d="M105.4,187.1l-0.8-0.4c-0.5-0.3-0.7-1-0.4-1.5l3.6-6.3c0.3-0.5,1-0.7,1.5-0.4l0.8,0.4
				c0.5,0.3,0.7,1,0.4,1.5l-3.6,6.3C106.6,187.2,105.9,187.4,105.4,187.1z"/>
			<path fill="#CDECFF" d="M142.8,161.1l-0.6,0.7c-0.4,0.4-1.1,0.5-1.5,0.1l-5.3-4.9c-0.4-0.4-0.5-1.1-0.1-1.5l0.6-0.7
				c0.4-0.4,1.1-0.5,1.5-0.1l5.3,4.9C143.1,159.9,143.2,160.6,142.8,161.1z"/>
			<path fill="#F4C389" d="M76,136.8l-0.8-0.4c-0.5-0.3-0.7-1-0.4-1.5l3.6-6.3c0.3-0.5,1-0.7,1.5-0.4l0.8,0.4c0.5,0.3,0.7,1,0.4,1.5
				l-3.6,6.3C77.2,136.9,76.5,137.1,76,136.8z"/>
			<path fill="#F46C80" d="M91.5,148.4l-0.1-0.9c-0.1-0.6,0.4-1.1,1-1.2l7.2-0.7c0.6-0.1,1.1,0.4,1.2,1l0.1,0.9
				c0.1,0.6-0.4,1.1-1,1.2l-7.2,0.7C92,149.4,91.5,149,91.5,148.4z"/>
			<path fill="#F4C389" d="M117.4,140.5l-0.8,0.3c-0.6,0.2-1.2-0.1-1.4-0.7l-2.4-6.8c-0.2-0.6,0.1-1.2,0.7-1.4l0.8-0.3
				c0.6-0.2,1.2,0.1,1.4,0.7l2.4,6.8C118.3,139.7,118,140.3,117.4,140.5z"/>
			<path fill="#CDECFF" d="M184.3,129l-0.6,0.7c-0.4,0.4-1.1,0.5-1.5,0.1l-5.3-4.9c-0.4-0.4-0.5-1.1-0.1-1.5l0.6-0.7
				c0.4-0.4,1.1-0.5,1.5-0.1l5.3,4.9C184.7,127.9,184.7,128.5,184.3,129z"/>
			<path fill="#F46C80" d="M153.5,115l-0.1-0.9c-0.1-0.6,0.4-1.1,1-1.2l7.2-0.7c0.6-0.1,1.1,0.4,1.2,1l0.1,0.9
				c0.1,0.6-0.4,1.1-1,1.2l-7.2,0.7C154.1,116,153.6,115.5,153.5,115z"/>
			<path fill="#F4C389" d="M179.5,107l-0.8,0.3c-0.6,0.2-1.2-0.1-1.4-0.7l-2.4-6.8c-0.2-0.6,0.1-1.2,0.7-1.4l0.8-0.3
				c0.6-0.2,1.2,0.1,1.4,0.7l2.4,6.8C180.3,106.2,180,106.8,179.5,107z"/>
			<path fill="#F4C389" d="M123.4,99.9l-0.8,0.3c-0.6,0.2-1.2-0.1-1.4-0.7l-2.4-6.8c-0.2-0.6,0.1-1.2,0.7-1.4l0.8-0.3
				c0.6-0.2,1.2,0.1,1.4,0.7l2.4,6.8C124.3,99.1,124,99.7,123.4,99.9z"/>
			<path fill="#F4C389" d="M273.5,204.1l-0.8-0.4c-0.5-0.3-0.7-1-0.4-1.5l3.6-6.3c0.3-0.5,1-0.7,1.5-0.4l0.8,0.4
				c0.5,0.3,0.7,1,0.4,1.5l-3.6,6.3C274.7,204.2,274.1,204.4,273.5,204.1z"/>
			<path fill="#F4C389" d="M228.7,184.6l-0.8-0.4c-0.5-0.3-0.7-1-0.4-1.5l3.6-6.3c0.3-0.5,1-0.7,1.5-0.4l0.8,0.4
				c0.5,0.3,0.7,1,0.4,1.5l-3.6,6.3C229.8,184.7,229.2,184.9,228.7,184.6z"/>
			<path fill="#CDECFF" d="M221.3,221.9l-0.6,0.7c-0.4,0.4-1.1,0.5-1.5,0.1l-5.3-4.9c-0.4-0.4-0.5-1.1-0.1-1.5l0.6-0.7
				c0.4-0.4,1.1-0.5,1.5-0.1l5.3,4.9C221.7,220.8,221.7,221.5,221.3,221.9z"/>
			<path fill="#CDECFF" d="M181.4,224.7l-0.6-0.6c-0.4-0.4-0.4-1.1,0-1.5l5.1-5.1c0.4-0.4,1.1-0.4,1.5,0l0.6,0.6
				c0.4,0.4,0.4,1.1,0,1.5l-5.1,5.1C182.5,225.2,181.8,225.2,181.4,224.7z"/>
			<path fill="#CDECFF" d="M200,166.7l-0.6-0.6c-0.4-0.4-0.4-1.1,0-1.5l5.1-5.1c0.4-0.4,1.1-0.4,1.5,0l0.6,0.6
				c0.4,0.4,0.4,1.1,0,1.5l-5.1,5.1C201.1,167.1,200.4,167.1,200,166.7z"/>
			<path fill="#F4C389" d="M240.1,226l-0.8-0.4c-0.5-0.3-0.7-1-0.4-1.5l3.6-6.3c0.3-0.5,1-0.7,1.5-0.4l0.8,0.4
				c0.5,0.3,0.7,1,0.4,1.5l-3.6,6.3C241.2,226.1,240.6,226.3,240.1,226z"/>
			<path fill="#F4C389" d="M154.7,215.5l-0.8-0.4c-0.5-0.3-0.7-1-0.4-1.5l3.6-6.3c0.3-0.5,1-0.7,1.5-0.4l0.8,0.4
				c0.5,0.3,0.7,1,0.4,1.5l-3.6,6.3C155.9,215.7,155.2,215.8,154.7,215.5z"/>
		</g>
		<path fill="#EA4E7F" d="M131.4,58.3c0.1,2.1,1.2,4,3.4,5c2.3,1.1,5.2,0.4,6.8-1.5c0.9-1.1,1.4-2.5,2.3-3.6c2.3-3,6.4-3.7,10.1-4.2
			c1-0.2,2.1-0.3,3-0.9c0.9-0.5,1.6-1.6,1.5-2.6c-0.2-1.2-1.3-2-2.5-2.5c-7.5-3.5-18.1-1-23.2,5.7C131.9,55,131.3,56.7,131.4,58.3z"
			/>
		<path fill="#AD1242" d="M121.4,72.1c-0.1,1.4,0.4,2.8,1.1,4s1.7,2.2,2.7,3c2.1,1.8,4.6,3.1,7.1,4.2c5.1,2.1,10.6,3.4,16.1,3.3
			c2.7,0,5.5-0.3,8.1-1.1c1.3-0.4,2.6-0.8,3.8-1.4c1.1-0.6,2.5-1.4,3.9-1.9c5.6-2.2,11.6-2.2,17.3-1.4c-5.7,0.3-11.4,1-16.4,3.4
			c-1.2,0.6-2.3,1.3-3.7,2.1c-1.3,0.7-2.7,1.3-4.1,1.8c-2.9,0.9-5.9,1.3-8.8,1.4c-5.9,0-11.8-1.5-17-4.2c-2.6-1.4-5.1-3.1-7.1-5.2
			c-1-1.1-1.9-2.3-2.5-3.7C121.3,75.1,121.1,73.5,121.4,72.1z"/>
	</g>
</g>
</svg>
