<?xml version="1.0" encoding="utf-8"?>
<!-- Generator: Adobe Illustrator 22.0.1, SVG Export Plug-In . SVG Version: 6.00 Build 0)  -->
<svg version="1.1" id="레이어_1" xmlns="http://www.w3.org/2000/svg" xmlns:xlink="http://www.w3.org/1999/xlink" x="0px"
	 y="0px" viewBox="0 0 348.6 350" enable-background="new 0 0 348.6 350" xml:space="preserve">
<g>
	<g>
		<g>
			<path fill="#FDCE0D" d="M194.4,80l115-2.6c8.4-0.2,16.9-0.4,25.3-0.6c0,0.4,0,0.8-0.1,1.1c-41,32.1-81.9,64.2-122.9,96.3
				c0,0.4,0,0.8-0.1,1.2c18,0.6,36,1.2,55,1.9c-37.8,28-74.6,55.4-111.5,82.7c0,0.3,0,0.7,0.1,1c8.9-0.4,17.7-0.7,26.6-1.1
				c0.1,0.3,0.1,0.6,0.2,0.9c-36.8,27.7-73.6,55.4-110.4,83.1c-0.2-0.2-0.3-0.4-0.5-0.6c17.2-23.3,34.4-46.5,52.2-70.7
				c-9.4,1.1-17.9,2.1-27.2,3.2c25.2-30.1,49.7-59.4,74.9-89.6c-18.1-0.4-35.2-0.8-52.9-1.2L194.4,80z"/>
			<path fill="#FC9A10" d="M197.9,80.1c11.5-0.7,22.9-1.4,34.4-2c11.5-0.6,22.9-1.1,34.4-1.7l34.3-1.5l8.6-0.4l8.5,0l17.1,0.1
				l7.8,0.1l-7.2,5.9l-30.6,24.8l-30.6,24.6c-10.2,8.2-20.4,16.4-30.7,24.6L213.2,179l-0.7-7.8L240,172l27.5,1l10.6,0.4l-10,7.5
				l-27.9,20.9c-9.3,7-18.6,13.8-27.9,20.8l-27.9,20.7c-9.3,6.9-18.6,13.7-28,20.6l-0.6-6.2l26.7,0.2l8,0.1l-7.5,5.5l-27.8,20.3
				c-9.3,6.8-18.5,13.5-27.8,20.2c-18.5,13.5-37.1,26.8-55.8,40.1l0,0l0,0l-0.4-0.6l0.5,0.6l0,0c18.2-14.5,36.4-28.8,54.6-43
				c9.1-7.1,18.2-14.2,27.4-21.3l27.4-21.2l0.5,5.5l-26.8,0.5l-8.9,0.2l8.4-6.4c9.2-7.1,18.5-14.2,27.7-21.2l27.8-21.1
				c9.3-7,18.5-14.1,27.8-21.1l27.8-21l0.6,7.9l-27.5-0.8l-27.5-1l-10.1-0.4l9.4-7.5l30.8-24.3c10.2-8.1,20.5-16.1,30.8-24.2
				l30.8-24.2l30.9-24l0.5,5.9l-16.9-0.6l-8.5-0.3l-8.5,0l-34.1,0.1c-11.4,0-22.7,0-34.1-0.1C220.6,80.3,209.3,80.2,197.9,80.1z"/>
			<path fill="#FFDE52" d="M71.7,343.9l-0.5-0.6l0,0l0,0c8.4-12.1,16.9-24.1,25.4-36.1c4.2-6,8.5-12,12.8-18l12.8-17.9l1,3.4
				l-27.2,3.7l-5.2,0.7l4.1-5l18.6-22.6c6.2-7.5,12.4-15,18.6-22.5l18.7-22.4c6.2-7.5,12.5-14.9,18.7-22.4l1,5.1l-26.4-0.7
				l-26.4-0.9l-4.1-0.1l3-4.1l19.2-26c6.4-8.7,12.9-17.3,19.3-26c6.4-8.7,12.9-17.2,19.4-25.9c6.5-8.6,13-17.2,19.6-25.7
				c-6.1,9-12.3,17.9-18.4,26.9c-6.2,8.9-12.4,17.8-18.6,26.7c-6.2,8.9-12.4,17.8-18.7,26.6l-18.8,26.5l-1-4.2l26.5,0.3l26.5,0.5
				l5.2,0.1l-4.2,5c-6.2,7.5-12.4,15-18.7,22.4L135.3,233c-6.2,7.5-12.5,14.9-18.8,22.3l-18.9,22.2l-1.1-4.3l27.1-2.8l3.9-0.4
				l-2.9,3.8l-13.3,17.4c-4.4,5.8-8.9,11.6-13.3,17.4c-8.9,11.6-17.8,23.1-26.8,34.6l0,0L71.7,343.9z"/>
			<path fill="none" d="M155.3,260"/>
			<path fill="none" d="M211.8,174.2"/>
		</g>
		<g>
			<path fill="#FDCE0D" d="M59.8,39.9l123.2-25.5c9-1.9,18.1-3.8,27.1-5.6c0.1,0.4,0.2,0.8,0.3,1.2c-34.5,42.1-69,84.2-103.4,126.3
				c0.1,0.4,0.2,0.9,0.3,1.3c19.6-2.9,39.1-5.8,59.9-8.9c-32.3,37.2-63.8,73.4-95.2,109.6c0.1,0.4,0.3,0.7,0.4,1.1
				c9.4-2.1,18.9-4.3,28.3-6.4c0.2,0.3,0.3,0.6,0.5,1c-31.3,36.6-62.6,73.2-94,109.8c-0.2-0.2-0.5-0.4-0.7-0.5
				c11.5-28,23-56.1,35-85.2c-9.8,3-18.7,5.8-28.3,8.8c18.1-36.8,35.7-72.8,53.8-109.7c-19.6,3.2-38.2,6.1-57.4,9.2L59.8,39.9z"/>
			<path fill="#FC9A10" d="M63.6,39.3c12.2-3,24.3-6,36.5-8.9c12.2-2.9,24.4-5.7,36.5-8.6l36.6-8.4l9.1-2.1l9.2-1.7L210,6.4l8.4-1.5
				l-6,7.6l-25.5,32.3L161.2,77c-8.5,10.7-17,21.4-25.6,32.1l-25.7,32l-3.1-8.2l29.9-4.5l30-4.4l11.5-1.7l-8.5,9.9l-23.8,27.6
				c-7.9,9.2-15.9,18.3-23.8,27.5l-23.9,27.5c-7.9,9.2-16,18.2-23.9,27.4l-2.5-6.5l28.8-5.1l8.6-1.5l-6.4,7.3l-23.8,27
				c-7.9,9-15.9,18-23.9,26.9c-15.9,17.9-31.9,35.8-48,53.5l0,0l0,0l-0.7-0.6l0.7,0.5l0,0C22.3,324.8,37.6,306,53,287.3
				c7.7-9.4,15.4-18.7,23.1-28l23.2-27.9l2.2,5.8l-28.7,5.9l-9.6,2l7.1-8.4c7.8-9.3,15.6-18.7,23.5-28l23.6-27.9
				c7.9-9.3,15.7-18.6,23.6-27.8l23.7-27.7l3,8.2l-29.9,4.5l-30,4.4l-11,1.6l7.9-9.8l25.8-31.8c8.6-10.6,17.3-21.1,25.9-31.7
				l26-31.7l26.1-31.5l2.4,6.2l-18.4,2.7l-9.2,1.3l-9.2,1.7l-36.7,6.9c-12.3,2.2-24.5,4.5-36.8,6.7C88.2,35.1,75.9,37.2,63.6,39.3z"
				/>
			<path fill="#FFDE52" d="M7.1,343.7l-0.7-0.5l0,0l0,0c5.4-14.5,10.9-28.9,16.5-43.3c2.8-7.2,5.6-14.4,8.4-21.5l8.4-21.5l2.1,3.4
				l-28.2,9.3l-5.4,1.8l2.9-6.1l13.3-27.6c4.4-9.2,8.8-18.4,13.3-27.5l13.4-27.5c4.4-9.2,9-18.3,13.5-27.4l2.6,5.2l-28.7,4.5
				l-28.7,4.3l-4.4,0.7l2-5l12.9-31.4c4.3-10.5,8.7-20.9,13-31.3C37.6,91.8,42,81.4,46.4,71c4.4-10.4,8.9-20.7,13.4-31.1
				C55.9,50.6,52,61.3,48,72c-4,10.6-8,21.3-12,31.9c-4,10.6-8,21.3-12.1,31.9l-12.3,31.8l-2.4-4.3l28.6-4.9l28.7-4.7l5.6-0.9
				l-3,6.1c-4.5,9.1-8.9,18.3-13.4,27.4l-13.5,27.4c-4.5,9.1-9,18.2-13.6,27.3L15,268.2l-2.5-4.3l28.4-8.3l4.1-1.2l-2,4.6L34,280.1
				c-3,7-6,14.1-9.1,21.1c-6.1,14-12.2,28-18.5,42l0,0L7.1,343.7z"/>
			<path fill="none" d="M71.9,238.3"/>
			<path fill="none" d="M106.9,136.3"/>
		</g>
	</g>
</g>
</svg>
